G04*
G04 #@! TF.GenerationSoftware,Altium Limited,Altium Designer,26.7.1 (11)*
G04*
G04 Layer_Physical_Order=4*
G04 Layer_Color=16711680*
G04 Board_Origin=13100000|9600000*
%FSLAX44Y44*%
%MOMM*%
G71*
G04*
G04 #@! TF.SameCoordinates,315E0430-F018-45A6-B114-9BAE23A5CA95*
G04*
G04*
G04 #@! TF.FilePolarity,Positive*
G04*
G01*
G75*
%ADD15C,0.2540*%
%ADD16C,0.1500*%
%ADD27C,1.0000*%
%ADD62O,2.6000X1.0000*%
%ADD63O,1.8000X1.5000*%
%ADD64R,1.8000X1.5000*%
%ADD65C,1.5000*%
%ADD66O,1.2500X1.0500*%
%ADD67R,1.9000X1.4000*%
%ADD68R,1.0000X1.0000*%
%ADD69C,1.9000*%
%ADD70R,1.4000X1.4000*%
%ADD71C,1.4000*%
%ADD72R,1.5000X1.5000*%
%ADD73C,0.6000*%
%ADD74C,0.3000*%
%ADD75C,6.5000*%
%ADD76C,0.5000*%
%ADD77C,0.4000*%
%ADD78C,0.6600*%
%ADD79C,0.5000*%
%ADD80C,0.1900*%
%ADD81C,0.1750*%
%ADD83C,0.1800*%
%ADD86C,0.2600*%
%ADD89C,0.1818*%
%ADD93C,0.1900*%
%ADD94C,0.1818*%
G36*
X1115060Y743940D02*
Y655405D01*
X1079216D01*
X1078415Y656675D01*
X1078672Y658622D01*
X1078362Y660972D01*
X1077456Y663161D01*
X1076013Y665041D01*
X1074133Y666484D01*
X1073172Y666882D01*
Y690305D01*
X1073201Y691559D01*
X1073201D01*
X1072734Y695106D01*
X1071323Y698511D01*
X1069155Y701336D01*
X1069136Y701317D01*
X980862Y791161D01*
X979992Y792047D01*
X979992Y792085D01*
X979991Y792086D01*
X979289Y792717D01*
X979161Y792831D01*
X979059Y792917D01*
X948667Y818406D01*
X947815Y819120D01*
X947159Y820113D01*
X946884Y820227D01*
X946571Y820210D01*
X946262Y820492D01*
X942910Y823708D01*
X941999Y824589D01*
X941063Y825307D01*
X939334Y826633D01*
X935929Y828044D01*
X932274Y828525D01*
X932274Y828482D01*
X221234D01*
X218885Y828172D01*
X216695Y827265D01*
X214815Y825823D01*
X197129Y808137D01*
X196214Y807280D01*
X196201Y807270D01*
X195484Y806335D01*
X195087Y805945D01*
X169119Y772664D01*
X167918Y770622D01*
X167286Y768338D01*
X167267Y765968D01*
X167861Y763674D01*
X169030Y761612D01*
X170692Y759923D01*
X172734Y758722D01*
X175018Y758090D01*
X177388Y758071D01*
X179682Y758665D01*
X181744Y759834D01*
X183433Y761496D01*
X207846Y792784D01*
X208354Y793435D01*
X209338Y794123D01*
X209344Y794126D01*
X209697Y794829D01*
X210325Y795657D01*
X224994Y810326D01*
X930634D01*
X934356Y806754D01*
X934382Y806724D01*
X935057Y806125D01*
X935325Y805900D01*
X966108Y780084D01*
X966756Y779080D01*
X966756Y779080D01*
X967907Y778441D01*
X1055016Y689783D01*
Y660932D01*
X1055326Y658582D01*
X1056116Y656675D01*
X1055561Y655405D01*
X1029970D01*
X1028107Y655159D01*
X1026372Y654440D01*
X1024881Y653297D01*
X1023738Y651806D01*
X1023653Y651602D01*
X1022278D01*
X1022072Y652100D01*
X1021030Y653458D01*
X1019672Y654500D01*
X1018091Y655155D01*
X1016394Y655378D01*
X1014697Y655155D01*
X1013116Y654500D01*
X1011758Y653458D01*
X1010716Y652100D01*
X1010061Y650519D01*
X1009838Y648822D01*
X1010061Y647125D01*
X1010716Y645544D01*
X1011758Y644186D01*
X1013116Y643144D01*
X1014697Y642489D01*
X1016394Y642266D01*
X1018091Y642489D01*
X1019672Y643144D01*
X1021030Y644186D01*
X1021503Y644803D01*
X1022773Y644372D01*
Y631606D01*
X1021503Y631368D01*
X968398Y684474D01*
X966852Y685660D01*
X965052Y686405D01*
X963120Y686660D01*
X843534D01*
X841602Y686405D01*
X839802Y685660D01*
X838256Y684474D01*
X820984Y667202D01*
X819798Y665656D01*
X819053Y663856D01*
X818798Y661924D01*
Y643332D01*
X817528Y643079D01*
X816994Y644369D01*
X815712Y646040D01*
X814041Y647322D01*
X812094Y648128D01*
X810006Y648403D01*
X807918Y648128D01*
X805972Y647322D01*
X804300Y646040D01*
X803018Y644369D01*
X802212Y642422D01*
X801937Y640334D01*
X802212Y638246D01*
X803018Y636300D01*
X804300Y634628D01*
X805343Y633828D01*
X804912Y632558D01*
X793954D01*
X793701Y633828D01*
X794990Y634362D01*
X796662Y635644D01*
X797944Y637315D01*
X798750Y639262D01*
X799025Y641350D01*
X798750Y643438D01*
X797944Y645385D01*
X796662Y647056D01*
X794990Y648338D01*
X793044Y649144D01*
X790956Y649419D01*
X788868Y649144D01*
X786921Y648338D01*
X785250Y647056D01*
X783968Y645385D01*
X783162Y643438D01*
X782887Y641350D01*
X783162Y639262D01*
X783968Y637315D01*
X785250Y635644D01*
X786921Y634362D01*
X788211Y633828D01*
X787958Y632558D01*
X745744D01*
X743812Y632304D01*
X742012Y631558D01*
X740466Y630372D01*
X735649Y625554D01*
X734852Y625224D01*
X733180Y623942D01*
X731898Y622271D01*
X731092Y620324D01*
X730817Y618236D01*
X731092Y616148D01*
X731898Y614202D01*
X733180Y612530D01*
X734765Y611314D01*
X734394Y610418D01*
X734119Y608330D01*
X734394Y606242D01*
X734860Y605116D01*
Y599304D01*
X735115Y597372D01*
X735860Y595572D01*
X737046Y594026D01*
X820068Y511004D01*
Y496316D01*
X820322Y494384D01*
X821068Y492584D01*
X822254Y491038D01*
X838764Y474528D01*
X840310Y473342D01*
X842110Y472596D01*
X844042Y472342D01*
X901656D01*
X913694Y460304D01*
X915240Y459118D01*
X917040Y458372D01*
X918972Y458118D01*
X948690D01*
X950622Y458372D01*
X952422Y459118D01*
X953968Y460304D01*
X993822Y500158D01*
X1016394D01*
X1018326Y500412D01*
X1020126Y501158D01*
X1021672Y502344D01*
X1022791Y503803D01*
X1022937Y503894D01*
X1024265Y503968D01*
X1024881Y503165D01*
X1026372Y502022D01*
X1028107Y501303D01*
X1029970Y501057D01*
X1059982D01*
X1060775Y499787D01*
X1060516Y497822D01*
Y455626D01*
X1016693Y411803D01*
X1015250Y409923D01*
X1014344Y407733D01*
X1014034Y405384D01*
Y189434D01*
X933932Y109332D01*
X799408Y106612D01*
X797066Y106255D01*
X794895Y105304D01*
X793045Y103824D01*
X791640Y101915D01*
X790778Y99708D01*
X790516Y97353D01*
X790873Y95010D01*
X791824Y92839D01*
X793304Y90989D01*
X795213Y89584D01*
X797420Y88722D01*
X799775Y88460D01*
X934697Y91188D01*
X935963Y91208D01*
Y91208D01*
X939310Y91649D01*
X942716Y93059D01*
X945640Y95303D01*
X945610Y95334D01*
Y95334D01*
X1029531Y179255D01*
X1030974Y181135D01*
X1031880Y183325D01*
X1032190Y185674D01*
Y401624D01*
X1076013Y445447D01*
X1077456Y447327D01*
X1078362Y449516D01*
X1078672Y451866D01*
Y497822D01*
X1078413Y499787D01*
X1079206Y501057D01*
X1115060D01*
Y468376D01*
X1039368Y392684D01*
Y181102D01*
X866394Y8128D01*
X58928D01*
X4064Y62992D01*
Y743966D01*
X92710Y832612D01*
X1025878D01*
X1115060Y743940D01*
D02*
G37*
G36*
X958899Y670462D02*
X957609Y669928D01*
X955938Y668646D01*
X954656Y666974D01*
X953850Y665028D01*
X953575Y662940D01*
X953850Y660852D01*
X954656Y658905D01*
X955938Y657234D01*
X957609Y655952D01*
X959556Y655146D01*
X961644Y654871D01*
X963732Y655146D01*
X965678Y655952D01*
X967350Y657234D01*
X968632Y658905D01*
X969343Y660622D01*
X970611Y661149D01*
X1010069Y621692D01*
X1009542Y620422D01*
X999094D01*
Y609898D01*
X997955Y609336D01*
X997872Y609400D01*
X996291Y610055D01*
X994594Y610278D01*
X992897Y610055D01*
X991316Y609400D01*
X989958Y608358D01*
X988916Y607000D01*
X988261Y605419D01*
X988038Y603722D01*
X988261Y602025D01*
X988916Y600444D01*
X989958Y599086D01*
X991316Y598044D01*
X992897Y597389D01*
X994594Y597166D01*
X996291Y597389D01*
X997872Y598044D01*
X999230Y599086D01*
X1000272Y600444D01*
X1000927Y602025D01*
X1001150Y603722D01*
X1000927Y605419D01*
X1000623Y606152D01*
X1001472Y607422D01*
X1012094D01*
Y618367D01*
X1013364Y619167D01*
X1014462Y618713D01*
X1016394Y618458D01*
X1018326Y618713D01*
X1020126Y619458D01*
X1021503Y620515D01*
X1022773Y620206D01*
Y534972D01*
X1021503Y534541D01*
X1021030Y535158D01*
X1019672Y536200D01*
X1018091Y536855D01*
X1016394Y537078D01*
X1014697Y536855D01*
X1013116Y536200D01*
X1011758Y535158D01*
X1010716Y533800D01*
X1010061Y532219D01*
X1009838Y530522D01*
X1010061Y528825D01*
X1010716Y527244D01*
X1011758Y525886D01*
X1013116Y524844D01*
X1014697Y524189D01*
X1016394Y523966D01*
X1018091Y524189D01*
X1019672Y524844D01*
X1021030Y525886D01*
X1021503Y526503D01*
X1022773Y526072D01*
Y513338D01*
X1021503Y513029D01*
X1020126Y514086D01*
X1018326Y514832D01*
X1016394Y515086D01*
X990730D01*
X988798Y514832D01*
X986998Y514086D01*
X985452Y512900D01*
X971247Y498694D01*
X970044Y499287D01*
X970221Y500634D01*
X969946Y502722D01*
X969140Y504669D01*
X967858Y506340D01*
X966187Y507622D01*
X964240Y508428D01*
X962152Y508703D01*
X960064Y508428D01*
X958118Y507622D01*
X956446Y506340D01*
X955164Y504669D01*
X954358Y502722D01*
X954083Y500634D01*
X954358Y498546D01*
X955164Y496600D01*
X956446Y494928D01*
X958118Y493646D01*
X960064Y492840D01*
X962152Y492565D01*
X963499Y492742D01*
X964092Y491539D01*
X945598Y473046D01*
X928749D01*
X928666Y474316D01*
X929286Y474398D01*
X930458Y474552D01*
X932404Y475358D01*
X934076Y476640D01*
X935358Y478312D01*
X936164Y480258D01*
X936439Y482346D01*
X936164Y484434D01*
X935358Y486381D01*
X934076Y488052D01*
X932404Y489334D01*
X930458Y490140D01*
X928370Y490415D01*
X926282Y490140D01*
X924335Y489334D01*
X922664Y488052D01*
X921382Y486381D01*
X920576Y484434D01*
X920301Y482346D01*
X920576Y480258D01*
X921382Y478312D01*
X922664Y476640D01*
X924335Y475358D01*
X926282Y474552D01*
X927454Y474398D01*
X928074Y474316D01*
X927991Y473046D01*
X922064D01*
X910026Y485084D01*
X908480Y486270D01*
X906680Y487015D01*
X904748Y487270D01*
X847134D01*
X834996Y499408D01*
Y514096D01*
X834742Y516028D01*
X833996Y517828D01*
X832810Y519374D01*
X752074Y600110D01*
X752150Y600495D01*
X752499Y601480D01*
X753990Y602624D01*
X755272Y604296D01*
X756078Y606242D01*
X756353Y608330D01*
X756078Y610418D01*
X755272Y612365D01*
X753990Y614036D01*
X752318Y615318D01*
X750574Y616041D01*
X750214Y616723D01*
X750022Y617451D01*
X750150Y617630D01*
X821436D01*
X823368Y617884D01*
X825168Y618630D01*
X826714Y619816D01*
X831540Y624642D01*
X832726Y626188D01*
X833472Y627988D01*
X833726Y629920D01*
Y658832D01*
X846626Y671732D01*
X958646D01*
X958899Y670462D01*
D02*
G37*
%LPC*%
G36*
X556944Y785327D02*
X554072Y784949D01*
X551397Y783840D01*
X549099Y782077D01*
X547336Y779779D01*
X546227Y777104D01*
X545849Y774232D01*
X546227Y771360D01*
X547336Y768685D01*
X549099Y766387D01*
X551397Y764623D01*
X554072Y763515D01*
X556944Y763137D01*
X559816Y763515D01*
X562491Y764623D01*
X564789Y766387D01*
X566553Y768685D01*
X567661Y771360D01*
X568039Y774232D01*
X567661Y777104D01*
X566553Y779779D01*
X564789Y782077D01*
X562491Y783840D01*
X559816Y784949D01*
X556944Y785327D01*
D02*
G37*
G36*
X521944D02*
X519072Y784949D01*
X516396Y783840D01*
X514099Y782077D01*
X512336Y779779D01*
X511227Y777104D01*
X510849Y774232D01*
X511227Y771360D01*
X512336Y768685D01*
X514099Y766387D01*
X516396Y764623D01*
X519072Y763515D01*
X521944Y763137D01*
X524816Y763515D01*
X527491Y764623D01*
X529789Y766387D01*
X531553Y768685D01*
X532661Y771360D01*
X533039Y774232D01*
X532661Y777104D01*
X531553Y779779D01*
X529789Y782077D01*
X527491Y783840D01*
X524816Y784949D01*
X521944Y785327D01*
D02*
G37*
G36*
X486944D02*
X484072Y784949D01*
X481396Y783840D01*
X479099Y782077D01*
X477336Y779779D01*
X476227Y777104D01*
X475849Y774232D01*
X476227Y771360D01*
X477336Y768685D01*
X479099Y766387D01*
X481396Y764623D01*
X484072Y763515D01*
X486944Y763137D01*
X489816Y763515D01*
X492491Y764623D01*
X494789Y766387D01*
X496553Y768685D01*
X497661Y771360D01*
X498039Y774232D01*
X497661Y777104D01*
X496553Y779779D01*
X494789Y782077D01*
X492491Y783840D01*
X489816Y784949D01*
X486944Y785327D01*
D02*
G37*
G36*
X451944D02*
X449072Y784949D01*
X446397Y783840D01*
X444099Y782077D01*
X442336Y779779D01*
X441227Y777104D01*
X440849Y774232D01*
X441227Y771360D01*
X442336Y768685D01*
X444099Y766387D01*
X446397Y764623D01*
X449072Y763515D01*
X451944Y763137D01*
X454816Y763515D01*
X457491Y764623D01*
X459789Y766387D01*
X461553Y768685D01*
X462661Y771360D01*
X463039Y774232D01*
X462661Y777104D01*
X461553Y779779D01*
X459789Y782077D01*
X457491Y783840D01*
X454816Y784949D01*
X451944Y785327D01*
D02*
G37*
G36*
X84050Y732470D02*
X81050D01*
X78700Y732160D01*
X76511Y731254D01*
X74631Y729811D01*
X73189Y727931D01*
X72282Y725742D01*
X71972Y723392D01*
X72109Y722356D01*
X70906Y721763D01*
X67493Y725176D01*
X67418Y725742D01*
X66511Y727931D01*
X65069Y729811D01*
X63189Y731254D01*
X60999Y732160D01*
X58650Y732470D01*
X55650D01*
X53300Y732160D01*
X51111Y731254D01*
X49231Y729811D01*
X47789Y727931D01*
X46882Y725742D01*
X46572Y723392D01*
X46882Y721042D01*
X47789Y718853D01*
X49231Y716973D01*
X51111Y715530D01*
X53300Y714624D01*
X55650Y714314D01*
X57101D01*
X62126Y709289D01*
Y707437D01*
X61307Y706890D01*
X60856Y706779D01*
X58650Y707070D01*
X55650D01*
X53300Y706760D01*
X51111Y705854D01*
X49231Y704411D01*
X47789Y702531D01*
X46882Y700341D01*
X46572Y697992D01*
X46882Y695642D01*
X47789Y693453D01*
X49231Y691573D01*
X51111Y690130D01*
X53300Y689224D01*
X55650Y688914D01*
X57101D01*
X62126Y683889D01*
Y668460D01*
X62382Y666515D01*
X62821Y665453D01*
X63132Y664703D01*
X64327Y663146D01*
X74297Y653176D01*
X73189Y651731D01*
X72282Y649541D01*
X71972Y647192D01*
X72282Y644843D01*
X73189Y642653D01*
X74631Y640773D01*
X76511Y639330D01*
X78700Y638424D01*
X81050Y638114D01*
X81286D01*
X88219Y631181D01*
X87500Y630104D01*
X86399Y630560D01*
X84050Y630870D01*
X81050D01*
X78700Y630560D01*
X76511Y629654D01*
X74631Y628211D01*
X73189Y626331D01*
X72282Y624142D01*
X71972Y621792D01*
X72282Y619442D01*
X73189Y617253D01*
X74631Y615373D01*
X76511Y613931D01*
X78700Y613024D01*
X81050Y612714D01*
X82501D01*
X99819Y595397D01*
X101375Y594202D01*
X103187Y593452D01*
X105132Y593196D01*
X141644D01*
X141765Y593102D01*
X143954Y592196D01*
X146304Y591886D01*
X148653Y592196D01*
X150843Y593102D01*
X152723Y594545D01*
X154165Y596425D01*
X154994Y598425D01*
X155104Y598477D01*
X155105Y598477D01*
X156332Y598106D01*
X157239Y595917D01*
X158681Y594037D01*
X160561Y592594D01*
X162750Y591688D01*
X165100Y591378D01*
X167449Y591688D01*
X169424Y592505D01*
X295675Y466254D01*
X295917Y465672D01*
X297111Y464115D01*
X399535Y361691D01*
X398941Y360488D01*
X398018Y360610D01*
X395538Y360284D01*
X393227Y359326D01*
X391242Y357803D01*
X389720Y355819D01*
X388763Y353508D01*
X388436Y351028D01*
X388763Y348548D01*
X389720Y346237D01*
X391242Y344253D01*
X393227Y342730D01*
X395538Y341772D01*
X398018Y341446D01*
X400498Y341772D01*
X402809Y342730D01*
X404794Y344253D01*
X406316Y346237D01*
X407273Y348548D01*
X407600Y351028D01*
X407478Y351951D01*
X408681Y352545D01*
X482960Y278266D01*
Y248129D01*
X482176Y247107D01*
X481218Y244796D01*
X480892Y242316D01*
X481218Y239836D01*
X482176Y237525D01*
X483699Y235541D01*
X485683Y234018D01*
X487994Y233060D01*
X490474Y232734D01*
X492954Y233060D01*
X495265Y234018D01*
X497249Y235541D01*
X498772Y237525D01*
X499729Y239836D01*
X500056Y242316D01*
X499964Y243015D01*
X500862Y243913D01*
X500888Y243910D01*
X503368Y244237D01*
X505679Y245194D01*
X507663Y246716D01*
X509186Y248701D01*
X510144Y251012D01*
X510470Y253492D01*
X510144Y255972D01*
X509186Y258283D01*
X507663Y260268D01*
X505679Y261790D01*
X503368Y262747D01*
X500888Y263074D01*
X499258Y262859D01*
X497988Y263860D01*
Y281379D01*
X497835Y282541D01*
X498028Y283471D01*
X498872Y283890D01*
X500574Y284114D01*
X502885Y285072D01*
X504869Y286595D01*
X506392Y288579D01*
X507350Y290890D01*
X507479Y291874D01*
X515563Y299958D01*
X515921Y299837D01*
X516816Y299415D01*
X517050Y298848D01*
Y267971D01*
X515540Y267345D01*
X513869Y266063D01*
X512587Y264392D01*
X511781Y262446D01*
X511506Y260357D01*
X511781Y258269D01*
X512060Y257593D01*
Y220427D01*
X499808Y208174D01*
X440914D01*
X440238Y208454D01*
X438150Y208729D01*
X436062Y208454D01*
X434115Y207648D01*
X432444Y206366D01*
X431162Y204694D01*
X430356Y202748D01*
X430081Y200660D01*
X430356Y198572D01*
X431162Y196625D01*
X432444Y194954D01*
X434115Y193672D01*
X436062Y192866D01*
X438150Y192591D01*
X440238Y192866D01*
X440914Y193146D01*
X490740D01*
X491226Y191972D01*
X448742Y149488D01*
X420104D01*
X418159Y149232D01*
X416347Y148482D01*
X414791Y147288D01*
X400501Y132998D01*
X399826Y132718D01*
X398154Y131436D01*
X396872Y129764D01*
X396066Y127818D01*
X395791Y125730D01*
X396066Y123642D01*
X396872Y121695D01*
X398154Y120024D01*
X399826Y118742D01*
X401772Y117936D01*
X403342Y117729D01*
X404504Y116214D01*
X406175Y114932D01*
X408122Y114126D01*
X410210Y113851D01*
X412298Y114126D01*
X414244Y114932D01*
X415916Y116214D01*
X417198Y117886D01*
X417478Y118561D01*
X426022Y127106D01*
X458614D01*
X460559Y127362D01*
X461620Y127802D01*
X462371Y128112D01*
X463927Y129307D01*
X555268Y220647D01*
X556441Y220161D01*
Y132334D01*
X556695Y130409D01*
X557438Y128615D01*
X558620Y127074D01*
X589810Y95884D01*
X590166Y95026D01*
X591448Y93354D01*
X593120Y92072D01*
X595066Y91266D01*
X597154Y90991D01*
X599242Y91266D01*
X601189Y92072D01*
X602860Y93354D01*
X604142Y95026D01*
X604948Y96972D01*
X605223Y99060D01*
X604948Y101148D01*
X604142Y103095D01*
X602860Y104766D01*
X601189Y106048D01*
X600330Y106404D01*
X571319Y135415D01*
Y179208D01*
X572458Y179769D01*
X572546Y179702D01*
X574492Y178896D01*
X576580Y178621D01*
X578668Y178896D01*
X580615Y179702D01*
X582286Y180984D01*
X583568Y182656D01*
X584374Y184602D01*
X584649Y186690D01*
X584374Y188778D01*
X583568Y190725D01*
X582286Y192396D01*
X580615Y193678D01*
X579756Y194034D01*
X578939Y194851D01*
Y240030D01*
X578685Y241955D01*
X577942Y243749D01*
X576760Y245290D01*
X564873Y257176D01*
X564518Y258034D01*
X563236Y259706D01*
X561564Y260988D01*
X559618Y261794D01*
X557530Y262069D01*
X555442Y261794D01*
X553495Y260988D01*
X551824Y259706D01*
X550542Y258034D01*
X549736Y256088D01*
X549461Y254000D01*
X549736Y251912D01*
X550542Y249965D01*
X551824Y248294D01*
X553495Y247012D01*
X554067Y246775D01*
X554240Y246141D01*
X554030Y245184D01*
X553094Y244466D01*
X551812Y242794D01*
X551006Y240848D01*
X550731Y238760D01*
X550893Y237526D01*
X546942Y233575D01*
X545769Y234061D01*
Y240893D01*
X546124Y241752D01*
X546399Y243840D01*
X546124Y245928D01*
X545318Y247875D01*
X544036Y249546D01*
X542365Y250828D01*
X540418Y251634D01*
X538330Y251909D01*
X536242Y251634D01*
X534296Y250828D01*
X533349Y250102D01*
X532079Y250728D01*
Y298898D01*
X549516Y316336D01*
X575086D01*
X575762Y316056D01*
X577850Y315781D01*
X579938Y316056D01*
X581884Y316862D01*
X583556Y318144D01*
X584838Y319816D01*
X585644Y321762D01*
X585919Y323850D01*
X585644Y325938D01*
X584838Y327884D01*
X583822Y329209D01*
X584198Y330540D01*
X584367Y330562D01*
X585429Y331002D01*
X586179Y331312D01*
X587735Y332507D01*
X612597Y357368D01*
X613608Y356950D01*
X615696Y356675D01*
X617784Y356950D01*
X619730Y357756D01*
X621402Y359038D01*
X622684Y360709D01*
X623490Y362656D01*
X623765Y364744D01*
X623490Y366832D01*
X623072Y367843D01*
X697463Y442235D01*
X698658Y443791D01*
X699408Y445603D01*
X699664Y447548D01*
Y459422D01*
X703137Y462894D01*
X746506D01*
X748451Y463150D01*
X749512Y463590D01*
X750263Y463900D01*
X751819Y465095D01*
X761979Y475255D01*
X763174Y476811D01*
X763924Y478623D01*
X764180Y480568D01*
Y536731D01*
X764964Y537753D01*
X765921Y540064D01*
X766248Y542544D01*
X765921Y545024D01*
X764964Y547335D01*
X763441Y549319D01*
X762094Y550354D01*
X762170Y550453D01*
X763128Y552764D01*
X763454Y555244D01*
X763128Y557724D01*
X762170Y560035D01*
X760648Y562020D01*
X758663Y563542D01*
X756352Y564500D01*
X753872Y564826D01*
X751392Y564500D01*
X749081Y563542D01*
X747096Y562020D01*
X745574Y560035D01*
X744616Y557724D01*
X744448Y556447D01*
X743139Y555138D01*
X728982D01*
X728667Y555498D01*
X728392Y557586D01*
X727586Y559533D01*
X726304Y561204D01*
X724632Y562486D01*
X722686Y563292D01*
X720598Y563567D01*
X718510Y563292D01*
X716563Y562486D01*
X714892Y561204D01*
X713610Y559533D01*
X713330Y558857D01*
X704970Y550497D01*
X703703Y550580D01*
X703698Y550588D01*
X702027Y551870D01*
X700080Y552676D01*
X697992Y552951D01*
X695904Y552676D01*
X693958Y551870D01*
X692286Y550588D01*
X691004Y548917D01*
X690724Y548241D01*
X644005Y501521D01*
X643299Y501567D01*
X641315Y503090D01*
X639004Y504048D01*
X636524Y504374D01*
X634044Y504048D01*
X631733Y503090D01*
X630542Y502176D01*
X629751Y502159D01*
X629367Y502099D01*
X629270Y502086D01*
X628809Y502090D01*
X628803Y502090D01*
X628790Y502086D01*
X628777Y502086D01*
X616366Y500515D01*
X615807Y501656D01*
X630327Y516175D01*
X631668Y515720D01*
X631841Y514410D01*
X632798Y512099D01*
X634320Y510115D01*
X636305Y508592D01*
X638616Y507635D01*
X641096Y507308D01*
X643576Y507635D01*
X645887Y508592D01*
X647871Y510115D01*
X649394Y512099D01*
X650351Y514410D01*
X650678Y516890D01*
X650351Y519370D01*
X649394Y521681D01*
X647871Y523666D01*
X645887Y525188D01*
X643576Y526146D01*
X643220Y526192D01*
X642447Y527200D01*
X642561Y528066D01*
X642286Y530154D01*
X641480Y532100D01*
X640198Y533772D01*
X638526Y535054D01*
X636580Y535860D01*
X635455Y536008D01*
Y569233D01*
X641682Y575461D01*
X642844Y575942D01*
X644516Y577224D01*
X645798Y578895D01*
X646604Y580842D01*
X646879Y582930D01*
X646604Y585018D01*
X645798Y586964D01*
X644516Y588636D01*
X644749Y590057D01*
X646141Y590634D01*
X648126Y592156D01*
X649648Y594141D01*
X650605Y596452D01*
X650932Y598932D01*
X650605Y601412D01*
X649648Y603723D01*
X648126Y605708D01*
X646141Y607230D01*
X643830Y608187D01*
X641350Y608514D01*
X640693Y608428D01*
X640293Y609656D01*
X641722Y610752D01*
X643004Y612424D01*
X643810Y614370D01*
X644085Y616458D01*
X643810Y618546D01*
X643004Y620493D01*
X641722Y622164D01*
X641078Y622658D01*
X641230Y623598D01*
X641399Y624012D01*
X643601Y624924D01*
X645585Y626446D01*
X647108Y628431D01*
X648065Y630742D01*
X648392Y633222D01*
X648065Y635702D01*
X647108Y638013D01*
X645585Y639997D01*
X643601Y641520D01*
X641290Y642477D01*
X638810Y642804D01*
X636330Y642477D01*
X634019Y641520D01*
X632034Y639997D01*
X630512Y638013D01*
X629554Y635702D01*
X629228Y633222D01*
X629554Y630742D01*
X630512Y628431D01*
X632034Y626446D01*
X633392Y625405D01*
X633201Y623951D01*
X631982Y623446D01*
X630310Y622164D01*
X629028Y620493D01*
X628546Y619330D01*
X616875Y607659D01*
X615713Y606144D01*
X614983Y604381D01*
X614733Y602488D01*
Y536683D01*
X559684Y481633D01*
X558939Y481535D01*
X557176Y480805D01*
X555661Y479643D01*
X549070Y473051D01*
X547907Y472570D01*
X546236Y471288D01*
X544954Y469617D01*
X544148Y467670D01*
X543873Y465582D01*
X544148Y463494D01*
X544954Y461548D01*
X546236Y459876D01*
X547907Y458594D01*
X549854Y457788D01*
X551942Y457513D01*
X554030Y457788D01*
X555976Y458594D01*
X556999Y459378D01*
X557129Y459278D01*
X559076Y458472D01*
X561164Y458197D01*
X561948Y458300D01*
X562451Y457085D01*
X561169Y456101D01*
X559646Y454117D01*
X558689Y451806D01*
X558362Y449326D01*
X558689Y446846D01*
X559646Y444535D01*
X561169Y442551D01*
X563153Y441028D01*
X565464Y440070D01*
X567944Y439744D01*
X570424Y440070D01*
X572735Y441028D01*
X574720Y442551D01*
X576242Y444535D01*
X577200Y446846D01*
X577368Y448123D01*
X597331Y468086D01*
X598680Y467640D01*
X599310Y466119D01*
X600592Y464448D01*
X602263Y463166D01*
X604210Y462360D01*
X606298Y462085D01*
X608386Y462360D01*
X609062Y462640D01*
X613168D01*
X613654Y461466D01*
X584389Y432202D01*
X583662D01*
X582986Y432482D01*
X580898Y432757D01*
X578810Y432482D01*
X576864Y431676D01*
X575192Y430394D01*
X573910Y428722D01*
X573104Y426776D01*
X572829Y424688D01*
X573104Y422600D01*
X573910Y420653D01*
X575192Y418982D01*
X576864Y417700D01*
X578810Y416894D01*
X580898Y416619D01*
X582986Y416894D01*
X583662Y417174D01*
X587502D01*
X589447Y417430D01*
X590508Y417869D01*
X591259Y418180D01*
X592815Y419375D01*
X603307Y429867D01*
X604510Y429273D01*
X604247Y427276D01*
X604574Y424796D01*
X605531Y422485D01*
X607054Y420501D01*
X607096Y419857D01*
X601661Y414422D01*
X574104D01*
X518393Y470133D01*
X516837Y471328D01*
X516087Y471638D01*
X515025Y472078D01*
X513080Y472334D01*
X403831D01*
X402809Y473118D01*
X400498Y474076D01*
X398018Y474402D01*
X395538Y474076D01*
X393227Y473118D01*
X391242Y471595D01*
X389720Y469611D01*
X388763Y467300D01*
X388436Y464820D01*
X388763Y462340D01*
X389720Y460029D01*
X391242Y458045D01*
X393227Y456522D01*
X395538Y455564D01*
X398018Y455238D01*
X400498Y455564D01*
X402809Y456522D01*
X403831Y457306D01*
X509967D01*
X565679Y401595D01*
X567235Y400400D01*
X567985Y400089D01*
X569047Y399650D01*
X570992Y399394D01*
X603987D01*
Y399377D01*
X606428Y399699D01*
X608702Y400641D01*
X609597Y401328D01*
X610629Y402119D01*
Y402119D01*
X611514Y403021D01*
X647015Y438522D01*
X647917Y439407D01*
X647917D01*
X648708Y440438D01*
X648708Y440438D01*
X649395Y441334D01*
X649426Y441408D01*
X650337Y443608D01*
X650659Y446049D01*
X650642D01*
Y451500D01*
X651729Y451950D01*
X653714Y453473D01*
X655236Y455457D01*
X656193Y457768D01*
X656520Y460248D01*
X656193Y462728D01*
X655236Y465039D01*
X654285Y466279D01*
X656177Y468171D01*
X657304Y469639D01*
X689558Y501894D01*
X690826Y501811D01*
X691470Y500970D01*
X693455Y499448D01*
X695766Y498490D01*
X698246Y498164D01*
X700726Y498490D01*
X703037Y499448D01*
X705022Y500970D01*
X705387Y501448D01*
X706658D01*
X707218Y500717D01*
X709203Y499194D01*
X711514Y498237D01*
X713994Y497910D01*
X716474Y498237D01*
X718785Y499194D01*
X720770Y500717D01*
X722292Y502701D01*
X723250Y505012D01*
X723576Y507492D01*
X723250Y509972D01*
X722292Y512283D01*
X720770Y514268D01*
X718785Y515790D01*
X716474Y516748D01*
X713994Y517074D01*
X711514Y516748D01*
X709203Y515790D01*
X707218Y514268D01*
X706852Y513790D01*
X705582D01*
X705022Y514521D01*
X704181Y515166D01*
X704098Y516433D01*
X727775Y540110D01*
X739991D01*
X740744Y538840D01*
X740044Y537150D01*
X739718Y534670D01*
X740044Y532190D01*
X741002Y529879D01*
X741786Y528857D01*
Y506335D01*
X729629Y494178D01*
X692150D01*
X690205Y493922D01*
X688393Y493172D01*
X686837Y491977D01*
X678328Y483468D01*
X677133Y481912D01*
X676823Y481161D01*
X676383Y480100D01*
X676127Y478155D01*
Y449771D01*
X611059Y384704D01*
X602742D01*
X600797Y384448D01*
X599735Y384008D01*
X598985Y383698D01*
X597429Y382503D01*
X569658Y354732D01*
X531876D01*
X529931Y354476D01*
X528119Y353726D01*
X526563Y352531D01*
X486595Y312564D01*
X484934Y312699D01*
X484041Y313862D01*
X482057Y315384D01*
X479746Y316341D01*
X477299Y316664D01*
X397201Y396762D01*
X397762Y397901D01*
X398272Y397834D01*
X400752Y398161D01*
X403063Y399118D01*
X405047Y400640D01*
X406570Y402625D01*
X407528Y404936D01*
X407854Y407416D01*
X407528Y409896D01*
X406570Y412207D01*
X405047Y414192D01*
X403063Y415714D01*
X400752Y416671D01*
X398272Y416998D01*
X395792Y416671D01*
X393481Y415714D01*
X391497Y414192D01*
X389974Y412207D01*
X389016Y409896D01*
X388690Y407416D01*
X388757Y406906D01*
X387618Y406345D01*
X105067Y688895D01*
X104595Y689258D01*
X105026Y690528D01*
X395434D01*
X416208Y669754D01*
Y656858D01*
X414938Y656009D01*
X413829Y656468D01*
X411480Y656778D01*
X409131Y656468D01*
X406941Y655562D01*
X405061Y654119D01*
X403619Y652239D01*
X402712Y650050D01*
X402402Y647700D01*
X402712Y645350D01*
X403619Y643161D01*
X405061Y641281D01*
X406941Y639838D01*
X409131Y638932D01*
X411480Y638622D01*
X413829Y638932D01*
X414938Y639391D01*
X416208Y638542D01*
Y586232D01*
X416463Y584300D01*
X417208Y582500D01*
X418394Y580954D01*
X447958Y551390D01*
Y514696D01*
X447628Y513898D01*
X447353Y511810D01*
X447628Y509722D01*
X448434Y507775D01*
X449716Y506104D01*
X451387Y504822D01*
X453334Y504016D01*
X455422Y503741D01*
X457510Y504016D01*
X459456Y504822D01*
X460389Y505538D01*
X462224Y504778D01*
X464312Y504503D01*
X466400Y504778D01*
X468346Y505584D01*
X470018Y506866D01*
X471300Y508537D01*
X472106Y510484D01*
X472381Y512572D01*
X472106Y514660D01*
X471776Y515458D01*
Y552958D01*
X471521Y554890D01*
X470776Y556690D01*
X469590Y558236D01*
X435708Y592118D01*
Y676402D01*
X435453Y678334D01*
X434708Y680134D01*
X433522Y681680D01*
X406598Y708604D01*
X405052Y709790D01*
X403252Y710536D01*
X401320Y710790D01*
X107208D01*
X92903Y725094D01*
X92818Y725742D01*
X91911Y727931D01*
X90469Y729811D01*
X88589Y731254D01*
X86399Y732160D01*
X84050Y732470D01*
D02*
G37*
G36*
X492760Y739070D02*
X490280Y738744D01*
X487969Y737786D01*
X485984Y736264D01*
X484462Y734279D01*
X483504Y731968D01*
X483178Y729488D01*
X483504Y727008D01*
X484462Y724697D01*
X485984Y722712D01*
X487969Y721190D01*
X490280Y720232D01*
X492760Y719906D01*
X495240Y720232D01*
X497551Y721190D01*
X499535Y722712D01*
X501058Y724697D01*
X502015Y727008D01*
X502342Y729488D01*
X502015Y731968D01*
X501058Y734279D01*
X499535Y736264D01*
X497551Y737786D01*
X495240Y738744D01*
X492760Y739070D01*
D02*
G37*
G36*
X526034Y737546D02*
X523554Y737219D01*
X521243Y736262D01*
X519258Y734740D01*
X517736Y732755D01*
X516778Y730444D01*
X516452Y727964D01*
X516778Y725484D01*
X517736Y723173D01*
X519258Y721189D01*
X521243Y719666D01*
X523554Y718708D01*
X526034Y718382D01*
X528514Y718708D01*
X530825Y719666D01*
X532809Y721189D01*
X534332Y723173D01*
X535289Y725484D01*
X535616Y727964D01*
X535289Y730444D01*
X534332Y732755D01*
X532809Y734740D01*
X530825Y736262D01*
X528514Y737219D01*
X526034Y737546D01*
D02*
G37*
G36*
X607314Y682560D02*
Y678434D01*
X611440D01*
X611263Y679326D01*
X610038Y681158D01*
X608206Y682383D01*
X607314Y682560D01*
D02*
G37*
G36*
X604774D02*
X603882Y682383D01*
X602050Y681158D01*
X600825Y679326D01*
X600648Y678434D01*
X604774D01*
Y682560D01*
D02*
G37*
G36*
X611440Y675894D02*
X607314D01*
Y671768D01*
X608206Y671945D01*
X610038Y673170D01*
X611263Y675002D01*
X611440Y675894D01*
D02*
G37*
G36*
X604774D02*
X600648D01*
X600825Y675002D01*
X602050Y673170D01*
X603882Y671945D01*
X604774Y671768D01*
Y675894D01*
D02*
G37*
G36*
X609092Y658938D02*
Y654812D01*
X613218D01*
X613041Y655704D01*
X611816Y657536D01*
X609984Y658761D01*
X609092Y658938D01*
D02*
G37*
G36*
X606552D02*
X605660Y658761D01*
X603828Y657536D01*
X602603Y655704D01*
X602426Y654812D01*
X606552D01*
Y658938D01*
D02*
G37*
G36*
X613218Y652272D02*
X609092D01*
Y648146D01*
X609984Y648323D01*
X611816Y649548D01*
X613041Y651380D01*
X613218Y652272D01*
D02*
G37*
G36*
X606552D02*
X602426D01*
X602603Y651380D01*
X603828Y649548D01*
X605660Y648323D01*
X606552Y648146D01*
Y652272D01*
D02*
G37*
G36*
X578612Y664902D02*
X576132Y664576D01*
X573821Y663618D01*
X571837Y662095D01*
X570314Y660111D01*
X569356Y657800D01*
X569030Y655320D01*
X569356Y652840D01*
X570314Y650529D01*
X571837Y648544D01*
X573821Y647022D01*
X576132Y646065D01*
X578612Y645738D01*
X581092Y646065D01*
X583403Y647022D01*
X585387Y648544D01*
X586910Y650529D01*
X587868Y652840D01*
X588194Y655320D01*
X587868Y657800D01*
X586910Y660111D01*
X585387Y662095D01*
X583403Y663618D01*
X581092Y664576D01*
X578612Y664902D01*
D02*
G37*
G36*
X522732Y659822D02*
X520252Y659495D01*
X517941Y658538D01*
X515956Y657016D01*
X514434Y655031D01*
X513476Y652720D01*
X513150Y650240D01*
X513476Y647760D01*
X514434Y645449D01*
X515956Y643465D01*
X517941Y641942D01*
X520252Y640984D01*
X522732Y640658D01*
X525212Y640984D01*
X527523Y641942D01*
X529507Y643465D01*
X531030Y645449D01*
X531987Y647760D01*
X532314Y650240D01*
X531987Y652720D01*
X531030Y655031D01*
X529507Y657016D01*
X527523Y658538D01*
X525212Y659495D01*
X522732Y659822D01*
D02*
G37*
G36*
X462534Y658044D02*
X460054Y657718D01*
X457743Y656760D01*
X455759Y655238D01*
X454236Y653253D01*
X453279Y650942D01*
X452952Y648462D01*
X453279Y645982D01*
X454236Y643671D01*
X455759Y641686D01*
X457743Y640164D01*
X460054Y639207D01*
X462534Y638880D01*
X465014Y639207D01*
X467325Y640164D01*
X469310Y641686D01*
X470832Y643671D01*
X471790Y645982D01*
X472116Y648462D01*
X471790Y650942D01*
X470832Y653253D01*
X469310Y655238D01*
X467325Y656760D01*
X465014Y657718D01*
X462534Y658044D01*
D02*
G37*
G36*
X58650Y656270D02*
X55650D01*
X53300Y655960D01*
X51111Y655053D01*
X49231Y653611D01*
X47789Y651731D01*
X46882Y649541D01*
X46572Y647192D01*
X46882Y644843D01*
X47789Y642653D01*
X49231Y640773D01*
X51111Y639330D01*
X53300Y638424D01*
X55650Y638114D01*
X58650D01*
X60999Y638424D01*
X63189Y639330D01*
X65069Y640773D01*
X66511Y642653D01*
X67418Y644843D01*
X67728Y647192D01*
X67418Y649541D01*
X66511Y651731D01*
X65069Y653611D01*
X63189Y655053D01*
X60999Y655960D01*
X58650Y656270D01*
D02*
G37*
G36*
X367030Y652206D02*
X364680Y651896D01*
X362491Y650990D01*
X360611Y649547D01*
X359169Y647667D01*
X358262Y645478D01*
X357952Y643128D01*
X358262Y640779D01*
X359169Y638589D01*
X360611Y636709D01*
X362491Y635266D01*
X364680Y634360D01*
X367030Y634050D01*
X369380Y634360D01*
X371569Y635266D01*
X373449Y636709D01*
X374892Y638589D01*
X375798Y640779D01*
X376108Y643128D01*
X375798Y645478D01*
X374892Y647667D01*
X373449Y649547D01*
X371569Y650990D01*
X369380Y651896D01*
X367030Y652206D01*
D02*
G37*
G36*
X566420Y634422D02*
X563940Y634095D01*
X561629Y633138D01*
X559645Y631615D01*
X558122Y629631D01*
X557164Y627320D01*
X556838Y624840D01*
X557164Y622360D01*
X558122Y620049D01*
X559645Y618064D01*
X561629Y616542D01*
X563940Y615584D01*
X566420Y615258D01*
X568900Y615584D01*
X571211Y616542D01*
X573195Y618064D01*
X574718Y620049D01*
X575676Y622360D01*
X576002Y624840D01*
X575676Y627320D01*
X574718Y629631D01*
X573195Y631615D01*
X571211Y633138D01*
X568900Y634095D01*
X566420Y634422D01*
D02*
G37*
G36*
X607060Y633914D02*
X604580Y633587D01*
X602269Y632630D01*
X600285Y631107D01*
X598762Y629123D01*
X597804Y626812D01*
X597478Y624332D01*
X597804Y621852D01*
X598762Y619541D01*
X600285Y617556D01*
X602269Y616034D01*
X604580Y615076D01*
X607060Y614750D01*
X609540Y615076D01*
X611851Y616034D01*
X613835Y617556D01*
X615358Y619541D01*
X616315Y621852D01*
X616642Y624332D01*
X616315Y626812D01*
X615358Y629123D01*
X613835Y631107D01*
X611851Y632630D01*
X609540Y633587D01*
X607060Y633914D01*
D02*
G37*
G36*
X58650Y630870D02*
X55650D01*
X53300Y630560D01*
X51111Y629654D01*
X49231Y628211D01*
X47789Y626331D01*
X46882Y624142D01*
X46572Y621792D01*
X46882Y619442D01*
X47789Y617253D01*
X49231Y615373D01*
X51111Y613931D01*
X53300Y613024D01*
X55650Y612714D01*
X58650D01*
X60999Y613024D01*
X63189Y613931D01*
X65069Y615373D01*
X66511Y617253D01*
X67418Y619442D01*
X67728Y621792D01*
X67418Y624142D01*
X66511Y626331D01*
X65069Y628211D01*
X63189Y629654D01*
X60999Y630560D01*
X58650Y630870D01*
D02*
G37*
G36*
Y605470D02*
X55650D01*
X53300Y605160D01*
X51111Y604254D01*
X49231Y602811D01*
X47789Y600931D01*
X46882Y598741D01*
X46572Y596392D01*
X46882Y594043D01*
X47789Y591853D01*
X49231Y589973D01*
X51111Y588531D01*
X53300Y587624D01*
X55650Y587314D01*
X58650D01*
X60999Y587624D01*
X63189Y588531D01*
X65069Y589973D01*
X66511Y591853D01*
X67418Y594043D01*
X67728Y596392D01*
X67418Y598741D01*
X66511Y600931D01*
X65069Y602811D01*
X63189Y604254D01*
X60999Y605160D01*
X58650Y605470D01*
D02*
G37*
G36*
X562356Y600132D02*
X559876Y599805D01*
X557565Y598848D01*
X555580Y597326D01*
X554058Y595341D01*
X553101Y593030D01*
X552774Y590550D01*
X553101Y588070D01*
X554058Y585759D01*
X555580Y583774D01*
X557565Y582252D01*
X559876Y581295D01*
X562356Y580968D01*
X564836Y581295D01*
X567147Y582252D01*
X569132Y583774D01*
X570654Y585759D01*
X571612Y588070D01*
X571938Y590550D01*
X571612Y593030D01*
X570654Y595341D01*
X569132Y597326D01*
X567147Y598848D01*
X564836Y599805D01*
X562356Y600132D01*
D02*
G37*
G36*
X502920Y599624D02*
X500440Y599297D01*
X498129Y598340D01*
X496144Y596818D01*
X494622Y594833D01*
X493665Y592522D01*
X493338Y590042D01*
X493665Y587562D01*
X494622Y585251D01*
X496144Y583266D01*
X498129Y581744D01*
X500440Y580787D01*
X502920Y580460D01*
X505400Y580787D01*
X507711Y581744D01*
X509696Y583266D01*
X511218Y585251D01*
X512175Y587562D01*
X512502Y590042D01*
X512175Y592522D01*
X511218Y594833D01*
X509696Y596818D01*
X507711Y598340D01*
X505400Y599297D01*
X502920Y599624D01*
D02*
G37*
G36*
X688848Y585654D02*
X686368Y585327D01*
X684057Y584370D01*
X682073Y582848D01*
X680550Y580863D01*
X679593Y578552D01*
X679266Y576072D01*
X679593Y573592D01*
X680550Y571281D01*
X682073Y569296D01*
X684057Y567774D01*
X686368Y566816D01*
X688848Y566490D01*
X691328Y566816D01*
X693639Y567774D01*
X695623Y569296D01*
X697146Y571281D01*
X698103Y573592D01*
X698430Y576072D01*
X698103Y578552D01*
X697146Y580863D01*
X695623Y582848D01*
X693639Y584370D01*
X691328Y585327D01*
X688848Y585654D01*
D02*
G37*
G36*
X486918Y582352D02*
X484438Y582025D01*
X482127Y581068D01*
X480143Y579546D01*
X478620Y577561D01*
X477663Y575250D01*
X477336Y572770D01*
X477663Y570290D01*
X478620Y567979D01*
X480143Y565994D01*
X482127Y564472D01*
X484438Y563515D01*
X486918Y563188D01*
X489398Y563515D01*
X491709Y564472D01*
X493694Y565994D01*
X495216Y567979D01*
X496174Y570290D01*
X496500Y572770D01*
X496174Y575250D01*
X495216Y577561D01*
X493694Y579546D01*
X491709Y581068D01*
X489398Y582025D01*
X486918Y582352D01*
D02*
G37*
G36*
X546354Y581590D02*
X543874Y581264D01*
X541563Y580306D01*
X539579Y578783D01*
X538056Y576799D01*
X537099Y574488D01*
X536772Y572008D01*
X537099Y569528D01*
X538056Y567217D01*
X539579Y565233D01*
X541563Y563710D01*
X543874Y562752D01*
X546354Y562426D01*
X548834Y562752D01*
X551145Y563710D01*
X553130Y565233D01*
X554652Y567217D01*
X555610Y569528D01*
X555936Y572008D01*
X555610Y574488D01*
X554652Y576799D01*
X553130Y578783D01*
X551145Y580306D01*
X548834Y581264D01*
X546354Y581590D01*
D02*
G37*
G36*
X351536Y664405D02*
X349448Y664130D01*
X347501Y663324D01*
X345830Y662042D01*
X344548Y660370D01*
X344067Y659208D01*
X337221Y652363D01*
X336059Y650848D01*
X335329Y649085D01*
X335079Y647192D01*
Y558476D01*
X333809Y557510D01*
X332232Y557718D01*
X329883Y557408D01*
X327693Y556502D01*
X325813Y555059D01*
X324370Y553179D01*
X323464Y550989D01*
X323154Y548640D01*
X323464Y546291D01*
X324370Y544101D01*
X324718Y543649D01*
Y526319D01*
X324305Y525782D01*
X323994Y525031D01*
X323554Y523969D01*
X323298Y522024D01*
Y480209D01*
X323554Y478265D01*
X323994Y477203D01*
X324305Y476452D01*
X325499Y474896D01*
X333015Y467381D01*
X334571Y466186D01*
X335322Y465876D01*
X336383Y465436D01*
X338328Y465180D01*
X362547D01*
X362999Y464832D01*
X365188Y463926D01*
X367538Y463616D01*
X369888Y463926D01*
X372077Y464832D01*
X373957Y466275D01*
X375400Y468155D01*
X376306Y470345D01*
X376616Y472694D01*
X376306Y475043D01*
X375977Y475838D01*
X377616Y477094D01*
X379138Y479079D01*
X380095Y481390D01*
X380422Y483870D01*
X380095Y486350D01*
X379138Y488661D01*
X377616Y490645D01*
X377402Y490809D01*
X377480Y492350D01*
X378852Y493403D01*
X380375Y495388D01*
X381332Y497699D01*
X381659Y500179D01*
X381332Y502659D01*
X380375Y504970D01*
X378852Y506954D01*
X376868Y508477D01*
X374557Y509434D01*
X372077Y509761D01*
X369597Y509434D01*
X367286Y508477D01*
X365301Y506954D01*
X363778Y504970D01*
X362821Y502659D01*
X362495Y500179D01*
X362821Y497699D01*
X363778Y495388D01*
X365301Y493403D01*
X365514Y493240D01*
X365437Y491698D01*
X364064Y490645D01*
X362542Y488661D01*
X361585Y486350D01*
X361258Y483870D01*
X361573Y481478D01*
X361542Y481122D01*
X360931Y480208D01*
X341441D01*
X338327Y483322D01*
Y515772D01*
X339090Y516441D01*
X341178Y516716D01*
X343125Y517522D01*
X344796Y518804D01*
X346078Y520476D01*
X346559Y521638D01*
X347563Y522641D01*
X348725Y524156D01*
X349455Y525919D01*
X349705Y527812D01*
Y644163D01*
X354408Y648867D01*
X355570Y649348D01*
X357242Y650630D01*
X358524Y652301D01*
X359330Y654248D01*
X359605Y656336D01*
X359330Y658424D01*
X358524Y660370D01*
X357242Y662042D01*
X355570Y663324D01*
X353624Y664130D01*
X351536Y664405D01*
D02*
G37*
G36*
X84050Y605470D02*
X81050D01*
X78700Y605160D01*
X76511Y604254D01*
X74631Y602811D01*
X73189Y600931D01*
X72282Y598741D01*
X71972Y596392D01*
X72282Y594043D01*
X73189Y591853D01*
X74631Y589973D01*
X76511Y588531D01*
X78700Y587624D01*
X81050Y587314D01*
X82501D01*
X115536Y554280D01*
X115050Y553106D01*
X89041D01*
X88589Y553453D01*
X86399Y554360D01*
X84050Y554670D01*
X81050D01*
X78700Y554360D01*
X76511Y553453D01*
X74631Y552011D01*
X73189Y550131D01*
X72282Y547942D01*
X71972Y545592D01*
X72282Y543242D01*
X73189Y541053D01*
X74631Y539173D01*
X76511Y537730D01*
X78700Y536824D01*
X81050Y536514D01*
X84050D01*
X86399Y536824D01*
X88476Y537684D01*
X88681Y537703D01*
X89034Y537599D01*
X89398Y536167D01*
X82501Y529270D01*
X81050D01*
X78700Y528960D01*
X76511Y528054D01*
X74631Y526611D01*
X73189Y524731D01*
X72282Y522542D01*
X71972Y520192D01*
X72282Y517842D01*
X73189Y515653D01*
X74631Y513773D01*
X76511Y512331D01*
X78700Y511424D01*
X81050Y511114D01*
X84050D01*
X86399Y511424D01*
X88589Y512331D01*
X90469Y513773D01*
X91911Y515653D01*
X92818Y517842D01*
X92893Y518408D01*
X101526Y527042D01*
X154415D01*
X154555Y526902D01*
X156111Y525708D01*
X156862Y525397D01*
X157923Y524957D01*
X159225Y524785D01*
X160561Y523760D01*
X162750Y522854D01*
X165100Y522544D01*
X167449Y522854D01*
X169639Y523760D01*
X171519Y525203D01*
X172962Y527083D01*
X173868Y529272D01*
X174178Y531622D01*
X173868Y533971D01*
X172962Y536161D01*
X171519Y538041D01*
X169639Y539483D01*
X167449Y540390D01*
X165919Y540592D01*
X165464Y541933D01*
X167646Y544115D01*
X168211Y544190D01*
X170401Y545097D01*
X172281Y546539D01*
X173724Y548419D01*
X174630Y550608D01*
X174940Y552958D01*
X174630Y555308D01*
X173724Y557497D01*
X172281Y559377D01*
X170401Y560820D01*
X168211Y561726D01*
X165862Y562036D01*
X163512Y561726D01*
X161323Y560820D01*
X159443Y559377D01*
X158000Y557497D01*
X157094Y555308D01*
X157081Y555212D01*
X156356Y554702D01*
X155649Y554896D01*
X155019Y555182D01*
X154165Y557243D01*
X152723Y559123D01*
X150843Y560565D01*
X148653Y561472D01*
X146304Y561782D01*
X143954Y561472D01*
X141765Y560565D01*
X141644Y560472D01*
X130597D01*
X92893Y598176D01*
X92818Y598741D01*
X91911Y600931D01*
X90469Y602811D01*
X88589Y604254D01*
X86399Y605160D01*
X84050Y605470D01*
D02*
G37*
G36*
X424434Y567116D02*
X422085Y566806D01*
X419895Y565900D01*
X418015Y564457D01*
X416572Y562577D01*
X415666Y560387D01*
X415356Y558038D01*
X415666Y555689D01*
X416572Y553499D01*
X418015Y551619D01*
X419895Y550177D01*
X422085Y549270D01*
X424434Y548960D01*
X426783Y549270D01*
X428973Y550177D01*
X430853Y551619D01*
X432295Y553499D01*
X433202Y555689D01*
X433512Y558038D01*
X433202Y560387D01*
X432295Y562577D01*
X430853Y564457D01*
X428973Y565900D01*
X426783Y566806D01*
X424434Y567116D01*
D02*
G37*
G36*
X58650Y554670D02*
X55650D01*
X53300Y554360D01*
X51111Y553453D01*
X49231Y552011D01*
X47789Y550131D01*
X46882Y547942D01*
X46572Y545592D01*
X46882Y543242D01*
X47789Y541053D01*
X49231Y539173D01*
X51111Y537730D01*
X53300Y536824D01*
X55650Y536514D01*
X58650D01*
X60999Y536824D01*
X63189Y537730D01*
X65069Y539173D01*
X66511Y541053D01*
X67418Y543242D01*
X67728Y545592D01*
X67418Y547942D01*
X66511Y550131D01*
X65069Y552011D01*
X63189Y553453D01*
X60999Y554360D01*
X58650Y554670D01*
D02*
G37*
G36*
X774572Y532705D02*
X772484Y532430D01*
X770537Y531624D01*
X768866Y530342D01*
X767584Y528671D01*
X766778Y526724D01*
X766503Y524636D01*
X766778Y522548D01*
X767584Y520602D01*
X768866Y518930D01*
X770537Y517648D01*
X772484Y516842D01*
X774572Y516567D01*
X776660Y516842D01*
X778606Y517648D01*
X780278Y518930D01*
X781560Y520602D01*
X782366Y522548D01*
X782641Y524636D01*
X782366Y526724D01*
X781560Y528671D01*
X780278Y530342D01*
X778606Y531624D01*
X776660Y532430D01*
X774572Y532705D01*
D02*
G37*
G36*
X58650Y529270D02*
X55650D01*
X53300Y528960D01*
X51111Y528054D01*
X49231Y526611D01*
X47789Y524731D01*
X46882Y522542D01*
X46572Y520192D01*
X46882Y517842D01*
X47789Y515653D01*
X49231Y513773D01*
X51111Y512331D01*
X53300Y511424D01*
X55650Y511114D01*
X58650D01*
X60999Y511424D01*
X63189Y512331D01*
X65069Y513773D01*
X66511Y515653D01*
X67418Y517842D01*
X67728Y520192D01*
X67418Y522542D01*
X66511Y524731D01*
X65069Y526611D01*
X63189Y528054D01*
X60999Y528960D01*
X58650Y529270D01*
D02*
G37*
G36*
X564896Y528504D02*
X562416Y528177D01*
X560105Y527220D01*
X558120Y525698D01*
X556598Y523713D01*
X555640Y521402D01*
X555314Y518922D01*
X555640Y516442D01*
X556598Y514131D01*
X558120Y512146D01*
X560105Y510624D01*
X562416Y509666D01*
X564896Y509340D01*
X567376Y509666D01*
X569687Y510624D01*
X571671Y512146D01*
X573194Y514131D01*
X574151Y516442D01*
X574478Y518922D01*
X574151Y521402D01*
X573194Y523713D01*
X571671Y525698D01*
X569687Y527220D01*
X567376Y528177D01*
X564896Y528504D01*
D02*
G37*
G36*
X488442Y519360D02*
X485962Y519034D01*
X483651Y518076D01*
X481666Y516553D01*
X480144Y514569D01*
X479187Y512258D01*
X478860Y509778D01*
X479187Y507298D01*
X480144Y504987D01*
X481666Y503003D01*
X483651Y501480D01*
X485962Y500522D01*
X488442Y500196D01*
X490922Y500522D01*
X493233Y501480D01*
X495218Y503003D01*
X496740Y504987D01*
X497697Y507298D01*
X498024Y509778D01*
X497697Y512258D01*
X496740Y514569D01*
X495218Y516553D01*
X493233Y518076D01*
X490922Y519034D01*
X488442Y519360D01*
D02*
G37*
G36*
X434086Y517328D02*
X431606Y517001D01*
X429295Y516044D01*
X427310Y514521D01*
X425788Y512537D01*
X424831Y510226D01*
X424504Y507746D01*
X424831Y505266D01*
X425788Y502955D01*
X427310Y500970D01*
X429295Y499448D01*
X431606Y498490D01*
X434086Y498164D01*
X436566Y498490D01*
X438877Y499448D01*
X440862Y500970D01*
X442384Y502955D01*
X443341Y505266D01*
X443668Y507746D01*
X443341Y510226D01*
X442384Y512537D01*
X440862Y514521D01*
X438877Y516044D01*
X436566Y517001D01*
X434086Y517328D01*
D02*
G37*
G36*
X165354Y495996D02*
X163004Y495686D01*
X160815Y494780D01*
X160363Y494432D01*
X160274D01*
X158329Y494176D01*
X156517Y493426D01*
X154961Y492231D01*
X149340Y486610D01*
X147663Y486730D01*
X146881Y487749D01*
X145001Y489192D01*
X142811Y490098D01*
X140462Y490408D01*
X138112Y490098D01*
X135923Y489192D01*
X134043Y487749D01*
X132600Y485869D01*
X131694Y483680D01*
X131619Y483114D01*
X100012Y451506D01*
X89041D01*
X88589Y451853D01*
X86399Y452760D01*
X84050Y453070D01*
X81050D01*
X78700Y452760D01*
X76511Y451853D01*
X74631Y450411D01*
X73189Y448531D01*
X72282Y446342D01*
X71972Y443992D01*
X72282Y441642D01*
X73189Y439453D01*
X74631Y437573D01*
X76511Y436130D01*
X78700Y435224D01*
X81050Y434914D01*
X84050D01*
X86399Y435224D01*
X88589Y436130D01*
X89041Y436478D01*
X97548D01*
X98034Y435304D01*
X90175Y427445D01*
X85754D01*
X84050Y427670D01*
X81050D01*
X78700Y427360D01*
X76511Y426454D01*
X74631Y425011D01*
X73189Y423131D01*
X72282Y420942D01*
X71972Y418592D01*
X72282Y416242D01*
X73189Y414053D01*
X74631Y412173D01*
X76511Y410731D01*
X78700Y409824D01*
X81050Y409514D01*
X84050D01*
X86399Y409824D01*
X88589Y410731D01*
X90469Y412173D01*
X90656Y412417D01*
X93287D01*
X95232Y412673D01*
X96293Y413112D01*
X97044Y413423D01*
X98600Y414618D01*
X162388Y478405D01*
X163004Y478150D01*
X165354Y477840D01*
X167703Y478150D01*
X169893Y479057D01*
X171773Y480499D01*
X173216Y482379D01*
X174122Y484568D01*
X174432Y486918D01*
X174122Y489268D01*
X173216Y491457D01*
X171773Y493337D01*
X169893Y494780D01*
X167703Y495686D01*
X165354Y495996D01*
D02*
G37*
G36*
X84050Y503870D02*
X81050D01*
X78700Y503560D01*
X76511Y502654D01*
X74631Y501211D01*
X73189Y499331D01*
X72282Y497141D01*
X71972Y494792D01*
X72282Y492443D01*
X73189Y490253D01*
X74631Y488373D01*
X76511Y486931D01*
X78700Y486024D01*
X81050Y485714D01*
X84050D01*
X86399Y486024D01*
X88589Y486931D01*
X90469Y488373D01*
X91911Y490253D01*
X92818Y492443D01*
X93128Y494792D01*
X92818Y497141D01*
X91911Y499331D01*
X90469Y501211D01*
X88589Y502654D01*
X86399Y503560D01*
X84050Y503870D01*
D02*
G37*
G36*
X58650D02*
X55650D01*
X53300Y503560D01*
X51111Y502654D01*
X49231Y501211D01*
X47789Y499331D01*
X46882Y497141D01*
X46572Y494792D01*
X46882Y492443D01*
X47789Y490253D01*
X49231Y488373D01*
X51111Y486931D01*
X53300Y486024D01*
X55650Y485714D01*
X58650D01*
X60999Y486024D01*
X63189Y486931D01*
X65069Y488373D01*
X66511Y490253D01*
X67418Y492443D01*
X67728Y494792D01*
X67418Y497141D01*
X66511Y499331D01*
X65069Y501211D01*
X63189Y502654D01*
X60999Y503560D01*
X58650Y503870D01*
D02*
G37*
G36*
X796036Y459173D02*
X793948Y458898D01*
X792001Y458092D01*
X790330Y456810D01*
X789048Y455139D01*
X788242Y453192D01*
X787967Y451104D01*
X788242Y449016D01*
X789048Y447070D01*
X790330Y445398D01*
X792001Y444116D01*
X793948Y443310D01*
X796036Y443035D01*
X798124Y443310D01*
X800070Y444116D01*
X801742Y445398D01*
X803024Y447070D01*
X803830Y449016D01*
X804105Y451104D01*
X803830Y453192D01*
X803024Y455139D01*
X801742Y456810D01*
X800070Y458092D01*
X798124Y458898D01*
X796036Y459173D01*
D02*
G37*
G36*
X58650Y453070D02*
X55650D01*
X53300Y452760D01*
X51111Y451853D01*
X49231Y450411D01*
X47789Y448531D01*
X46882Y446342D01*
X46572Y443992D01*
X46882Y441642D01*
X47789Y439453D01*
X49231Y437573D01*
X51111Y436130D01*
X53300Y435224D01*
X55650Y434914D01*
X58650D01*
X60999Y435224D01*
X63189Y436130D01*
X65069Y437573D01*
X66511Y439453D01*
X67418Y441642D01*
X67728Y443992D01*
X67418Y446342D01*
X66511Y448531D01*
X65069Y450411D01*
X63189Y451853D01*
X60999Y452760D01*
X58650Y453070D01*
D02*
G37*
G36*
Y427670D02*
X55650D01*
X53300Y427360D01*
X51111Y426454D01*
X49231Y425011D01*
X47789Y423131D01*
X46882Y420942D01*
X46572Y418592D01*
X46882Y416242D01*
X47789Y414053D01*
X49231Y412173D01*
X51111Y410731D01*
X53300Y409824D01*
X55650Y409514D01*
X58650D01*
X60999Y409824D01*
X63189Y410731D01*
X65069Y412173D01*
X66511Y414053D01*
X67418Y416242D01*
X67728Y418592D01*
X67418Y420942D01*
X66511Y423131D01*
X65069Y425011D01*
X63189Y426454D01*
X60999Y427360D01*
X58650Y427670D01*
D02*
G37*
G36*
X368198Y383157D02*
X365848Y382847D01*
X363659Y381941D01*
X362653Y381169D01*
X334910D01*
X334485Y381496D01*
X332295Y382402D01*
X329946Y382712D01*
X327597Y382402D01*
X325407Y381496D01*
X323527Y380053D01*
X322085Y378173D01*
X321178Y375984D01*
X320868Y373634D01*
X321178Y371284D01*
X321936Y369454D01*
X321171Y367608D01*
X320862Y365258D01*
X321171Y362909D01*
X322078Y360720D01*
X323521Y358839D01*
X325401Y357397D01*
X327590Y356490D01*
X329939Y356181D01*
X332289Y356490D01*
X334478Y357397D01*
X335020Y357812D01*
X348530D01*
X349092Y356673D01*
X348826Y356327D01*
X347868Y354016D01*
X347542Y351536D01*
X347868Y349056D01*
X348826Y346745D01*
X350349Y344761D01*
X352333Y343238D01*
X354644Y342281D01*
X357124Y341954D01*
X359604Y342281D01*
X361915Y343238D01*
X363899Y344761D01*
X365422Y346745D01*
X366380Y349056D01*
X366706Y351536D01*
X366380Y354016D01*
X365690Y355680D01*
X366562Y356846D01*
X367806Y356682D01*
X370155Y356992D01*
X372345Y357898D01*
X374225Y359341D01*
X375667Y361221D01*
X376574Y363411D01*
X376884Y365760D01*
X376574Y368110D01*
X376009Y369475D01*
X376059Y369540D01*
X376966Y371730D01*
X377275Y374079D01*
X376966Y376428D01*
X376059Y378618D01*
X374616Y380498D01*
X372736Y381941D01*
X370547Y382847D01*
X368198Y383157D01*
D02*
G37*
G36*
X996052Y380972D02*
X979052D01*
Y363972D01*
X996052D01*
Y380972D01*
D02*
G37*
G36*
X84050Y376870D02*
X81050D01*
X78700Y376560D01*
X76511Y375653D01*
X74631Y374211D01*
X73189Y372331D01*
X72282Y370141D01*
X71972Y367792D01*
X72282Y365443D01*
X73189Y363253D01*
X74631Y361373D01*
X76511Y359930D01*
X78700Y359024D01*
X81050Y358714D01*
X84050D01*
X86399Y359024D01*
X88589Y359930D01*
X90469Y361373D01*
X91911Y363253D01*
X92818Y365443D01*
X93128Y367792D01*
X92818Y370141D01*
X91911Y372331D01*
X90469Y374211D01*
X88589Y375653D01*
X86399Y376560D01*
X84050Y376870D01*
D02*
G37*
G36*
X58650D02*
X55650D01*
X53300Y376560D01*
X51111Y375653D01*
X49231Y374211D01*
X47789Y372331D01*
X46882Y370141D01*
X46572Y367792D01*
X46882Y365443D01*
X47789Y363253D01*
X49231Y361373D01*
X51111Y359930D01*
X53300Y359024D01*
X55650Y358714D01*
X58650D01*
X60999Y359024D01*
X63189Y359930D01*
X65069Y361373D01*
X66511Y363253D01*
X67418Y365443D01*
X67728Y367792D01*
X67418Y370141D01*
X66511Y372331D01*
X65069Y374211D01*
X63189Y375653D01*
X60999Y376560D01*
X58650Y376870D01*
D02*
G37*
G36*
X311125Y346367D02*
Y346350D01*
X222783D01*
Y346367D01*
X220342Y346045D01*
X218145Y345135D01*
X218068Y345103D01*
X217173Y344416D01*
X217173Y344416D01*
X216139Y343624D01*
X216130Y343597D01*
X216130Y343597D01*
X215266Y342733D01*
X148525Y275992D01*
X132812D01*
X132136Y276272D01*
X130048Y276547D01*
X127960Y276272D01*
X126013Y275466D01*
X124342Y274184D01*
X123060Y272512D01*
X122254Y270566D01*
X121979Y268478D01*
X122254Y266390D01*
X123060Y264443D01*
X124342Y262772D01*
X126013Y261490D01*
X127960Y260684D01*
X130048Y260409D01*
X132136Y260684D01*
X132812Y260964D01*
X151638D01*
X153583Y261220D01*
X154644Y261660D01*
X155395Y261970D01*
X156951Y263165D01*
X225109Y331322D01*
X295572D01*
X295825Y330052D01*
X294415Y329468D01*
X292744Y328186D01*
X291462Y326515D01*
X290656Y324568D01*
X290381Y322480D01*
X290656Y320392D01*
X290938Y319710D01*
X290656Y319028D01*
X290381Y316940D01*
X290656Y314852D01*
X291462Y312906D01*
X292744Y311234D01*
X294415Y309952D01*
X296362Y309146D01*
X298450Y308871D01*
X300538Y309146D01*
X302484Y309952D01*
X303008Y310354D01*
X303593Y310596D01*
X330358D01*
X355861Y285094D01*
X357407Y283908D01*
X359207Y283162D01*
X361138Y282908D01*
X375378D01*
X375967Y282027D01*
X376027Y281638D01*
X375732Y279400D01*
X376042Y277050D01*
X376949Y274861D01*
X377346Y274343D01*
Y260350D01*
X377601Y258418D01*
X378346Y256618D01*
X379532Y255072D01*
X382306Y252298D01*
X382392Y251651D01*
X383298Y249461D01*
X384741Y247581D01*
X386621Y246138D01*
X388811Y245232D01*
X391160Y244922D01*
X393509Y245232D01*
X395699Y246138D01*
X397579Y247581D01*
X399021Y249461D01*
X399928Y251651D01*
X400238Y254000D01*
X399928Y256350D01*
X399021Y258539D01*
X397579Y260419D01*
X395699Y261861D01*
X393509Y262768D01*
X392862Y262854D01*
X392274Y263442D01*
Y274343D01*
X392672Y274861D01*
X393578Y277050D01*
X393888Y279400D01*
X393593Y281638D01*
X393653Y282027D01*
X394242Y282908D01*
X406290D01*
X408222Y283162D01*
X410022Y283908D01*
X411568Y285094D01*
X422576Y296102D01*
X423762Y297648D01*
X424508Y299448D01*
X424758Y301351D01*
X425322Y302712D01*
X425597Y304800D01*
X425322Y306888D01*
X424516Y308834D01*
X423234Y310506D01*
X421562Y311788D01*
X419616Y312594D01*
X417528Y312869D01*
X415440Y312594D01*
X414758Y312312D01*
X414076Y312594D01*
X411988Y312869D01*
X409900Y312594D01*
X407953Y311788D01*
X406282Y310506D01*
X405000Y308834D01*
X404194Y306888D01*
X403919Y304800D01*
X404103Y303406D01*
X401832Y301135D01*
X365597D01*
X340095Y326638D01*
X338549Y327824D01*
X336749Y328569D01*
X334817Y328824D01*
X317168D01*
X316915Y330094D01*
X317470Y330324D01*
X319142Y331606D01*
X320424Y333278D01*
X321230Y335224D01*
X321505Y337312D01*
X321230Y339400D01*
X320424Y341347D01*
X319142Y343018D01*
X317470Y344300D01*
X316203Y344825D01*
X315840Y345103D01*
X313566Y346045D01*
X311125Y346367D01*
D02*
G37*
G36*
X886206Y402270D02*
X883857Y401960D01*
X881667Y401054D01*
X879787Y399611D01*
X878344Y397731D01*
X877438Y395541D01*
X877128Y393192D01*
X877438Y390843D01*
X878339Y388667D01*
Y359875D01*
X859649Y341185D01*
X858302Y341743D01*
X855953Y342052D01*
X853603Y341743D01*
X851414Y340836D01*
X849534Y339393D01*
X848091Y337513D01*
X847184Y335324D01*
X846875Y332974D01*
X847184Y330625D01*
X848091Y328435D01*
X849534Y326555D01*
X851414Y325113D01*
X853603Y324206D01*
X855953Y323896D01*
X858302Y324206D01*
X860477Y325107D01*
X862564D01*
X864600Y325375D01*
X866498Y326161D01*
X868127Y327411D01*
X891769Y351053D01*
X893019Y352682D01*
X893805Y354580D01*
X894073Y356616D01*
Y388667D01*
X894974Y390843D01*
X895284Y393192D01*
X894974Y395541D01*
X894068Y397731D01*
X892625Y399611D01*
X890745Y401054D01*
X888556Y401960D01*
X886206Y402270D01*
D02*
G37*
G36*
X987552Y356045D02*
X985333Y355753D01*
X983265Y354897D01*
X981490Y353534D01*
X980127Y351759D01*
X979271Y349691D01*
X978979Y347472D01*
X979271Y345253D01*
X980127Y343185D01*
X981490Y341410D01*
X983265Y340047D01*
X985333Y339191D01*
X987552Y338899D01*
X989771Y339191D01*
X991839Y340047D01*
X993614Y341410D01*
X994977Y343185D01*
X995833Y345253D01*
X996125Y347472D01*
X995833Y349691D01*
X994977Y351759D01*
X993614Y353534D01*
X991839Y354897D01*
X989771Y355753D01*
X987552Y356045D01*
D02*
G37*
G36*
X774446Y354514D02*
X771966Y354188D01*
X769655Y353230D01*
X767671Y351707D01*
X766148Y349723D01*
X765191Y347412D01*
X764864Y344932D01*
X765191Y342452D01*
X766148Y340141D01*
X767671Y338157D01*
X769655Y336634D01*
X771966Y335676D01*
X774446Y335350D01*
X776926Y335676D01*
X779237Y336634D01*
X781221Y338157D01*
X782387Y339675D01*
X782909Y339761D01*
X783731Y339687D01*
X783880Y339618D01*
X785197Y337902D01*
X787181Y336380D01*
X789492Y335423D01*
X791972Y335096D01*
X794452Y335423D01*
X796763Y336380D01*
X798747Y337902D01*
X800270Y339887D01*
X801227Y342198D01*
X801554Y344678D01*
X801227Y347158D01*
X800270Y349469D01*
X798747Y351454D01*
X796763Y352976D01*
X794452Y353933D01*
X791972Y354260D01*
X789492Y353933D01*
X787181Y352976D01*
X785197Y351454D01*
X784031Y349935D01*
X783509Y349849D01*
X782687Y349923D01*
X782538Y349992D01*
X781221Y351707D01*
X779237Y353230D01*
X776926Y354188D01*
X774446Y354514D01*
D02*
G37*
G36*
X84050Y351470D02*
X81050D01*
X78700Y351160D01*
X76511Y350253D01*
X74631Y348811D01*
X73189Y346931D01*
X72282Y344742D01*
X71972Y342392D01*
X72282Y340042D01*
X73189Y337853D01*
X74631Y335973D01*
X76511Y334530D01*
X78700Y333624D01*
X81050Y333314D01*
X84050D01*
X86399Y333624D01*
X88589Y334530D01*
X90469Y335973D01*
X91911Y337853D01*
X92818Y340042D01*
X93128Y342392D01*
X92818Y344742D01*
X91911Y346931D01*
X90469Y348811D01*
X88589Y350253D01*
X86399Y351160D01*
X84050Y351470D01*
D02*
G37*
G36*
X58650D02*
X55650D01*
X53300Y351160D01*
X51111Y350253D01*
X49231Y348811D01*
X47789Y346931D01*
X46882Y344742D01*
X46572Y342392D01*
X46882Y340042D01*
X47789Y337853D01*
X49231Y335973D01*
X51111Y334530D01*
X53300Y333624D01*
X55650Y333314D01*
X58650D01*
X60999Y333624D01*
X63189Y334530D01*
X65069Y335973D01*
X66511Y337853D01*
X67418Y340042D01*
X67728Y342392D01*
X67418Y344742D01*
X66511Y346931D01*
X65069Y348811D01*
X63189Y350253D01*
X60999Y351160D01*
X58650Y351470D01*
D02*
G37*
G36*
X116078Y330395D02*
X113990Y330120D01*
X112044Y329314D01*
X110372Y328032D01*
X109090Y326361D01*
X108284Y324414D01*
X108009Y322326D01*
X108284Y320238D01*
X109090Y318291D01*
X110372Y316620D01*
X112044Y315338D01*
X113990Y314532D01*
X116078Y314257D01*
X118166Y314532D01*
X120112Y315338D01*
X121784Y316620D01*
X123066Y318291D01*
X123872Y320238D01*
X124147Y322326D01*
X123872Y324414D01*
X123066Y326361D01*
X121784Y328032D01*
X120112Y329314D01*
X118166Y330120D01*
X116078Y330395D01*
D02*
G37*
G36*
X610363Y312603D02*
X607883Y312277D01*
X605572Y311320D01*
X603587Y309797D01*
X602065Y307812D01*
X601107Y305501D01*
X600781Y303021D01*
X601107Y300541D01*
X602065Y298230D01*
X603587Y296246D01*
X605572Y294723D01*
X607883Y293766D01*
X610363Y293439D01*
X612843Y293766D01*
X615154Y294723D01*
X617138Y296246D01*
X618661Y298230D01*
X619618Y300541D01*
X619945Y303021D01*
X619618Y305501D01*
X618661Y307812D01*
X617138Y309797D01*
X615154Y311320D01*
X612843Y312277D01*
X610363Y312603D01*
D02*
G37*
G36*
X612140Y291522D02*
X609660Y291196D01*
X607349Y290238D01*
X605364Y288715D01*
X603842Y286731D01*
X602884Y284420D01*
X602558Y281940D01*
X602884Y279460D01*
X603842Y277149D01*
X605364Y275165D01*
X607349Y273642D01*
X609660Y272684D01*
X612140Y272358D01*
X614620Y272684D01*
X616931Y273642D01*
X618915Y275165D01*
X620438Y277149D01*
X621395Y279460D01*
X621722Y281940D01*
X621395Y284420D01*
X620438Y286731D01*
X618915Y288715D01*
X616931Y290238D01*
X614620Y291196D01*
X612140Y291522D01*
D02*
G37*
G36*
X89408Y284156D02*
X86928Y283829D01*
X84617Y282872D01*
X82633Y281350D01*
X81110Y279365D01*
X80153Y277054D01*
X79826Y274574D01*
X80153Y272094D01*
X81110Y269783D01*
X82633Y267799D01*
X84617Y266276D01*
X86928Y265319D01*
X89408Y264992D01*
X91888Y265319D01*
X94199Y266276D01*
X96184Y267799D01*
X97706Y269783D01*
X98664Y272094D01*
X98990Y274574D01*
X98664Y277054D01*
X97706Y279365D01*
X96184Y281350D01*
X94199Y282872D01*
X91888Y283829D01*
X89408Y284156D01*
D02*
G37*
G36*
X334772Y280854D02*
X332292Y280527D01*
X329981Y279570D01*
X327996Y278048D01*
X326474Y276063D01*
X325517Y273752D01*
X325190Y271272D01*
X325517Y268792D01*
X326474Y266481D01*
X327996Y264496D01*
X329981Y262974D01*
X332292Y262017D01*
X334772Y261690D01*
X337252Y262017D01*
X339563Y262974D01*
X341548Y264496D01*
X343070Y266481D01*
X344027Y268792D01*
X344354Y271272D01*
X344027Y273752D01*
X343070Y276063D01*
X341548Y278048D01*
X339563Y279570D01*
X337252Y280527D01*
X334772Y280854D01*
D02*
G37*
G36*
X592074Y265614D02*
X589594Y265287D01*
X587283Y264330D01*
X585299Y262808D01*
X583776Y260823D01*
X582818Y258512D01*
X582492Y256032D01*
X582818Y253552D01*
X583776Y251241D01*
X585299Y249256D01*
X587283Y247734D01*
X589594Y246777D01*
X592074Y246450D01*
X594554Y246777D01*
X596865Y247734D01*
X598849Y249256D01*
X600372Y251241D01*
X601329Y253552D01*
X601656Y256032D01*
X601329Y258512D01*
X600372Y260823D01*
X598849Y262808D01*
X596865Y264330D01*
X594554Y265287D01*
X592074Y265614D01*
D02*
G37*
G36*
X469646D02*
X467166Y265287D01*
X464855Y264330D01*
X462870Y262808D01*
X461348Y260823D01*
X460391Y258512D01*
X460064Y256032D01*
X460391Y253552D01*
X461348Y251241D01*
X462870Y249256D01*
X464855Y247734D01*
X467166Y246777D01*
X469646Y246450D01*
X472126Y246777D01*
X474437Y247734D01*
X476422Y249256D01*
X477944Y251241D01*
X478901Y253552D01*
X479228Y256032D01*
X478901Y258512D01*
X477944Y260823D01*
X476422Y262808D01*
X474437Y264330D01*
X472126Y265287D01*
X469646Y265614D01*
D02*
G37*
G36*
X994988Y261538D02*
X977988D01*
Y244538D01*
X994988D01*
Y261538D01*
D02*
G37*
G36*
X793496Y237420D02*
X791016Y237094D01*
X788705Y236136D01*
X786825Y234694D01*
X786393Y234506D01*
X785613D01*
X785181Y234694D01*
X783301Y236136D01*
X780990Y237094D01*
X778510Y237420D01*
X776030Y237094D01*
X773719Y236136D01*
X771734Y234613D01*
X770212Y232629D01*
X769255Y230318D01*
X768928Y227838D01*
X769255Y225358D01*
X770212Y223047D01*
X771734Y221063D01*
X773719Y219540D01*
X776030Y218582D01*
X778510Y218256D01*
X780990Y218582D01*
X783301Y219540D01*
X785181Y220982D01*
X785613Y221170D01*
X786393D01*
X786825Y220982D01*
X788705Y219540D01*
X791016Y218582D01*
X793496Y218256D01*
X795976Y218582D01*
X798287Y219540D01*
X800272Y221063D01*
X801794Y223047D01*
X802751Y225358D01*
X803078Y227838D01*
X802751Y230318D01*
X801794Y232629D01*
X800272Y234613D01*
X798287Y236136D01*
X795976Y237094D01*
X793496Y237420D01*
D02*
G37*
G36*
X986488Y236611D02*
X984269Y236319D01*
X982201Y235463D01*
X980426Y234100D01*
X979063Y232325D01*
X978207Y230257D01*
X977915Y228038D01*
X978207Y225819D01*
X979063Y223751D01*
X980426Y221976D01*
X982201Y220613D01*
X984269Y219757D01*
X986488Y219465D01*
X988707Y219757D01*
X990775Y220613D01*
X992550Y221976D01*
X993913Y223751D01*
X994769Y225819D01*
X995061Y228038D01*
X994769Y230257D01*
X993913Y232325D01*
X992550Y234100D01*
X990775Y235463D01*
X988707Y236319D01*
X986488Y236611D01*
D02*
G37*
G36*
X307594Y236912D02*
X305114Y236586D01*
X302803Y235628D01*
X300819Y234105D01*
X299296Y232121D01*
X298339Y229810D01*
X298012Y227330D01*
X298339Y224850D01*
X299296Y222539D01*
X300819Y220555D01*
X302803Y219032D01*
X305114Y218074D01*
X307594Y217748D01*
X310074Y218074D01*
X312385Y219032D01*
X314370Y220555D01*
X315892Y222539D01*
X316849Y224850D01*
X317176Y227330D01*
X316849Y229810D01*
X315892Y232121D01*
X314370Y234105D01*
X312385Y235628D01*
X310074Y236586D01*
X307594Y236912D01*
D02*
G37*
G36*
X183642D02*
X181162Y236586D01*
X178851Y235628D01*
X176866Y234105D01*
X175344Y232121D01*
X174387Y229810D01*
X174060Y227330D01*
X174387Y224850D01*
X175344Y222539D01*
X176866Y220555D01*
X177917Y219748D01*
Y218148D01*
X176866Y217341D01*
X175344Y215357D01*
X174860Y214189D01*
X172914Y214995D01*
X170434Y215322D01*
X167954Y214995D01*
X166009Y214190D01*
X164977Y214628D01*
X164674Y214896D01*
X164450Y216602D01*
X163492Y218913D01*
X161970Y220898D01*
X159985Y222420D01*
X157674Y223377D01*
X155194Y223704D01*
X152714Y223377D01*
X150403Y222420D01*
X148419Y220898D01*
X146896Y218913D01*
X145939Y216602D01*
X145612Y214122D01*
X145939Y211642D01*
X146896Y209331D01*
X148419Y207346D01*
X150403Y205824D01*
X152714Y204867D01*
X155194Y204540D01*
X157674Y204867D01*
X159619Y205672D01*
X160651Y205234D01*
X160954Y204966D01*
X161178Y203260D01*
X162136Y200949D01*
X163659Y198965D01*
X165643Y197442D01*
X167954Y196485D01*
X170434Y196158D01*
X172914Y196485D01*
X175225Y197442D01*
X177209Y198965D01*
X178732Y200949D01*
X179216Y202117D01*
X181162Y201311D01*
X183642Y200984D01*
X186122Y201311D01*
X188433Y202268D01*
X190417Y203790D01*
X191940Y205775D01*
X192897Y208086D01*
X193224Y210566D01*
X192897Y213046D01*
X191940Y215357D01*
X190417Y217341D01*
X189367Y218148D01*
Y219748D01*
X190417Y220555D01*
X191940Y222539D01*
X192897Y224850D01*
X193224Y227330D01*
X192897Y229810D01*
X191940Y232121D01*
X190417Y234105D01*
X188433Y235628D01*
X186122Y236586D01*
X183642Y236912D01*
D02*
G37*
G36*
X436880Y303718D02*
X434530Y303408D01*
X432341Y302502D01*
X430461Y301059D01*
X429019Y299179D01*
X428112Y296989D01*
X428106Y296950D01*
X404668Y273512D01*
X403423Y271889D01*
X402640Y269998D01*
X402373Y267970D01*
Y264160D01*
X402640Y262132D01*
X403423Y260242D01*
X404668Y258618D01*
X407453Y255834D01*
Y226821D01*
X407429Y226789D01*
X406522Y224599D01*
X406212Y222250D01*
X406522Y219900D01*
X407429Y217711D01*
X408871Y215831D01*
X410751Y214389D01*
X412940Y213482D01*
X415290Y213172D01*
X417640Y213482D01*
X419829Y214389D01*
X421709Y215831D01*
X423152Y217711D01*
X424058Y219900D01*
X424368Y222250D01*
X424058Y224599D01*
X423152Y226789D01*
X423127Y226821D01*
Y259080D01*
X422860Y261108D01*
X422077Y262999D01*
X420832Y264622D01*
X419388Y266065D01*
X439190Y285866D01*
X439230Y285872D01*
X441419Y286779D01*
X443299Y288221D01*
X444742Y290101D01*
X445648Y292290D01*
X445958Y294640D01*
X445648Y296989D01*
X444742Y299179D01*
X443299Y301059D01*
X441419Y302502D01*
X439230Y303408D01*
X436880Y303718D01*
D02*
G37*
G36*
X115316Y230308D02*
X112836Y229981D01*
X110525Y229024D01*
X108540Y227502D01*
X107018Y225517D01*
X106060Y223206D01*
X105734Y220726D01*
X106060Y218246D01*
X107018Y215935D01*
X108540Y213951D01*
X110525Y212428D01*
X112836Y211471D01*
X115316Y211144D01*
X117796Y211471D01*
X120107Y212428D01*
X122092Y213951D01*
X123614Y215935D01*
X124572Y218246D01*
X124898Y220726D01*
X124572Y223206D01*
X123614Y225517D01*
X122092Y227502D01*
X120107Y229024D01*
X117796Y229981D01*
X115316Y230308D01*
D02*
G37*
G36*
X897128Y283655D02*
X894909Y283363D01*
X892841Y282507D01*
X891066Y281144D01*
X889703Y279369D01*
X889289Y278369D01*
X880135Y269215D01*
X878885Y267586D01*
X878099Y265688D01*
X877831Y263652D01*
Y214038D01*
X877417Y213039D01*
X877125Y210820D01*
X877417Y208601D01*
X878273Y206533D01*
X879636Y204758D01*
X881411Y203395D01*
X883479Y202539D01*
X885698Y202247D01*
X887917Y202539D01*
X889985Y203395D01*
X891760Y204758D01*
X893123Y206533D01*
X893979Y208601D01*
X894271Y210820D01*
X893979Y213039D01*
X893565Y214038D01*
Y260393D01*
X900415Y267243D01*
X901415Y267657D01*
X903190Y269020D01*
X904553Y270795D01*
X905409Y272863D01*
X905701Y275082D01*
X905409Y277301D01*
X904553Y279369D01*
X903190Y281144D01*
X901415Y282507D01*
X899347Y283363D01*
X897128Y283655D01*
D02*
G37*
G36*
X200406Y208210D02*
X197926Y207883D01*
X195615Y206926D01*
X193631Y205403D01*
X192108Y203419D01*
X191150Y201108D01*
X190824Y198628D01*
X191150Y196148D01*
X192108Y193837D01*
X193631Y191852D01*
X195615Y190330D01*
X197926Y189373D01*
X200406Y189046D01*
X202886Y189373D01*
X205197Y190330D01*
X207181Y191852D01*
X208704Y193837D01*
X209662Y196148D01*
X209988Y198628D01*
X209662Y201108D01*
X208704Y203419D01*
X207181Y205403D01*
X205197Y206926D01*
X202886Y207883D01*
X200406Y208210D01*
D02*
G37*
G36*
X59436Y184334D02*
X56956Y184007D01*
X54645Y183050D01*
X52660Y181528D01*
X51138Y179543D01*
X50181Y177232D01*
X49854Y174752D01*
X50181Y172272D01*
X51138Y169961D01*
X52660Y167976D01*
X54645Y166454D01*
X56956Y165497D01*
X59436Y165170D01*
X61916Y165497D01*
X64227Y166454D01*
X66212Y167976D01*
X67734Y169961D01*
X68692Y172272D01*
X69018Y174752D01*
X68692Y177232D01*
X67734Y179543D01*
X66212Y181528D01*
X64227Y183050D01*
X61916Y184007D01*
X59436Y184334D01*
D02*
G37*
G36*
X309990Y171560D02*
X291990D01*
Y153560D01*
X309990D01*
Y171560D01*
D02*
G37*
G36*
X427990Y171638D02*
X425640Y171328D01*
X423451Y170422D01*
X421571Y168979D01*
X420129Y167099D01*
X419222Y164909D01*
X418912Y162560D01*
X419222Y160210D01*
X420129Y158021D01*
X421571Y156141D01*
X423451Y154698D01*
X425640Y153792D01*
X427990Y153482D01*
X430340Y153792D01*
X432529Y154698D01*
X434409Y156141D01*
X435852Y158021D01*
X436758Y160210D01*
X437068Y162560D01*
X436758Y164909D01*
X435852Y167099D01*
X434409Y168979D01*
X432529Y170422D01*
X430340Y171328D01*
X427990Y171638D01*
D02*
G37*
G36*
X402590D02*
X400241Y171328D01*
X398051Y170422D01*
X396171Y168979D01*
X394729Y167099D01*
X393822Y164909D01*
X393512Y162560D01*
X393822Y160210D01*
X394729Y158021D01*
X396171Y156141D01*
X398051Y154698D01*
X400241Y153792D01*
X402590Y153482D01*
X404939Y153792D01*
X407129Y154698D01*
X409009Y156141D01*
X410452Y158021D01*
X411358Y160210D01*
X411668Y162560D01*
X411358Y164909D01*
X410452Y167099D01*
X409009Y168979D01*
X407129Y170422D01*
X404939Y171328D01*
X402590Y171638D01*
D02*
G37*
G36*
X377190D02*
X374841Y171328D01*
X372651Y170422D01*
X370771Y168979D01*
X369328Y167099D01*
X368422Y164909D01*
X368112Y162560D01*
X368422Y160210D01*
X369328Y158021D01*
X370771Y156141D01*
X372651Y154698D01*
X374841Y153792D01*
X377190Y153482D01*
X379539Y153792D01*
X381729Y154698D01*
X383609Y156141D01*
X385051Y158021D01*
X385958Y160210D01*
X386268Y162560D01*
X385958Y164909D01*
X385051Y167099D01*
X383609Y168979D01*
X381729Y170422D01*
X379539Y171328D01*
X377190Y171638D01*
D02*
G37*
G36*
X326390D02*
X324040Y171328D01*
X321851Y170422D01*
X319971Y168979D01*
X318528Y167099D01*
X317622Y164909D01*
X317312Y162560D01*
X317622Y160210D01*
X318528Y158021D01*
X319971Y156141D01*
X321851Y154698D01*
X324040Y153792D01*
X326390Y153482D01*
X328740Y153792D01*
X330929Y154698D01*
X332809Y156141D01*
X334252Y158021D01*
X335158Y160210D01*
X335468Y162560D01*
X335158Y164909D01*
X334252Y167099D01*
X332809Y168979D01*
X330929Y170422D01*
X328740Y171328D01*
X326390Y171638D01*
D02*
G37*
G36*
X163068Y182556D02*
X160588Y182229D01*
X158277Y181272D01*
X156292Y179750D01*
X154770Y177765D01*
X153813Y175454D01*
X153486Y172974D01*
X153813Y170494D01*
X154770Y168183D01*
X155939Y166660D01*
X155785Y166542D01*
X154262Y164557D01*
X153305Y162246D01*
X152978Y159766D01*
X153305Y157286D01*
X154262Y154975D01*
X155785Y152991D01*
X155945Y152867D01*
Y151597D01*
X155235Y151053D01*
X153712Y149068D01*
X152755Y146757D01*
X152429Y144277D01*
X152725Y142025D01*
X151854Y141011D01*
X151070Y141335D01*
X148590Y141662D01*
X146110Y141335D01*
X143799Y140378D01*
X141814Y138855D01*
X140292Y136871D01*
X139334Y134560D01*
X139008Y132080D01*
X139334Y129600D01*
X140292Y127289D01*
X141814Y125304D01*
X143799Y123782D01*
X146110Y122824D01*
X148590Y122498D01*
X151070Y122824D01*
X153381Y123782D01*
X155365Y125304D01*
X156888Y127289D01*
X157845Y129600D01*
X158172Y132080D01*
X157875Y134333D01*
X158746Y135347D01*
X159530Y135022D01*
X162010Y134695D01*
X164491Y135022D01*
X166801Y135979D01*
X168786Y137502D01*
X170309Y139486D01*
X171266Y141797D01*
X171592Y144277D01*
X171266Y146757D01*
X170309Y149068D01*
X168786Y151053D01*
X168626Y151176D01*
Y152446D01*
X169335Y152991D01*
X170858Y154975D01*
X171815Y157286D01*
X172142Y159766D01*
X171815Y162246D01*
X170858Y164557D01*
X169689Y166080D01*
X169844Y166199D01*
X171366Y168183D01*
X172323Y170494D01*
X172650Y172974D01*
X172323Y175454D01*
X171366Y177765D01*
X169844Y179750D01*
X167859Y181272D01*
X165548Y182229D01*
X163068Y182556D01*
D02*
G37*
G36*
X681482Y127696D02*
X679133Y127386D01*
X676943Y126480D01*
X675063Y125037D01*
X673621Y123157D01*
X672714Y120968D01*
X672404Y118618D01*
X672714Y116269D01*
X673621Y114079D01*
X675063Y112199D01*
X676943Y110757D01*
X679133Y109850D01*
X681482Y109540D01*
X683831Y109850D01*
X686021Y110757D01*
X687901Y112199D01*
X689343Y114079D01*
X690250Y116269D01*
X690560Y118618D01*
X690250Y120968D01*
X689343Y123157D01*
X687901Y125037D01*
X686021Y126480D01*
X683831Y127386D01*
X681482Y127696D01*
D02*
G37*
G36*
X530860Y110932D02*
X528511Y110622D01*
X526321Y109715D01*
X524441Y108273D01*
X522999Y106393D01*
X522092Y104204D01*
X521782Y101854D01*
X522092Y99504D01*
X522999Y97315D01*
X524441Y95435D01*
X526321Y93993D01*
X528511Y93086D01*
X530860Y92776D01*
X533209Y93086D01*
X535399Y93993D01*
X537279Y95435D01*
X538722Y97315D01*
X539628Y99504D01*
X539938Y101854D01*
X539628Y104204D01*
X538722Y106393D01*
X537279Y108273D01*
X535399Y109715D01*
X533209Y110622D01*
X530860Y110932D01*
D02*
G37*
G36*
X44450Y216038D02*
X42101Y215728D01*
X39911Y214821D01*
X38031Y213379D01*
X36588Y211499D01*
X36553Y211412D01*
X31110Y205970D01*
X29668Y204090D01*
X28761Y201901D01*
X28452Y199551D01*
Y97853D01*
X28761Y95503D01*
X29668Y93314D01*
X31110Y91434D01*
X65971Y56573D01*
X67851Y55131D01*
X70040Y54224D01*
X72390Y53914D01*
X74739Y54224D01*
X76929Y55131D01*
X78809Y56573D01*
X80252Y58453D01*
X81158Y60642D01*
X81468Y62992D01*
X81158Y65342D01*
X80252Y67531D01*
X78809Y69411D01*
X46607Y101613D01*
Y195791D01*
X50869Y200053D01*
X52312Y201933D01*
X53218Y204122D01*
X53528Y206472D01*
Y206960D01*
X53218Y209310D01*
X52312Y211499D01*
X50869Y213379D01*
X48989Y214821D01*
X46800Y215728D01*
X44450Y216038D01*
D02*
G37*
G36*
X142240Y34732D02*
X139890Y34422D01*
X137701Y33516D01*
X135821Y32073D01*
X134378Y30193D01*
X133472Y28003D01*
X133162Y25654D01*
X133472Y23305D01*
X134378Y21115D01*
X135821Y19235D01*
X137701Y17793D01*
X139890Y16886D01*
X142240Y16576D01*
X144590Y16886D01*
X146779Y17793D01*
X148659Y19235D01*
X150101Y21115D01*
X151008Y23305D01*
X151318Y25654D01*
X151008Y28003D01*
X150101Y30193D01*
X148659Y32073D01*
X146779Y33516D01*
X144590Y34422D01*
X142240Y34732D01*
D02*
G37*
G36*
X398780Y30922D02*
X396431Y30612D01*
X394241Y29706D01*
X392361Y28263D01*
X390919Y26383D01*
X390012Y24193D01*
X389702Y21844D01*
X390012Y19495D01*
X390919Y17305D01*
X392361Y15425D01*
X394241Y13982D01*
X396431Y13076D01*
X398780Y12766D01*
X401129Y13076D01*
X403319Y13982D01*
X405199Y15425D01*
X406642Y17305D01*
X407548Y19495D01*
X407858Y21844D01*
X407548Y24193D01*
X406642Y26383D01*
X405199Y28263D01*
X403319Y29706D01*
X401129Y30612D01*
X398780Y30922D01*
D02*
G37*
G36*
X422910Y29652D02*
X420560Y29342D01*
X418371Y28435D01*
X416491Y26993D01*
X415048Y25113D01*
X414142Y22924D01*
X413832Y20574D01*
X414142Y18225D01*
X415048Y16035D01*
X416491Y14155D01*
X418371Y12713D01*
X420560Y11806D01*
X422910Y11496D01*
X425260Y11806D01*
X427449Y12713D01*
X429329Y14155D01*
X430771Y16035D01*
X431678Y18225D01*
X431988Y20574D01*
X431678Y22924D01*
X430771Y25113D01*
X429329Y26993D01*
X427449Y28435D01*
X425260Y29342D01*
X422910Y29652D01*
D02*
G37*
G36*
X311150D02*
X308801Y29342D01*
X306611Y28435D01*
X304731Y26993D01*
X303288Y25113D01*
X302382Y22924D01*
X302072Y20574D01*
X302382Y18225D01*
X303288Y16035D01*
X304731Y14155D01*
X306611Y12713D01*
X308801Y11806D01*
X311150Y11496D01*
X313500Y11806D01*
X315689Y12713D01*
X317569Y14155D01*
X319011Y16035D01*
X319918Y18225D01*
X320228Y20574D01*
X319918Y22924D01*
X319011Y25113D01*
X317569Y26993D01*
X315689Y28435D01*
X313500Y29342D01*
X311150Y29652D01*
D02*
G37*
G36*
X262890D02*
X260541Y29342D01*
X258351Y28435D01*
X256471Y26993D01*
X255028Y25113D01*
X254122Y22924D01*
X253812Y20574D01*
X254122Y18225D01*
X255028Y16035D01*
X256471Y14155D01*
X258351Y12713D01*
X260541Y11806D01*
X262890Y11496D01*
X265240Y11806D01*
X267429Y12713D01*
X269309Y14155D01*
X270751Y16035D01*
X271658Y18225D01*
X271968Y20574D01*
X271658Y22924D01*
X270751Y25113D01*
X269309Y26993D01*
X267429Y28435D01*
X265240Y29342D01*
X262890Y29652D01*
D02*
G37*
G36*
X176022Y28128D02*
X173673Y27818D01*
X171483Y26911D01*
X169603Y25469D01*
X168160Y23589D01*
X167254Y21400D01*
X166944Y19050D01*
X167254Y16701D01*
X168160Y14511D01*
X169603Y12631D01*
X171483Y11188D01*
X173673Y10282D01*
X176022Y9972D01*
X178372Y10282D01*
X180561Y11188D01*
X182441Y12631D01*
X183883Y14511D01*
X184790Y16701D01*
X185100Y19050D01*
X184790Y21400D01*
X183883Y23589D01*
X182441Y25469D01*
X180561Y26911D01*
X178372Y27818D01*
X176022Y28128D01*
D02*
G37*
%LPD*%
G36*
X79918Y676068D02*
X96642D01*
X105840Y666870D01*
X105354Y665696D01*
X83030D01*
X77154Y671572D01*
Y675442D01*
X78424Y676264D01*
X79918Y676068D01*
D02*
G37*
G36*
X143590Y618340D02*
X143104Y617167D01*
X122917D01*
X93100Y646983D01*
X93128Y647192D01*
X92837Y649398D01*
X92948Y649849D01*
X93495Y650668D01*
X111262D01*
X143590Y618340D01*
D02*
G37*
G36*
X633974Y458874D02*
Y457990D01*
X634230Y456046D01*
X634669Y454984D01*
X634980Y454233D01*
X635614Y453408D01*
Y448374D01*
X621249Y434009D01*
X620605Y434052D01*
X618620Y435574D01*
X616309Y436531D01*
X613829Y436858D01*
X611832Y436595D01*
X611239Y437798D01*
X632800Y459360D01*
X633974Y458874D01*
D02*
G37*
%LPC*%
G36*
X872490Y670247D02*
X870402Y669972D01*
X868456Y669166D01*
X866784Y667884D01*
X865502Y666212D01*
X864696Y664266D01*
X864421Y662178D01*
X864696Y660090D01*
X865502Y658143D01*
X866784Y656472D01*
X868456Y655190D01*
X870402Y654384D01*
X872490Y654109D01*
X874578Y654384D01*
X876525Y655190D01*
X878196Y656472D01*
X879478Y658143D01*
X880284Y660090D01*
X880559Y662178D01*
X880284Y664266D01*
X879478Y666212D01*
X878196Y667884D01*
X876525Y669166D01*
X874578Y669972D01*
X872490Y670247D01*
D02*
G37*
G36*
X811022Y613605D02*
X808934Y613330D01*
X806988Y612524D01*
X805316Y611242D01*
X804034Y609571D01*
X803228Y607624D01*
X802953Y605536D01*
X803228Y603448D01*
X804034Y601502D01*
X805316Y599830D01*
X806988Y598548D01*
X807763Y598227D01*
X808027Y597963D01*
Y596065D01*
X804117D01*
X794260Y605922D01*
X792713Y607109D01*
X790910Y607856D01*
X788976Y608110D01*
X779175D01*
X777241Y607856D01*
X775438Y607109D01*
X773891Y605922D01*
X772397Y604428D01*
X772162Y604459D01*
X770074Y604184D01*
X768128Y603378D01*
X766457Y602095D01*
X765174Y600424D01*
X764368Y598478D01*
X764093Y596390D01*
X764368Y594301D01*
X765174Y592355D01*
X766457Y590684D01*
X768128Y589402D01*
X769809Y588705D01*
X770506Y587024D01*
X771788Y585352D01*
X773459Y584070D01*
X775406Y583264D01*
X777494Y582989D01*
X779582Y583264D01*
X781528Y584070D01*
X783200Y585352D01*
X784482Y587024D01*
X784749Y587669D01*
X785995Y587916D01*
X794233Y579678D01*
X795781Y578490D01*
X797583Y577744D01*
X799518Y577489D01*
X807327D01*
Y568198D01*
X805824Y567046D01*
X804542Y565374D01*
X803736Y563428D01*
X803461Y561340D01*
X803736Y559252D01*
X804542Y557305D01*
X805824Y555634D01*
X807495Y554352D01*
X809442Y553546D01*
X811530Y553271D01*
X813618Y553546D01*
X813907Y553665D01*
X814963Y552960D01*
Y552556D01*
X815218Y550622D01*
X815964Y548820D01*
X817152Y547272D01*
X820343Y544081D01*
X821891Y542893D01*
X823693Y542146D01*
X825627Y541892D01*
X826508D01*
X826652Y541704D01*
X828324Y540422D01*
X830270Y539616D01*
X832358Y539341D01*
X834446Y539616D01*
X836393Y540422D01*
X838064Y541704D01*
X839346Y543376D01*
X840152Y545322D01*
X840427Y547410D01*
X840152Y549498D01*
X839456Y551180D01*
X840152Y552862D01*
X840427Y554950D01*
X840152Y557038D01*
X839346Y558984D01*
X838064Y560656D01*
X836393Y561938D01*
X834644Y562662D01*
X834751Y563476D01*
Y576814D01*
X834496Y578748D01*
X833750Y580550D01*
X832562Y582098D01*
X822972Y591688D01*
Y601059D01*
X822718Y602993D01*
X821971Y604795D01*
X820783Y606343D01*
X818331Y608795D01*
X818010Y609571D01*
X816728Y611242D01*
X815057Y612524D01*
X813110Y613330D01*
X811022Y613605D01*
D02*
G37*
G36*
X1005594Y600078D02*
X1003897Y599855D01*
X1002316Y599200D01*
X1000958Y598158D01*
X999916Y596800D01*
X999261Y595219D01*
X999038Y593522D01*
X999261Y591825D01*
X999916Y590244D01*
X1000958Y588886D01*
X1002316Y587844D01*
X1003897Y587189D01*
X1005594Y586966D01*
X1007291Y587189D01*
X1008872Y587844D01*
X1010230Y588886D01*
X1011272Y590244D01*
X1011927Y591825D01*
X1012150Y593522D01*
X1011927Y595219D01*
X1011272Y596800D01*
X1010230Y598158D01*
X1008872Y599200D01*
X1007291Y599855D01*
X1005594Y600078D01*
D02*
G37*
G36*
X994594Y589878D02*
X992897Y589655D01*
X991316Y589000D01*
X989958Y587958D01*
X988916Y586600D01*
X988261Y585019D01*
X988038Y583322D01*
X988261Y581625D01*
X988916Y580044D01*
X989958Y578686D01*
X991316Y577644D01*
X992897Y576989D01*
X994594Y576766D01*
X996291Y576989D01*
X997872Y577644D01*
X999230Y578686D01*
X1000272Y580044D01*
X1000927Y581625D01*
X1001150Y583322D01*
X1000927Y585019D01*
X1000272Y586600D01*
X999230Y587958D01*
X997872Y589000D01*
X996291Y589655D01*
X994594Y589878D01*
D02*
G37*
G36*
X1005594Y579678D02*
X1003897Y579455D01*
X1002316Y578800D01*
X1000958Y577758D01*
X999916Y576400D01*
X999261Y574819D01*
X999038Y573122D01*
X999261Y571425D01*
X999916Y569844D01*
X1000958Y568486D01*
X1002316Y567444D01*
X1003897Y566789D01*
X1005594Y566566D01*
X1007291Y566789D01*
X1008872Y567444D01*
X1010230Y568486D01*
X1011272Y569844D01*
X1011927Y571425D01*
X1012150Y573122D01*
X1011927Y574819D01*
X1011272Y576400D01*
X1010230Y577758D01*
X1008872Y578800D01*
X1007291Y579455D01*
X1005594Y579678D01*
D02*
G37*
G36*
X994594Y569478D02*
X992897Y569255D01*
X991316Y568600D01*
X989958Y567558D01*
X988916Y566200D01*
X988261Y564619D01*
X988038Y562922D01*
X988261Y561225D01*
X988916Y559644D01*
X989958Y558286D01*
X991316Y557244D01*
X992897Y556589D01*
X994594Y556366D01*
X996291Y556589D01*
X997872Y557244D01*
X999230Y558286D01*
X1000272Y559644D01*
X1000927Y561225D01*
X1001150Y562922D01*
X1000927Y564619D01*
X1000272Y566200D01*
X999230Y567558D01*
X997872Y568600D01*
X996291Y569255D01*
X994594Y569478D01*
D02*
G37*
G36*
X1005594Y559278D02*
X1003897Y559055D01*
X1002316Y558400D01*
X1000958Y557358D01*
X999916Y556000D01*
X999261Y554419D01*
X999038Y552722D01*
X999261Y551025D01*
X999916Y549444D01*
X1000958Y548086D01*
X1002316Y547044D01*
X1003897Y546389D01*
X1005594Y546166D01*
X1007291Y546389D01*
X1008872Y547044D01*
X1010230Y548086D01*
X1011272Y549444D01*
X1011927Y551025D01*
X1012150Y552722D01*
X1011927Y554419D01*
X1011272Y556000D01*
X1010230Y557358D01*
X1008872Y558400D01*
X1007291Y559055D01*
X1005594Y559278D01*
D02*
G37*
G36*
X994594Y549078D02*
X992897Y548855D01*
X991316Y548200D01*
X989958Y547158D01*
X988916Y545800D01*
X988261Y544219D01*
X988038Y542522D01*
X988261Y540825D01*
X988916Y539244D01*
X989958Y537886D01*
X991316Y536844D01*
X992897Y536189D01*
X994594Y535966D01*
X996291Y536189D01*
X997872Y536844D01*
X999230Y537886D01*
X1000272Y539244D01*
X1000927Y540825D01*
X1001150Y542522D01*
X1000927Y544219D01*
X1000272Y545800D01*
X999230Y547158D01*
X997872Y548200D01*
X996291Y548855D01*
X994594Y549078D01*
D02*
G37*
G36*
X948690Y631444D02*
X842772D01*
Y534162D01*
X854982D01*
X855503Y532892D01*
X854790Y531170D01*
X854515Y529082D01*
X854790Y526994D01*
X855596Y525047D01*
X856878Y523376D01*
X858549Y522094D01*
X860496Y521288D01*
X862584Y521013D01*
X864672Y521288D01*
X866618Y522094D01*
X868290Y523376D01*
X869572Y525047D01*
X870378Y526994D01*
X870653Y529082D01*
X870378Y531170D01*
X869665Y532892D01*
X870186Y534162D01*
X948690D01*
Y631444D01*
D02*
G37*
%LPD*%
D15*
X410210Y264160D02*
X415290Y259080D01*
X410210Y267970D02*
X436880Y294640D01*
X410210Y264160D02*
Y267970D01*
X415290Y222250D02*
Y259080D01*
D16*
X330073Y365125D02*
X367171D01*
X367806Y365760D01*
X329939Y365258D02*
X330073Y365125D01*
X561164Y466266D02*
X561570D01*
X339090Y524510D02*
X342392Y527812D01*
Y647192D01*
X351536Y656336D01*
X119888Y609854D02*
X155702D01*
X165100Y600456D01*
X565326Y468468D02*
X628142Y531284D01*
X498094Y293370D02*
X498348D01*
X561570Y466266D02*
X563772Y468468D01*
X560832Y474472D02*
X562864D01*
X563772Y468468D02*
X565326D01*
X551942Y465582D02*
X560832Y474472D01*
X562864D02*
X622046Y533654D01*
X628142Y531284D02*
Y572262D01*
X622046Y533654D02*
Y602488D01*
X636016Y616458D01*
X628142Y572262D02*
X638810Y582930D01*
X329946Y373634D02*
X330168Y373857D01*
X367975D02*
X368198Y374079D01*
X330168Y373857D02*
X367975D01*
X82550Y647192D02*
X119888Y609854D01*
D27*
X1016394Y507622D02*
D03*
Y530522D02*
D03*
Y648822D02*
D03*
X994594Y603722D02*
D03*
X1005594Y593522D02*
D03*
X994594Y562922D02*
D03*
X1016394Y625922D02*
D03*
X994594Y542522D02*
D03*
X1005594Y552722D02*
D03*
Y573122D02*
D03*
X994594Y583322D02*
D03*
D62*
X1069594Y658622D02*
D03*
Y497822D02*
D03*
D63*
X82550Y672592D02*
D03*
Y570992D02*
D03*
Y748792D02*
D03*
X57150D02*
D03*
Y570992D02*
D03*
Y672592D02*
D03*
X82550Y469392D02*
D03*
X57150D02*
D03*
X82550Y393192D02*
D03*
X57150D02*
D03*
Y316992D02*
D03*
X82550Y342392D02*
D03*
X57150D02*
D03*
Y697992D02*
D03*
X82550Y723392D02*
D03*
Y697992D02*
D03*
X57150Y723392D02*
D03*
Y545592D02*
D03*
X82550D02*
D03*
Y520192D02*
D03*
X57150Y418592D02*
D03*
X82550Y443992D02*
D03*
X57150Y647192D02*
D03*
Y520192D02*
D03*
X82550Y418592D02*
D03*
X57150Y621792D02*
D03*
X82550Y494792D02*
D03*
Y647192D02*
D03*
Y596392D02*
D03*
X57150D02*
D03*
X82550Y621792D02*
D03*
X57150Y443992D02*
D03*
Y494792D02*
D03*
Y367792D02*
D03*
X82550D02*
D03*
D64*
Y316992D02*
D03*
D65*
X351790Y162560D02*
D03*
X326390D02*
D03*
X402590D02*
D03*
X377190D02*
D03*
X427990D02*
D03*
D66*
X44450Y251460D02*
D03*
Y206960D02*
D03*
D67*
X14450Y269210D02*
D03*
Y189210D02*
D03*
D68*
X1005594Y613922D02*
D03*
D69*
X521944Y774232D02*
D03*
X451944D02*
D03*
X486944D02*
D03*
X556944D02*
D03*
D70*
X986488Y253038D02*
D03*
X987552Y372472D02*
D03*
D71*
X986488Y228038D02*
D03*
X987552Y347472D02*
D03*
D72*
X300990Y162560D02*
D03*
D73*
X197358Y639826D02*
D03*
X163322Y320294D02*
D03*
X287274Y357378D02*
D03*
X1088644Y717042D02*
D03*
X1038860Y782574D02*
D03*
X431292Y436118D02*
D03*
X567690Y301498D02*
D03*
X468630Y411226D02*
D03*
X118618Y490220D02*
D03*
X196850Y450342D02*
D03*
X120650Y581152D02*
D03*
X350266Y747268D02*
D03*
X353568Y798322D02*
D03*
X165100Y814578D02*
D03*
X191516Y723138D02*
D03*
X122428Y726694D02*
D03*
X91186Y792226D02*
D03*
X23622Y715010D02*
D03*
Y648970D02*
D03*
Y550164D02*
D03*
Y484124D02*
D03*
X23876Y418084D02*
D03*
X24384Y314198D02*
D03*
X22860Y86614D02*
D03*
X22352Y151130D02*
D03*
X244602Y287020D02*
D03*
X254000Y248158D02*
D03*
X243840Y200406D02*
D03*
X242062Y150368D02*
D03*
X119380Y24384D02*
D03*
X114046Y98552D02*
D03*
X221488Y108712D02*
D03*
X175514Y54864D02*
D03*
X335788Y102108D02*
D03*
X311658Y56134D02*
D03*
X400558Y56388D02*
D03*
X547116Y53086D02*
D03*
X461518Y52070D02*
D03*
X456184Y177800D02*
D03*
X498856Y143764D02*
D03*
X692658Y170434D02*
D03*
X753872Y141732D02*
D03*
X748538Y44450D02*
D03*
X876300Y57658D02*
D03*
X881126Y138684D02*
D03*
X810260Y287020D02*
D03*
X943356Y283718D02*
D03*
X939546Y407924D02*
D03*
X814578Y314452D02*
D03*
X941324Y317754D02*
D03*
X936244Y190754D02*
D03*
X804164Y188976D02*
D03*
X636270Y251460D02*
D03*
X681482Y287782D02*
D03*
X842264Y357378D02*
D03*
X814070Y408432D02*
D03*
X721360Y395224D02*
D03*
X721868Y445262D02*
D03*
X673354Y469138D02*
D03*
X600202Y579120D02*
D03*
X636778Y675386D02*
D03*
X635762Y721106D02*
D03*
X640842Y780796D02*
D03*
X715010Y780288D02*
D03*
X802386Y780796D02*
D03*
X914908Y780288D02*
D03*
X914146Y710946D02*
D03*
X802386Y711454D02*
D03*
X578612Y655320D02*
D03*
X607822Y653542D02*
D03*
X606044Y677164D02*
D03*
X607060Y665480D02*
D03*
X488442Y526034D02*
D03*
X180086Y564896D02*
D03*
X613829Y427276D02*
D03*
X578104Y361442D02*
D03*
X569722Y369570D02*
D03*
X575564Y378206D02*
D03*
X597154Y644398D02*
D03*
X624840Y625094D02*
D03*
X598678Y605790D02*
D03*
X576580Y527050D02*
D03*
X588772Y524002D02*
D03*
X562864Y530860D02*
D03*
X684530Y429514D02*
D03*
X659130Y435610D02*
D03*
X615188Y388874D02*
D03*
X650748Y290830D02*
D03*
X650494Y273304D02*
D03*
X597662Y245872D02*
D03*
X594106Y231140D02*
D03*
X516382Y300990D02*
D03*
X518922Y292100D02*
D03*
X479044Y246380D02*
D03*
X498602Y229362D02*
D03*
X472186Y229616D02*
D03*
X449326Y237490D02*
D03*
X313944Y355600D02*
D03*
X324612Y348234D02*
D03*
X409194Y349758D02*
D03*
X414274Y408178D02*
D03*
X411734Y422402D02*
D03*
X398272Y432308D02*
D03*
X386080Y500888D02*
D03*
X337820Y511810D02*
D03*
X182372Y634238D02*
D03*
X168656Y684784D02*
D03*
X149098Y685038D02*
D03*
X132080Y560832D02*
D03*
X179324Y614426D02*
D03*
X141732Y615696D02*
D03*
X159258Y473710D02*
D03*
X133096Y524256D02*
D03*
X165100Y430022D02*
D03*
X149098Y429260D02*
D03*
X166370Y367030D02*
D03*
X153670Y366268D02*
D03*
X100330Y325882D02*
D03*
X88392Y287528D02*
D03*
X48006Y134874D02*
D03*
X76962Y135128D02*
D03*
X115824Y132080D02*
D03*
X161798D02*
D03*
X207264Y158496D02*
D03*
X195834Y134620D02*
D03*
X206756Y175006D02*
D03*
X213106Y190500D02*
D03*
X75184Y221742D02*
D03*
X59690Y200152D02*
D03*
X785622Y216154D02*
D03*
Y273050D02*
D03*
X841756Y256794D02*
D03*
X840740Y241300D02*
D03*
X807974Y217424D02*
D03*
X840740Y229616D02*
D03*
X854964Y257556D02*
D03*
X854456Y243840D02*
D03*
X854710Y229108D02*
D03*
X808736Y271780D02*
D03*
X624078Y415290D02*
D03*
X647700Y434340D02*
D03*
X664210Y387858D02*
D03*
X653542Y384302D02*
D03*
X640842Y384556D02*
D03*
X620776Y397256D02*
D03*
X640334Y310134D02*
D03*
X655828Y308864D02*
D03*
X669544D02*
D03*
X673608Y332486D02*
D03*
X667258Y356616D02*
D03*
X655066Y359664D02*
D03*
X643128Y355346D02*
D03*
X626872Y447548D02*
D03*
X635762Y447802D02*
D03*
X336804Y482854D02*
D03*
X336296Y490220D02*
D03*
X580644Y519176D02*
D03*
X564896Y518922D02*
D03*
X488442Y509778D02*
D03*
X455168Y502666D02*
D03*
X433324Y523240D02*
D03*
X850138Y280162D02*
D03*
X791972Y344678D02*
D03*
Y378714D02*
D03*
X397002Y419862D02*
D03*
X183642Y210566D02*
D03*
Y227330D02*
D03*
X163068Y172974D02*
D03*
X636524Y494792D02*
D03*
X567944Y449326D02*
D03*
X646938Y460248D02*
D03*
X398018Y351028D02*
D03*
X398272Y407416D02*
D03*
X610363Y303021D02*
D03*
X612140Y281940D02*
D03*
X503428Y473710D02*
D03*
X572394Y260365D02*
D03*
X500888Y253492D02*
D03*
X398018Y464820D02*
D03*
X397685Y362379D02*
D03*
X592074Y256032D02*
D03*
X469646D02*
D03*
X447548Y257302D02*
D03*
X773938Y377698D02*
D03*
X334010Y284226D02*
D03*
X334772Y271272D02*
D03*
X271526Y284226D02*
D03*
X357124Y351536D02*
D03*
X341122Y351282D02*
D03*
X370840Y483870D02*
D03*
X336263Y499925D02*
D03*
X372077Y500179D02*
D03*
X345948Y519430D02*
D03*
X566420Y624840D02*
D03*
X607060Y624332D02*
D03*
X774446Y344932D02*
D03*
X778510Y261112D02*
D03*
X794258D02*
D03*
X778510Y227838D02*
D03*
X793496D02*
D03*
X847344Y398272D02*
D03*
X917786Y241510D02*
D03*
X854742Y202287D02*
D03*
X53340Y242824D02*
D03*
X59436Y174752D02*
D03*
X85852Y225044D02*
D03*
X89408Y274574D02*
D03*
X988060Y670052D02*
D03*
X839978Y662178D02*
D03*
X771906Y640334D02*
D03*
X767588Y530860D02*
D03*
X990854Y486410D02*
D03*
Y469646D02*
D03*
X833882Y521462D02*
D03*
X790956Y498602D02*
D03*
X772922Y482600D02*
D03*
X749300Y640842D02*
D03*
X708152Y642366D02*
D03*
X697738Y641350D02*
D03*
X641604Y566166D02*
D03*
Y549656D02*
D03*
X692912Y418338D02*
D03*
X692404Y400050D02*
D03*
X916636Y358902D02*
D03*
X852678Y320294D02*
D03*
X698754Y344424D02*
D03*
X699262Y321818D02*
D03*
X640080Y373634D02*
D03*
X647192Y282448D02*
D03*
X645922Y299974D02*
D03*
X580644Y369824D02*
D03*
X509524Y292100D02*
D03*
X592328Y239522D02*
D03*
X501142D02*
D03*
X468630Y239268D02*
D03*
X209804Y236220D02*
D03*
X209296Y201168D02*
D03*
X195253Y159766D02*
D03*
X267716Y155702D02*
D03*
X195284Y144277D02*
D03*
X115316Y220726D02*
D03*
X155194Y214122D02*
D03*
X170434Y205740D02*
D03*
X162560Y159766D02*
D03*
X162010Y144277D02*
D03*
X546354Y572008D02*
D03*
X486918Y572770D02*
D03*
X200406Y198628D02*
D03*
X462534Y648462D02*
D03*
X307594Y227330D02*
D03*
X492760Y729488D02*
D03*
X713994Y507492D02*
D03*
X698246Y507746D02*
D03*
X148590Y132080D02*
D03*
X638810Y633222D02*
D03*
X434086Y507746D02*
D03*
X477266Y307086D02*
D03*
X490474Y242316D02*
D03*
X484395Y295165D02*
D03*
X749300Y534670D02*
D03*
X498094Y293370D02*
D03*
X756666Y542544D02*
D03*
X753872Y555244D02*
D03*
X641350Y598932D02*
D03*
X641096Y516890D02*
D03*
X688848Y576072D02*
D03*
X526034Y727964D02*
D03*
X562356Y590550D02*
D03*
X522732Y650240D02*
D03*
X502920Y590042D02*
D03*
D74*
X116078Y322326D02*
D03*
X519575Y260357D02*
D03*
X570738Y467106D02*
D03*
X393700Y299720D02*
D03*
X422656Y304800D02*
D03*
X561164Y466266D02*
D03*
X576580Y186690D02*
D03*
X339090Y524510D02*
D03*
X351536Y656336D02*
D03*
X597154Y99060D02*
D03*
X501368Y184431D02*
D03*
X800862Y607314D02*
D03*
X753110Y732790D02*
D03*
X715264Y729996D02*
D03*
X406908Y304546D02*
D03*
X160020Y674624D02*
D03*
X160274Y634746D02*
D03*
X155702Y597916D02*
D03*
X155448Y530606D02*
D03*
Y557784D02*
D03*
X300990Y326898D02*
D03*
X300736Y312166D02*
D03*
X153162Y488950D02*
D03*
X159258Y408178D02*
D03*
X159766Y383032D02*
D03*
X18542Y235712D02*
D03*
X10922Y234442D02*
D03*
X17526Y223266D02*
D03*
X10414Y224028D02*
D03*
X188468Y184912D02*
D03*
X176022D02*
D03*
X59436Y141478D02*
D03*
X177800Y128778D02*
D03*
X90932Y137922D02*
D03*
X130048Y268478D02*
D03*
X313436Y337312D02*
D03*
X298450Y322480D02*
D03*
X411988Y304800D02*
D03*
X298450Y316940D02*
D03*
X417528Y304800D02*
D03*
X720598Y555498D02*
D03*
X615696Y364744D02*
D03*
X790956Y641350D02*
D03*
X810006Y640334D02*
D03*
X872490Y662178D02*
D03*
X580898Y424688D02*
D03*
X862584Y529082D02*
D03*
X796036Y451104D02*
D03*
X777494Y591058D02*
D03*
X772162Y596390D02*
D03*
X455422Y511810D02*
D03*
X464312Y512572D02*
D03*
X811022Y605536D02*
D03*
X811530Y561340D02*
D03*
X832358Y547410D02*
D03*
Y554950D02*
D03*
X551942Y465582D02*
D03*
X636016Y616458D02*
D03*
X638810Y582930D02*
D03*
X634492Y528066D02*
D03*
X606298Y470154D02*
D03*
X697992Y544882D02*
D03*
X742188Y608330D02*
D03*
X928370Y482346D02*
D03*
X738886Y618236D02*
D03*
X748284Y608330D02*
D03*
X774572Y524636D02*
D03*
X961644Y662940D02*
D03*
X962152Y500634D02*
D03*
X563880Y233680D02*
D03*
X558800Y238760D02*
D03*
X577850Y323850D02*
D03*
X557530Y254000D02*
D03*
X538330Y243840D02*
D03*
X438150Y200660D02*
D03*
X410210Y121920D02*
D03*
X403860Y125730D02*
D03*
D75*
X973328Y785876D02*
D03*
X176276Y767080D02*
D03*
X799592Y97536D02*
D03*
X72390Y62992D02*
D03*
D76*
X973497Y785704D02*
D03*
X367806Y365760D02*
D03*
X384810Y279400D02*
D03*
X886206Y393192D02*
D03*
X855953Y332974D02*
D03*
X329939Y365258D02*
D03*
X367538Y472694D02*
D03*
X332232Y548640D02*
D03*
X530860Y101854D02*
D03*
X422910Y20574D02*
D03*
X311150D02*
D03*
X176022Y19050D02*
D03*
X142240Y25654D02*
D03*
X461010Y20574D02*
D03*
X563880Y99314D02*
D03*
X548640Y20574D02*
D03*
X415290Y222250D02*
D03*
X436880Y294640D02*
D03*
X170180Y241046D02*
D03*
X672592Y79248D02*
D03*
Y58928D02*
D03*
Y37338D02*
D03*
X637032Y109728D02*
D03*
X598424Y119380D02*
D03*
X415798Y582168D02*
D03*
X351536Y633476D02*
D03*
X429260Y100584D02*
D03*
X193040D02*
D03*
X140462Y481330D02*
D03*
X165354Y486918D02*
D03*
X146304Y600964D02*
D03*
X165100Y600456D02*
D03*
X411480Y647700D02*
D03*
X424434Y558038D02*
D03*
X329946Y373634D02*
D03*
X391160Y254000D02*
D03*
X368198Y374079D02*
D03*
X681482Y118618D02*
D03*
X165100Y531622D02*
D03*
X367030Y643128D02*
D03*
X398780Y21844D02*
D03*
X262890Y20574D02*
D03*
X146304Y552704D02*
D03*
X165862Y552958D02*
D03*
D77*
X897128Y275082D02*
D03*
X885698Y210820D02*
D03*
D78*
X740618Y575780D02*
D03*
Y587780D02*
D03*
D79*
X1064094Y691489D02*
G03*
X1062661Y694955I-5000J-38D01*
G01*
X940652Y813294D02*
G03*
X940891Y813081I3452J3617D01*
G01*
X935727Y818020D02*
G03*
X932274Y819404I-3453J-3616D01*
G01*
X202654Y800824D02*
G03*
X202244Y800360I3532J-3540D01*
G01*
X935765Y100289D02*
G03*
X939191Y101753I-109J4999D01*
G01*
X1064094Y691489D02*
X1064094Y691473D01*
X940891Y813081D02*
X973328Y785876D01*
X973497Y785704D02*
X1062661Y694955D01*
X940642Y813304D02*
X940652Y813294D01*
X935727Y818020D02*
X940642Y813304D01*
X973328Y785876D02*
X973497Y785704D01*
X221234Y819404D02*
X932274D01*
X1064094Y660932D02*
Y691473D01*
X202654Y800824D02*
X221234Y819404D01*
X176276Y767080D02*
X202244Y800360D01*
X939191Y101753D02*
X1023112Y185674D01*
X799592Y97536D02*
X935765Y100289D01*
X37529Y97853D02*
X72390Y62992D01*
X37529Y97853D02*
Y199551D01*
X44450Y206472D01*
Y206960D01*
X1023112Y405384D02*
X1069594Y451866D01*
X1023112Y185674D02*
Y405384D01*
X1069594Y451866D02*
Y497822D01*
X1066404Y658622D02*
X1069594D01*
X1064094Y660932D02*
X1066404Y658622D01*
D80*
X642576Y444710D02*
G03*
X642748Y444909I-1348J1339D01*
G01*
X605127Y407288D02*
G03*
X605326Y407460I-1140J1520D01*
G01*
X603987Y406908D02*
G03*
X605127Y407288I0J1900D01*
G01*
X642748Y444909D02*
G03*
X643128Y446049I-1520J1140D01*
G01*
X629917Y494646D02*
G03*
X629727Y494632I42J-1900D01*
G01*
X610606Y491961D02*
G03*
X610402Y491784I1140J-1520D01*
G01*
X611507Y492326D02*
G03*
X610606Y491961I239J-1885D01*
G01*
X312465Y338283D02*
G03*
X311125Y338836I-1340J-1347D01*
G01*
X221643Y338456D02*
G03*
X221447Y338287I1140J-1520D01*
G01*
D02*
G03*
X221444Y338284I1336J-1351D01*
G01*
X222783Y338836D02*
G03*
X221643Y338456I0J-1900D01*
G01*
X605326Y407460D02*
X642576Y444710D01*
X643128Y446049D02*
Y456351D01*
X570992Y406908D02*
X603987D01*
X641488Y457990D02*
X643128Y456351D01*
X330813Y480209D02*
Y522024D01*
Y480209D02*
X338328Y472694D01*
X367538D01*
X330813Y522024D02*
X332232Y523444D01*
X643128Y466090D02*
X647330Y470292D01*
X647672D01*
X650864Y473484D01*
Y473826D01*
X629917Y494646D02*
X636524Y494792D01*
X611507Y492326D02*
X629720Y494632D01*
X629727Y494632D01*
X623264Y470154D02*
X697992Y544882D01*
X606298Y470154D02*
X623264D01*
X567944Y449326D02*
X610402Y491784D01*
X587502Y424688D02*
X639964Y477150D01*
Y477999D01*
X643157Y481192D01*
X641488Y457990D02*
Y462505D01*
X643128Y464146D02*
Y466090D01*
X641488Y462505D02*
X643128Y464146D01*
X650864Y473826D02*
X724662Y547624D01*
X643157Y481192D02*
X644006D01*
X652675Y489861D01*
X398018Y464820D02*
X513080D01*
X519575Y217315D02*
Y260357D01*
X302424Y469429D02*
X490474Y281379D01*
Y242316D02*
Y281379D01*
X114374Y658182D02*
X302424Y470132D01*
X513080Y464820D02*
X570992Y406908D01*
X502920Y200660D02*
X519575Y217315D01*
X302424Y469429D02*
Y470132D01*
X222783Y338836D02*
X311125D01*
X312465Y338283D02*
X313436Y337312D01*
X151638Y268478D02*
X221444Y338284D01*
X332232Y523444D02*
Y548640D01*
X130048Y268478D02*
X151638D01*
X82550Y418592D02*
X83889Y419931D01*
X93287D02*
X160274Y486918D01*
X165354D01*
X83889Y419931D02*
X93287D01*
X103124Y443992D02*
X140462Y481330D01*
X82550Y443992D02*
X103124D01*
X84050Y520192D02*
X98414Y534556D01*
X157527D01*
X159868Y532215D01*
X164507D01*
X165100Y531622D01*
X105132Y600710D02*
X146050D01*
X146304Y600964D01*
X79918Y658182D02*
X114374D01*
X652675Y489861D02*
X654961D01*
X720598Y555498D01*
X580898Y424688D02*
X587502D01*
X695452Y486664D02*
X728726D01*
X704403Y470408D02*
X729996D01*
X488452Y303794D02*
X531876Y347218D01*
X572770D01*
X488452Y299222D02*
Y303794D01*
X484395Y295165D02*
X488452Y299222D01*
X99754Y683582D02*
X476250Y307086D01*
X477266D01*
X84050Y621792D02*
X105132Y600710D01*
X458614Y134620D02*
X558800Y234806D01*
Y238760D01*
X79918Y683582D02*
X99754D01*
X69640Y693860D02*
X79918Y683582D01*
X69640Y693860D02*
Y712402D01*
X58650Y723392D02*
X69640Y712402D01*
X57150Y723392D02*
X58650D01*
X69640Y668460D02*
X79918Y658182D01*
X69640Y668460D02*
Y687002D01*
X58650Y697992D02*
X69640Y687002D01*
X57150Y697992D02*
X58650D01*
X729996Y470408D02*
X746506D01*
X700024D02*
X704403D01*
X728726Y486664D02*
X732741D01*
X692150D02*
X695452D01*
X756666Y480568D02*
Y542544D01*
X746506Y470408D02*
X756666Y480568D01*
X692150Y462534D02*
X700024Y470408D01*
X692150Y447548D02*
Y462534D01*
X582422Y337820D02*
X692150Y447548D01*
X542798Y337820D02*
X582422D01*
X614172Y377190D02*
X683641Y446659D01*
Y478155D01*
X602742Y377190D02*
X614172D01*
X683641Y478155D02*
X692150Y486664D01*
X732741D02*
X748235Y502158D01*
X749300Y503223D02*
Y534670D01*
X572770Y347218D02*
X602742Y377190D01*
X498348Y293370D02*
X542798Y337820D01*
X746252Y547624D02*
X753872Y555244D01*
X724662Y547624D02*
X746252D01*
X546404Y323850D02*
X577850D01*
X524027Y301473D02*
X546404Y323850D01*
X524565Y214685D02*
Y300935D01*
X524027Y301473D02*
X524565Y300935D01*
X422910Y134620D02*
X458614D01*
X410210Y121920D02*
X422910Y134620D01*
X451854Y141974D02*
X524565Y214685D01*
X438150Y200660D02*
X502920D01*
X420104Y141974D02*
X451854D01*
X82550Y520192D02*
X84050D01*
X82550Y621792D02*
X84050D01*
X146050Y552958D02*
X146304Y552704D01*
X127484Y552958D02*
X146050D01*
X84050Y596392D02*
X127484Y552958D01*
X82550Y596392D02*
X84050D01*
X158496Y545592D02*
X165862Y552958D01*
X82550Y545592D02*
X158496D01*
X403860Y125730D02*
X420104Y141974D01*
D81*
X570738Y467106D02*
X631459Y527827D01*
X634253D01*
X634492Y528066D01*
X571500Y191770D02*
X576580Y186690D01*
X563880Y132334D02*
X597154Y99060D01*
X501368Y184431D02*
X538330Y221393D01*
Y243840D01*
X563880Y132334D02*
Y233680D01*
X557530Y254000D02*
X571500Y240030D01*
Y191770D02*
Y240030D01*
D83*
X384810Y260350D02*
Y279400D01*
Y260350D02*
X391160Y254000D01*
X301016Y321360D02*
X334817D01*
X300126Y322250D02*
X301016Y321360D01*
X298450Y322480D02*
X298680Y322250D01*
X300126D01*
X404923Y293671D02*
X411852Y300600D01*
Y304664D01*
X411988Y304800D01*
X334817Y321360D02*
X362505Y293671D01*
X404923D01*
X298450Y316940D02*
X298680Y317170D01*
X300126D01*
X301016Y318060D01*
X417298Y304570D02*
X417528Y304800D01*
X417298Y301380D02*
Y304570D01*
X406290Y290371D02*
X417298Y301380D01*
X301016Y318060D02*
X333450D01*
X361138Y290371D01*
X406290D01*
X104116Y703326D02*
X401320D01*
X428244Y676402D01*
X82550Y697992D02*
X398526D01*
X742324Y599304D02*
X827532Y514096D01*
Y496316D02*
Y514096D01*
X742324Y599304D02*
Y608194D01*
X82550Y723392D02*
X84050D01*
X104116Y703326D01*
X428244Y589026D02*
Y676402D01*
Y589026D02*
X464312Y552958D01*
Y512572D02*
Y552958D01*
X423672Y586232D02*
Y672846D01*
X398526Y697992D02*
X423672Y672846D01*
X455422Y511810D02*
Y554482D01*
X423672Y586232D02*
X455422Y554482D01*
X990730Y507622D02*
X1016394D01*
X948690Y465582D02*
X990730Y507622D01*
X918972Y465582D02*
X948690D01*
X904748Y479806D02*
X918972Y465582D01*
X844042Y479806D02*
X904748D01*
X827532Y496316D02*
X844042Y479806D01*
X742188Y608330D02*
X742324Y608194D01*
X738886Y618236D02*
X745744Y625094D01*
X821436D01*
X963120Y679196D02*
X1016394Y625922D01*
X843534Y679196D02*
X963120D01*
X826262Y661924D02*
X843534Y679196D01*
X826262Y629920D02*
Y661924D01*
X821436Y625094D02*
X826262Y629920D01*
D86*
X886206Y356616D02*
Y393192D01*
X862564Y332974D02*
X886206Y356616D01*
X855953Y332974D02*
X862564D01*
X885698Y263652D02*
X897128Y275082D01*
X885698Y210820D02*
Y263652D01*
D89*
X748235Y502158D02*
X748235D01*
X749300Y503223D01*
D93*
X221444Y338284D02*
D03*
D94*
X772771Y596998D02*
X775536D01*
X778103Y591667D02*
Y594431D01*
X777494Y591058D02*
X778103Y591667D01*
Y594431D02*
X780678Y597007D01*
X772162Y596390D02*
X772771Y596998D01*
X815499Y588592D02*
X827278Y576814D01*
X815499Y588592D02*
Y601059D01*
X811022Y605536D02*
X815499Y601059D01*
X811530Y561340D02*
X814799Y564609D01*
Y578072D01*
X817843Y581115D01*
X823648Y575310D01*
X779175Y600638D02*
X788976D01*
X775536Y596998D02*
X779175Y600638D01*
X799518Y584962D02*
X813996D01*
X788976Y600638D02*
X801021Y588592D01*
X780678Y597007D02*
X787473D01*
X799518Y584962D01*
X801021Y588592D02*
X815499D01*
X813996Y584962D02*
X817843Y581115D01*
X829542Y549365D02*
X831497Y547410D01*
X825627Y549365D02*
X829542D01*
X822436Y552556D02*
Y563768D01*
X831497Y547410D02*
X832358D01*
X822436Y563768D02*
X823648Y564980D01*
Y575310D01*
X822436Y552556D02*
X825627Y549365D01*
X829542Y552995D02*
X831497Y554950D01*
X826066Y554060D02*
Y562264D01*
X831497Y554950D02*
X832358D01*
X827131Y552995D02*
X829542D01*
X827278Y563476D02*
Y576814D01*
X826066Y562264D02*
X827278Y563476D01*
X826066Y554060D02*
X827131Y552995D01*
M02*
