G04*
G04 #@! TF.GenerationSoftware,Altium Limited,Altium Designer,26.7.1 (11)*
G04*
G04 Layer_Color=16711935*
G04 Board_Origin=13100000|9600000*
%FSLAX44Y44*%
%MOMM*%
G71*
G04*
G04 #@! TF.SameCoordinates,315E0430-F018-45A6-B114-9BAE23A5CA95*
G04*
G04*
G04 #@! TF.FilePolarity,Negative*
G04*
G01*
G75*
%ADD27C,1.0000*%
%ADD62O,2.6000X1.0000*%
%ADD63O,1.8000X1.5000*%
%ADD64R,1.8000X1.5000*%
%ADD65C,1.5000*%
%ADD66O,1.2500X1.0500*%
%ADD67R,1.9000X1.4000*%
%ADD68R,1.0000X1.0000*%
%ADD69C,1.9000*%
%ADD70R,1.4000X1.4000*%
%ADD71C,1.4000*%
%ADD72R,1.5000X1.5000*%
%ADD73C,0.6000*%
%ADD74C,0.3000*%
%ADD75C,6.5000*%
%ADD76C,0.5000*%
%ADD77C,0.4000*%
%ADD78C,0.6600*%
D27*
X1016394Y507622D02*
D03*
Y530522D02*
D03*
Y648822D02*
D03*
X994594Y603722D02*
D03*
X1005594Y593522D02*
D03*
X994594Y562922D02*
D03*
X1016394Y625922D02*
D03*
X994594Y542522D02*
D03*
X1005594Y552722D02*
D03*
Y573122D02*
D03*
X994594Y583322D02*
D03*
D62*
X1069594Y658622D02*
D03*
Y497822D02*
D03*
D63*
X82550Y672592D02*
D03*
Y570992D02*
D03*
Y748792D02*
D03*
X57150D02*
D03*
Y570992D02*
D03*
Y672592D02*
D03*
X82550Y469392D02*
D03*
X57150D02*
D03*
X82550Y393192D02*
D03*
X57150D02*
D03*
Y316992D02*
D03*
X82550Y342392D02*
D03*
X57150D02*
D03*
Y697992D02*
D03*
X82550Y723392D02*
D03*
Y697992D02*
D03*
X57150Y723392D02*
D03*
Y545592D02*
D03*
X82550D02*
D03*
Y520192D02*
D03*
X57150Y418592D02*
D03*
X82550Y443992D02*
D03*
X57150Y647192D02*
D03*
Y520192D02*
D03*
X82550Y418592D02*
D03*
X57150Y621792D02*
D03*
X82550Y494792D02*
D03*
Y647192D02*
D03*
Y596392D02*
D03*
X57150D02*
D03*
X82550Y621792D02*
D03*
X57150Y443992D02*
D03*
Y494792D02*
D03*
Y367792D02*
D03*
X82550D02*
D03*
D64*
Y316992D02*
D03*
D65*
X351790Y162560D02*
D03*
X326390D02*
D03*
X402590D02*
D03*
X377190D02*
D03*
X427990D02*
D03*
D66*
X44450Y251460D02*
D03*
Y206960D02*
D03*
D67*
X14450Y269210D02*
D03*
Y189210D02*
D03*
D68*
X1005594Y613922D02*
D03*
D69*
X521944Y774232D02*
D03*
X451944D02*
D03*
X486944D02*
D03*
X556944D02*
D03*
D70*
X986488Y253038D02*
D03*
X987552Y372472D02*
D03*
D71*
X986488Y228038D02*
D03*
X987552Y347472D02*
D03*
D72*
X300990Y162560D02*
D03*
D73*
X197358Y639826D02*
D03*
X163322Y320294D02*
D03*
X287274Y357378D02*
D03*
X1088644Y717042D02*
D03*
X1038860Y782574D02*
D03*
X431292Y436118D02*
D03*
X567690Y301498D02*
D03*
X468630Y411226D02*
D03*
X118618Y490220D02*
D03*
X196850Y450342D02*
D03*
X120650Y581152D02*
D03*
X350266Y747268D02*
D03*
X353568Y798322D02*
D03*
X165100Y814578D02*
D03*
X191516Y723138D02*
D03*
X122428Y726694D02*
D03*
X91186Y792226D02*
D03*
X23622Y715010D02*
D03*
Y648970D02*
D03*
Y550164D02*
D03*
Y484124D02*
D03*
X23876Y418084D02*
D03*
X24384Y314198D02*
D03*
X22860Y86614D02*
D03*
X22352Y151130D02*
D03*
X244602Y287020D02*
D03*
X254000Y248158D02*
D03*
X243840Y200406D02*
D03*
X242062Y150368D02*
D03*
X119380Y24384D02*
D03*
X114046Y98552D02*
D03*
X221488Y108712D02*
D03*
X175514Y54864D02*
D03*
X335788Y102108D02*
D03*
X311658Y56134D02*
D03*
X400558Y56388D02*
D03*
X547116Y53086D02*
D03*
X461518Y52070D02*
D03*
X456184Y177800D02*
D03*
X498856Y143764D02*
D03*
X692658Y170434D02*
D03*
X753872Y141732D02*
D03*
X748538Y44450D02*
D03*
X876300Y57658D02*
D03*
X881126Y138684D02*
D03*
X810260Y287020D02*
D03*
X943356Y283718D02*
D03*
X939546Y407924D02*
D03*
X814578Y314452D02*
D03*
X941324Y317754D02*
D03*
X936244Y190754D02*
D03*
X804164Y188976D02*
D03*
X636270Y251460D02*
D03*
X681482Y287782D02*
D03*
X842264Y357378D02*
D03*
X814070Y408432D02*
D03*
X721360Y395224D02*
D03*
X721868Y445262D02*
D03*
X673354Y469138D02*
D03*
X600202Y579120D02*
D03*
X636778Y675386D02*
D03*
X635762Y721106D02*
D03*
X640842Y780796D02*
D03*
X715010Y780288D02*
D03*
X802386Y780796D02*
D03*
X914908Y780288D02*
D03*
X914146Y710946D02*
D03*
X802386Y711454D02*
D03*
X578612Y655320D02*
D03*
X607822Y653542D02*
D03*
X606044Y677164D02*
D03*
X607060Y665480D02*
D03*
X488442Y526034D02*
D03*
X180086Y564896D02*
D03*
X613829Y427276D02*
D03*
X578104Y361442D02*
D03*
X569722Y369570D02*
D03*
X575564Y378206D02*
D03*
X597154Y644398D02*
D03*
X624840Y625094D02*
D03*
X598678Y605790D02*
D03*
X576580Y527050D02*
D03*
X588772Y524002D02*
D03*
X562864Y530860D02*
D03*
X684530Y429514D02*
D03*
X659130Y435610D02*
D03*
X615188Y388874D02*
D03*
X650748Y290830D02*
D03*
X650494Y273304D02*
D03*
X597662Y245872D02*
D03*
X594106Y231140D02*
D03*
X516382Y300990D02*
D03*
X518922Y292100D02*
D03*
X479044Y246380D02*
D03*
X498602Y229362D02*
D03*
X472186Y229616D02*
D03*
X449326Y237490D02*
D03*
X313944Y355600D02*
D03*
X324612Y348234D02*
D03*
X409194Y349758D02*
D03*
X414274Y408178D02*
D03*
X411734Y422402D02*
D03*
X398272Y432308D02*
D03*
X386080Y500888D02*
D03*
X337820Y511810D02*
D03*
X182372Y634238D02*
D03*
X168656Y684784D02*
D03*
X149098Y685038D02*
D03*
X132080Y560832D02*
D03*
X179324Y614426D02*
D03*
X141732Y615696D02*
D03*
X159258Y473710D02*
D03*
X133096Y524256D02*
D03*
X165100Y430022D02*
D03*
X149098Y429260D02*
D03*
X166370Y367030D02*
D03*
X153670Y366268D02*
D03*
X100330Y325882D02*
D03*
X88392Y287528D02*
D03*
X48006Y134874D02*
D03*
X76962Y135128D02*
D03*
X115824Y132080D02*
D03*
X161798D02*
D03*
X207264Y158496D02*
D03*
X195834Y134620D02*
D03*
X206756Y175006D02*
D03*
X213106Y190500D02*
D03*
X75184Y221742D02*
D03*
X59690Y200152D02*
D03*
X785622Y216154D02*
D03*
Y273050D02*
D03*
X841756Y256794D02*
D03*
X840740Y241300D02*
D03*
X807974Y217424D02*
D03*
X840740Y229616D02*
D03*
X854964Y257556D02*
D03*
X854456Y243840D02*
D03*
X854710Y229108D02*
D03*
X808736Y271780D02*
D03*
X624078Y415290D02*
D03*
X647700Y434340D02*
D03*
X664210Y387858D02*
D03*
X653542Y384302D02*
D03*
X640842Y384556D02*
D03*
X620776Y397256D02*
D03*
X640334Y310134D02*
D03*
X655828Y308864D02*
D03*
X669544D02*
D03*
X673608Y332486D02*
D03*
X667258Y356616D02*
D03*
X655066Y359664D02*
D03*
X643128Y355346D02*
D03*
X626872Y447548D02*
D03*
X635762Y447802D02*
D03*
X336804Y482854D02*
D03*
X336296Y490220D02*
D03*
X580644Y519176D02*
D03*
X564896Y518922D02*
D03*
X488442Y509778D02*
D03*
X455168Y502666D02*
D03*
X433324Y523240D02*
D03*
X850138Y280162D02*
D03*
X791972Y344678D02*
D03*
Y378714D02*
D03*
X397002Y419862D02*
D03*
X183642Y210566D02*
D03*
Y227330D02*
D03*
X163068Y172974D02*
D03*
X636524Y494792D02*
D03*
X567944Y449326D02*
D03*
X646938Y460248D02*
D03*
X398018Y351028D02*
D03*
X398272Y407416D02*
D03*
X610363Y303021D02*
D03*
X612140Y281940D02*
D03*
X503428Y473710D02*
D03*
X572394Y260365D02*
D03*
X500888Y253492D02*
D03*
X398018Y464820D02*
D03*
X397685Y362379D02*
D03*
X592074Y256032D02*
D03*
X469646D02*
D03*
X447548Y257302D02*
D03*
X773938Y377698D02*
D03*
X334010Y284226D02*
D03*
X334772Y271272D02*
D03*
X271526Y284226D02*
D03*
X357124Y351536D02*
D03*
X341122Y351282D02*
D03*
X370840Y483870D02*
D03*
X336263Y499925D02*
D03*
X372077Y500179D02*
D03*
X345948Y519430D02*
D03*
X566420Y624840D02*
D03*
X607060Y624332D02*
D03*
X774446Y344932D02*
D03*
X778510Y261112D02*
D03*
X794258D02*
D03*
X778510Y227838D02*
D03*
X793496D02*
D03*
X847344Y398272D02*
D03*
X917786Y241510D02*
D03*
X854742Y202287D02*
D03*
X53340Y242824D02*
D03*
X59436Y174752D02*
D03*
X85852Y225044D02*
D03*
X89408Y274574D02*
D03*
X988060Y670052D02*
D03*
X839978Y662178D02*
D03*
X771906Y640334D02*
D03*
X767588Y530860D02*
D03*
X990854Y486410D02*
D03*
Y469646D02*
D03*
X833882Y521462D02*
D03*
X790956Y498602D02*
D03*
X772922Y482600D02*
D03*
X749300Y640842D02*
D03*
X708152Y642366D02*
D03*
X697738Y641350D02*
D03*
X641604Y566166D02*
D03*
Y549656D02*
D03*
X692912Y418338D02*
D03*
X692404Y400050D02*
D03*
X916636Y358902D02*
D03*
X852678Y320294D02*
D03*
X698754Y344424D02*
D03*
X699262Y321818D02*
D03*
X640080Y373634D02*
D03*
X647192Y282448D02*
D03*
X645922Y299974D02*
D03*
X580644Y369824D02*
D03*
X509524Y292100D02*
D03*
X592328Y239522D02*
D03*
X501142D02*
D03*
X468630Y239268D02*
D03*
X209804Y236220D02*
D03*
X209296Y201168D02*
D03*
X195253Y159766D02*
D03*
X267716Y155702D02*
D03*
X195284Y144277D02*
D03*
X115316Y220726D02*
D03*
X155194Y214122D02*
D03*
X170434Y205740D02*
D03*
X162560Y159766D02*
D03*
X162010Y144277D02*
D03*
X546354Y572008D02*
D03*
X486918Y572770D02*
D03*
X200406Y198628D02*
D03*
X462534Y648462D02*
D03*
X307594Y227330D02*
D03*
X492760Y729488D02*
D03*
X713994Y507492D02*
D03*
X698246Y507746D02*
D03*
X148590Y132080D02*
D03*
X638810Y633222D02*
D03*
X434086Y507746D02*
D03*
X477266Y307086D02*
D03*
X490474Y242316D02*
D03*
X484395Y295165D02*
D03*
X749300Y534670D02*
D03*
X498094Y293370D02*
D03*
X756666Y542544D02*
D03*
X753872Y555244D02*
D03*
X641350Y598932D02*
D03*
X641096Y516890D02*
D03*
X688848Y576072D02*
D03*
X526034Y727964D02*
D03*
X562356Y590550D02*
D03*
X522732Y650240D02*
D03*
X502920Y590042D02*
D03*
D74*
X116078Y322326D02*
D03*
X519575Y260357D02*
D03*
X570738Y467106D02*
D03*
X393700Y299720D02*
D03*
X422656Y304800D02*
D03*
X561164Y466266D02*
D03*
X576580Y186690D02*
D03*
X339090Y524510D02*
D03*
X351536Y656336D02*
D03*
X597154Y99060D02*
D03*
X501368Y184431D02*
D03*
X800862Y607314D02*
D03*
X753110Y732790D02*
D03*
X715264Y729996D02*
D03*
X406908Y304546D02*
D03*
X160020Y674624D02*
D03*
X160274Y634746D02*
D03*
X155702Y597916D02*
D03*
X155448Y530606D02*
D03*
Y557784D02*
D03*
X300990Y326898D02*
D03*
X300736Y312166D02*
D03*
X153162Y488950D02*
D03*
X159258Y408178D02*
D03*
X159766Y383032D02*
D03*
X18542Y235712D02*
D03*
X10922Y234442D02*
D03*
X17526Y223266D02*
D03*
X10414Y224028D02*
D03*
X188468Y184912D02*
D03*
X176022D02*
D03*
X59436Y141478D02*
D03*
X177800Y128778D02*
D03*
X90932Y137922D02*
D03*
X130048Y268478D02*
D03*
X313436Y337312D02*
D03*
X298450Y322480D02*
D03*
X411988Y304800D02*
D03*
X298450Y316940D02*
D03*
X417528Y304800D02*
D03*
X720598Y555498D02*
D03*
X615696Y364744D02*
D03*
X790956Y641350D02*
D03*
X810006Y640334D02*
D03*
X872490Y662178D02*
D03*
X580898Y424688D02*
D03*
X862584Y529082D02*
D03*
X796036Y451104D02*
D03*
X777494Y591058D02*
D03*
X772162Y596390D02*
D03*
X455422Y511810D02*
D03*
X464312Y512572D02*
D03*
X811022Y605536D02*
D03*
X811530Y561340D02*
D03*
X832358Y547410D02*
D03*
Y554950D02*
D03*
X551942Y465582D02*
D03*
X636016Y616458D02*
D03*
X638810Y582930D02*
D03*
X634492Y528066D02*
D03*
X606298Y470154D02*
D03*
X697992Y544882D02*
D03*
X742188Y608330D02*
D03*
X928370Y482346D02*
D03*
X738886Y618236D02*
D03*
X748284Y608330D02*
D03*
X774572Y524636D02*
D03*
X961644Y662940D02*
D03*
X962152Y500634D02*
D03*
X563880Y233680D02*
D03*
X558800Y238760D02*
D03*
X577850Y323850D02*
D03*
X557530Y254000D02*
D03*
X538330Y243840D02*
D03*
X438150Y200660D02*
D03*
X410210Y121920D02*
D03*
X403860Y125730D02*
D03*
D75*
X973328Y785876D02*
D03*
X176276Y767080D02*
D03*
X799592Y97536D02*
D03*
X72390Y62992D02*
D03*
D76*
X367806Y365760D02*
D03*
X384810Y279400D02*
D03*
X886206Y393192D02*
D03*
X855953Y332974D02*
D03*
X329939Y365258D02*
D03*
X367538Y472694D02*
D03*
X332232Y548640D02*
D03*
X530860Y101854D02*
D03*
X422910Y20574D02*
D03*
X311150D02*
D03*
X176022Y19050D02*
D03*
X142240Y25654D02*
D03*
X461010Y20574D02*
D03*
X563880Y99314D02*
D03*
X548640Y20574D02*
D03*
X415290Y222250D02*
D03*
X436880Y294640D02*
D03*
X170180Y241046D02*
D03*
X672592Y79248D02*
D03*
Y58928D02*
D03*
Y37338D02*
D03*
X637032Y109728D02*
D03*
X598424Y119380D02*
D03*
X415798Y582168D02*
D03*
X351536Y633476D02*
D03*
X429260Y100584D02*
D03*
X193040D02*
D03*
X140462Y481330D02*
D03*
X165354Y486918D02*
D03*
X146304Y600964D02*
D03*
X165100Y600456D02*
D03*
X411480Y647700D02*
D03*
X424434Y558038D02*
D03*
X329946Y373634D02*
D03*
X391160Y254000D02*
D03*
X368198Y374079D02*
D03*
X681482Y118618D02*
D03*
X165100Y531622D02*
D03*
X367030Y643128D02*
D03*
X398780Y21844D02*
D03*
X262890Y20574D02*
D03*
X146304Y552704D02*
D03*
X165862Y552958D02*
D03*
D77*
X897128Y275082D02*
D03*
X885698Y210820D02*
D03*
D78*
X740618Y575780D02*
D03*
Y587780D02*
D03*
M02*
