G04*
G04 #@! TF.GenerationSoftware,Altium Limited,Altium Designer,26.7.1 (11)*
G04*
G04 Layer_Physical_Order=2*
G04 Layer_Color=16440176*
G04 Board_Origin=13100000|9600000*
%FSLAX44Y44*%
%MOMM*%
G71*
G04*
G04 #@! TF.SameCoordinates,315E0430-F018-45A6-B114-9BAE23A5CA95*
G04*
G04*
G04 #@! TF.FilePolarity,Positive*
G04*
G01*
G75*
%ADD27C,1.0000*%
%ADD62O,2.6000X1.0000*%
%ADD63O,1.8000X1.5000*%
%ADD64R,1.8000X1.5000*%
%ADD65C,1.5000*%
%ADD66O,1.2500X1.0500*%
%ADD67R,1.9000X1.4000*%
%ADD68R,1.0000X1.0000*%
%ADD69C,1.9000*%
%ADD70R,1.4000X1.4000*%
%ADD71C,1.4000*%
%ADD72R,1.5000X1.5000*%
%ADD73C,0.6000*%
%ADD74C,0.3000*%
%ADD75C,6.5000*%
%ADD76C,0.5000*%
%ADD77C,0.4000*%
%ADD78C,0.6600*%
G36*
X586105Y555117D02*
X533400Y555117D01*
Y492633D01*
X518795D01*
Y549148D01*
X518795Y549148D01*
X518795Y549149D01*
X518763Y549470D01*
X518517Y550065D01*
X518517Y550065D01*
X518061Y550521D01*
X517466Y550767D01*
X517144Y550799D01*
X441071Y550799D01*
Y832358D01*
X586105D01*
Y555117D01*
D02*
G37*
G36*
X1114552Y749300D02*
Y650385D01*
X1029970D01*
X1029137Y650219D01*
X1028431Y649747D01*
X1027959Y649041D01*
X1027793Y648208D01*
Y508254D01*
X1027959Y507421D01*
X1028431Y506715D01*
X1029137Y506243D01*
X1029970Y506077D01*
X1117600D01*
Y467614D01*
X1042162Y392176D01*
X1042162Y179578D01*
X869696Y7112D01*
X51308D01*
X3670Y54749D01*
X4966Y756806D01*
X80518Y832358D01*
X437769Y832358D01*
X437769Y549148D01*
X437801Y548826D01*
X438047Y548231D01*
X438503Y547775D01*
X439098Y547529D01*
X439420Y547497D01*
X515493D01*
Y489331D01*
X537972D01*
Y551815D01*
X587756D01*
X588078Y551847D01*
X588673Y552093D01*
X589129Y552549D01*
X589375Y553144D01*
X589407Y553466D01*
Y832358D01*
X1031494D01*
X1114552Y749300D01*
D02*
G37*
%LPC*%
G36*
X558392Y785232D02*
X555496D01*
X552698Y784482D01*
X550190Y783034D01*
X548142Y780986D01*
X546694Y778478D01*
X545944Y775680D01*
Y772784D01*
X546694Y769986D01*
X548142Y767478D01*
X550190Y765430D01*
X552698Y763982D01*
X555496Y763232D01*
X558392D01*
X561190Y763982D01*
X563698Y765430D01*
X565746Y767478D01*
X567194Y769986D01*
X567944Y772784D01*
Y775680D01*
X567194Y778478D01*
X565746Y780986D01*
X563698Y783034D01*
X561190Y784482D01*
X558392Y785232D01*
D02*
G37*
G36*
X488392D02*
X485496D01*
X482698Y784482D01*
X480190Y783034D01*
X478142Y780986D01*
X476694Y778478D01*
X475944Y775680D01*
Y772784D01*
X476694Y769986D01*
X478142Y767478D01*
X480190Y765430D01*
X482698Y763982D01*
X485496Y763232D01*
X488392D01*
X491190Y763982D01*
X493698Y765430D01*
X495746Y767478D01*
X497194Y769986D01*
X497944Y772784D01*
Y775680D01*
X497194Y778478D01*
X495746Y780986D01*
X493698Y783034D01*
X491190Y784482D01*
X488392Y785232D01*
D02*
G37*
G36*
X567315Y629340D02*
X565525D01*
X563871Y628655D01*
X562605Y627389D01*
X561920Y625735D01*
Y623945D01*
X562605Y622291D01*
X563871Y621025D01*
X565525Y620340D01*
X567315D01*
X568969Y621025D01*
X570235Y622291D01*
X570920Y623945D01*
Y625735D01*
X570235Y627389D01*
X568969Y628655D01*
X567315Y629340D01*
D02*
G37*
G36*
X487813Y577270D02*
X486023D01*
X484369Y576585D01*
X483103Y575319D01*
X482418Y573665D01*
Y571875D01*
X483103Y570221D01*
X484369Y568955D01*
X486023Y568270D01*
X487813D01*
X489467Y568955D01*
X490733Y570221D01*
X491418Y571875D01*
Y573665D01*
X490733Y575319D01*
X489467Y576585D01*
X487813Y577270D01*
D02*
G37*
G36*
X547249Y576508D02*
X545459D01*
X543805Y575823D01*
X542539Y574557D01*
X541854Y572903D01*
Y571113D01*
X542539Y569459D01*
X543805Y568193D01*
X545459Y567508D01*
X547249D01*
X548903Y568193D01*
X550169Y569459D01*
X550854Y571113D01*
Y572903D01*
X550169Y574557D01*
X548903Y575823D01*
X547249Y576508D01*
D02*
G37*
G36*
X84050Y732470D02*
X81050D01*
X78700Y732160D01*
X76511Y731254D01*
X74631Y729811D01*
X73189Y727931D01*
X72282Y725742D01*
X71972Y723392D01*
X72282Y721042D01*
X73189Y718853D01*
X74631Y716973D01*
X76511Y715530D01*
X78700Y714624D01*
X81050Y714314D01*
X84050D01*
X86399Y714624D01*
X88589Y715530D01*
X90469Y716973D01*
X91911Y718853D01*
X92818Y721042D01*
X93128Y723392D01*
X92818Y725742D01*
X91911Y727931D01*
X90469Y729811D01*
X88589Y731254D01*
X86399Y732160D01*
X84050Y732470D01*
D02*
G37*
G36*
X58650D02*
X55650D01*
X53300Y732160D01*
X51111Y731254D01*
X49231Y729811D01*
X47789Y727931D01*
X46882Y725742D01*
X46572Y723392D01*
X46882Y721042D01*
X47789Y718853D01*
X49231Y716973D01*
X51111Y715530D01*
X53300Y714624D01*
X55650Y714314D01*
X58650D01*
X60999Y714624D01*
X63189Y715530D01*
X65069Y716973D01*
X66511Y718853D01*
X67418Y721042D01*
X67728Y723392D01*
X67418Y725742D01*
X66511Y727931D01*
X65069Y729811D01*
X63189Y731254D01*
X60999Y732160D01*
X58650Y732470D01*
D02*
G37*
G36*
X84050Y707070D02*
X81050D01*
X78700Y706760D01*
X76511Y705854D01*
X74631Y704411D01*
X73189Y702531D01*
X72282Y700341D01*
X71972Y697992D01*
X72282Y695642D01*
X73189Y693453D01*
X74631Y691573D01*
X76511Y690130D01*
X78700Y689224D01*
X81050Y688914D01*
X84050D01*
X86399Y689224D01*
X88589Y690130D01*
X90469Y691573D01*
X91911Y693453D01*
X92818Y695642D01*
X93128Y697992D01*
X92818Y700341D01*
X91911Y702531D01*
X90469Y704411D01*
X88589Y705854D01*
X86399Y706760D01*
X84050Y707070D01*
D02*
G37*
G36*
X58650D02*
X55650D01*
X53300Y706760D01*
X51111Y705854D01*
X49231Y704411D01*
X47789Y702531D01*
X46882Y700341D01*
X46572Y697992D01*
X46882Y695642D01*
X47789Y693453D01*
X49231Y691573D01*
X51111Y690130D01*
X53300Y689224D01*
X55650Y688914D01*
X58650D01*
X60999Y689224D01*
X63189Y690130D01*
X65069Y691573D01*
X66511Y693453D01*
X67418Y695642D01*
X67728Y697992D01*
X67418Y700341D01*
X66511Y702531D01*
X65069Y704411D01*
X63189Y705854D01*
X60999Y706760D01*
X58650Y707070D01*
D02*
G37*
G36*
X607314Y682634D02*
Y678434D01*
X611514D01*
X610741Y680302D01*
X609182Y681861D01*
X607314Y682634D01*
D02*
G37*
G36*
X604774D02*
X602906Y681861D01*
X601347Y680302D01*
X600574Y678434D01*
X604774D01*
Y682634D01*
D02*
G37*
G36*
X611514Y675894D02*
X607314D01*
Y671694D01*
X609182Y672467D01*
X610741Y674026D01*
X611514Y675894D01*
D02*
G37*
G36*
X604774D02*
X600574D01*
X601347Y674026D01*
X602906Y672467D01*
X604774Y671694D01*
Y675894D01*
D02*
G37*
G36*
X962241Y665940D02*
X961047D01*
X959945Y665483D01*
X959101Y664639D01*
X958644Y663537D01*
Y662343D01*
X959101Y661241D01*
X959945Y660397D01*
X961047Y659940D01*
X962241D01*
X963343Y660397D01*
X964187Y661241D01*
X964644Y662343D01*
Y663537D01*
X964187Y664639D01*
X963343Y665483D01*
X962241Y665940D01*
D02*
G37*
G36*
X873087Y665178D02*
X871893D01*
X870791Y664721D01*
X869947Y663877D01*
X869490Y662775D01*
Y661581D01*
X869947Y660479D01*
X870791Y659635D01*
X871893Y659178D01*
X873087D01*
X874189Y659635D01*
X875033Y660479D01*
X875490Y661581D01*
Y662775D01*
X875033Y663877D01*
X874189Y664721D01*
X873087Y665178D01*
D02*
G37*
G36*
X609092Y659012D02*
Y654812D01*
X613292D01*
X612519Y656680D01*
X610960Y658239D01*
X609092Y659012D01*
D02*
G37*
G36*
X606552D02*
X604684Y658239D01*
X603125Y656680D01*
X602352Y654812D01*
X606552D01*
Y659012D01*
D02*
G37*
G36*
X352133Y659336D02*
X350939D01*
X349837Y658879D01*
X348993Y658035D01*
X348536Y656933D01*
Y655739D01*
X348993Y654637D01*
X349837Y653793D01*
X350939Y653336D01*
X352133D01*
X353235Y653793D01*
X354079Y654637D01*
X354536Y655739D01*
Y656933D01*
X354079Y658035D01*
X353235Y658879D01*
X352133Y659336D01*
D02*
G37*
G36*
X613292Y652272D02*
X609092D01*
Y648072D01*
X610960Y648845D01*
X612519Y650404D01*
X613292Y652272D01*
D02*
G37*
G36*
X606552D02*
X602352D01*
X603125Y650404D01*
X604684Y648845D01*
X606552Y648072D01*
Y652272D01*
D02*
G37*
G36*
X412276Y651700D02*
X410684D01*
X409214Y651091D01*
X408089Y649966D01*
X407480Y648496D01*
Y646904D01*
X408089Y645434D01*
X409214Y644309D01*
X410684Y643700D01*
X412276D01*
X413746Y644309D01*
X414871Y645434D01*
X415480Y646904D01*
Y648496D01*
X414871Y649966D01*
X413746Y651091D01*
X412276Y651700D01*
D02*
G37*
G36*
X1017250Y655322D02*
X1015538D01*
X1013885Y654879D01*
X1012403Y654023D01*
X1011193Y652813D01*
X1010337Y651331D01*
X1009894Y649678D01*
Y647966D01*
X1010337Y646313D01*
X1011193Y644831D01*
X1012403Y643621D01*
X1013885Y642765D01*
X1015538Y642322D01*
X1017250D01*
X1018903Y642765D01*
X1020385Y643621D01*
X1021595Y644831D01*
X1022451Y646313D01*
X1022894Y647966D01*
Y649678D01*
X1022451Y651331D01*
X1021595Y652813D01*
X1020385Y654023D01*
X1018903Y654879D01*
X1017250Y655322D01*
D02*
G37*
G36*
X367826Y647128D02*
X366234D01*
X364764Y646519D01*
X363639Y645394D01*
X363030Y643924D01*
Y642332D01*
X363639Y640862D01*
X364764Y639737D01*
X366234Y639128D01*
X367826D01*
X369296Y639737D01*
X370421Y640862D01*
X371030Y642332D01*
Y643924D01*
X370421Y645394D01*
X369296Y646519D01*
X367826Y647128D01*
D02*
G37*
G36*
X791553Y644350D02*
X790359D01*
X789257Y643893D01*
X788413Y643049D01*
X787956Y641947D01*
Y640753D01*
X788413Y639651D01*
X789257Y638807D01*
X790359Y638350D01*
X791553D01*
X792655Y638807D01*
X793499Y639651D01*
X793956Y640753D01*
Y641947D01*
X793499Y643049D01*
X792655Y643893D01*
X791553Y644350D01*
D02*
G37*
G36*
X84050Y656270D02*
X81050D01*
X78700Y655960D01*
X76511Y655053D01*
X74631Y653611D01*
X73189Y651731D01*
X72282Y649541D01*
X71972Y647192D01*
X72282Y644843D01*
X73189Y642653D01*
X74631Y640773D01*
X76511Y639330D01*
X78700Y638424D01*
X81050Y638114D01*
X84050D01*
X86399Y638424D01*
X88589Y639330D01*
X90469Y640773D01*
X91911Y642653D01*
X92818Y644843D01*
X93128Y647192D01*
X92818Y649541D01*
X91911Y651731D01*
X90469Y653611D01*
X88589Y655053D01*
X86399Y655960D01*
X84050Y656270D01*
D02*
G37*
G36*
X58650D02*
X55650D01*
X53300Y655960D01*
X51111Y655053D01*
X49231Y653611D01*
X47789Y651731D01*
X46882Y649541D01*
X46572Y647192D01*
X46882Y644843D01*
X47789Y642653D01*
X49231Y640773D01*
X51111Y639330D01*
X53300Y638424D01*
X55650Y638114D01*
X58650D01*
X60999Y638424D01*
X63189Y639330D01*
X65069Y640773D01*
X66511Y642653D01*
X67418Y644843D01*
X67728Y647192D01*
X67418Y649541D01*
X66511Y651731D01*
X65069Y653611D01*
X63189Y655053D01*
X60999Y655960D01*
X58650Y656270D01*
D02*
G37*
G36*
X810603Y643334D02*
X809409D01*
X808307Y642877D01*
X807463Y642033D01*
X807006Y640931D01*
Y639737D01*
X807463Y638635D01*
X808307Y637791D01*
X809409Y637334D01*
X810603D01*
X811705Y637791D01*
X812549Y638635D01*
X813006Y639737D01*
Y640931D01*
X812549Y642033D01*
X811705Y642877D01*
X810603Y643334D01*
D02*
G37*
G36*
X639705Y637722D02*
X637915D01*
X636261Y637037D01*
X634995Y635771D01*
X634310Y634117D01*
Y632327D01*
X634995Y630673D01*
X636261Y629407D01*
X637915Y628722D01*
X639705D01*
X641359Y629407D01*
X642625Y630673D01*
X643310Y632327D01*
Y634117D01*
X642625Y635771D01*
X641359Y637037D01*
X639705Y637722D01*
D02*
G37*
G36*
X607955Y628832D02*
X606165D01*
X604511Y628147D01*
X603245Y626881D01*
X602560Y625227D01*
Y623437D01*
X603245Y621783D01*
X604511Y620517D01*
X606165Y619832D01*
X607955D01*
X609609Y620517D01*
X610875Y621783D01*
X611560Y623437D01*
Y625227D01*
X610875Y626881D01*
X609609Y628147D01*
X607955Y628832D01*
D02*
G37*
G36*
X1017250Y632422D02*
X1015538D01*
X1013885Y631979D01*
X1012403Y631123D01*
X1011193Y629913D01*
X1010337Y628431D01*
X1009894Y626778D01*
Y625066D01*
X1010337Y623413D01*
X1011193Y621931D01*
X1011202Y621922D01*
X1010580Y620422D01*
X999094D01*
Y610362D01*
X997594Y609496D01*
X997103Y609779D01*
X995450Y610222D01*
X993738D01*
X992085Y609779D01*
X990603Y608923D01*
X989393Y607713D01*
X988537Y606231D01*
X988094Y604578D01*
Y602866D01*
X988537Y601213D01*
X989393Y599731D01*
X990603Y598521D01*
X992085Y597665D01*
X993738Y597222D01*
X995450D01*
X997103Y597665D01*
X998585Y598521D01*
X999795Y599731D01*
X1000651Y601213D01*
X1001094Y602866D01*
Y604578D01*
X1000734Y605922D01*
X1001484Y607422D01*
X1012094D01*
Y619167D01*
X1013594Y620033D01*
X1013885Y619865D01*
X1015538Y619422D01*
X1017250D01*
X1018903Y619865D01*
X1020385Y620721D01*
X1021595Y621931D01*
X1022451Y623413D01*
X1022894Y625066D01*
Y626778D01*
X1022451Y628431D01*
X1021595Y629913D01*
X1020385Y631123D01*
X1018903Y631979D01*
X1017250Y632422D01*
D02*
G37*
G36*
X739483Y621236D02*
X738289D01*
X737187Y620779D01*
X736343Y619935D01*
X735886Y618833D01*
Y617639D01*
X736343Y616537D01*
X737187Y615693D01*
X738289Y615236D01*
X739483D01*
X740585Y615693D01*
X741429Y616537D01*
X741886Y617639D01*
Y618833D01*
X741429Y619935D01*
X740585Y620779D01*
X739483Y621236D01*
D02*
G37*
G36*
X636613Y619458D02*
X635419D01*
X634317Y619001D01*
X633473Y618157D01*
X633016Y617055D01*
Y615861D01*
X633473Y614759D01*
X634317Y613915D01*
X635419Y613458D01*
X636613D01*
X637715Y613915D01*
X638559Y614759D01*
X639016Y615861D01*
Y617055D01*
X638559Y618157D01*
X637715Y619001D01*
X636613Y619458D01*
D02*
G37*
G36*
X84050Y630870D02*
X81050D01*
X78700Y630560D01*
X76511Y629654D01*
X74631Y628211D01*
X73189Y626331D01*
X72282Y624142D01*
X71972Y621792D01*
X72282Y619442D01*
X73189Y617253D01*
X74631Y615373D01*
X76511Y613931D01*
X78700Y613024D01*
X81050Y612714D01*
X84050D01*
X86399Y613024D01*
X88589Y613931D01*
X90469Y615373D01*
X91911Y617253D01*
X92818Y619442D01*
X93128Y621792D01*
X92818Y624142D01*
X91911Y626331D01*
X90469Y628211D01*
X88589Y629654D01*
X86399Y630560D01*
X84050Y630870D01*
D02*
G37*
G36*
X58650D02*
X55650D01*
X53300Y630560D01*
X51111Y629654D01*
X49231Y628211D01*
X47789Y626331D01*
X46882Y624142D01*
X46572Y621792D01*
X46882Y619442D01*
X47789Y617253D01*
X49231Y615373D01*
X51111Y613931D01*
X53300Y613024D01*
X55650Y612714D01*
X58650D01*
X60999Y613024D01*
X63189Y613931D01*
X65069Y615373D01*
X66511Y617253D01*
X67418Y619442D01*
X67728Y621792D01*
X67418Y624142D01*
X66511Y626331D01*
X65069Y628211D01*
X63189Y629654D01*
X60999Y630560D01*
X58650Y630870D01*
D02*
G37*
G36*
X748881Y611330D02*
X747687D01*
X746585Y610873D01*
X746175Y610464D01*
X745236Y610181D01*
X744297Y610464D01*
X743887Y610873D01*
X742785Y611330D01*
X741591D01*
X740489Y610873D01*
X739645Y610029D01*
X739188Y608927D01*
Y607733D01*
X739645Y606631D01*
X740489Y605787D01*
X741591Y605330D01*
X742785D01*
X743887Y605787D01*
X744297Y606196D01*
X745236Y606479D01*
X746175Y606196D01*
X746585Y605787D01*
X747687Y605330D01*
X748881D01*
X749983Y605787D01*
X750827Y606631D01*
X751284Y607733D01*
Y608927D01*
X750827Y610029D01*
X749983Y610873D01*
X748881Y611330D01*
D02*
G37*
G36*
X811619Y608536D02*
X810425D01*
X809323Y608079D01*
X808479Y607235D01*
X808022Y606133D01*
Y604939D01*
X808479Y603837D01*
X809323Y602993D01*
X810425Y602536D01*
X811619D01*
X812721Y602993D01*
X813565Y603837D01*
X814022Y604939D01*
Y606133D01*
X813565Y607235D01*
X812721Y608079D01*
X811619Y608536D01*
D02*
G37*
G36*
X147100Y604964D02*
X145508D01*
X144038Y604355D01*
X142913Y603230D01*
X142304Y601760D01*
Y600168D01*
X142913Y598698D01*
X144038Y597573D01*
X145508Y596964D01*
X147100D01*
X148570Y597573D01*
X149695Y598698D01*
X150304Y600168D01*
Y601760D01*
X149695Y603230D01*
X148570Y604355D01*
X147100Y604964D01*
D02*
G37*
G36*
X165896Y604456D02*
X164304D01*
X162834Y603847D01*
X161709Y602722D01*
X161100Y601252D01*
Y599660D01*
X161709Y598190D01*
X162834Y597065D01*
X164304Y596456D01*
X165896D01*
X167366Y597065D01*
X168491Y598190D01*
X169100Y599660D01*
Y601252D01*
X168491Y602722D01*
X167366Y603847D01*
X165896Y604456D01*
D02*
G37*
G36*
X642245Y603432D02*
X640455D01*
X638801Y602747D01*
X637535Y601481D01*
X636850Y599827D01*
Y598037D01*
X637535Y596383D01*
X638801Y595117D01*
X640455Y594432D01*
X642245D01*
X643899Y595117D01*
X645165Y596383D01*
X645850Y598037D01*
Y599827D01*
X645165Y601481D01*
X643899Y602747D01*
X642245Y603432D01*
D02*
G37*
G36*
X772759Y599390D02*
X771566D01*
X770463Y598933D01*
X769619Y598089D01*
X769162Y596986D01*
Y595793D01*
X769619Y594690D01*
X770463Y593846D01*
X771566Y593390D01*
X772759D01*
X773862Y593846D01*
X774706Y594690D01*
X775162Y595793D01*
Y596986D01*
X774706Y598089D01*
X773862Y598933D01*
X772759Y599390D01*
D02*
G37*
G36*
X778091Y594058D02*
X776897D01*
X775795Y593601D01*
X774951Y592757D01*
X774494Y591655D01*
Y590461D01*
X774951Y589359D01*
X775795Y588515D01*
X776897Y588058D01*
X778091D01*
X779193Y588515D01*
X780037Y589359D01*
X780494Y590461D01*
Y591655D01*
X780037Y592757D01*
X779193Y593601D01*
X778091Y594058D01*
D02*
G37*
G36*
X84050Y605470D02*
X81050D01*
X78700Y605160D01*
X76511Y604254D01*
X74631Y602811D01*
X73189Y600931D01*
X72282Y598741D01*
X71972Y596392D01*
X72282Y594043D01*
X73189Y591853D01*
X74631Y589973D01*
X76511Y588531D01*
X78700Y587624D01*
X81050Y587314D01*
X84050D01*
X86399Y587624D01*
X88589Y588531D01*
X90469Y589973D01*
X91911Y591853D01*
X92818Y594043D01*
X93128Y596392D01*
X92818Y598741D01*
X91911Y600931D01*
X90469Y602811D01*
X88589Y604254D01*
X86399Y605160D01*
X84050Y605470D01*
D02*
G37*
G36*
X58650D02*
X55650D01*
X53300Y605160D01*
X51111Y604254D01*
X49231Y602811D01*
X47789Y600931D01*
X46882Y598741D01*
X46572Y596392D01*
X46882Y594043D01*
X47789Y591853D01*
X49231Y589973D01*
X51111Y588531D01*
X53300Y587624D01*
X55650Y587314D01*
X58650D01*
X60999Y587624D01*
X63189Y588531D01*
X65069Y589973D01*
X66511Y591853D01*
X67418Y594043D01*
X67728Y596392D01*
X67418Y598741D01*
X66511Y600931D01*
X65069Y602811D01*
X63189Y604254D01*
X60999Y605160D01*
X58650Y605470D01*
D02*
G37*
G36*
X1006450Y600022D02*
X1004738D01*
X1003085Y599579D01*
X1001603Y598723D01*
X1000393Y597513D01*
X999537Y596031D01*
X999094Y594378D01*
Y592666D01*
X999537Y591013D01*
X1000393Y589531D01*
X1001603Y588321D01*
X1003085Y587465D01*
X1004738Y587022D01*
X1006450D01*
X1008103Y587465D01*
X1009585Y588321D01*
X1010795Y589531D01*
X1011651Y591013D01*
X1012094Y592666D01*
Y594378D01*
X1011651Y596031D01*
X1010795Y597513D01*
X1009585Y598723D01*
X1008103Y599579D01*
X1006450Y600022D01*
D02*
G37*
G36*
X639407Y585930D02*
X638213D01*
X637111Y585473D01*
X636267Y584629D01*
X635810Y583527D01*
Y582333D01*
X636267Y581231D01*
X637111Y580387D01*
X638213Y579930D01*
X639407D01*
X640509Y580387D01*
X641353Y581231D01*
X641810Y582333D01*
Y583527D01*
X641353Y584629D01*
X640509Y585473D01*
X639407Y585930D01*
D02*
G37*
G36*
X995450Y589822D02*
X993738D01*
X992085Y589379D01*
X990603Y588523D01*
X989393Y587313D01*
X988537Y585831D01*
X988094Y584178D01*
Y582466D01*
X988537Y580813D01*
X989393Y579331D01*
X990603Y578121D01*
X992085Y577265D01*
X993738Y576822D01*
X995450D01*
X997103Y577265D01*
X998585Y578121D01*
X999795Y579331D01*
X1000651Y580813D01*
X1001094Y582466D01*
Y584178D01*
X1000651Y585831D01*
X999795Y587313D01*
X998585Y588523D01*
X997103Y589379D01*
X995450Y589822D01*
D02*
G37*
G36*
X689743Y580572D02*
X687953D01*
X686299Y579887D01*
X685033Y578621D01*
X684348Y576967D01*
Y575177D01*
X685033Y573523D01*
X686299Y572257D01*
X687953Y571572D01*
X689743D01*
X691397Y572257D01*
X692663Y573523D01*
X693348Y575177D01*
Y576967D01*
X692663Y578621D01*
X691397Y579887D01*
X689743Y580572D01*
D02*
G37*
G36*
X1006450Y579622D02*
X1004738D01*
X1003085Y579179D01*
X1001603Y578323D01*
X1000393Y577113D01*
X999537Y575631D01*
X999094Y573978D01*
Y572266D01*
X999537Y570613D01*
X1000393Y569131D01*
X1001603Y567921D01*
X1003085Y567065D01*
X1004738Y566622D01*
X1006450D01*
X1008103Y567065D01*
X1009585Y567921D01*
X1010795Y569131D01*
X1011651Y570613D01*
X1012094Y572266D01*
Y573978D01*
X1011651Y575631D01*
X1010795Y577113D01*
X1009585Y578323D01*
X1008103Y579179D01*
X1006450Y579622D01*
D02*
G37*
G36*
X812127Y564340D02*
X810933D01*
X809831Y563883D01*
X808987Y563039D01*
X808530Y561937D01*
Y560743D01*
X808987Y559641D01*
X809831Y558797D01*
X810933Y558340D01*
X812127D01*
X813229Y558797D01*
X814073Y559641D01*
X814530Y560743D01*
Y561937D01*
X814073Y563039D01*
X813229Y563883D01*
X812127Y564340D01*
D02*
G37*
G36*
X995450Y569422D02*
X993738D01*
X992085Y568979D01*
X990603Y568123D01*
X989393Y566913D01*
X988537Y565431D01*
X988094Y563778D01*
Y562066D01*
X988537Y560413D01*
X989393Y558931D01*
X990603Y557721D01*
X992085Y556865D01*
X993738Y556422D01*
X995450D01*
X997103Y556865D01*
X998585Y557721D01*
X999795Y558931D01*
X1000651Y560413D01*
X1001094Y562066D01*
Y563778D01*
X1000651Y565431D01*
X999795Y566913D01*
X998585Y568123D01*
X997103Y568979D01*
X995450Y569422D01*
D02*
G37*
G36*
X425230Y562038D02*
X423638D01*
X422168Y561429D01*
X421043Y560304D01*
X420434Y558834D01*
Y557242D01*
X421043Y555772D01*
X422168Y554647D01*
X423638Y554038D01*
X425230D01*
X426700Y554647D01*
X427825Y555772D01*
X428434Y557242D01*
Y558834D01*
X427825Y560304D01*
X426700Y561429D01*
X425230Y562038D01*
D02*
G37*
G36*
X721195Y558498D02*
X720001D01*
X718899Y558041D01*
X718055Y557197D01*
X717598Y556095D01*
Y554901D01*
X718055Y553799D01*
X718899Y552955D01*
X720001Y552498D01*
X721195D01*
X722297Y552955D01*
X723141Y553799D01*
X723598Y554901D01*
Y556095D01*
X723141Y557197D01*
X722297Y558041D01*
X721195Y558498D01*
D02*
G37*
G36*
X832955Y557950D02*
X831761D01*
X830659Y557493D01*
X829815Y556649D01*
X829358Y555547D01*
Y554353D01*
X829815Y553251D01*
X830659Y552407D01*
X831761Y551950D01*
X832955D01*
X834057Y552407D01*
X834901Y553251D01*
X835358Y554353D01*
Y555547D01*
X834901Y556649D01*
X834057Y557493D01*
X832955Y557950D01*
D02*
G37*
G36*
X754767Y559744D02*
X752977D01*
X751323Y559059D01*
X750057Y557793D01*
X749372Y556139D01*
Y554349D01*
X750057Y552695D01*
X751323Y551429D01*
X752977Y550744D01*
X754767D01*
X756421Y551429D01*
X757687Y552695D01*
X758372Y554349D01*
Y556139D01*
X757687Y557793D01*
X756421Y559059D01*
X754767Y559744D01*
D02*
G37*
G36*
X166658Y556958D02*
X165066D01*
X163596Y556349D01*
X162471Y555224D01*
X161862Y553754D01*
Y552162D01*
X162471Y550692D01*
X163596Y549567D01*
X165066Y548958D01*
X166658D01*
X168128Y549567D01*
X169253Y550692D01*
X169862Y552162D01*
Y553754D01*
X169253Y555224D01*
X168128Y556349D01*
X166658Y556958D01*
D02*
G37*
G36*
X147100Y556704D02*
X145508D01*
X144038Y556095D01*
X142913Y554970D01*
X142304Y553500D01*
Y551908D01*
X142913Y550438D01*
X144038Y549313D01*
X145508Y548704D01*
X147100D01*
X148570Y549313D01*
X149695Y550438D01*
X150304Y551908D01*
Y553500D01*
X149695Y554970D01*
X148570Y556095D01*
X147100Y556704D01*
D02*
G37*
G36*
X1006450Y559222D02*
X1004738D01*
X1003085Y558779D01*
X1001603Y557923D01*
X1000393Y556713D01*
X999537Y555231D01*
X999094Y553578D01*
Y551866D01*
X999537Y550213D01*
X1000393Y548731D01*
X1001603Y547521D01*
X1003085Y546665D01*
X1004738Y546222D01*
X1006450D01*
X1008103Y546665D01*
X1009585Y547521D01*
X1010795Y548731D01*
X1011651Y550213D01*
X1012094Y551866D01*
Y553578D01*
X1011651Y555231D01*
X1010795Y556713D01*
X1009585Y557923D01*
X1008103Y558779D01*
X1006450Y559222D01*
D02*
G37*
G36*
X333028Y552640D02*
X331436D01*
X329966Y552031D01*
X328841Y550906D01*
X328232Y549436D01*
Y547844D01*
X328841Y546374D01*
X329966Y545249D01*
X331436Y544640D01*
X333028D01*
X334498Y545249D01*
X335623Y546374D01*
X336232Y547844D01*
Y549436D01*
X335623Y550906D01*
X334498Y552031D01*
X333028Y552640D01*
D02*
G37*
G36*
X832955Y550410D02*
X831761D01*
X830659Y549953D01*
X829815Y549109D01*
X829358Y548007D01*
Y546813D01*
X829815Y545711D01*
X830659Y544867D01*
X831761Y544410D01*
X832955D01*
X834057Y544867D01*
X834901Y545711D01*
X835358Y546813D01*
Y548007D01*
X834901Y549109D01*
X834057Y549953D01*
X832955Y550410D01*
D02*
G37*
G36*
X698589Y547882D02*
X697395D01*
X696293Y547425D01*
X695449Y546581D01*
X694992Y545479D01*
Y544285D01*
X695449Y543183D01*
X696293Y542339D01*
X697395Y541882D01*
X698589D01*
X699691Y542339D01*
X700535Y543183D01*
X700992Y544285D01*
Y545479D01*
X700535Y546581D01*
X699691Y547425D01*
X698589Y547882D01*
D02*
G37*
G36*
X757561Y547044D02*
X755771D01*
X754117Y546359D01*
X752851Y545093D01*
X752166Y543439D01*
Y541649D01*
X752851Y539995D01*
X754117Y538729D01*
X755771Y538044D01*
X757561D01*
X759215Y538729D01*
X760481Y539995D01*
X761166Y541649D01*
Y543439D01*
X760481Y545093D01*
X759215Y546359D01*
X757561Y547044D01*
D02*
G37*
G36*
X84050Y554670D02*
X81050D01*
X78700Y554360D01*
X76511Y553453D01*
X74631Y552011D01*
X73189Y550131D01*
X72282Y547942D01*
X71972Y545592D01*
X72282Y543242D01*
X73189Y541053D01*
X74631Y539173D01*
X76511Y537730D01*
X78700Y536824D01*
X81050Y536514D01*
X84050D01*
X86399Y536824D01*
X88589Y537730D01*
X90469Y539173D01*
X91911Y541053D01*
X92818Y543242D01*
X93128Y545592D01*
X92818Y547942D01*
X91911Y550131D01*
X90469Y552011D01*
X88589Y553453D01*
X86399Y554360D01*
X84050Y554670D01*
D02*
G37*
G36*
X58650D02*
X55650D01*
X53300Y554360D01*
X51111Y553453D01*
X49231Y552011D01*
X47789Y550131D01*
X46882Y547942D01*
X46572Y545592D01*
X46882Y543242D01*
X47789Y541053D01*
X49231Y539173D01*
X51111Y537730D01*
X53300Y536824D01*
X55650Y536514D01*
X58650D01*
X60999Y536824D01*
X63189Y537730D01*
X65069Y539173D01*
X66511Y541053D01*
X67418Y543242D01*
X67728Y545592D01*
X67418Y547942D01*
X66511Y550131D01*
X65069Y552011D01*
X63189Y553453D01*
X60999Y554360D01*
X58650Y554670D01*
D02*
G37*
G36*
X995450Y549022D02*
X993738D01*
X992085Y548579D01*
X990603Y547723D01*
X989393Y546513D01*
X988537Y545031D01*
X988094Y543378D01*
Y541666D01*
X988537Y540013D01*
X989393Y538531D01*
X990603Y537321D01*
X992085Y536465D01*
X993738Y536022D01*
X995450D01*
X997103Y536465D01*
X998585Y537321D01*
X999795Y538531D01*
X1000651Y540013D01*
X1001094Y541666D01*
Y543378D01*
X1000651Y545031D01*
X999795Y546513D01*
X998585Y547723D01*
X997103Y548579D01*
X995450Y549022D01*
D02*
G37*
G36*
X948690Y630936D02*
X843280D01*
X843026Y629412D01*
Y534416D01*
X948690D01*
Y630936D01*
D02*
G37*
G36*
X750195Y539170D02*
X748405D01*
X746751Y538485D01*
X745485Y537219D01*
X744800Y535565D01*
Y533775D01*
X745485Y532121D01*
X746751Y530855D01*
X748405Y530170D01*
X750195D01*
X751849Y530855D01*
X753115Y532121D01*
X753800Y533775D01*
Y535565D01*
X753115Y537219D01*
X751849Y538485D01*
X750195Y539170D01*
D02*
G37*
G36*
X165896Y535622D02*
X164304D01*
X162834Y535013D01*
X161709Y533888D01*
X161100Y532418D01*
Y530826D01*
X161709Y529356D01*
X162834Y528231D01*
X164304Y527622D01*
X165896D01*
X167366Y528231D01*
X168491Y529356D01*
X169100Y530826D01*
Y532418D01*
X168491Y533888D01*
X167366Y535013D01*
X165896Y535622D01*
D02*
G37*
G36*
X863181Y532082D02*
X861987D01*
X860885Y531625D01*
X860041Y530781D01*
X859584Y529679D01*
Y528485D01*
X860041Y527383D01*
X860885Y526539D01*
X861987Y526082D01*
X863181D01*
X864283Y526539D01*
X865127Y527383D01*
X865584Y528485D01*
Y529679D01*
X865127Y530781D01*
X864283Y531625D01*
X863181Y532082D01*
D02*
G37*
G36*
X635089Y531066D02*
X633895D01*
X632793Y530609D01*
X631949Y529765D01*
X631492Y528663D01*
Y527469D01*
X631949Y526367D01*
X632793Y525523D01*
X633895Y525066D01*
X635089D01*
X636191Y525523D01*
X637035Y526367D01*
X637492Y527469D01*
Y528663D01*
X637035Y529765D01*
X636191Y530609D01*
X635089Y531066D01*
D02*
G37*
G36*
X1017250Y537022D02*
X1015538D01*
X1013885Y536579D01*
X1012403Y535723D01*
X1011193Y534513D01*
X1010337Y533031D01*
X1009894Y531378D01*
Y529666D01*
X1010337Y528013D01*
X1011193Y526531D01*
X1012403Y525321D01*
X1013885Y524465D01*
X1015538Y524022D01*
X1017250D01*
X1018903Y524465D01*
X1020385Y525321D01*
X1021595Y526531D01*
X1022451Y528013D01*
X1022894Y529666D01*
Y531378D01*
X1022451Y533031D01*
X1021595Y534513D01*
X1020385Y535723D01*
X1018903Y536579D01*
X1017250Y537022D01*
D02*
G37*
G36*
X775169Y527636D02*
X773975D01*
X772873Y527179D01*
X772029Y526335D01*
X771572Y525233D01*
Y524039D01*
X772029Y522937D01*
X772873Y522093D01*
X773975Y521636D01*
X775169D01*
X776271Y522093D01*
X777115Y522937D01*
X777572Y524039D01*
Y525233D01*
X777115Y526335D01*
X776271Y527179D01*
X775169Y527636D01*
D02*
G37*
G36*
X339687Y527510D02*
X338493D01*
X337391Y527053D01*
X336547Y526209D01*
X336090Y525107D01*
Y523913D01*
X336547Y522811D01*
X337391Y521967D01*
X338493Y521510D01*
X339687D01*
X340789Y521967D01*
X341633Y522811D01*
X342090Y523913D01*
Y525107D01*
X341633Y526209D01*
X340789Y527053D01*
X339687Y527510D01*
D02*
G37*
G36*
X565791Y523422D02*
X564001D01*
X562347Y522737D01*
X561081Y521471D01*
X560396Y519817D01*
Y518027D01*
X561081Y516373D01*
X562347Y515107D01*
X564001Y514422D01*
X565791D01*
X567445Y515107D01*
X568711Y516373D01*
X569396Y518027D01*
Y519817D01*
X568711Y521471D01*
X567445Y522737D01*
X565791Y523422D01*
D02*
G37*
G36*
X641991Y521390D02*
X640201D01*
X638547Y520705D01*
X637281Y519439D01*
X636596Y517785D01*
Y515995D01*
X637281Y514341D01*
X638547Y513075D01*
X640201Y512390D01*
X641991D01*
X643645Y513075D01*
X644911Y514341D01*
X645596Y515995D01*
Y517785D01*
X644911Y519439D01*
X643645Y520705D01*
X641991Y521390D01*
D02*
G37*
G36*
X84050Y529270D02*
X81050D01*
X78700Y528960D01*
X76511Y528054D01*
X74631Y526611D01*
X73189Y524731D01*
X72282Y522542D01*
X71972Y520192D01*
X72282Y517842D01*
X73189Y515653D01*
X74631Y513773D01*
X76511Y512331D01*
X78700Y511424D01*
X81050Y511114D01*
X84050D01*
X86399Y511424D01*
X88589Y512331D01*
X90469Y513773D01*
X91911Y515653D01*
X92818Y517842D01*
X93128Y520192D01*
X92818Y522542D01*
X91911Y524731D01*
X90469Y526611D01*
X88589Y528054D01*
X86399Y528960D01*
X84050Y529270D01*
D02*
G37*
G36*
X58650D02*
X55650D01*
X53300Y528960D01*
X51111Y528054D01*
X49231Y526611D01*
X47789Y524731D01*
X46882Y522542D01*
X46572Y520192D01*
X46882Y517842D01*
X47789Y515653D01*
X49231Y513773D01*
X51111Y512331D01*
X53300Y511424D01*
X55650Y511114D01*
X58650D01*
X60999Y511424D01*
X63189Y512331D01*
X65069Y513773D01*
X66511Y515653D01*
X67418Y517842D01*
X67728Y520192D01*
X67418Y522542D01*
X66511Y524731D01*
X65069Y526611D01*
X63189Y528054D01*
X60999Y528960D01*
X58650Y529270D01*
D02*
G37*
G36*
X464909Y515572D02*
X463715D01*
X462613Y515115D01*
X461769Y514271D01*
X461312Y513169D01*
Y511975D01*
X461769Y510873D01*
X462613Y510029D01*
X463715Y509572D01*
X464909D01*
X466011Y510029D01*
X466855Y510873D01*
X467312Y511975D01*
Y513169D01*
X466855Y514271D01*
X466011Y515115D01*
X464909Y515572D01*
D02*
G37*
G36*
X456019Y514810D02*
X454825D01*
X453723Y514353D01*
X452879Y513509D01*
X452422Y512407D01*
Y511213D01*
X452879Y510111D01*
X453723Y509267D01*
X454825Y508810D01*
X456019D01*
X457121Y509267D01*
X457965Y510111D01*
X458422Y511213D01*
Y512407D01*
X457965Y513509D01*
X457121Y514353D01*
X456019Y514810D01*
D02*
G37*
G36*
X489337Y514278D02*
X487547D01*
X485893Y513593D01*
X484627Y512327D01*
X483942Y510673D01*
Y508883D01*
X484627Y507229D01*
X485893Y505963D01*
X487547Y505278D01*
X489337D01*
X490991Y505963D01*
X492257Y507229D01*
X492942Y508883D01*
Y510673D01*
X492257Y512327D01*
X490991Y513593D01*
X489337Y514278D01*
D02*
G37*
G36*
X699141Y512246D02*
X697351D01*
X695697Y511561D01*
X694431Y510295D01*
X693746Y508641D01*
Y506851D01*
X694431Y505197D01*
X695697Y503931D01*
X697351Y503246D01*
X699141D01*
X700795Y503931D01*
X702061Y505197D01*
X702746Y506851D01*
Y508641D01*
X702061Y510295D01*
X700795Y511561D01*
X699141Y512246D01*
D02*
G37*
G36*
X434981D02*
X433191D01*
X431537Y511561D01*
X430271Y510295D01*
X429586Y508641D01*
Y506851D01*
X430271Y505197D01*
X431537Y503931D01*
X433191Y503246D01*
X434981D01*
X436635Y503931D01*
X437901Y505197D01*
X438586Y506851D01*
Y508641D01*
X437901Y510295D01*
X436635Y511561D01*
X434981Y512246D01*
D02*
G37*
G36*
X714889Y511992D02*
X713099D01*
X711445Y511307D01*
X710179Y510041D01*
X709494Y508387D01*
Y506597D01*
X710179Y504943D01*
X711445Y503677D01*
X713099Y502992D01*
X714889D01*
X716543Y503677D01*
X717809Y504943D01*
X718494Y506597D01*
Y508387D01*
X717809Y510041D01*
X716543Y511307D01*
X714889Y511992D01*
D02*
G37*
G36*
X1017250Y514122D02*
X1015538D01*
X1013885Y513679D01*
X1012403Y512823D01*
X1011193Y511613D01*
X1010337Y510131D01*
X1009894Y508478D01*
Y506766D01*
X1010337Y505113D01*
X1011193Y503631D01*
X1012403Y502421D01*
X1013885Y501565D01*
X1015538Y501122D01*
X1017250D01*
X1018903Y501565D01*
X1020385Y502421D01*
X1021595Y503631D01*
X1022451Y505113D01*
X1022894Y506766D01*
Y508478D01*
X1022451Y510131D01*
X1021595Y511613D01*
X1020385Y512823D01*
X1018903Y513679D01*
X1017250Y514122D01*
D02*
G37*
G36*
X962749Y503634D02*
X961555D01*
X960453Y503177D01*
X959609Y502333D01*
X959152Y501231D01*
Y500037D01*
X959609Y498935D01*
X960453Y498091D01*
X961555Y497634D01*
X962749D01*
X963851Y498091D01*
X964695Y498935D01*
X965152Y500037D01*
Y501231D01*
X964695Y502333D01*
X963851Y503177D01*
X962749Y503634D01*
D02*
G37*
G36*
X372972Y504679D02*
X371182D01*
X369528Y503994D01*
X368262Y502728D01*
X367577Y501074D01*
Y499284D01*
X368262Y497630D01*
X369528Y496364D01*
X371182Y495679D01*
X372972D01*
X374626Y496364D01*
X375892Y497630D01*
X376577Y499284D01*
Y501074D01*
X375892Y502728D01*
X374626Y503994D01*
X372972Y504679D01*
D02*
G37*
G36*
X637419Y499292D02*
X635629D01*
X633975Y498607D01*
X632709Y497341D01*
X632024Y495687D01*
Y493897D01*
X632709Y492243D01*
X633975Y490977D01*
X635629Y490292D01*
X637419D01*
X639073Y490977D01*
X640339Y492243D01*
X641024Y493897D01*
Y495687D01*
X640339Y497341D01*
X639073Y498607D01*
X637419Y499292D01*
D02*
G37*
G36*
X84050Y503870D02*
X81050D01*
X78700Y503560D01*
X76511Y502654D01*
X74631Y501211D01*
X73189Y499331D01*
X72282Y497141D01*
X71972Y494792D01*
X72282Y492443D01*
X73189Y490253D01*
X74631Y488373D01*
X76511Y486931D01*
X78700Y486024D01*
X81050Y485714D01*
X84050D01*
X86399Y486024D01*
X88589Y486931D01*
X90469Y488373D01*
X91911Y490253D01*
X92818Y492443D01*
X93128Y494792D01*
X92818Y497141D01*
X91911Y499331D01*
X90469Y501211D01*
X88589Y502654D01*
X86399Y503560D01*
X84050Y503870D01*
D02*
G37*
G36*
X58650D02*
X55650D01*
X53300Y503560D01*
X51111Y502654D01*
X49231Y501211D01*
X47789Y499331D01*
X46882Y497141D01*
X46572Y494792D01*
X46882Y492443D01*
X47789Y490253D01*
X49231Y488373D01*
X51111Y486931D01*
X53300Y486024D01*
X55650Y485714D01*
X58650D01*
X60999Y486024D01*
X63189Y486931D01*
X65069Y488373D01*
X66511Y490253D01*
X67418Y492443D01*
X67728Y494792D01*
X67418Y497141D01*
X66511Y499331D01*
X65069Y501211D01*
X63189Y502654D01*
X60999Y503560D01*
X58650Y503870D01*
D02*
G37*
G36*
X166150Y490918D02*
X164558D01*
X163088Y490309D01*
X161963Y489184D01*
X161354Y487714D01*
Y486122D01*
X161963Y484652D01*
X163088Y483527D01*
X164558Y482918D01*
X166150D01*
X167620Y483527D01*
X168745Y484652D01*
X169354Y486122D01*
Y487714D01*
X168745Y489184D01*
X167620Y490309D01*
X166150Y490918D01*
D02*
G37*
G36*
X371735Y488370D02*
X369945D01*
X368291Y487685D01*
X367025Y486419D01*
X366340Y484765D01*
Y482975D01*
X367025Y481321D01*
X368291Y480055D01*
X369945Y479370D01*
X371735D01*
X373389Y480055D01*
X374655Y481321D01*
X375340Y482975D01*
Y484765D01*
X374655Y486419D01*
X373389Y487685D01*
X371735Y488370D01*
D02*
G37*
G36*
X928967Y485346D02*
X927773D01*
X926671Y484889D01*
X925827Y484045D01*
X925370Y482943D01*
Y481749D01*
X925827Y480647D01*
X926671Y479803D01*
X927773Y479346D01*
X928967D01*
X930069Y479803D01*
X930913Y480647D01*
X931370Y481749D01*
Y482943D01*
X930913Y484045D01*
X930069Y484889D01*
X928967Y485346D01*
D02*
G37*
G36*
X141258Y485330D02*
X139666D01*
X138196Y484721D01*
X137071Y483596D01*
X136462Y482126D01*
Y480534D01*
X137071Y479064D01*
X138196Y477939D01*
X139666Y477330D01*
X141258D01*
X142728Y477939D01*
X143853Y479064D01*
X144462Y480534D01*
Y482126D01*
X143853Y483596D01*
X142728Y484721D01*
X141258Y485330D01*
D02*
G37*
G36*
X368334Y476694D02*
X366742D01*
X365272Y476085D01*
X364147Y474960D01*
X363538Y473490D01*
Y471898D01*
X364147Y470428D01*
X365272Y469303D01*
X366742Y468694D01*
X368334D01*
X369804Y469303D01*
X370929Y470428D01*
X371538Y471898D01*
Y473490D01*
X370929Y474960D01*
X369804Y476085D01*
X368334Y476694D01*
D02*
G37*
G36*
X606895Y473154D02*
X605701D01*
X604599Y472697D01*
X603755Y471853D01*
X603298Y470751D01*
Y469557D01*
X603755Y468455D01*
X604599Y467611D01*
X605701Y467154D01*
X606895D01*
X607997Y467611D01*
X608841Y468455D01*
X609298Y469557D01*
Y470751D01*
X608841Y471853D01*
X607997Y472697D01*
X606895Y473154D01*
D02*
G37*
G36*
X571335Y470106D02*
X570141D01*
X569039Y469649D01*
X568195Y468805D01*
X567738Y467703D01*
Y466509D01*
X568195Y465407D01*
X569039Y464563D01*
X570141Y464106D01*
X571335D01*
X572437Y464563D01*
X573281Y465407D01*
X573738Y466509D01*
Y467703D01*
X573281Y468805D01*
X572437Y469649D01*
X571335Y470106D01*
D02*
G37*
G36*
X561761Y469266D02*
X560567D01*
X559465Y468809D01*
X558621Y467965D01*
X558164Y466863D01*
Y465669D01*
X558621Y464567D01*
X559465Y463723D01*
X560567Y463266D01*
X561761D01*
X562863Y463723D01*
X563707Y464567D01*
X564164Y465669D01*
Y466863D01*
X563707Y467965D01*
X562863Y468809D01*
X561761Y469266D01*
D02*
G37*
G36*
X552539Y468582D02*
X551345D01*
X550243Y468125D01*
X549399Y467281D01*
X548942Y466179D01*
Y464985D01*
X549399Y463883D01*
X550243Y463039D01*
X551345Y462582D01*
X552539D01*
X553641Y463039D01*
X554485Y463883D01*
X554942Y464985D01*
Y466179D01*
X554485Y467281D01*
X553641Y468125D01*
X552539Y468582D01*
D02*
G37*
G36*
X398913Y469320D02*
X397123D01*
X395469Y468635D01*
X394203Y467369D01*
X393518Y465715D01*
Y463925D01*
X394203Y462271D01*
X395469Y461005D01*
X397123Y460320D01*
X398913D01*
X400567Y461005D01*
X401833Y462271D01*
X402518Y463925D01*
Y465715D01*
X401833Y467369D01*
X400567Y468635D01*
X398913Y469320D01*
D02*
G37*
G36*
X647833Y464748D02*
X646043D01*
X644389Y464063D01*
X643123Y462797D01*
X642438Y461143D01*
Y459353D01*
X643123Y457699D01*
X644389Y456433D01*
X646043Y455748D01*
X647833D01*
X649487Y456433D01*
X650753Y457699D01*
X651438Y459353D01*
Y461143D01*
X650753Y462797D01*
X649487Y464063D01*
X647833Y464748D01*
D02*
G37*
G36*
X796633Y454104D02*
X795439D01*
X794337Y453647D01*
X793493Y452803D01*
X793036Y451701D01*
Y450507D01*
X793493Y449405D01*
X794337Y448561D01*
X795439Y448104D01*
X796633D01*
X797735Y448561D01*
X798579Y449405D01*
X799036Y450507D01*
Y451701D01*
X798579Y452803D01*
X797735Y453647D01*
X796633Y454104D01*
D02*
G37*
G36*
X568839Y453826D02*
X567049D01*
X565395Y453141D01*
X564129Y451875D01*
X563444Y450221D01*
Y448431D01*
X564129Y446777D01*
X565395Y445511D01*
X567049Y444826D01*
X568839D01*
X570493Y445511D01*
X571759Y446777D01*
X572444Y448431D01*
Y450221D01*
X571759Y451875D01*
X570493Y453141D01*
X568839Y453826D01*
D02*
G37*
G36*
X84050Y453070D02*
X81050D01*
X78700Y452760D01*
X76511Y451853D01*
X74631Y450411D01*
X73189Y448531D01*
X72282Y446342D01*
X71972Y443992D01*
X72282Y441642D01*
X73189Y439453D01*
X74631Y437573D01*
X76511Y436130D01*
X78700Y435224D01*
X81050Y434914D01*
X84050D01*
X86399Y435224D01*
X88589Y436130D01*
X90469Y437573D01*
X91911Y439453D01*
X92818Y441642D01*
X93128Y443992D01*
X92818Y446342D01*
X91911Y448531D01*
X90469Y450411D01*
X88589Y451853D01*
X86399Y452760D01*
X84050Y453070D01*
D02*
G37*
G36*
X58650D02*
X55650D01*
X53300Y452760D01*
X51111Y451853D01*
X49231Y450411D01*
X47789Y448531D01*
X46882Y446342D01*
X46572Y443992D01*
X46882Y441642D01*
X47789Y439453D01*
X49231Y437573D01*
X51111Y436130D01*
X53300Y435224D01*
X55650Y434914D01*
X58650D01*
X60999Y435224D01*
X63189Y436130D01*
X65069Y437573D01*
X66511Y439453D01*
X67418Y441642D01*
X67728Y443992D01*
X67418Y446342D01*
X66511Y448531D01*
X65069Y450411D01*
X63189Y451853D01*
X60999Y452760D01*
X58650Y453070D01*
D02*
G37*
G36*
X614724Y431776D02*
X612934D01*
X611280Y431091D01*
X610014Y429825D01*
X609329Y428171D01*
Y426381D01*
X610014Y424727D01*
X611280Y423461D01*
X612934Y422776D01*
X614724D01*
X616378Y423461D01*
X617644Y424727D01*
X618329Y426381D01*
Y428171D01*
X617644Y429825D01*
X616378Y431091D01*
X614724Y431776D01*
D02*
G37*
G36*
X581495Y427688D02*
X580301D01*
X579199Y427231D01*
X578355Y426387D01*
X577898Y425285D01*
Y424091D01*
X578355Y422989D01*
X579199Y422145D01*
X580301Y421688D01*
X581495D01*
X582597Y422145D01*
X583441Y422989D01*
X583898Y424091D01*
Y425285D01*
X583441Y426387D01*
X582597Y427231D01*
X581495Y427688D01*
D02*
G37*
G36*
X84050Y427670D02*
X81050D01*
X78700Y427360D01*
X76511Y426454D01*
X74631Y425011D01*
X73189Y423131D01*
X72282Y420942D01*
X71972Y418592D01*
X72282Y416242D01*
X73189Y414053D01*
X74631Y412173D01*
X76511Y410731D01*
X78700Y409824D01*
X81050Y409514D01*
X84050D01*
X86399Y409824D01*
X88589Y410731D01*
X90469Y412173D01*
X91911Y414053D01*
X92818Y416242D01*
X93128Y418592D01*
X92818Y420942D01*
X91911Y423131D01*
X90469Y425011D01*
X88589Y426454D01*
X86399Y427360D01*
X84050Y427670D01*
D02*
G37*
G36*
X58650D02*
X55650D01*
X53300Y427360D01*
X51111Y426454D01*
X49231Y425011D01*
X47789Y423131D01*
X46882Y420942D01*
X46572Y418592D01*
X46882Y416242D01*
X47789Y414053D01*
X49231Y412173D01*
X51111Y410731D01*
X53300Y409824D01*
X55650Y409514D01*
X58650D01*
X60999Y409824D01*
X63189Y410731D01*
X65069Y412173D01*
X66511Y414053D01*
X67418Y416242D01*
X67728Y418592D01*
X67418Y420942D01*
X66511Y423131D01*
X65069Y425011D01*
X63189Y426454D01*
X60999Y427360D01*
X58650Y427670D01*
D02*
G37*
G36*
X399167Y411916D02*
X397377D01*
X395723Y411231D01*
X394457Y409965D01*
X393772Y408311D01*
Y406521D01*
X394457Y404867D01*
X395723Y403601D01*
X397377Y402916D01*
X399167D01*
X400821Y403601D01*
X402087Y404867D01*
X402772Y406521D01*
Y408311D01*
X402087Y409965D01*
X400821Y411231D01*
X399167Y411916D01*
D02*
G37*
G36*
X887002Y397192D02*
X885410D01*
X883940Y396583D01*
X882815Y395458D01*
X882206Y393988D01*
Y392396D01*
X882815Y390926D01*
X883940Y389801D01*
X885410Y389192D01*
X887002D01*
X888472Y389801D01*
X889597Y390926D01*
X890206Y392396D01*
Y393988D01*
X889597Y395458D01*
X888472Y396583D01*
X887002Y397192D01*
D02*
G37*
G36*
X996052Y380972D02*
X979052D01*
Y363972D01*
X996052D01*
Y380972D01*
D02*
G37*
G36*
X368993Y378079D02*
X367402D01*
X365932Y377470D01*
X364807Y376345D01*
X364198Y374875D01*
Y373283D01*
X364807Y371813D01*
X365756Y370864D01*
X365771Y369885D01*
X365631Y369189D01*
X365540Y369151D01*
X364415Y368026D01*
X363806Y366556D01*
Y364964D01*
X364415Y363494D01*
X365540Y362369D01*
X367010Y361760D01*
X368602D01*
X370072Y362369D01*
X371197Y363494D01*
X371806Y364964D01*
Y366556D01*
X371197Y368026D01*
X370248Y368975D01*
X370233Y369954D01*
X370372Y370650D01*
X370463Y370688D01*
X371589Y371813D01*
X372197Y373283D01*
Y374875D01*
X371589Y376345D01*
X370463Y377470D01*
X368993Y378079D01*
D02*
G37*
G36*
X616293Y367744D02*
X615099D01*
X613997Y367287D01*
X613153Y366443D01*
X612696Y365341D01*
Y364147D01*
X613153Y363045D01*
X613997Y362201D01*
X615099Y361744D01*
X616293D01*
X617395Y362201D01*
X618239Y363045D01*
X618696Y364147D01*
Y365341D01*
X618239Y366443D01*
X617395Y367287D01*
X616293Y367744D01*
D02*
G37*
G36*
X330742Y377634D02*
X329150D01*
X327680Y377025D01*
X326555Y375900D01*
X325946Y374430D01*
Y372838D01*
X326555Y371368D01*
X327680Y370243D01*
X327674Y368649D01*
X326549Y367524D01*
X325940Y366054D01*
Y364463D01*
X326549Y362993D01*
X327674Y361867D01*
X329144Y361258D01*
X330735D01*
X332205Y361867D01*
X333331Y362993D01*
X333940Y364463D01*
Y366054D01*
X333331Y367524D01*
X332205Y368649D01*
X332212Y370243D01*
X333337Y371368D01*
X333946Y372838D01*
Y374430D01*
X333337Y375900D01*
X332212Y377025D01*
X330742Y377634D01*
D02*
G37*
G36*
X84050Y376870D02*
X81050D01*
X78700Y376560D01*
X76511Y375653D01*
X74631Y374211D01*
X73189Y372331D01*
X72282Y370141D01*
X71972Y367792D01*
X72282Y365443D01*
X73189Y363253D01*
X74631Y361373D01*
X76511Y359930D01*
X78700Y359024D01*
X81050Y358714D01*
X84050D01*
X86399Y359024D01*
X88589Y359930D01*
X90469Y361373D01*
X91911Y363253D01*
X92818Y365443D01*
X93128Y367792D01*
X92818Y370141D01*
X91911Y372331D01*
X90469Y374211D01*
X88589Y375653D01*
X86399Y376560D01*
X84050Y376870D01*
D02*
G37*
G36*
X58650D02*
X55650D01*
X53300Y376560D01*
X51111Y375653D01*
X49231Y374211D01*
X47789Y372331D01*
X46882Y370141D01*
X46572Y367792D01*
X46882Y365443D01*
X47789Y363253D01*
X49231Y361373D01*
X51111Y359930D01*
X53300Y359024D01*
X55650Y358714D01*
X58650D01*
X60999Y359024D01*
X63189Y359930D01*
X65069Y361373D01*
X66511Y363253D01*
X67418Y365443D01*
X67728Y367792D01*
X67418Y370141D01*
X66511Y372331D01*
X65069Y374211D01*
X63189Y375653D01*
X60999Y376560D01*
X58650Y376870D01*
D02*
G37*
G36*
X358019Y356036D02*
X356229D01*
X354575Y355351D01*
X353309Y354085D01*
X352624Y352431D01*
Y350641D01*
X353309Y348987D01*
X354575Y347721D01*
X356229Y347036D01*
X358019D01*
X359673Y347721D01*
X360939Y348987D01*
X361624Y350641D01*
Y352431D01*
X360939Y354085D01*
X359673Y355351D01*
X358019Y356036D01*
D02*
G37*
G36*
X398913Y355528D02*
X397123D01*
X395469Y354843D01*
X394203Y353577D01*
X393518Y351923D01*
Y350133D01*
X394203Y348479D01*
X395469Y347213D01*
X397123Y346528D01*
X398913D01*
X400567Y347213D01*
X401833Y348479D01*
X402518Y350133D01*
Y351923D01*
X401833Y353577D01*
X400567Y354843D01*
X398913Y355528D01*
D02*
G37*
G36*
X775341Y349432D02*
X773551D01*
X771897Y348747D01*
X770631Y347481D01*
X769946Y345827D01*
Y344037D01*
X770631Y342383D01*
X771897Y341117D01*
X773551Y340432D01*
X775341D01*
X776995Y341117D01*
X778261Y342383D01*
X778946Y344037D01*
Y345827D01*
X778261Y347481D01*
X776995Y348747D01*
X775341Y349432D01*
D02*
G37*
G36*
X792867Y349178D02*
X791077D01*
X789423Y348493D01*
X788157Y347227D01*
X787472Y345573D01*
Y343783D01*
X788157Y342129D01*
X789423Y340863D01*
X791077Y340178D01*
X792867D01*
X794521Y340863D01*
X795787Y342129D01*
X796472Y343783D01*
Y345573D01*
X795787Y347227D01*
X794521Y348493D01*
X792867Y349178D01*
D02*
G37*
G36*
X988671Y355972D02*
X986433D01*
X984271Y355393D01*
X982333Y354274D01*
X980750Y352691D01*
X979631Y350753D01*
X979052Y348591D01*
Y346353D01*
X979631Y344191D01*
X980750Y342253D01*
X982333Y340670D01*
X984271Y339551D01*
X986433Y338972D01*
X988671D01*
X990833Y339551D01*
X992771Y340670D01*
X994354Y342253D01*
X995473Y344191D01*
X996052Y346353D01*
Y348591D01*
X995473Y350753D01*
X994354Y352691D01*
X992771Y354274D01*
X990833Y355393D01*
X988671Y355972D01*
D02*
G37*
G36*
X314033Y340312D02*
X312839D01*
X311737Y339855D01*
X310893Y339011D01*
X310436Y337909D01*
Y336715D01*
X310893Y335613D01*
X311737Y334769D01*
X312839Y334312D01*
X314033D01*
X315135Y334769D01*
X315979Y335613D01*
X316436Y336715D01*
Y337909D01*
X315979Y339011D01*
X315135Y339855D01*
X314033Y340312D01*
D02*
G37*
G36*
X84050Y351470D02*
X81050D01*
X78700Y351160D01*
X76511Y350253D01*
X74631Y348811D01*
X73189Y346931D01*
X72282Y344742D01*
X71972Y342392D01*
X72282Y340042D01*
X73189Y337853D01*
X74631Y335973D01*
X76511Y334530D01*
X78700Y333624D01*
X81050Y333314D01*
X84050D01*
X86399Y333624D01*
X88589Y334530D01*
X90469Y335973D01*
X91911Y337853D01*
X92818Y340042D01*
X93128Y342392D01*
X92818Y344742D01*
X91911Y346931D01*
X90469Y348811D01*
X88589Y350253D01*
X86399Y351160D01*
X84050Y351470D01*
D02*
G37*
G36*
X58650D02*
X55650D01*
X53300Y351160D01*
X51111Y350253D01*
X49231Y348811D01*
X47789Y346931D01*
X46882Y344742D01*
X46572Y342392D01*
X46882Y340042D01*
X47789Y337853D01*
X49231Y335973D01*
X51111Y334530D01*
X53300Y333624D01*
X55650Y333314D01*
X58650D01*
X60999Y333624D01*
X63189Y334530D01*
X65069Y335973D01*
X66511Y337853D01*
X67418Y340042D01*
X67728Y342392D01*
X67418Y344742D01*
X66511Y346931D01*
X65069Y348811D01*
X63189Y350253D01*
X60999Y351160D01*
X58650Y351470D01*
D02*
G37*
G36*
X856748Y336974D02*
X855157D01*
X853687Y336365D01*
X852561Y335240D01*
X851953Y333770D01*
Y332179D01*
X852561Y330708D01*
X853687Y329583D01*
X855157Y328974D01*
X856748D01*
X858218Y329583D01*
X859344Y330708D01*
X859952Y332179D01*
Y333770D01*
X859344Y335240D01*
X858218Y336365D01*
X856748Y336974D01*
D02*
G37*
G36*
X578447Y326850D02*
X577253D01*
X576151Y326393D01*
X575307Y325549D01*
X574850Y324447D01*
Y323253D01*
X575307Y322151D01*
X576151Y321307D01*
X577253Y320850D01*
X578447D01*
X579549Y321307D01*
X580393Y322151D01*
X580850Y323253D01*
Y324447D01*
X580393Y325549D01*
X579549Y326393D01*
X578447Y326850D01*
D02*
G37*
G36*
X116675Y325326D02*
X115481D01*
X114379Y324869D01*
X113535Y324025D01*
X113078Y322923D01*
Y321729D01*
X113535Y320627D01*
X114379Y319783D01*
X115481Y319326D01*
X116675D01*
X117777Y319783D01*
X118621Y320627D01*
X119078Y321729D01*
Y322923D01*
X118621Y324025D01*
X117777Y324869D01*
X116675Y325326D01*
D02*
G37*
G36*
X299047Y325480D02*
X297853D01*
X296751Y325023D01*
X295907Y324179D01*
X295450Y323077D01*
Y321883D01*
X295907Y320781D01*
X295997Y320690D01*
X296609Y319710D01*
X295997Y318730D01*
X295907Y318639D01*
X295450Y317537D01*
Y316343D01*
X295907Y315241D01*
X296751Y314397D01*
X297853Y313940D01*
X299047D01*
X300149Y314397D01*
X300993Y315241D01*
X301450Y316343D01*
Y317537D01*
X300993Y318639D01*
X300903Y318730D01*
X300291Y319710D01*
X300903Y320690D01*
X300993Y320781D01*
X301450Y321883D01*
Y323077D01*
X300993Y324179D01*
X300149Y325023D01*
X299047Y325480D01*
D02*
G37*
G36*
X418125Y307800D02*
X416931D01*
X415829Y307343D01*
X415738Y307253D01*
X414758Y306641D01*
X413778Y307253D01*
X413687Y307343D01*
X412585Y307800D01*
X411391D01*
X410289Y307343D01*
X409445Y306499D01*
X408988Y305397D01*
Y304203D01*
X409445Y303101D01*
X410289Y302257D01*
X411391Y301800D01*
X412585D01*
X413687Y302257D01*
X413778Y302347D01*
X414758Y302959D01*
X415738Y302347D01*
X415829Y302257D01*
X416931Y301800D01*
X418125D01*
X419227Y302257D01*
X420071Y303101D01*
X420528Y304203D01*
Y305397D01*
X420071Y306499D01*
X419227Y307343D01*
X418125Y307800D01*
D02*
G37*
G36*
X478161Y311586D02*
X476371D01*
X474717Y310901D01*
X473451Y309635D01*
X472766Y307981D01*
Y306191D01*
X473451Y304537D01*
X474717Y303271D01*
X476371Y302586D01*
X478161D01*
X479815Y303271D01*
X481081Y304537D01*
X481766Y306191D01*
Y307981D01*
X481081Y309635D01*
X479815Y310901D01*
X478161Y311586D01*
D02*
G37*
G36*
X611258Y307521D02*
X609468D01*
X607814Y306836D01*
X606548Y305570D01*
X605863Y303916D01*
Y302126D01*
X606548Y300472D01*
X607814Y299206D01*
X609468Y298521D01*
X611258D01*
X612912Y299206D01*
X614178Y300472D01*
X614863Y302126D01*
Y303916D01*
X614178Y305570D01*
X612912Y306836D01*
X611258Y307521D01*
D02*
G37*
G36*
X485290Y299665D02*
X483500D01*
X481846Y298980D01*
X480580Y297714D01*
X479895Y296060D01*
Y294270D01*
X480580Y292616D01*
X481846Y291350D01*
X483500Y290665D01*
X485290D01*
X486944Y291350D01*
X488210Y292616D01*
X488895Y294270D01*
Y296060D01*
X488210Y297714D01*
X486944Y298980D01*
X485290Y299665D01*
D02*
G37*
G36*
X437676Y298640D02*
X436084D01*
X434614Y298031D01*
X433489Y296906D01*
X432880Y295436D01*
Y293844D01*
X433489Y292374D01*
X434614Y291249D01*
X436084Y290640D01*
X437676D01*
X439146Y291249D01*
X440271Y292374D01*
X440880Y293844D01*
Y295436D01*
X440271Y296906D01*
X439146Y298031D01*
X437676Y298640D01*
D02*
G37*
G36*
X498989Y297870D02*
X497199D01*
X495545Y297185D01*
X494279Y295919D01*
X493594Y294265D01*
Y292475D01*
X494279Y290821D01*
X495545Y289555D01*
X497199Y288870D01*
X498989D01*
X500643Y289555D01*
X501909Y290821D01*
X502594Y292475D01*
Y294265D01*
X501909Y295919D01*
X500643Y297185D01*
X498989Y297870D01*
D02*
G37*
G36*
X613035Y286440D02*
X611245D01*
X609591Y285755D01*
X608325Y284489D01*
X607640Y282835D01*
Y281045D01*
X608325Y279391D01*
X609591Y278125D01*
X611245Y277440D01*
X613035D01*
X614689Y278125D01*
X615955Y279391D01*
X616640Y281045D01*
Y282835D01*
X615955Y284489D01*
X614689Y285755D01*
X613035Y286440D01*
D02*
G37*
G36*
X385606Y283400D02*
X384014D01*
X382544Y282791D01*
X381419Y281666D01*
X380810Y280196D01*
Y278604D01*
X381419Y277134D01*
X382544Y276009D01*
X384014Y275400D01*
X385606D01*
X387076Y276009D01*
X388201Y277134D01*
X388810Y278604D01*
Y280196D01*
X388201Y281666D01*
X387076Y282791D01*
X385606Y283400D01*
D02*
G37*
G36*
X897824Y278582D02*
X896432D01*
X895145Y278049D01*
X894161Y277065D01*
X893628Y275778D01*
Y274386D01*
X894161Y273099D01*
X895145Y272115D01*
X896432Y271582D01*
X897824D01*
X899111Y272115D01*
X900095Y273099D01*
X900628Y274386D01*
Y275778D01*
X900095Y277065D01*
X899111Y278049D01*
X897824Y278582D01*
D02*
G37*
G36*
X90303Y279074D02*
X88513D01*
X86859Y278389D01*
X85593Y277123D01*
X84908Y275469D01*
Y273679D01*
X85593Y272025D01*
X86859Y270759D01*
X88513Y270074D01*
X90303D01*
X91957Y270759D01*
X93223Y272025D01*
X93908Y273679D01*
Y275469D01*
X93223Y277123D01*
X91957Y278389D01*
X90303Y279074D01*
D02*
G37*
G36*
X335667Y275772D02*
X333877D01*
X332223Y275087D01*
X330957Y273821D01*
X330272Y272167D01*
Y270377D01*
X330957Y268723D01*
X332223Y267457D01*
X333877Y266772D01*
X335667D01*
X337321Y267457D01*
X338587Y268723D01*
X339272Y270377D01*
Y272167D01*
X338587Y273821D01*
X337321Y275087D01*
X335667Y275772D01*
D02*
G37*
G36*
X130645Y271478D02*
X129451D01*
X128349Y271021D01*
X127505Y270177D01*
X127048Y269075D01*
Y267881D01*
X127505Y266779D01*
X128349Y265935D01*
X129451Y265478D01*
X130645D01*
X131747Y265935D01*
X132591Y266779D01*
X133048Y267881D01*
Y269075D01*
X132591Y270177D01*
X131747Y271021D01*
X130645Y271478D01*
D02*
G37*
G36*
X520171Y263357D02*
X518978D01*
X517875Y262901D01*
X517031Y262057D01*
X516575Y260954D01*
Y259761D01*
X517031Y258658D01*
X517875Y257814D01*
X518978Y257357D01*
X520171D01*
X521274Y257814D01*
X522118Y258658D01*
X522575Y259761D01*
Y260954D01*
X522118Y262057D01*
X521274Y262901D01*
X520171Y263357D01*
D02*
G37*
G36*
X592969Y260532D02*
X591179D01*
X589525Y259847D01*
X588259Y258581D01*
X587574Y256927D01*
Y255137D01*
X588259Y253483D01*
X589525Y252217D01*
X591179Y251532D01*
X592969D01*
X594623Y252217D01*
X595889Y253483D01*
X596574Y255137D01*
Y256927D01*
X595889Y258581D01*
X594623Y259847D01*
X592969Y260532D01*
D02*
G37*
G36*
X470541D02*
X468751D01*
X467097Y259847D01*
X465831Y258581D01*
X465146Y256927D01*
Y255137D01*
X465831Y253483D01*
X467097Y252217D01*
X468751Y251532D01*
X470541D01*
X472195Y252217D01*
X473461Y253483D01*
X474146Y255137D01*
Y256927D01*
X473461Y258581D01*
X472195Y259847D01*
X470541Y260532D01*
D02*
G37*
G36*
X558127Y257000D02*
X556933D01*
X555831Y256543D01*
X554987Y255699D01*
X554530Y254597D01*
Y253403D01*
X554987Y252301D01*
X555831Y251457D01*
X556933Y251000D01*
X558127D01*
X559229Y251457D01*
X560073Y252301D01*
X560530Y253403D01*
Y254597D01*
X560073Y255699D01*
X559229Y256543D01*
X558127Y257000D01*
D02*
G37*
G36*
X391956Y258000D02*
X390364D01*
X388894Y257391D01*
X387769Y256266D01*
X387160Y254796D01*
Y253204D01*
X387769Y251734D01*
X388894Y250609D01*
X390364Y250000D01*
X391956D01*
X393426Y250609D01*
X394551Y251734D01*
X395160Y253204D01*
Y254796D01*
X394551Y256266D01*
X393426Y257391D01*
X391956Y258000D01*
D02*
G37*
G36*
X501783Y257992D02*
X499993D01*
X498339Y257307D01*
X497073Y256041D01*
X496388Y254387D01*
Y252597D01*
X497073Y250943D01*
X498339Y249677D01*
X499993Y248992D01*
X501783D01*
X503437Y249677D01*
X504703Y250943D01*
X505388Y252597D01*
Y254387D01*
X504703Y256041D01*
X503437Y257307D01*
X501783Y257992D01*
D02*
G37*
G36*
X994988Y261538D02*
X977988D01*
Y244538D01*
X994988D01*
Y261538D01*
D02*
G37*
G36*
X538927Y246840D02*
X537733D01*
X536631Y246383D01*
X535787Y245539D01*
X535330Y244437D01*
Y243243D01*
X535787Y242141D01*
X536631Y241297D01*
X537733Y240840D01*
X538927D01*
X540029Y241297D01*
X540873Y242141D01*
X541330Y243243D01*
Y244437D01*
X540873Y245539D01*
X540029Y246383D01*
X538927Y246840D01*
D02*
G37*
G36*
X491369Y246816D02*
X489579D01*
X487925Y246131D01*
X486659Y244865D01*
X485974Y243211D01*
Y241421D01*
X486659Y239767D01*
X487925Y238501D01*
X489579Y237816D01*
X491369D01*
X493023Y238501D01*
X494289Y239767D01*
X494974Y241421D01*
Y243211D01*
X494289Y244865D01*
X493023Y246131D01*
X491369Y246816D01*
D02*
G37*
G36*
X559397Y241760D02*
X558203D01*
X557101Y241303D01*
X556257Y240459D01*
X555800Y239357D01*
Y238163D01*
X556257Y237061D01*
X557101Y236217D01*
X558203Y235760D01*
X559397D01*
X560013Y236015D01*
X561135Y234893D01*
X560880Y234277D01*
Y233083D01*
X561337Y231981D01*
X562181Y231137D01*
X563283Y230680D01*
X564477D01*
X565579Y231137D01*
X566423Y231981D01*
X566880Y233083D01*
Y234277D01*
X566423Y235379D01*
X565579Y236223D01*
X564477Y236680D01*
X563283D01*
X562667Y236425D01*
X561545Y237547D01*
X561800Y238163D01*
Y239357D01*
X561343Y240459D01*
X560499Y241303D01*
X559397Y241760D01*
D02*
G37*
G36*
X794391Y232338D02*
X792601D01*
X790947Y231653D01*
X789681Y230387D01*
X788996Y228733D01*
Y226943D01*
X789681Y225289D01*
X790947Y224023D01*
X792601Y223338D01*
X794391D01*
X796045Y224023D01*
X797311Y225289D01*
X797996Y226943D01*
Y228733D01*
X797311Y230387D01*
X796045Y231653D01*
X794391Y232338D01*
D02*
G37*
G36*
X779405D02*
X777615D01*
X775961Y231653D01*
X774695Y230387D01*
X774010Y228733D01*
Y226943D01*
X774695Y225289D01*
X775961Y224023D01*
X777615Y223338D01*
X779405D01*
X781059Y224023D01*
X782325Y225289D01*
X783010Y226943D01*
Y228733D01*
X782325Y230387D01*
X781059Y231653D01*
X779405Y232338D01*
D02*
G37*
G36*
X308489Y231830D02*
X306699D01*
X305045Y231145D01*
X303779Y229879D01*
X303094Y228225D01*
Y226435D01*
X303779Y224781D01*
X305045Y223515D01*
X306699Y222830D01*
X308489D01*
X310143Y223515D01*
X311409Y224781D01*
X312094Y226435D01*
Y228225D01*
X311409Y229879D01*
X310143Y231145D01*
X308489Y231830D01*
D02*
G37*
G36*
X184537D02*
X182747D01*
X181093Y231145D01*
X179827Y229879D01*
X179142Y228225D01*
Y226435D01*
X179827Y224781D01*
X181093Y223515D01*
X182747Y222830D01*
X184537D01*
X186191Y223515D01*
X187457Y224781D01*
X188142Y226435D01*
Y228225D01*
X187457Y229879D01*
X186191Y231145D01*
X184537Y231830D01*
D02*
G37*
G36*
X987607Y236538D02*
X985369D01*
X983207Y235959D01*
X981269Y234840D01*
X979686Y233257D01*
X978567Y231319D01*
X977988Y229157D01*
Y226919D01*
X978567Y224757D01*
X979686Y222819D01*
X981269Y221236D01*
X983207Y220117D01*
X985369Y219538D01*
X987607D01*
X989769Y220117D01*
X991707Y221236D01*
X993290Y222819D01*
X994409Y224757D01*
X994988Y226919D01*
Y229157D01*
X994409Y231319D01*
X993290Y233257D01*
X991707Y234840D01*
X989769Y235959D01*
X987607Y236538D01*
D02*
G37*
G36*
X416086Y226250D02*
X414494D01*
X413024Y225641D01*
X411899Y224516D01*
X411290Y223046D01*
Y221454D01*
X411899Y219984D01*
X413024Y218859D01*
X414494Y218250D01*
X416086D01*
X417556Y218859D01*
X418681Y219984D01*
X419290Y221454D01*
Y223046D01*
X418681Y224516D01*
X417556Y225641D01*
X416086Y226250D01*
D02*
G37*
G36*
X116211Y225226D02*
X114421D01*
X112767Y224541D01*
X111501Y223275D01*
X110816Y221621D01*
Y219831D01*
X111501Y218177D01*
X112767Y216911D01*
X114421Y216226D01*
X116211D01*
X117865Y216911D01*
X119131Y218177D01*
X119816Y219831D01*
Y221621D01*
X119131Y223275D01*
X117865Y224541D01*
X116211Y225226D01*
D02*
G37*
G36*
X156089Y218622D02*
X154299D01*
X152645Y217937D01*
X151379Y216671D01*
X150694Y215017D01*
Y213227D01*
X151379Y211573D01*
X152645Y210307D01*
X154299Y209622D01*
X156089D01*
X157743Y210307D01*
X159009Y211573D01*
X159694Y213227D01*
Y215017D01*
X159009Y216671D01*
X157743Y217937D01*
X156089Y218622D01*
D02*
G37*
G36*
X886394Y214320D02*
X885002D01*
X883715Y213787D01*
X882731Y212803D01*
X882198Y211516D01*
Y210124D01*
X882731Y208837D01*
X883715Y207853D01*
X885002Y207320D01*
X886394D01*
X887681Y207853D01*
X888665Y208837D01*
X889198Y210124D01*
Y211516D01*
X888665Y212803D01*
X887681Y213787D01*
X886394Y214320D01*
D02*
G37*
G36*
X184537Y215066D02*
X182747D01*
X181093Y214381D01*
X179827Y213115D01*
X179142Y211461D01*
Y209671D01*
X179827Y208017D01*
X181093Y206751D01*
X182747Y206066D01*
X184537D01*
X186191Y206751D01*
X187457Y208017D01*
X188142Y209671D01*
Y211461D01*
X187457Y213115D01*
X186191Y214381D01*
X184537Y215066D01*
D02*
G37*
G36*
X171329Y210240D02*
X169539D01*
X167885Y209555D01*
X166619Y208289D01*
X165934Y206635D01*
Y204845D01*
X166619Y203191D01*
X167885Y201925D01*
X169539Y201240D01*
X171329D01*
X172983Y201925D01*
X174249Y203191D01*
X174934Y204845D01*
Y206635D01*
X174249Y208289D01*
X172983Y209555D01*
X171329Y210240D01*
D02*
G37*
G36*
X438747Y203660D02*
X437553D01*
X436451Y203203D01*
X435607Y202359D01*
X435150Y201257D01*
Y200063D01*
X435607Y198961D01*
X436451Y198117D01*
X437553Y197660D01*
X438747D01*
X439849Y198117D01*
X440693Y198961D01*
X441150Y200063D01*
Y201257D01*
X440693Y202359D01*
X439849Y203203D01*
X438747Y203660D01*
D02*
G37*
G36*
X201301Y203128D02*
X199511D01*
X197857Y202443D01*
X196591Y201177D01*
X195906Y199523D01*
Y197733D01*
X196591Y196079D01*
X197857Y194813D01*
X199511Y194128D01*
X201301D01*
X202955Y194813D01*
X204221Y196079D01*
X204906Y197733D01*
Y199523D01*
X204221Y201177D01*
X202955Y202443D01*
X201301Y203128D01*
D02*
G37*
G36*
X577177Y189690D02*
X575983D01*
X574881Y189233D01*
X574037Y188389D01*
X573580Y187287D01*
Y186093D01*
X574037Y184991D01*
X574881Y184147D01*
X575983Y183690D01*
X577177D01*
X578279Y184147D01*
X579123Y184991D01*
X579580Y186093D01*
Y187287D01*
X579123Y188389D01*
X578279Y189233D01*
X577177Y189690D01*
D02*
G37*
G36*
X501965Y187432D02*
X500772D01*
X499669Y186975D01*
X498825Y186131D01*
X498368Y185028D01*
Y183835D01*
X498825Y182732D01*
X499669Y181888D01*
X500772Y181432D01*
X501965D01*
X503068Y181888D01*
X503912Y182732D01*
X504369Y183835D01*
Y185028D01*
X503912Y186131D01*
X503068Y186975D01*
X501965Y187432D01*
D02*
G37*
G36*
X60331Y179252D02*
X58541D01*
X56887Y178567D01*
X55621Y177301D01*
X54936Y175647D01*
Y173857D01*
X55621Y172203D01*
X56887Y170937D01*
X58541Y170252D01*
X60331D01*
X61985Y170937D01*
X63251Y172203D01*
X63936Y173857D01*
Y175647D01*
X63251Y177301D01*
X61985Y178567D01*
X60331Y179252D01*
D02*
G37*
G36*
X163963Y177474D02*
X162173D01*
X160519Y176789D01*
X159253Y175523D01*
X158568Y173869D01*
Y172079D01*
X159253Y170425D01*
X160519Y169159D01*
X162173Y168474D01*
X163963D01*
X165617Y169159D01*
X166883Y170425D01*
X167568Y172079D01*
Y173869D01*
X166883Y175523D01*
X165617Y176789D01*
X163963Y177474D01*
D02*
G37*
G36*
X163455Y164266D02*
X161665D01*
X160011Y163581D01*
X158745Y162315D01*
X158060Y160661D01*
Y158871D01*
X158745Y157217D01*
X160011Y155951D01*
X161665Y155266D01*
X163455D01*
X165109Y155951D01*
X166375Y157217D01*
X167060Y158871D01*
Y160661D01*
X166375Y162315D01*
X165109Y163581D01*
X163455Y164266D01*
D02*
G37*
G36*
X429175Y171560D02*
X426805D01*
X424516Y170947D01*
X422464Y169762D01*
X420788Y168086D01*
X419603Y166034D01*
X418990Y163745D01*
Y161375D01*
X419603Y159086D01*
X420788Y157034D01*
X422464Y155358D01*
X424516Y154173D01*
X426805Y153560D01*
X429175D01*
X431464Y154173D01*
X433516Y155358D01*
X435192Y157034D01*
X436377Y159086D01*
X436990Y161375D01*
Y163745D01*
X436377Y166034D01*
X435192Y168086D01*
X433516Y169762D01*
X431464Y170947D01*
X429175Y171560D01*
D02*
G37*
G36*
X403775D02*
X401405D01*
X399116Y170947D01*
X397064Y169762D01*
X395388Y168086D01*
X394203Y166034D01*
X393590Y163745D01*
Y161375D01*
X394203Y159086D01*
X395388Y157034D01*
X397064Y155358D01*
X399116Y154173D01*
X401405Y153560D01*
X403775D01*
X406064Y154173D01*
X408116Y155358D01*
X409792Y157034D01*
X410977Y159086D01*
X411590Y161375D01*
Y163745D01*
X410977Y166034D01*
X409792Y168086D01*
X408116Y169762D01*
X406064Y170947D01*
X403775Y171560D01*
D02*
G37*
G36*
X378375D02*
X376005D01*
X373716Y170947D01*
X371664Y169762D01*
X369988Y168086D01*
X368803Y166034D01*
X368190Y163745D01*
Y161375D01*
X368803Y159086D01*
X369988Y157034D01*
X371664Y155358D01*
X373716Y154173D01*
X376005Y153560D01*
X378375D01*
X380664Y154173D01*
X382716Y155358D01*
X384392Y157034D01*
X385577Y159086D01*
X386190Y161375D01*
Y163745D01*
X385577Y166034D01*
X384392Y168086D01*
X382716Y169762D01*
X380664Y170947D01*
X378375Y171560D01*
D02*
G37*
G36*
X327575D02*
X325205D01*
X322916Y170947D01*
X320864Y169762D01*
X319188Y168086D01*
X318003Y166034D01*
X317390Y163745D01*
Y161375D01*
X318003Y159086D01*
X319188Y157034D01*
X320864Y155358D01*
X322916Y154173D01*
X325205Y153560D01*
X327575D01*
X329864Y154173D01*
X331916Y155358D01*
X333592Y157034D01*
X334777Y159086D01*
X335390Y161375D01*
Y163745D01*
X334777Y166034D01*
X333592Y168086D01*
X331916Y169762D01*
X329864Y170947D01*
X327575Y171560D01*
D02*
G37*
G36*
X309990D02*
X291990D01*
Y153560D01*
X309990D01*
Y171560D01*
D02*
G37*
G36*
X162906Y148777D02*
X161115D01*
X159461Y148092D01*
X158195Y146826D01*
X157510Y145172D01*
Y143382D01*
X158195Y141728D01*
X159461Y140462D01*
X161115Y139777D01*
X162906D01*
X164559Y140462D01*
X165825Y141728D01*
X166510Y143382D01*
Y145172D01*
X165825Y146826D01*
X164559Y148092D01*
X162906Y148777D01*
D02*
G37*
G36*
X149485Y136580D02*
X147695D01*
X146041Y135895D01*
X144775Y134629D01*
X144090Y132975D01*
Y131185D01*
X144775Y129531D01*
X146041Y128265D01*
X147695Y127580D01*
X149485D01*
X151139Y128265D01*
X152405Y129531D01*
X153090Y131185D01*
Y132975D01*
X152405Y134629D01*
X151139Y135895D01*
X149485Y136580D01*
D02*
G37*
G36*
X404457Y128730D02*
X403263D01*
X402161Y128273D01*
X401317Y127429D01*
X400860Y126327D01*
Y125133D01*
X401317Y124031D01*
X402161Y123187D01*
X403263Y122730D01*
X404457D01*
X405559Y123187D01*
X405905Y123533D01*
X406079Y123707D01*
X407351Y122857D01*
X407210Y122517D01*
Y121323D01*
X407667Y120221D01*
X408511Y119377D01*
X409613Y118920D01*
X410807D01*
X411909Y119377D01*
X412753Y120221D01*
X413210Y121323D01*
Y122517D01*
X412753Y123619D01*
X411909Y124463D01*
X410807Y124920D01*
X409613D01*
X408511Y124463D01*
X408165Y124117D01*
X407991Y123943D01*
X406719Y124793D01*
X406860Y125133D01*
Y126327D01*
X406403Y127429D01*
X405559Y128273D01*
X404457Y128730D01*
D02*
G37*
G36*
X682278Y122618D02*
X680686D01*
X679216Y122009D01*
X678091Y120884D01*
X677482Y119414D01*
Y117822D01*
X678091Y116352D01*
X679216Y115227D01*
X680686Y114618D01*
X682278D01*
X683748Y115227D01*
X684873Y116352D01*
X685482Y117822D01*
Y119414D01*
X684873Y120884D01*
X683748Y122009D01*
X682278Y122618D01*
D02*
G37*
G36*
X531656Y105854D02*
X530064D01*
X528594Y105245D01*
X527469Y104120D01*
X526860Y102650D01*
Y101058D01*
X527469Y99588D01*
X528594Y98463D01*
X530064Y97854D01*
X531656D01*
X533126Y98463D01*
X534251Y99588D01*
X534860Y101058D01*
Y102650D01*
X534251Y104120D01*
X533126Y105245D01*
X531656Y105854D01*
D02*
G37*
G36*
X597751Y102060D02*
X596557D01*
X595455Y101603D01*
X594611Y100759D01*
X594154Y99657D01*
Y98463D01*
X594611Y97361D01*
X595455Y96517D01*
X596557Y96060D01*
X597751D01*
X598853Y96517D01*
X599697Y97361D01*
X600154Y98463D01*
Y99657D01*
X599697Y100759D01*
X598853Y101603D01*
X597751Y102060D01*
D02*
G37*
G36*
X143036Y29654D02*
X141444D01*
X139974Y29045D01*
X138849Y27920D01*
X138240Y26450D01*
Y24858D01*
X138849Y23388D01*
X139974Y22263D01*
X141444Y21654D01*
X143036D01*
X144506Y22263D01*
X145631Y23388D01*
X146240Y24858D01*
Y26450D01*
X145631Y27920D01*
X144506Y29045D01*
X143036Y29654D01*
D02*
G37*
G36*
X399576Y25844D02*
X397984D01*
X396514Y25235D01*
X395389Y24110D01*
X394780Y22640D01*
Y21048D01*
X395389Y19578D01*
X396514Y18453D01*
X397984Y17844D01*
X399576D01*
X401046Y18453D01*
X402171Y19578D01*
X402780Y21048D01*
Y22640D01*
X402171Y24110D01*
X401046Y25235D01*
X399576Y25844D01*
D02*
G37*
G36*
X423706Y24574D02*
X422114D01*
X420644Y23965D01*
X419519Y22840D01*
X418910Y21370D01*
Y19778D01*
X419519Y18308D01*
X420644Y17183D01*
X422114Y16574D01*
X423706D01*
X425176Y17183D01*
X426301Y18308D01*
X426910Y19778D01*
Y21370D01*
X426301Y22840D01*
X425176Y23965D01*
X423706Y24574D01*
D02*
G37*
G36*
X311946D02*
X310354D01*
X308884Y23965D01*
X307759Y22840D01*
X307150Y21370D01*
Y19778D01*
X307759Y18308D01*
X308884Y17183D01*
X310354Y16574D01*
X311946D01*
X313416Y17183D01*
X314541Y18308D01*
X315150Y19778D01*
Y21370D01*
X314541Y22840D01*
X313416Y23965D01*
X311946Y24574D01*
D02*
G37*
G36*
X263686D02*
X262094D01*
X260624Y23965D01*
X259499Y22840D01*
X258890Y21370D01*
Y19778D01*
X259499Y18308D01*
X260624Y17183D01*
X262094Y16574D01*
X263686D01*
X265156Y17183D01*
X266281Y18308D01*
X266890Y19778D01*
Y21370D01*
X266281Y22840D01*
X265156Y23965D01*
X263686Y24574D01*
D02*
G37*
G36*
X176818Y23050D02*
X175226D01*
X173756Y22441D01*
X172631Y21316D01*
X172022Y19846D01*
Y18254D01*
X172631Y16784D01*
X173756Y15659D01*
X175226Y15050D01*
X176818D01*
X178288Y15659D01*
X179413Y16784D01*
X180022Y18254D01*
Y19846D01*
X179413Y21316D01*
X178288Y22441D01*
X176818Y23050D01*
D02*
G37*
%LPD*%
D27*
X1016394Y507622D02*
D03*
Y530522D02*
D03*
Y648822D02*
D03*
X994594Y603722D02*
D03*
X1005594Y593522D02*
D03*
X994594Y562922D02*
D03*
X1016394Y625922D02*
D03*
X994594Y542522D02*
D03*
X1005594Y552722D02*
D03*
Y573122D02*
D03*
X994594Y583322D02*
D03*
D62*
X1069594Y658622D02*
D03*
Y497822D02*
D03*
D63*
X82550Y672592D02*
D03*
Y570992D02*
D03*
Y748792D02*
D03*
X57150D02*
D03*
Y570992D02*
D03*
Y672592D02*
D03*
X82550Y469392D02*
D03*
X57150D02*
D03*
X82550Y393192D02*
D03*
X57150D02*
D03*
Y316992D02*
D03*
X82550Y342392D02*
D03*
X57150D02*
D03*
Y697992D02*
D03*
X82550Y723392D02*
D03*
Y697992D02*
D03*
X57150Y723392D02*
D03*
Y545592D02*
D03*
X82550D02*
D03*
Y520192D02*
D03*
X57150Y418592D02*
D03*
X82550Y443992D02*
D03*
X57150Y647192D02*
D03*
Y520192D02*
D03*
X82550Y418592D02*
D03*
X57150Y621792D02*
D03*
X82550Y494792D02*
D03*
Y647192D02*
D03*
Y596392D02*
D03*
X57150D02*
D03*
X82550Y621792D02*
D03*
X57150Y443992D02*
D03*
Y494792D02*
D03*
Y367792D02*
D03*
X82550D02*
D03*
D64*
Y316992D02*
D03*
D65*
X351790Y162560D02*
D03*
X326390D02*
D03*
X402590D02*
D03*
X377190D02*
D03*
X427990D02*
D03*
D66*
X44450Y251460D02*
D03*
Y206960D02*
D03*
D67*
X14450Y269210D02*
D03*
Y189210D02*
D03*
D68*
X1005594Y613922D02*
D03*
D69*
X521944Y774232D02*
D03*
X451944D02*
D03*
X486944D02*
D03*
X556944D02*
D03*
D70*
X986488Y253038D02*
D03*
X987552Y372472D02*
D03*
D71*
X986488Y228038D02*
D03*
X987552Y347472D02*
D03*
D72*
X300990Y162560D02*
D03*
D73*
X197358Y639826D02*
D03*
X163322Y320294D02*
D03*
X287274Y357378D02*
D03*
X1088644Y717042D02*
D03*
X1038860Y782574D02*
D03*
X431292Y436118D02*
D03*
X567690Y301498D02*
D03*
X468630Y411226D02*
D03*
X118618Y490220D02*
D03*
X196850Y450342D02*
D03*
X120650Y581152D02*
D03*
X350266Y747268D02*
D03*
X353568Y798322D02*
D03*
X165100Y814578D02*
D03*
X191516Y723138D02*
D03*
X122428Y726694D02*
D03*
X91186Y792226D02*
D03*
X23622Y715010D02*
D03*
Y648970D02*
D03*
Y550164D02*
D03*
Y484124D02*
D03*
X23876Y418084D02*
D03*
X24384Y314198D02*
D03*
X22860Y86614D02*
D03*
X22352Y151130D02*
D03*
X244602Y287020D02*
D03*
X254000Y248158D02*
D03*
X243840Y200406D02*
D03*
X242062Y150368D02*
D03*
X119380Y24384D02*
D03*
X114046Y98552D02*
D03*
X221488Y108712D02*
D03*
X175514Y54864D02*
D03*
X335788Y102108D02*
D03*
X311658Y56134D02*
D03*
X400558Y56388D02*
D03*
X547116Y53086D02*
D03*
X461518Y52070D02*
D03*
X456184Y177800D02*
D03*
X498856Y143764D02*
D03*
X692658Y170434D02*
D03*
X753872Y141732D02*
D03*
X748538Y44450D02*
D03*
X876300Y57658D02*
D03*
X881126Y138684D02*
D03*
X810260Y287020D02*
D03*
X943356Y283718D02*
D03*
X939546Y407924D02*
D03*
X814578Y314452D02*
D03*
X941324Y317754D02*
D03*
X936244Y190754D02*
D03*
X804164Y188976D02*
D03*
X636270Y251460D02*
D03*
X681482Y287782D02*
D03*
X842264Y357378D02*
D03*
X814070Y408432D02*
D03*
X721360Y395224D02*
D03*
X721868Y445262D02*
D03*
X673354Y469138D02*
D03*
X600202Y579120D02*
D03*
X636778Y675386D02*
D03*
X635762Y721106D02*
D03*
X640842Y780796D02*
D03*
X715010Y780288D02*
D03*
X802386Y780796D02*
D03*
X914908Y780288D02*
D03*
X914146Y710946D02*
D03*
X802386Y711454D02*
D03*
X578612Y655320D02*
D03*
X607822Y653542D02*
D03*
X606044Y677164D02*
D03*
X607060Y665480D02*
D03*
X488442Y526034D02*
D03*
X180086Y564896D02*
D03*
X613829Y427276D02*
D03*
X578104Y361442D02*
D03*
X569722Y369570D02*
D03*
X575564Y378206D02*
D03*
X597154Y644398D02*
D03*
X624840Y625094D02*
D03*
X598678Y605790D02*
D03*
X576580Y527050D02*
D03*
X588772Y524002D02*
D03*
X562864Y530860D02*
D03*
X684530Y429514D02*
D03*
X659130Y435610D02*
D03*
X615188Y388874D02*
D03*
X650748Y290830D02*
D03*
X650494Y273304D02*
D03*
X597662Y245872D02*
D03*
X594106Y231140D02*
D03*
X516382Y300990D02*
D03*
X518922Y292100D02*
D03*
X479044Y246380D02*
D03*
X498602Y229362D02*
D03*
X472186Y229616D02*
D03*
X449326Y237490D02*
D03*
X313944Y355600D02*
D03*
X324612Y348234D02*
D03*
X409194Y349758D02*
D03*
X414274Y408178D02*
D03*
X411734Y422402D02*
D03*
X398272Y432308D02*
D03*
X386080Y500888D02*
D03*
X337820Y511810D02*
D03*
X182372Y634238D02*
D03*
X168656Y684784D02*
D03*
X149098Y685038D02*
D03*
X132080Y560832D02*
D03*
X179324Y614426D02*
D03*
X141732Y615696D02*
D03*
X159258Y473710D02*
D03*
X133096Y524256D02*
D03*
X165100Y430022D02*
D03*
X149098Y429260D02*
D03*
X166370Y367030D02*
D03*
X153670Y366268D02*
D03*
X100330Y325882D02*
D03*
X88392Y287528D02*
D03*
X48006Y134874D02*
D03*
X76962Y135128D02*
D03*
X115824Y132080D02*
D03*
X161798D02*
D03*
X207264Y158496D02*
D03*
X195834Y134620D02*
D03*
X206756Y175006D02*
D03*
X213106Y190500D02*
D03*
X75184Y221742D02*
D03*
X59690Y200152D02*
D03*
X785622Y216154D02*
D03*
Y273050D02*
D03*
X841756Y256794D02*
D03*
X840740Y241300D02*
D03*
X807974Y217424D02*
D03*
X840740Y229616D02*
D03*
X854964Y257556D02*
D03*
X854456Y243840D02*
D03*
X854710Y229108D02*
D03*
X808736Y271780D02*
D03*
X624078Y415290D02*
D03*
X647700Y434340D02*
D03*
X664210Y387858D02*
D03*
X653542Y384302D02*
D03*
X640842Y384556D02*
D03*
X620776Y397256D02*
D03*
X640334Y310134D02*
D03*
X655828Y308864D02*
D03*
X669544D02*
D03*
X673608Y332486D02*
D03*
X667258Y356616D02*
D03*
X655066Y359664D02*
D03*
X643128Y355346D02*
D03*
X626872Y447548D02*
D03*
X635762Y447802D02*
D03*
X336804Y482854D02*
D03*
X336296Y490220D02*
D03*
X580644Y519176D02*
D03*
X564896Y518922D02*
D03*
X488442Y509778D02*
D03*
X455168Y502666D02*
D03*
X433324Y523240D02*
D03*
X850138Y280162D02*
D03*
X791972Y344678D02*
D03*
Y378714D02*
D03*
X397002Y419862D02*
D03*
X183642Y210566D02*
D03*
Y227330D02*
D03*
X163068Y172974D02*
D03*
X636524Y494792D02*
D03*
X567944Y449326D02*
D03*
X646938Y460248D02*
D03*
X398018Y351028D02*
D03*
X398272Y407416D02*
D03*
X610363Y303021D02*
D03*
X612140Y281940D02*
D03*
X503428Y473710D02*
D03*
X572394Y260365D02*
D03*
X500888Y253492D02*
D03*
X398018Y464820D02*
D03*
X397685Y362379D02*
D03*
X592074Y256032D02*
D03*
X469646D02*
D03*
X447548Y257302D02*
D03*
X773938Y377698D02*
D03*
X334010Y284226D02*
D03*
X334772Y271272D02*
D03*
X271526Y284226D02*
D03*
X357124Y351536D02*
D03*
X341122Y351282D02*
D03*
X370840Y483870D02*
D03*
X336263Y499925D02*
D03*
X372077Y500179D02*
D03*
X345948Y519430D02*
D03*
X566420Y624840D02*
D03*
X607060Y624332D02*
D03*
X774446Y344932D02*
D03*
X778510Y261112D02*
D03*
X794258D02*
D03*
X778510Y227838D02*
D03*
X793496D02*
D03*
X847344Y398272D02*
D03*
X917786Y241510D02*
D03*
X854742Y202287D02*
D03*
X53340Y242824D02*
D03*
X59436Y174752D02*
D03*
X85852Y225044D02*
D03*
X89408Y274574D02*
D03*
X988060Y670052D02*
D03*
X839978Y662178D02*
D03*
X771906Y640334D02*
D03*
X767588Y530860D02*
D03*
X990854Y486410D02*
D03*
Y469646D02*
D03*
X833882Y521462D02*
D03*
X790956Y498602D02*
D03*
X772922Y482600D02*
D03*
X749300Y640842D02*
D03*
X708152Y642366D02*
D03*
X697738Y641350D02*
D03*
X641604Y566166D02*
D03*
Y549656D02*
D03*
X692912Y418338D02*
D03*
X692404Y400050D02*
D03*
X916636Y358902D02*
D03*
X852678Y320294D02*
D03*
X698754Y344424D02*
D03*
X699262Y321818D02*
D03*
X640080Y373634D02*
D03*
X647192Y282448D02*
D03*
X645922Y299974D02*
D03*
X580644Y369824D02*
D03*
X509524Y292100D02*
D03*
X592328Y239522D02*
D03*
X501142D02*
D03*
X468630Y239268D02*
D03*
X209804Y236220D02*
D03*
X209296Y201168D02*
D03*
X195253Y159766D02*
D03*
X267716Y155702D02*
D03*
X195284Y144277D02*
D03*
X115316Y220726D02*
D03*
X155194Y214122D02*
D03*
X170434Y205740D02*
D03*
X162560Y159766D02*
D03*
X162010Y144277D02*
D03*
X546354Y572008D02*
D03*
X486918Y572770D02*
D03*
X200406Y198628D02*
D03*
X462534Y648462D02*
D03*
X307594Y227330D02*
D03*
X492760Y729488D02*
D03*
X713994Y507492D02*
D03*
X698246Y507746D02*
D03*
X148590Y132080D02*
D03*
X638810Y633222D02*
D03*
X434086Y507746D02*
D03*
X477266Y307086D02*
D03*
X490474Y242316D02*
D03*
X484395Y295165D02*
D03*
X749300Y534670D02*
D03*
X498094Y293370D02*
D03*
X756666Y542544D02*
D03*
X753872Y555244D02*
D03*
X641350Y598932D02*
D03*
X641096Y516890D02*
D03*
X688848Y576072D02*
D03*
X526034Y727964D02*
D03*
X562356Y590550D02*
D03*
X522732Y650240D02*
D03*
X502920Y590042D02*
D03*
D74*
X116078Y322326D02*
D03*
X519575Y260357D02*
D03*
X570738Y467106D02*
D03*
X393700Y299720D02*
D03*
X422656Y304800D02*
D03*
X561164Y466266D02*
D03*
X576580Y186690D02*
D03*
X339090Y524510D02*
D03*
X351536Y656336D02*
D03*
X597154Y99060D02*
D03*
X501368Y184431D02*
D03*
X800862Y607314D02*
D03*
X753110Y732790D02*
D03*
X715264Y729996D02*
D03*
X406908Y304546D02*
D03*
X160020Y674624D02*
D03*
X160274Y634746D02*
D03*
X155702Y597916D02*
D03*
X155448Y530606D02*
D03*
Y557784D02*
D03*
X300990Y326898D02*
D03*
X300736Y312166D02*
D03*
X153162Y488950D02*
D03*
X159258Y408178D02*
D03*
X159766Y383032D02*
D03*
X18542Y235712D02*
D03*
X10922Y234442D02*
D03*
X17526Y223266D02*
D03*
X10414Y224028D02*
D03*
X188468Y184912D02*
D03*
X176022D02*
D03*
X59436Y141478D02*
D03*
X177800Y128778D02*
D03*
X90932Y137922D02*
D03*
X130048Y268478D02*
D03*
X313436Y337312D02*
D03*
X298450Y322480D02*
D03*
X411988Y304800D02*
D03*
X298450Y316940D02*
D03*
X417528Y304800D02*
D03*
X720598Y555498D02*
D03*
X615696Y364744D02*
D03*
X790956Y641350D02*
D03*
X810006Y640334D02*
D03*
X872490Y662178D02*
D03*
X580898Y424688D02*
D03*
X862584Y529082D02*
D03*
X796036Y451104D02*
D03*
X777494Y591058D02*
D03*
X772162Y596390D02*
D03*
X455422Y511810D02*
D03*
X464312Y512572D02*
D03*
X811022Y605536D02*
D03*
X811530Y561340D02*
D03*
X832358Y547410D02*
D03*
Y554950D02*
D03*
X551942Y465582D02*
D03*
X636016Y616458D02*
D03*
X638810Y582930D02*
D03*
X634492Y528066D02*
D03*
X606298Y470154D02*
D03*
X697992Y544882D02*
D03*
X742188Y608330D02*
D03*
X928370Y482346D02*
D03*
X738886Y618236D02*
D03*
X748284Y608330D02*
D03*
X774572Y524636D02*
D03*
X961644Y662940D02*
D03*
X962152Y500634D02*
D03*
X563880Y233680D02*
D03*
X558800Y238760D02*
D03*
X577850Y323850D02*
D03*
X557530Y254000D02*
D03*
X538330Y243840D02*
D03*
X438150Y200660D02*
D03*
X410210Y121920D02*
D03*
X403860Y125730D02*
D03*
D75*
X973328Y785876D02*
D03*
X176276Y767080D02*
D03*
X799592Y97536D02*
D03*
X72390Y62992D02*
D03*
D76*
X367806Y365760D02*
D03*
X384810Y279400D02*
D03*
X886206Y393192D02*
D03*
X855953Y332974D02*
D03*
X329939Y365258D02*
D03*
X367538Y472694D02*
D03*
X332232Y548640D02*
D03*
X530860Y101854D02*
D03*
X422910Y20574D02*
D03*
X311150D02*
D03*
X176022Y19050D02*
D03*
X142240Y25654D02*
D03*
X461010Y20574D02*
D03*
X563880Y99314D02*
D03*
X548640Y20574D02*
D03*
X415290Y222250D02*
D03*
X436880Y294640D02*
D03*
X170180Y241046D02*
D03*
X672592Y79248D02*
D03*
Y58928D02*
D03*
Y37338D02*
D03*
X637032Y109728D02*
D03*
X598424Y119380D02*
D03*
X415798Y582168D02*
D03*
X351536Y633476D02*
D03*
X429260Y100584D02*
D03*
X193040D02*
D03*
X140462Y481330D02*
D03*
X165354Y486918D02*
D03*
X146304Y600964D02*
D03*
X165100Y600456D02*
D03*
X411480Y647700D02*
D03*
X424434Y558038D02*
D03*
X329946Y373634D02*
D03*
X391160Y254000D02*
D03*
X368198Y374079D02*
D03*
X681482Y118618D02*
D03*
X165100Y531622D02*
D03*
X367030Y643128D02*
D03*
X398780Y21844D02*
D03*
X262890Y20574D02*
D03*
X146304Y552704D02*
D03*
X165862Y552958D02*
D03*
D77*
X897128Y275082D02*
D03*
X885698Y210820D02*
D03*
D78*
X740618Y575780D02*
D03*
Y587780D02*
D03*
M02*
