G04*
G04 #@! TF.GenerationSoftware,Altium Limited,Altium Designer,26.7.1 (11)*
G04*
G04 Layer_Physical_Order=3*
G04 Layer_Color=36540*
G04 Board_Origin=13100000|9600000*
%FSLAX44Y44*%
%MOMM*%
G71*
G04*
G04 #@! TF.SameCoordinates,315E0430-F018-45A6-B114-9BAE23A5CA95*
G04*
G04*
G04 #@! TF.FilePolarity,Positive*
G04*
G01*
G75*
%ADD27C,1.0000*%
%ADD62O,2.6000X1.0000*%
%ADD63O,1.8000X1.5000*%
%ADD64R,1.8000X1.5000*%
%ADD65C,1.5000*%
%ADD66O,1.2500X1.0500*%
%ADD67R,1.9000X1.4000*%
%ADD68R,1.0000X1.0000*%
%ADD69C,1.9000*%
%ADD70R,1.4000X1.4000*%
%ADD71C,1.4000*%
%ADD72R,1.5000X1.5000*%
%ADD73C,0.6000*%
%ADD74C,0.3000*%
%ADD75C,6.5000*%
%ADD76C,0.5000*%
%ADD77C,0.4000*%
%ADD78C,0.6600*%
G36*
X584835Y544703D02*
X534162Y544703D01*
Y484759D01*
X520319D01*
Y547878D01*
X520319Y547878D01*
X520318Y547880D01*
X520287Y548200D01*
X520041Y548795D01*
X520041Y548795D01*
X519585Y549251D01*
X518990Y549497D01*
X518668Y549529D01*
X435991Y549529D01*
Y831596D01*
X584835D01*
Y544703D01*
D02*
G37*
G36*
X1116330Y748537D02*
Y694282D01*
X925195D01*
X924047Y693806D01*
X923041Y693806D01*
X922881Y693872D01*
X921893Y694282D01*
X733806Y694282D01*
X732658Y693806D01*
X732182Y692658D01*
Y453517D01*
X732658Y452369D01*
X733806Y451893D01*
X794206D01*
X794819Y452147D01*
X794958D01*
X795762Y452480D01*
X796310D01*
X797114Y452147D01*
X797253D01*
X797866Y451893D01*
X873379D01*
X873557Y451967D01*
X875057Y450965D01*
Y447421D01*
X875533Y446273D01*
X876681Y445797D01*
X1089252D01*
X1089826Y444412D01*
X1041654Y396240D01*
Y180086D01*
X870712Y9144D01*
X50038D01*
X7112Y52070D01*
Y180710D01*
X25450D01*
Y197710D01*
X7112D01*
Y220966D01*
X8612Y221587D01*
X8715Y221485D01*
X9817Y221028D01*
X11011D01*
X12113Y221485D01*
X12957Y222329D01*
X13062Y222582D01*
X13780Y222625D01*
X14624Y222433D01*
X14983Y221567D01*
X15827Y220723D01*
X16929Y220266D01*
X18123D01*
X19225Y220723D01*
X20069Y221567D01*
X20526Y222669D01*
Y223863D01*
X20069Y224965D01*
X19225Y225809D01*
X18123Y226266D01*
X16929D01*
X15827Y225809D01*
X14983Y224965D01*
X14878Y224712D01*
X14160Y224669D01*
X13316Y224861D01*
X12957Y225727D01*
X12113Y226571D01*
X11011Y227028D01*
X9817D01*
X8715Y226571D01*
X8612Y226469D01*
X7112Y227090D01*
Y232050D01*
X7509Y232267D01*
X8612Y232509D01*
X9223Y231899D01*
X10325Y231442D01*
X11519D01*
X12621Y231899D01*
X13465Y232743D01*
X13922Y233845D01*
Y235039D01*
X13465Y236141D01*
X12621Y236985D01*
X11519Y237442D01*
X10325D01*
X9223Y236985D01*
X8612Y236375D01*
X7509Y236617D01*
X7112Y236835D01*
Y260710D01*
X25450D01*
Y277710D01*
X7112D01*
Y746506D01*
X93218Y832612D01*
X432689D01*
Y547878D01*
X432721Y547556D01*
X432967Y546961D01*
X433423Y546505D01*
X434018Y546259D01*
X434340Y546227D01*
X517017D01*
Y483108D01*
X517049Y482786D01*
X517295Y482191D01*
X517751Y481735D01*
X518346Y481489D01*
X518668Y481457D01*
X537210D01*
Y541401D01*
X586486D01*
X586808Y541433D01*
X587403Y541679D01*
X587859Y542135D01*
X588105Y542730D01*
X588137Y543052D01*
Y832612D01*
X1031771D01*
X1116330Y748537D01*
D02*
G37*
G36*
X921893Y692658D02*
Y630428D01*
X843788D01*
X843026Y534670D01*
X921893D01*
Y516255D01*
X875030D01*
X874708Y516223D01*
X874113Y515977D01*
X873657Y515521D01*
X873411Y514926D01*
X873379Y514604D01*
Y453517D01*
X797866D01*
X797735Y453647D01*
X796633Y454104D01*
X795439D01*
X794337Y453647D01*
X794206Y453517D01*
X733806D01*
Y692658D01*
X921893Y692658D01*
D02*
G37*
G36*
X1118108Y650385D02*
X1029970D01*
X1029137Y650219D01*
X1028431Y649747D01*
X1027959Y649041D01*
X1027793D01*
Y648208D01*
Y508000D01*
X1027844D01*
X1027959Y507421D01*
X1028431Y506715D01*
X1029137Y506243D01*
X1029970Y506077D01*
X1118108D01*
Y463677D01*
X1101852Y447421D01*
X876681D01*
Y512953D01*
X923544D01*
X923866Y512985D01*
X924461Y513231D01*
X924917Y513687D01*
X925163Y514282D01*
X925195Y514604D01*
Y534670D01*
X948436D01*
Y630428D01*
X925195D01*
X925195Y692658D01*
X1118108D01*
Y650385D01*
D02*
G37*
%LPC*%
G36*
X558392Y785232D02*
X555496D01*
X552698Y784482D01*
X550190Y783034D01*
X548142Y780986D01*
X546694Y778478D01*
X545944Y775680D01*
Y772784D01*
X546694Y769986D01*
X548142Y767478D01*
X550190Y765430D01*
X552698Y763982D01*
X555496Y763232D01*
X558392D01*
X561190Y763982D01*
X563698Y765430D01*
X565746Y767478D01*
X567194Y769986D01*
X567944Y772784D01*
Y775680D01*
X567194Y778478D01*
X565746Y780986D01*
X563698Y783034D01*
X561190Y784482D01*
X558392Y785232D01*
D02*
G37*
G36*
X523392D02*
X520496D01*
X517698Y784482D01*
X515190Y783034D01*
X513142Y780986D01*
X511694Y778478D01*
X510944Y775680D01*
Y772784D01*
X511694Y769986D01*
X513142Y767478D01*
X515190Y765430D01*
X517698Y763982D01*
X520496Y763232D01*
X523392D01*
X526190Y763982D01*
X528698Y765430D01*
X530746Y767478D01*
X532194Y769986D01*
X532944Y772784D01*
Y775680D01*
X532194Y778478D01*
X530746Y780986D01*
X528698Y783034D01*
X526190Y784482D01*
X523392Y785232D01*
D02*
G37*
G36*
X488392D02*
X485496D01*
X482698Y784482D01*
X480190Y783034D01*
X478142Y780986D01*
X476694Y778478D01*
X475944Y775680D01*
Y772784D01*
X476694Y769986D01*
X478142Y767478D01*
X480190Y765430D01*
X482698Y763982D01*
X485496Y763232D01*
X488392D01*
X491190Y763982D01*
X493698Y765430D01*
X495746Y767478D01*
X497194Y769986D01*
X497944Y772784D01*
Y775680D01*
X497194Y778478D01*
X495746Y780986D01*
X493698Y783034D01*
X491190Y784482D01*
X488392Y785232D01*
D02*
G37*
G36*
X453392D02*
X450496D01*
X447698Y784482D01*
X445190Y783034D01*
X443142Y780986D01*
X441694Y778478D01*
X440944Y775680D01*
Y772784D01*
X441694Y769986D01*
X443142Y767478D01*
X445190Y765430D01*
X447698Y763982D01*
X450496Y763232D01*
X453392D01*
X456190Y763982D01*
X458698Y765430D01*
X460746Y767478D01*
X462194Y769986D01*
X462944Y772784D01*
Y775680D01*
X462194Y778478D01*
X460746Y780986D01*
X458698Y783034D01*
X456190Y784482D01*
X453392Y785232D01*
D02*
G37*
G36*
X493655Y733988D02*
X491865D01*
X490211Y733303D01*
X488945Y732037D01*
X488260Y730383D01*
Y728593D01*
X488945Y726939D01*
X490211Y725673D01*
X491865Y724988D01*
X493655D01*
X495309Y725673D01*
X496575Y726939D01*
X497260Y728593D01*
Y730383D01*
X496575Y732037D01*
X495309Y733303D01*
X493655Y733988D01*
D02*
G37*
G36*
X526929Y732464D02*
X525139D01*
X523485Y731779D01*
X522219Y730513D01*
X521534Y728859D01*
Y727069D01*
X522219Y725415D01*
X523485Y724149D01*
X525139Y723464D01*
X526929D01*
X528583Y724149D01*
X529849Y725415D01*
X530534Y727069D01*
Y728859D01*
X529849Y730513D01*
X528583Y731779D01*
X526929Y732464D01*
D02*
G37*
G36*
X579507Y659820D02*
X577717D01*
X576063Y659135D01*
X574797Y657869D01*
X574112Y656215D01*
Y654425D01*
X574797Y652771D01*
X576063Y651505D01*
X577717Y650820D01*
X579507D01*
X581161Y651505D01*
X582427Y652771D01*
X583112Y654425D01*
Y656215D01*
X582427Y657869D01*
X581161Y659135D01*
X579507Y659820D01*
D02*
G37*
G36*
X523627Y654740D02*
X521837D01*
X520183Y654055D01*
X518917Y652789D01*
X518232Y651135D01*
Y649345D01*
X518917Y647691D01*
X520183Y646425D01*
X521837Y645740D01*
X523627D01*
X525281Y646425D01*
X526547Y647691D01*
X527232Y649345D01*
Y651135D01*
X526547Y652789D01*
X525281Y654055D01*
X523627Y654740D01*
D02*
G37*
G36*
X463429Y652962D02*
X461639D01*
X459985Y652277D01*
X458719Y651011D01*
X458034Y649357D01*
Y647567D01*
X458719Y645913D01*
X459985Y644647D01*
X461639Y643962D01*
X463429D01*
X465083Y644647D01*
X466349Y645913D01*
X467034Y647567D01*
Y649357D01*
X466349Y651011D01*
X465083Y652277D01*
X463429Y652962D01*
D02*
G37*
G36*
X563251Y595050D02*
X561461D01*
X559807Y594365D01*
X558541Y593099D01*
X557856Y591445D01*
Y589655D01*
X558541Y588001D01*
X559807Y586735D01*
X561461Y586050D01*
X563251D01*
X564905Y586735D01*
X566171Y588001D01*
X566856Y589655D01*
Y591445D01*
X566171Y593099D01*
X564905Y594365D01*
X563251Y595050D01*
D02*
G37*
G36*
X503815Y594542D02*
X502025D01*
X500371Y593857D01*
X499105Y592591D01*
X498420Y590937D01*
Y589147D01*
X499105Y587493D01*
X500371Y586227D01*
X502025Y585542D01*
X503815D01*
X505469Y586227D01*
X506735Y587493D01*
X507420Y589147D01*
Y590937D01*
X506735Y592591D01*
X505469Y593857D01*
X503815Y594542D01*
D02*
G37*
G36*
X165995Y819078D02*
X164205D01*
X162551Y818393D01*
X161285Y817127D01*
X160600Y815473D01*
Y813683D01*
X161285Y812029D01*
X162551Y810763D01*
X164205Y810078D01*
X165995D01*
X167649Y810763D01*
X168915Y812029D01*
X169600Y813683D01*
Y815473D01*
X168915Y817127D01*
X167649Y818393D01*
X165995Y819078D01*
D02*
G37*
G36*
X354463Y802822D02*
X352673D01*
X351019Y802137D01*
X349753Y800871D01*
X349068Y799217D01*
Y797427D01*
X349753Y795773D01*
X351019Y794507D01*
X352673Y793822D01*
X354463D01*
X356117Y794507D01*
X357383Y795773D01*
X358068Y797427D01*
Y799217D01*
X357383Y800871D01*
X356117Y802137D01*
X354463Y802822D01*
D02*
G37*
G36*
X92081Y796726D02*
X90291D01*
X88637Y796041D01*
X87371Y794775D01*
X86686Y793121D01*
Y791331D01*
X87371Y789677D01*
X88637Y788411D01*
X90291Y787726D01*
X92081D01*
X93735Y788411D01*
X95001Y789677D01*
X95686Y791331D01*
Y793121D01*
X95001Y794775D01*
X93735Y796041D01*
X92081Y796726D01*
D02*
G37*
G36*
X1039755Y787074D02*
X1037965D01*
X1036311Y786389D01*
X1035045Y785123D01*
X1034360Y783469D01*
Y781679D01*
X1035045Y780025D01*
X1036311Y778759D01*
X1037965Y778074D01*
X1039755D01*
X1041409Y778759D01*
X1042675Y780025D01*
X1043360Y781679D01*
Y783469D01*
X1042675Y785123D01*
X1041409Y786389D01*
X1039755Y787074D01*
D02*
G37*
G36*
X803281Y785296D02*
X801491D01*
X799837Y784611D01*
X798571Y783345D01*
X797886Y781691D01*
Y779901D01*
X798571Y778247D01*
X799837Y776981D01*
X801491Y776296D01*
X803281D01*
X804935Y776981D01*
X806201Y778247D01*
X806886Y779901D01*
Y781691D01*
X806201Y783345D01*
X804935Y784611D01*
X803281Y785296D01*
D02*
G37*
G36*
X641737D02*
X639947D01*
X638293Y784611D01*
X637027Y783345D01*
X636342Y781691D01*
Y779901D01*
X637027Y778247D01*
X638293Y776981D01*
X639947Y776296D01*
X641737D01*
X643391Y776981D01*
X644657Y778247D01*
X645342Y779901D01*
Y781691D01*
X644657Y783345D01*
X643391Y784611D01*
X641737Y785296D01*
D02*
G37*
G36*
X915803Y784788D02*
X914013D01*
X912359Y784103D01*
X911093Y782837D01*
X910408Y781183D01*
Y779393D01*
X911093Y777739D01*
X912359Y776473D01*
X914013Y775788D01*
X915803D01*
X917457Y776473D01*
X918723Y777739D01*
X919408Y779393D01*
Y781183D01*
X918723Y782837D01*
X917457Y784103D01*
X915803Y784788D01*
D02*
G37*
G36*
X715905D02*
X714115D01*
X712461Y784103D01*
X711195Y782837D01*
X710510Y781183D01*
Y779393D01*
X711195Y777739D01*
X712461Y776473D01*
X714115Y775788D01*
X715905D01*
X717559Y776473D01*
X718825Y777739D01*
X719510Y779393D01*
Y781183D01*
X718825Y782837D01*
X717559Y784103D01*
X715905Y784788D01*
D02*
G37*
G36*
X976004Y819876D02*
X970652D01*
X965366Y819039D01*
X960276Y817385D01*
X955508Y814955D01*
X951179Y811810D01*
X947394Y808026D01*
X944249Y803696D01*
X941819Y798928D01*
X940165Y793838D01*
X939328Y788552D01*
Y783200D01*
X940165Y777914D01*
X941819Y772824D01*
X944249Y768056D01*
X947394Y763727D01*
X951179Y759942D01*
X955508Y756797D01*
X960276Y754367D01*
X965366Y752713D01*
X970652Y751876D01*
X976004D01*
X981290Y752713D01*
X986379Y754367D01*
X991148Y756797D01*
X995478Y759942D01*
X999262Y763727D01*
X1002407Y768056D01*
X1004837Y772824D01*
X1006491Y777914D01*
X1007328Y783200D01*
Y788552D01*
X1006491Y793838D01*
X1004837Y798928D01*
X1002407Y803696D01*
X999262Y808026D01*
X995478Y811810D01*
X991148Y814955D01*
X986379Y817385D01*
X981290Y819039D01*
X976004Y819876D01*
D02*
G37*
G36*
X351161Y751768D02*
X349371D01*
X347717Y751083D01*
X346451Y749817D01*
X345766Y748163D01*
Y746373D01*
X346451Y744719D01*
X347717Y743453D01*
X349371Y742768D01*
X351161D01*
X352815Y743453D01*
X354081Y744719D01*
X354766Y746373D01*
Y748163D01*
X354081Y749817D01*
X352815Y751083D01*
X351161Y751768D01*
D02*
G37*
G36*
X84050Y757870D02*
X81050D01*
X78700Y757560D01*
X76511Y756654D01*
X74631Y755211D01*
X73189Y753331D01*
X72282Y751142D01*
X71972Y748792D01*
X72282Y746442D01*
X73189Y744253D01*
X74631Y742373D01*
X76511Y740930D01*
X78700Y740024D01*
X81050Y739714D01*
X84050D01*
X86399Y740024D01*
X88589Y740930D01*
X90469Y742373D01*
X91911Y744253D01*
X92818Y746442D01*
X93128Y748792D01*
X92818Y751142D01*
X91911Y753331D01*
X90469Y755211D01*
X88589Y756654D01*
X86399Y757560D01*
X84050Y757870D01*
D02*
G37*
G36*
X58650D02*
X55650D01*
X53300Y757560D01*
X51111Y756654D01*
X49231Y755211D01*
X47789Y753331D01*
X46882Y751142D01*
X46572Y748792D01*
X46882Y746442D01*
X47789Y744253D01*
X49231Y742373D01*
X51111Y740930D01*
X53300Y740024D01*
X55650Y739714D01*
X58650D01*
X60999Y740024D01*
X63189Y740930D01*
X65069Y742373D01*
X66511Y744253D01*
X67418Y746442D01*
X67728Y748792D01*
X67418Y751142D01*
X66511Y753331D01*
X65069Y755211D01*
X63189Y756654D01*
X60999Y757560D01*
X58650Y757870D01*
D02*
G37*
G36*
X178952Y801080D02*
X173600D01*
X168314Y800243D01*
X163225Y798589D01*
X158456Y796159D01*
X154127Y793014D01*
X150342Y789230D01*
X147197Y784900D01*
X144767Y780132D01*
X143113Y775042D01*
X142276Y769756D01*
Y764404D01*
X143113Y759118D01*
X144767Y754028D01*
X147197Y749260D01*
X150342Y744930D01*
X154127Y741146D01*
X158456Y738001D01*
X163225Y735571D01*
X168314Y733917D01*
X173600Y733080D01*
X178952D01*
X184238Y733917D01*
X189328Y735571D01*
X194096Y738001D01*
X198426Y741146D01*
X202210Y744930D01*
X205355Y749260D01*
X207785Y754028D01*
X209439Y759118D01*
X210276Y764404D01*
Y769756D01*
X209439Y775042D01*
X207785Y780132D01*
X205355Y784900D01*
X202210Y789230D01*
X198426Y793014D01*
X194096Y796159D01*
X189328Y798589D01*
X184238Y800243D01*
X178952Y801080D01*
D02*
G37*
G36*
X753707Y735790D02*
X752513D01*
X751411Y735333D01*
X750567Y734489D01*
X750110Y733387D01*
Y732193D01*
X750567Y731091D01*
X751411Y730247D01*
X752513Y729790D01*
X753707D01*
X754809Y730247D01*
X755653Y731091D01*
X756110Y732193D01*
Y733387D01*
X755653Y734489D01*
X754809Y735333D01*
X753707Y735790D01*
D02*
G37*
G36*
X715861Y732996D02*
X714667D01*
X713565Y732539D01*
X712721Y731695D01*
X712264Y730593D01*
Y729399D01*
X712721Y728297D01*
X713565Y727453D01*
X714667Y726996D01*
X715861D01*
X716963Y727453D01*
X717807Y728297D01*
X718264Y729399D01*
Y730593D01*
X717807Y731695D01*
X716963Y732539D01*
X715861Y732996D01*
D02*
G37*
G36*
X123323Y731194D02*
X121533D01*
X119879Y730509D01*
X118613Y729243D01*
X117928Y727589D01*
Y725799D01*
X118613Y724145D01*
X119879Y722879D01*
X121533Y722194D01*
X123323D01*
X124977Y722879D01*
X126243Y724145D01*
X126928Y725799D01*
Y727589D01*
X126243Y729243D01*
X124977Y730509D01*
X123323Y731194D01*
D02*
G37*
G36*
X192411Y727638D02*
X190621D01*
X188967Y726953D01*
X187701Y725687D01*
X187016Y724033D01*
Y722243D01*
X187701Y720589D01*
X188967Y719323D01*
X190621Y718638D01*
X192411D01*
X194065Y719323D01*
X195331Y720589D01*
X196016Y722243D01*
Y724033D01*
X195331Y725687D01*
X194065Y726953D01*
X192411Y727638D01*
D02*
G37*
G36*
X636657Y725606D02*
X634867D01*
X633213Y724921D01*
X631947Y723655D01*
X631262Y722001D01*
Y720211D01*
X631947Y718557D01*
X633213Y717291D01*
X634867Y716606D01*
X636657D01*
X638311Y717291D01*
X639577Y718557D01*
X640262Y720211D01*
Y722001D01*
X639577Y723655D01*
X638311Y724921D01*
X636657Y725606D01*
D02*
G37*
G36*
X84050Y732470D02*
X81050D01*
X78700Y732160D01*
X76511Y731254D01*
X74631Y729811D01*
X73189Y727931D01*
X72282Y725742D01*
X71972Y723392D01*
X72282Y721042D01*
X73189Y718853D01*
X74631Y716973D01*
X76511Y715530D01*
X78700Y714624D01*
X81050Y714314D01*
X84050D01*
X86399Y714624D01*
X88589Y715530D01*
X90469Y716973D01*
X91911Y718853D01*
X92818Y721042D01*
X93128Y723392D01*
X92818Y725742D01*
X91911Y727931D01*
X90469Y729811D01*
X88589Y731254D01*
X86399Y732160D01*
X84050Y732470D01*
D02*
G37*
G36*
X58650D02*
X55650D01*
X53300Y732160D01*
X51111Y731254D01*
X49231Y729811D01*
X47789Y727931D01*
X46882Y725742D01*
X46572Y723392D01*
X46882Y721042D01*
X47789Y718853D01*
X49231Y716973D01*
X51111Y715530D01*
X53300Y714624D01*
X55650Y714314D01*
X58650D01*
X60999Y714624D01*
X63189Y715530D01*
X65069Y716973D01*
X66511Y718853D01*
X67418Y721042D01*
X67728Y723392D01*
X67418Y725742D01*
X66511Y727931D01*
X65069Y729811D01*
X63189Y731254D01*
X60999Y732160D01*
X58650Y732470D01*
D02*
G37*
G36*
X1089539Y721542D02*
X1087749D01*
X1086095Y720857D01*
X1084829Y719591D01*
X1084144Y717937D01*
Y716147D01*
X1084829Y714493D01*
X1086095Y713227D01*
X1087749Y712542D01*
X1089539D01*
X1091193Y713227D01*
X1092459Y714493D01*
X1093144Y716147D01*
Y717937D01*
X1092459Y719591D01*
X1091193Y720857D01*
X1089539Y721542D01*
D02*
G37*
G36*
X24517Y719510D02*
X22727D01*
X21073Y718825D01*
X19807Y717559D01*
X19122Y715905D01*
Y714115D01*
X19807Y712461D01*
X21073Y711195D01*
X22727Y710510D01*
X24517D01*
X26171Y711195D01*
X27437Y712461D01*
X28122Y714115D01*
Y715905D01*
X27437Y717559D01*
X26171Y718825D01*
X24517Y719510D01*
D02*
G37*
G36*
X803281Y715954D02*
X801491D01*
X799837Y715269D01*
X798571Y714003D01*
X797886Y712349D01*
Y710559D01*
X798571Y708905D01*
X799837Y707639D01*
X801491Y706954D01*
X803281D01*
X804935Y707639D01*
X806201Y708905D01*
X806886Y710559D01*
Y712349D01*
X806201Y714003D01*
X804935Y715269D01*
X803281Y715954D01*
D02*
G37*
G36*
X915041Y715446D02*
X913251D01*
X911597Y714761D01*
X910331Y713495D01*
X909646Y711841D01*
Y710051D01*
X910331Y708397D01*
X911597Y707131D01*
X913251Y706446D01*
X915041D01*
X916695Y707131D01*
X917961Y708397D01*
X918646Y710051D01*
Y711841D01*
X917961Y713495D01*
X916695Y714761D01*
X915041Y715446D01*
D02*
G37*
G36*
X84050Y707070D02*
X81050D01*
X78700Y706760D01*
X76511Y705854D01*
X74631Y704411D01*
X73189Y702531D01*
X72282Y700341D01*
X71972Y697992D01*
X72282Y695642D01*
X73189Y693453D01*
X74631Y691573D01*
X76511Y690130D01*
X78700Y689224D01*
X81050Y688914D01*
X84050D01*
X86399Y689224D01*
X88589Y690130D01*
X90469Y691573D01*
X91911Y693453D01*
X92818Y695642D01*
X93128Y697992D01*
X92818Y700341D01*
X91911Y702531D01*
X90469Y704411D01*
X88589Y705854D01*
X86399Y706760D01*
X84050Y707070D01*
D02*
G37*
G36*
X58650D02*
X55650D01*
X53300Y706760D01*
X51111Y705854D01*
X49231Y704411D01*
X47789Y702531D01*
X46882Y700341D01*
X46572Y697992D01*
X46882Y695642D01*
X47789Y693453D01*
X49231Y691573D01*
X51111Y690130D01*
X53300Y689224D01*
X55650Y688914D01*
X58650D01*
X60999Y689224D01*
X63189Y690130D01*
X65069Y691573D01*
X66511Y693453D01*
X67418Y695642D01*
X67728Y697992D01*
X67418Y700341D01*
X66511Y702531D01*
X65069Y704411D01*
X63189Y705854D01*
X60999Y706760D01*
X58650Y707070D01*
D02*
G37*
G36*
X149993Y689538D02*
X148203D01*
X146549Y688853D01*
X145283Y687587D01*
X144598Y685933D01*
Y684143D01*
X145283Y682489D01*
X146549Y681223D01*
X148203Y680538D01*
X149993D01*
X151647Y681223D01*
X152913Y682489D01*
X153598Y684143D01*
Y685933D01*
X152913Y687587D01*
X151647Y688853D01*
X149993Y689538D01*
D02*
G37*
G36*
X169551Y689284D02*
X167761D01*
X166107Y688599D01*
X164841Y687333D01*
X164156Y685679D01*
Y683889D01*
X164841Y682235D01*
X166107Y680969D01*
X167761Y680284D01*
X169551D01*
X171205Y680969D01*
X172471Y682235D01*
X173156Y683889D01*
Y685679D01*
X172471Y687333D01*
X171205Y688599D01*
X169551Y689284D01*
D02*
G37*
G36*
X606939Y681664D02*
X605149D01*
X603495Y680979D01*
X602229Y679713D01*
X601544Y678059D01*
Y676269D01*
X602229Y674615D01*
X603495Y673349D01*
X605149Y672664D01*
X606939D01*
X608593Y673349D01*
X609859Y674615D01*
X610544Y676269D01*
Y678059D01*
X609859Y679713D01*
X608593Y680979D01*
X606939Y681664D01*
D02*
G37*
G36*
X160617Y677624D02*
X159423D01*
X158321Y677167D01*
X157477Y676323D01*
X157020Y675221D01*
Y674027D01*
X157477Y672925D01*
X158321Y672081D01*
X159423Y671624D01*
X160617D01*
X161719Y672081D01*
X162563Y672925D01*
X163020Y674027D01*
Y675221D01*
X162563Y676323D01*
X161719Y677167D01*
X160617Y677624D01*
D02*
G37*
G36*
X637673Y679886D02*
X635883D01*
X634229Y679201D01*
X632963Y677935D01*
X632278Y676281D01*
Y674491D01*
X632963Y672837D01*
X634229Y671571D01*
X635883Y670886D01*
X637673D01*
X639327Y671571D01*
X640593Y672837D01*
X641278Y674491D01*
Y676281D01*
X640593Y677935D01*
X639327Y679201D01*
X637673Y679886D01*
D02*
G37*
G36*
X84050Y681670D02*
X81050D01*
X78700Y681360D01*
X76511Y680453D01*
X74631Y679011D01*
X73189Y677131D01*
X72282Y674941D01*
X71972Y672592D01*
X72282Y670242D01*
X73189Y668053D01*
X74631Y666173D01*
X76511Y664731D01*
X78700Y663824D01*
X81050Y663514D01*
X84050D01*
X86399Y663824D01*
X88589Y664731D01*
X90469Y666173D01*
X91911Y668053D01*
X92818Y670242D01*
X93128Y672592D01*
X92818Y674941D01*
X91911Y677131D01*
X90469Y679011D01*
X88589Y680453D01*
X86399Y681360D01*
X84050Y681670D01*
D02*
G37*
G36*
X58650D02*
X55650D01*
X53300Y681360D01*
X51111Y680453D01*
X49231Y679011D01*
X47789Y677131D01*
X46882Y674941D01*
X46572Y672592D01*
X46882Y670242D01*
X47789Y668053D01*
X49231Y666173D01*
X51111Y664731D01*
X53300Y663824D01*
X55650Y663514D01*
X58650D01*
X60999Y663824D01*
X63189Y664731D01*
X65069Y666173D01*
X66511Y668053D01*
X67418Y670242D01*
X67728Y672592D01*
X67418Y674941D01*
X66511Y677131D01*
X65069Y679011D01*
X63189Y680453D01*
X60999Y681360D01*
X58650Y681670D01*
D02*
G37*
G36*
X607955Y669980D02*
X606165D01*
X604511Y669295D01*
X603245Y668029D01*
X602560Y666375D01*
Y664585D01*
X603245Y662931D01*
X604511Y661665D01*
X606165Y660980D01*
X607955D01*
X609609Y661665D01*
X610875Y662931D01*
X611560Y664585D01*
Y666375D01*
X610875Y668029D01*
X609609Y669295D01*
X607955Y669980D01*
D02*
G37*
G36*
X352133Y659336D02*
X350939D01*
X349837Y658879D01*
X348993Y658035D01*
X348536Y656933D01*
Y655739D01*
X348993Y654637D01*
X349837Y653793D01*
X350939Y653336D01*
X352133D01*
X353235Y653793D01*
X354079Y654637D01*
X354536Y655739D01*
Y656933D01*
X354079Y658035D01*
X353235Y658879D01*
X352133Y659336D01*
D02*
G37*
G36*
X608717Y658042D02*
X606927D01*
X605273Y657357D01*
X604007Y656091D01*
X603322Y654437D01*
Y652647D01*
X604007Y650993D01*
X605273Y649727D01*
X606927Y649042D01*
X608717D01*
X610371Y649727D01*
X611637Y650993D01*
X612322Y652647D01*
Y654437D01*
X611637Y656091D01*
X610371Y657357D01*
X608717Y658042D01*
D02*
G37*
G36*
X24517Y653470D02*
X22727D01*
X21073Y652785D01*
X19807Y651519D01*
X19122Y649865D01*
Y648075D01*
X19807Y646421D01*
X21073Y645155D01*
X22727Y644470D01*
X24517D01*
X26171Y645155D01*
X27437Y646421D01*
X28122Y648075D01*
Y649865D01*
X27437Y651519D01*
X26171Y652785D01*
X24517Y653470D01*
D02*
G37*
G36*
X709047Y646866D02*
X707257D01*
X705603Y646181D01*
X704337Y644915D01*
X703652Y643261D01*
X703652Y642453D01*
X702238Y642245D01*
X702029Y642749D01*
X701553Y643899D01*
X700287Y645165D01*
X698633Y645850D01*
X696843D01*
X695189Y645165D01*
X693923Y643899D01*
X693238Y642245D01*
Y640455D01*
X693923Y638801D01*
X695189Y637535D01*
X696843Y636850D01*
X698633D01*
X700287Y637535D01*
X701553Y638801D01*
X702238Y640455D01*
X702238Y641263D01*
X703652Y641471D01*
X703861Y640967D01*
X704337Y639817D01*
X705603Y638551D01*
X707257Y637866D01*
X709047D01*
X710701Y638551D01*
X711967Y639817D01*
X712652Y641471D01*
Y643261D01*
X711967Y644915D01*
X710701Y646181D01*
X709047Y646866D01*
D02*
G37*
G36*
X598049Y648898D02*
X596259D01*
X594605Y648213D01*
X593339Y646947D01*
X592654Y645293D01*
Y643503D01*
X593339Y641849D01*
X594605Y640583D01*
X596259Y639898D01*
X598049D01*
X599703Y640583D01*
X600969Y641849D01*
X601654Y643503D01*
Y645293D01*
X600969Y646947D01*
X599703Y648213D01*
X598049Y648898D01*
D02*
G37*
G36*
X84050Y656270D02*
X81050D01*
X78700Y655960D01*
X76511Y655053D01*
X74631Y653611D01*
X73189Y651731D01*
X72282Y649541D01*
X71972Y647192D01*
X72282Y644843D01*
X73189Y642653D01*
X74631Y640773D01*
X76511Y639330D01*
X78700Y638424D01*
X81050Y638114D01*
X84050D01*
X86399Y638424D01*
X88589Y639330D01*
X90469Y640773D01*
X91911Y642653D01*
X92818Y644843D01*
X93128Y647192D01*
X92818Y649541D01*
X91911Y651731D01*
X90469Y653611D01*
X88589Y655053D01*
X86399Y655960D01*
X84050Y656270D01*
D02*
G37*
G36*
X58650D02*
X55650D01*
X53300Y655960D01*
X51111Y655053D01*
X49231Y653611D01*
X47789Y651731D01*
X46882Y649541D01*
X46572Y647192D01*
X46882Y644843D01*
X47789Y642653D01*
X49231Y640773D01*
X51111Y639330D01*
X53300Y638424D01*
X55650Y638114D01*
X58650D01*
X60999Y638424D01*
X63189Y639330D01*
X65069Y640773D01*
X66511Y642653D01*
X67418Y644843D01*
X67728Y647192D01*
X67418Y649541D01*
X66511Y651731D01*
X65069Y653611D01*
X63189Y655053D01*
X60999Y655960D01*
X58650Y656270D01*
D02*
G37*
G36*
X198253Y644326D02*
X196463D01*
X194809Y643641D01*
X193543Y642375D01*
X192858Y640721D01*
Y638931D01*
X193543Y637277D01*
X194809Y636011D01*
X196463Y635326D01*
X198253D01*
X199907Y636011D01*
X201173Y637277D01*
X201858Y638931D01*
Y640721D01*
X201173Y642375D01*
X199907Y643641D01*
X198253Y644326D01*
D02*
G37*
G36*
X160871Y637746D02*
X159677D01*
X158575Y637289D01*
X157731Y636445D01*
X157274Y635343D01*
Y634149D01*
X157731Y633047D01*
X158575Y632203D01*
X159677Y631746D01*
X160871D01*
X161973Y632203D01*
X162817Y633047D01*
X163274Y634149D01*
Y635343D01*
X162817Y636445D01*
X161973Y637289D01*
X160871Y637746D01*
D02*
G37*
G36*
X183267Y638738D02*
X181477D01*
X179823Y638053D01*
X178557Y636787D01*
X177872Y635133D01*
Y633343D01*
X178557Y631689D01*
X179823Y630423D01*
X181477Y629738D01*
X183267D01*
X184921Y630423D01*
X186187Y631689D01*
X186872Y633343D01*
Y635133D01*
X186187Y636787D01*
X184921Y638053D01*
X183267Y638738D01*
D02*
G37*
G36*
X352332Y637476D02*
X350740D01*
X349270Y636867D01*
X348145Y635742D01*
X347536Y634272D01*
Y632680D01*
X348145Y631210D01*
X349270Y630085D01*
X350740Y629476D01*
X352332D01*
X353802Y630085D01*
X354927Y631210D01*
X355536Y632680D01*
Y634272D01*
X354927Y635742D01*
X353802Y636867D01*
X352332Y637476D01*
D02*
G37*
G36*
X625735Y629594D02*
X623945D01*
X622291Y628909D01*
X621025Y627643D01*
X620340Y625989D01*
Y624199D01*
X621025Y622545D01*
X622291Y621279D01*
X623945Y620594D01*
X625735D01*
X627389Y621279D01*
X628655Y622545D01*
X629340Y624199D01*
Y625989D01*
X628655Y627643D01*
X627389Y628909D01*
X625735Y629594D01*
D02*
G37*
G36*
X636613Y619458D02*
X635419D01*
X634317Y619001D01*
X633473Y618157D01*
X633016Y617055D01*
Y615861D01*
X633473Y614759D01*
X634317Y613915D01*
X635419Y613458D01*
X636613D01*
X637715Y613915D01*
X638559Y614759D01*
X639016Y615861D01*
Y617055D01*
X638559Y618157D01*
X637715Y619001D01*
X636613Y619458D01*
D02*
G37*
G36*
X84050Y630870D02*
X81050D01*
X78700Y630560D01*
X76511Y629654D01*
X74631Y628211D01*
X73189Y626331D01*
X72282Y624142D01*
X71972Y621792D01*
X72282Y619442D01*
X73189Y617253D01*
X74631Y615373D01*
X76511Y613931D01*
X78700Y613024D01*
X81050Y612714D01*
X84050D01*
X86399Y613024D01*
X88589Y613931D01*
X90469Y615373D01*
X91911Y617253D01*
X92818Y619442D01*
X93128Y621792D01*
X92818Y624142D01*
X91911Y626331D01*
X90469Y628211D01*
X88589Y629654D01*
X86399Y630560D01*
X84050Y630870D01*
D02*
G37*
G36*
X58650D02*
X55650D01*
X53300Y630560D01*
X51111Y629654D01*
X49231Y628211D01*
X47789Y626331D01*
X46882Y624142D01*
X46572Y621792D01*
X46882Y619442D01*
X47789Y617253D01*
X49231Y615373D01*
X51111Y613931D01*
X53300Y613024D01*
X55650Y612714D01*
X58650D01*
X60999Y613024D01*
X63189Y613931D01*
X65069Y615373D01*
X66511Y617253D01*
X67418Y619442D01*
X67728Y621792D01*
X67418Y624142D01*
X66511Y626331D01*
X65069Y628211D01*
X63189Y629654D01*
X60999Y630560D01*
X58650Y630870D01*
D02*
G37*
G36*
X142627Y620196D02*
X140837D01*
X139183Y619511D01*
X137917Y618245D01*
X137232Y616591D01*
Y614801D01*
X137917Y613147D01*
X139183Y611881D01*
X140837Y611196D01*
X142627D01*
X144281Y611881D01*
X145547Y613147D01*
X146232Y614801D01*
Y616591D01*
X145547Y618245D01*
X144281Y619511D01*
X142627Y620196D01*
D02*
G37*
G36*
X180219Y618926D02*
X178429D01*
X176775Y618241D01*
X175509Y616975D01*
X174824Y615321D01*
Y613531D01*
X175509Y611877D01*
X176775Y610611D01*
X178429Y609926D01*
X180219D01*
X181873Y610611D01*
X183139Y611877D01*
X183824Y613531D01*
Y615321D01*
X183139Y616975D01*
X181873Y618241D01*
X180219Y618926D01*
D02*
G37*
G36*
X599573Y610290D02*
X597783D01*
X596129Y609605D01*
X594863Y608339D01*
X594178Y606685D01*
Y604895D01*
X594863Y603241D01*
X596129Y601975D01*
X597783Y601290D01*
X599573D01*
X601227Y601975D01*
X602493Y603241D01*
X603178Y604895D01*
Y606685D01*
X602493Y608339D01*
X601227Y609605D01*
X599573Y610290D01*
D02*
G37*
G36*
X147100Y604964D02*
X145508D01*
X144038Y604355D01*
X142913Y603230D01*
X142304Y601760D01*
Y600168D01*
X142913Y598698D01*
X144038Y597573D01*
X145508Y596964D01*
X147100D01*
X148570Y597573D01*
X149695Y598698D01*
X150304Y600168D01*
Y601760D01*
X149695Y603230D01*
X148570Y604355D01*
X147100Y604964D01*
D02*
G37*
G36*
X165896Y604456D02*
X164304D01*
X162834Y603847D01*
X161709Y602722D01*
X161100Y601252D01*
Y599660D01*
X161709Y598190D01*
X162834Y597065D01*
X164304Y596456D01*
X165896D01*
X167366Y597065D01*
X168491Y598190D01*
X169100Y599660D01*
Y601252D01*
X168491Y602722D01*
X167366Y603847D01*
X165896Y604456D01*
D02*
G37*
G36*
X156299Y600916D02*
X155105D01*
X154003Y600459D01*
X153159Y599615D01*
X152702Y598513D01*
Y597319D01*
X153159Y596217D01*
X154003Y595373D01*
X155105Y594916D01*
X156299D01*
X157401Y595373D01*
X158245Y596217D01*
X158702Y597319D01*
Y598513D01*
X158245Y599615D01*
X157401Y600459D01*
X156299Y600916D01*
D02*
G37*
G36*
X84050Y605470D02*
X81050D01*
X78700Y605160D01*
X76511Y604254D01*
X74631Y602811D01*
X73189Y600931D01*
X72282Y598741D01*
X71972Y596392D01*
X72282Y594043D01*
X73189Y591853D01*
X74631Y589973D01*
X76511Y588531D01*
X78700Y587624D01*
X81050Y587314D01*
X84050D01*
X86399Y587624D01*
X88589Y588531D01*
X90469Y589973D01*
X91911Y591853D01*
X92818Y594043D01*
X93128Y596392D01*
X92818Y598741D01*
X91911Y600931D01*
X90469Y602811D01*
X88589Y604254D01*
X86399Y605160D01*
X84050Y605470D01*
D02*
G37*
G36*
X58650D02*
X55650D01*
X53300Y605160D01*
X51111Y604254D01*
X49231Y602811D01*
X47789Y600931D01*
X46882Y598741D01*
X46572Y596392D01*
X46882Y594043D01*
X47789Y591853D01*
X49231Y589973D01*
X51111Y588531D01*
X53300Y587624D01*
X55650Y587314D01*
X58650D01*
X60999Y587624D01*
X63189Y588531D01*
X65069Y589973D01*
X66511Y591853D01*
X67418Y594043D01*
X67728Y596392D01*
X67418Y598741D01*
X66511Y600931D01*
X65069Y602811D01*
X63189Y604254D01*
X60999Y605160D01*
X58650Y605470D01*
D02*
G37*
G36*
X639407Y585930D02*
X638213D01*
X637111Y585473D01*
X636267Y584629D01*
X635810Y583527D01*
Y582333D01*
X636267Y581231D01*
X637111Y580387D01*
X638213Y579930D01*
X639407D01*
X640509Y580387D01*
X641353Y581231D01*
X641810Y582333D01*
Y583527D01*
X641353Y584629D01*
X640509Y585473D01*
X639407Y585930D01*
D02*
G37*
G36*
X416594Y586168D02*
X415002D01*
X413532Y585559D01*
X412407Y584434D01*
X411798Y582964D01*
Y581372D01*
X412407Y579902D01*
X413532Y578777D01*
X415002Y578168D01*
X416594D01*
X418064Y578777D01*
X419189Y579902D01*
X419798Y581372D01*
Y582964D01*
X419189Y584434D01*
X418064Y585559D01*
X416594Y586168D01*
D02*
G37*
G36*
X121545Y585652D02*
X119755D01*
X118101Y584967D01*
X116835Y583701D01*
X116150Y582047D01*
Y580257D01*
X116835Y578603D01*
X118101Y577337D01*
X119755Y576652D01*
X121545D01*
X123199Y577337D01*
X124465Y578603D01*
X125150Y580257D01*
Y582047D01*
X124465Y583701D01*
X123199Y584967D01*
X121545Y585652D01*
D02*
G37*
G36*
X601097Y583620D02*
X599307D01*
X597653Y582935D01*
X596387Y581669D01*
X595702Y580015D01*
Y578225D01*
X596387Y576571D01*
X597653Y575305D01*
X599307Y574620D01*
X601097D01*
X602751Y575305D01*
X604017Y576571D01*
X604702Y578225D01*
Y580015D01*
X604017Y581669D01*
X602751Y582935D01*
X601097Y583620D01*
D02*
G37*
G36*
X84050Y580070D02*
X81050D01*
X78700Y579760D01*
X76511Y578853D01*
X74631Y577411D01*
X73189Y575531D01*
X72282Y573341D01*
X71972Y570992D01*
X72282Y568643D01*
X73189Y566453D01*
X74631Y564573D01*
X76511Y563130D01*
X78700Y562224D01*
X81050Y561914D01*
X84050D01*
X86399Y562224D01*
X88589Y563130D01*
X90469Y564573D01*
X91911Y566453D01*
X92818Y568643D01*
X93128Y570992D01*
X92818Y573341D01*
X91911Y575531D01*
X90469Y577411D01*
X88589Y578853D01*
X86399Y579760D01*
X84050Y580070D01*
D02*
G37*
G36*
X58650D02*
X55650D01*
X53300Y579760D01*
X51111Y578853D01*
X49231Y577411D01*
X47789Y575531D01*
X46882Y573341D01*
X46572Y570992D01*
X46882Y568643D01*
X47789Y566453D01*
X49231Y564573D01*
X51111Y563130D01*
X53300Y562224D01*
X55650Y561914D01*
X58650D01*
X60999Y562224D01*
X63189Y563130D01*
X65069Y564573D01*
X66511Y566453D01*
X67418Y568643D01*
X67728Y570992D01*
X67418Y573341D01*
X66511Y575531D01*
X65069Y577411D01*
X63189Y578853D01*
X60999Y579760D01*
X58650Y580070D01*
D02*
G37*
G36*
X642499Y570666D02*
X640709D01*
X639055Y569981D01*
X637789Y568715D01*
X637104Y567061D01*
Y565271D01*
X637789Y563617D01*
X639055Y562351D01*
X640709Y561666D01*
X642499D01*
X644153Y562351D01*
X645419Y563617D01*
X646104Y565271D01*
Y567061D01*
X645419Y568715D01*
X644153Y569981D01*
X642499Y570666D01*
D02*
G37*
G36*
X180981Y569396D02*
X179191D01*
X177537Y568711D01*
X176271Y567445D01*
X175586Y565791D01*
Y564001D01*
X176271Y562347D01*
X177537Y561081D01*
X179191Y560396D01*
X180981D01*
X182635Y561081D01*
X183901Y562347D01*
X184586Y564001D01*
Y565791D01*
X183901Y567445D01*
X182635Y568711D01*
X180981Y569396D01*
D02*
G37*
G36*
X132975Y565332D02*
X131185D01*
X129531Y564647D01*
X128265Y563381D01*
X127580Y561727D01*
Y559937D01*
X128265Y558283D01*
X129531Y557017D01*
X131185Y556332D01*
X132975D01*
X134629Y557017D01*
X135895Y558283D01*
X136580Y559937D01*
Y561727D01*
X135895Y563381D01*
X134629Y564647D01*
X132975Y565332D01*
D02*
G37*
G36*
X156045Y560784D02*
X154851D01*
X153749Y560327D01*
X152905Y559483D01*
X152448Y558381D01*
Y557187D01*
X152905Y556085D01*
X153749Y555241D01*
X154851Y554784D01*
X156045D01*
X157147Y555241D01*
X157991Y556085D01*
X158448Y557187D01*
Y558381D01*
X157991Y559483D01*
X157147Y560327D01*
X156045Y560784D01*
D02*
G37*
G36*
X721195Y558498D02*
X720001D01*
X718899Y558041D01*
X718055Y557197D01*
X717598Y556095D01*
Y554901D01*
X718055Y553799D01*
X718899Y552955D01*
X720001Y552498D01*
X721195D01*
X722297Y552955D01*
X723141Y553799D01*
X723598Y554901D01*
Y556095D01*
X723141Y557197D01*
X722297Y558041D01*
X721195Y558498D01*
D02*
G37*
G36*
X166658Y556958D02*
X165066D01*
X163596Y556349D01*
X162471Y555224D01*
X161862Y553754D01*
Y552162D01*
X162471Y550692D01*
X163596Y549567D01*
X165066Y548958D01*
X166658D01*
X168128Y549567D01*
X169253Y550692D01*
X169862Y552162D01*
Y553754D01*
X169253Y555224D01*
X168128Y556349D01*
X166658Y556958D01*
D02*
G37*
G36*
X147100Y556704D02*
X145508D01*
X144038Y556095D01*
X142913Y554970D01*
X142304Y553500D01*
Y551908D01*
X142913Y550438D01*
X144038Y549313D01*
X145508Y548704D01*
X147100D01*
X148570Y549313D01*
X149695Y550438D01*
X150304Y551908D01*
Y553500D01*
X149695Y554970D01*
X148570Y556095D01*
X147100Y556704D01*
D02*
G37*
G36*
X24517Y554664D02*
X22727D01*
X21073Y553979D01*
X19807Y552713D01*
X19122Y551059D01*
Y549269D01*
X19807Y547615D01*
X21073Y546349D01*
X22727Y545664D01*
X24517D01*
X26171Y546349D01*
X27437Y547615D01*
X28122Y549269D01*
Y551059D01*
X27437Y552713D01*
X26171Y553979D01*
X24517Y554664D01*
D02*
G37*
G36*
X642499Y554156D02*
X640709D01*
X639055Y553471D01*
X637789Y552205D01*
X637104Y550551D01*
Y548761D01*
X637789Y547107D01*
X639055Y545841D01*
X640709Y545156D01*
X642499D01*
X644153Y545841D01*
X645419Y547107D01*
X646104Y548761D01*
Y550551D01*
X645419Y552205D01*
X644153Y553471D01*
X642499Y554156D01*
D02*
G37*
G36*
X333028Y552640D02*
X331436D01*
X329966Y552031D01*
X328841Y550906D01*
X328232Y549436D01*
Y547844D01*
X328841Y546374D01*
X329966Y545249D01*
X331436Y544640D01*
X333028D01*
X334498Y545249D01*
X335623Y546374D01*
X336232Y547844D01*
Y549436D01*
X335623Y550906D01*
X334498Y552031D01*
X333028Y552640D01*
D02*
G37*
G36*
X698589Y547882D02*
X697395D01*
X696293Y547425D01*
X695449Y546581D01*
X694992Y545479D01*
Y544285D01*
X695449Y543183D01*
X696293Y542339D01*
X697395Y541882D01*
X698589D01*
X699691Y542339D01*
X700535Y543183D01*
X700992Y544285D01*
Y545479D01*
X700535Y546581D01*
X699691Y547425D01*
X698589Y547882D01*
D02*
G37*
G36*
X84050Y554670D02*
X81050D01*
X78700Y554360D01*
X76511Y553453D01*
X74631Y552011D01*
X73189Y550131D01*
X72282Y547942D01*
X71972Y545592D01*
X72282Y543242D01*
X73189Y541053D01*
X74631Y539173D01*
X76511Y537730D01*
X78700Y536824D01*
X81050Y536514D01*
X84050D01*
X86399Y536824D01*
X88589Y537730D01*
X90469Y539173D01*
X91911Y541053D01*
X92818Y543242D01*
X93128Y545592D01*
X92818Y547942D01*
X91911Y550131D01*
X90469Y552011D01*
X88589Y553453D01*
X86399Y554360D01*
X84050Y554670D01*
D02*
G37*
G36*
X58650D02*
X55650D01*
X53300Y554360D01*
X51111Y553453D01*
X49231Y552011D01*
X47789Y550131D01*
X46882Y547942D01*
X46572Y545592D01*
X46882Y543242D01*
X47789Y541053D01*
X49231Y539173D01*
X51111Y537730D01*
X53300Y536824D01*
X55650Y536514D01*
X58650D01*
X60999Y536824D01*
X63189Y537730D01*
X65069Y539173D01*
X66511Y541053D01*
X67418Y543242D01*
X67728Y545592D01*
X67418Y547942D01*
X66511Y550131D01*
X65069Y552011D01*
X63189Y553453D01*
X60999Y554360D01*
X58650Y554670D01*
D02*
G37*
G36*
X165896Y535622D02*
X164304D01*
X162834Y535013D01*
X161709Y533888D01*
X161100Y532418D01*
Y530826D01*
X161709Y529356D01*
X162834Y528231D01*
X164304Y527622D01*
X165896D01*
X167366Y528231D01*
X168491Y529356D01*
X169100Y530826D01*
Y532418D01*
X168491Y533888D01*
X167366Y535013D01*
X165896Y535622D01*
D02*
G37*
G36*
X156045Y533606D02*
X154851D01*
X153749Y533149D01*
X152905Y532305D01*
X152448Y531203D01*
Y530009D01*
X152905Y528907D01*
X153749Y528063D01*
X154851Y527606D01*
X156045D01*
X157147Y528063D01*
X157991Y528907D01*
X158448Y530009D01*
Y531203D01*
X157991Y532305D01*
X157147Y533149D01*
X156045Y533606D01*
D02*
G37*
G36*
X563759Y535360D02*
X561969D01*
X560315Y534675D01*
X559049Y533409D01*
X558364Y531755D01*
Y529965D01*
X559049Y528311D01*
X560315Y527045D01*
X561969Y526360D01*
X563759D01*
X565413Y527045D01*
X566679Y528311D01*
X567364Y529965D01*
Y531755D01*
X566679Y533409D01*
X565413Y534675D01*
X563759Y535360D01*
D02*
G37*
G36*
X635089Y531066D02*
X633895D01*
X632793Y530609D01*
X631949Y529765D01*
X631492Y528663D01*
Y527469D01*
X631949Y526367D01*
X632793Y525523D01*
X633895Y525066D01*
X635089D01*
X636191Y525523D01*
X637035Y526367D01*
X637492Y527469D01*
Y528663D01*
X637035Y529765D01*
X636191Y530609D01*
X635089Y531066D01*
D02*
G37*
G36*
X489337Y530534D02*
X487547D01*
X485893Y529849D01*
X484627Y528583D01*
X483942Y526929D01*
Y525139D01*
X484627Y523485D01*
X485893Y522219D01*
X487547Y521534D01*
X489337D01*
X490991Y522219D01*
X492257Y523485D01*
X492942Y525139D01*
Y526929D01*
X492257Y528583D01*
X490991Y529849D01*
X489337Y530534D01*
D02*
G37*
G36*
X133991Y528756D02*
X132201D01*
X130547Y528071D01*
X129281Y526805D01*
X128596Y525151D01*
Y523361D01*
X129281Y521707D01*
X130547Y520441D01*
X132201Y519756D01*
X133991D01*
X135645Y520441D01*
X136911Y521707D01*
X137596Y523361D01*
Y525151D01*
X136911Y526805D01*
X135645Y528071D01*
X133991Y528756D01*
D02*
G37*
G36*
X577475Y531550D02*
X575685D01*
X574031Y530865D01*
X572765Y529599D01*
X572080Y527945D01*
Y526155D01*
X572765Y524501D01*
X574031Y523235D01*
X575685Y522550D01*
X575701Y522539D01*
X576549Y521050D01*
X576144Y520071D01*
Y518281D01*
X576829Y516627D01*
X578095Y515361D01*
X579749Y514676D01*
X581539D01*
X583193Y515361D01*
X584459Y516627D01*
X585144Y518281D01*
Y519145D01*
X585470Y519460D01*
X586644Y520013D01*
X587877Y519502D01*
X589667D01*
X591321Y520187D01*
X592587Y521453D01*
X593272Y523107D01*
Y524897D01*
X592587Y526551D01*
X591321Y527817D01*
X589667Y528502D01*
X587877D01*
X586223Y527817D01*
X584957Y526551D01*
X584272Y524897D01*
Y524033D01*
X583946Y523718D01*
X582772Y523165D01*
X581539Y523676D01*
X581523Y523687D01*
X580675Y525176D01*
X581080Y526155D01*
Y527945D01*
X580395Y529599D01*
X579129Y530865D01*
X577475Y531550D01*
D02*
G37*
G36*
X434219Y527740D02*
X432429D01*
X430775Y527055D01*
X429509Y525789D01*
X428824Y524135D01*
Y522345D01*
X429509Y520691D01*
X430775Y519425D01*
X432429Y518740D01*
X434219D01*
X435873Y519425D01*
X437139Y520691D01*
X437824Y522345D01*
Y524135D01*
X437139Y525789D01*
X435873Y527055D01*
X434219Y527740D01*
D02*
G37*
G36*
X339687Y527510D02*
X338493D01*
X337391Y527053D01*
X336547Y526209D01*
X336090Y525107D01*
Y523913D01*
X336547Y522811D01*
X337391Y521967D01*
X338493Y521510D01*
X339687D01*
X340445Y521824D01*
X341473Y521065D01*
X341655Y520825D01*
X341448Y520325D01*
Y518535D01*
X342133Y516881D01*
X343399Y515615D01*
X345053Y514930D01*
X346843D01*
X348497Y515615D01*
X349763Y516881D01*
X350448Y518535D01*
Y520325D01*
X349763Y521979D01*
X348497Y523245D01*
X346843Y523930D01*
X345053D01*
X343445Y523264D01*
X342708Y523597D01*
X342548Y523679D01*
X342090Y524057D01*
Y525107D01*
X341633Y526209D01*
X340789Y527053D01*
X339687Y527510D01*
D02*
G37*
G36*
X84050Y529270D02*
X81050D01*
X78700Y528960D01*
X76511Y528054D01*
X74631Y526611D01*
X73189Y524731D01*
X72282Y522542D01*
X71972Y520192D01*
X72282Y517842D01*
X73189Y515653D01*
X74631Y513773D01*
X76511Y512331D01*
X78700Y511424D01*
X81050Y511114D01*
X84050D01*
X86399Y511424D01*
X88589Y512331D01*
X90469Y513773D01*
X91911Y515653D01*
X92818Y517842D01*
X93128Y520192D01*
X92818Y522542D01*
X91911Y524731D01*
X90469Y526611D01*
X88589Y528054D01*
X86399Y528960D01*
X84050Y529270D01*
D02*
G37*
G36*
X58650D02*
X55650D01*
X53300Y528960D01*
X51111Y528054D01*
X49231Y526611D01*
X47789Y524731D01*
X46882Y522542D01*
X46572Y520192D01*
X46882Y517842D01*
X47789Y515653D01*
X49231Y513773D01*
X51111Y512331D01*
X53300Y511424D01*
X55650Y511114D01*
X58650D01*
X60999Y511424D01*
X63189Y512331D01*
X65069Y513773D01*
X66511Y515653D01*
X67418Y517842D01*
X67728Y520192D01*
X67418Y522542D01*
X66511Y524731D01*
X65069Y526611D01*
X63189Y528054D01*
X60999Y528960D01*
X58650Y529270D01*
D02*
G37*
G36*
X464909Y515572D02*
X463715D01*
X462613Y515115D01*
X461769Y514271D01*
X461312Y513169D01*
Y511975D01*
X461769Y510873D01*
X462613Y510029D01*
X463715Y509572D01*
X464909D01*
X466011Y510029D01*
X466855Y510873D01*
X467312Y511975D01*
Y513169D01*
X466855Y514271D01*
X466011Y515115D01*
X464909Y515572D01*
D02*
G37*
G36*
X456019Y514810D02*
X454825D01*
X453723Y514353D01*
X452879Y513509D01*
X452422Y512407D01*
Y511213D01*
X452879Y510111D01*
X453723Y509267D01*
X454825Y508810D01*
X456019D01*
X457121Y509267D01*
X457965Y510111D01*
X458422Y511213D01*
Y512407D01*
X457965Y513509D01*
X457121Y514353D01*
X456019Y514810D01*
D02*
G37*
G36*
X338715Y516310D02*
X336925D01*
X335271Y515625D01*
X334005Y514359D01*
X333320Y512705D01*
Y510915D01*
X334005Y509261D01*
X335271Y507995D01*
X336925Y507310D01*
X338715D01*
X340369Y507995D01*
X341635Y509261D01*
X342320Y510915D01*
Y512705D01*
X341635Y514359D01*
X340369Y515625D01*
X338715Y516310D01*
D02*
G37*
G36*
X456063Y507166D02*
X454273D01*
X452619Y506481D01*
X451353Y505215D01*
X450668Y503561D01*
Y501771D01*
X451353Y500117D01*
X452619Y498851D01*
X454273Y498166D01*
X456063D01*
X457717Y498851D01*
X458983Y500117D01*
X459668Y501771D01*
Y503561D01*
X458983Y505215D01*
X457717Y506481D01*
X456063Y507166D01*
D02*
G37*
G36*
X386975Y505388D02*
X385185D01*
X383531Y504703D01*
X382265Y503437D01*
X381580Y501783D01*
Y499993D01*
X382265Y498339D01*
X383531Y497073D01*
X385185Y496388D01*
X386975D01*
X388629Y497073D01*
X389895Y498339D01*
X390580Y499993D01*
Y501783D01*
X389895Y503437D01*
X388629Y504703D01*
X386975Y505388D01*
D02*
G37*
G36*
X637419Y499292D02*
X635629D01*
X633975Y498607D01*
X632709Y497341D01*
X632024Y495687D01*
Y493897D01*
X632709Y492243D01*
X633975Y490977D01*
X635629Y490292D01*
X637419D01*
X639073Y490977D01*
X640339Y492243D01*
X641024Y493897D01*
Y495687D01*
X640339Y497341D01*
X639073Y498607D01*
X637419Y499292D01*
D02*
G37*
G36*
X153759Y491950D02*
X152565D01*
X151463Y491493D01*
X150619Y490649D01*
X150162Y489547D01*
Y488353D01*
X150619Y487251D01*
X151463Y486407D01*
X152565Y485950D01*
X153759D01*
X154861Y486407D01*
X155705Y487251D01*
X156162Y488353D01*
Y489547D01*
X155705Y490649D01*
X154861Y491493D01*
X153759Y491950D01*
D02*
G37*
G36*
X119513Y494720D02*
X117723D01*
X116069Y494035D01*
X114803Y492769D01*
X114118Y491115D01*
Y489325D01*
X114803Y487671D01*
X116069Y486405D01*
X117723Y485720D01*
X119513D01*
X121167Y486405D01*
X122433Y487671D01*
X123118Y489325D01*
Y491115D01*
X122433Y492769D01*
X121167Y494035D01*
X119513Y494720D01*
D02*
G37*
G36*
X84050Y503870D02*
X81050D01*
X78700Y503560D01*
X76511Y502654D01*
X74631Y501211D01*
X73189Y499331D01*
X72282Y497141D01*
X71972Y494792D01*
X72282Y492443D01*
X73189Y490253D01*
X74631Y488373D01*
X76511Y486931D01*
X78700Y486024D01*
X81050Y485714D01*
X84050D01*
X86399Y486024D01*
X88589Y486931D01*
X90469Y488373D01*
X91911Y490253D01*
X92818Y492443D01*
X93128Y494792D01*
X92818Y497141D01*
X91911Y499331D01*
X90469Y501211D01*
X88589Y502654D01*
X86399Y503560D01*
X84050Y503870D01*
D02*
G37*
G36*
X58650D02*
X55650D01*
X53300Y503560D01*
X51111Y502654D01*
X49231Y501211D01*
X47789Y499331D01*
X46882Y497141D01*
X46572Y494792D01*
X46882Y492443D01*
X47789Y490253D01*
X49231Y488373D01*
X51111Y486931D01*
X53300Y486024D01*
X55650Y485714D01*
X58650D01*
X60999Y486024D01*
X63189Y486931D01*
X65069Y488373D01*
X66511Y490253D01*
X67418Y492443D01*
X67728Y494792D01*
X67418Y497141D01*
X66511Y499331D01*
X65069Y501211D01*
X63189Y502654D01*
X60999Y503560D01*
X58650Y503870D01*
D02*
G37*
G36*
X166150Y490918D02*
X164558D01*
X163088Y490309D01*
X161963Y489184D01*
X161354Y487714D01*
Y486122D01*
X161963Y484652D01*
X163088Y483527D01*
X164558Y482918D01*
X166150D01*
X167620Y483527D01*
X168745Y484652D01*
X169354Y486122D01*
Y487714D01*
X168745Y489184D01*
X167620Y490309D01*
X166150Y490918D01*
D02*
G37*
G36*
X24517Y488624D02*
X22727D01*
X21073Y487939D01*
X19807Y486673D01*
X19122Y485019D01*
Y483229D01*
X19807Y481575D01*
X21073Y480309D01*
X22727Y479624D01*
X24517D01*
X26171Y480309D01*
X27437Y481575D01*
X28122Y483229D01*
Y485019D01*
X27437Y486673D01*
X26171Y487939D01*
X24517Y488624D01*
D02*
G37*
G36*
X337158Y504425D02*
X335368D01*
X333714Y503740D01*
X332448Y502474D01*
X331763Y500820D01*
Y499030D01*
X332448Y497376D01*
X333714Y496110D01*
X334275Y495877D01*
Y494254D01*
X333747Y494035D01*
X332481Y492769D01*
X331796Y491115D01*
Y489325D01*
X332481Y487671D01*
X333747Y486405D01*
X333137Y485551D01*
X332989Y485403D01*
X332304Y483749D01*
Y481959D01*
X332989Y480305D01*
X334255Y479039D01*
X335909Y478354D01*
X337699D01*
X339353Y479039D01*
X340619Y480305D01*
X341304Y481959D01*
Y483749D01*
X340619Y485403D01*
X339353Y486669D01*
X339963Y487523D01*
X340111Y487671D01*
X340796Y489325D01*
Y491115D01*
X340111Y492769D01*
X338845Y494035D01*
X338284Y494268D01*
Y495891D01*
X338812Y496110D01*
X340078Y497376D01*
X340763Y499030D01*
Y500820D01*
X340078Y502474D01*
X338812Y503740D01*
X337158Y504425D01*
D02*
G37*
G36*
X141258Y485330D02*
X139666D01*
X138196Y484721D01*
X137071Y483596D01*
X136462Y482126D01*
Y480534D01*
X137071Y479064D01*
X138196Y477939D01*
X139666Y477330D01*
X141258D01*
X142728Y477939D01*
X143853Y479064D01*
X144462Y480534D01*
Y482126D01*
X143853Y483596D01*
X142728Y484721D01*
X141258Y485330D01*
D02*
G37*
G36*
X504323Y478210D02*
X502533D01*
X500879Y477525D01*
X499613Y476259D01*
X498928Y474605D01*
Y472815D01*
X499613Y471161D01*
X500879Y469895D01*
X502533Y469210D01*
X504323D01*
X505977Y469895D01*
X507243Y471161D01*
X507928Y472815D01*
Y474605D01*
X507243Y476259D01*
X505977Y477525D01*
X504323Y478210D01*
D02*
G37*
G36*
X160153D02*
X158363D01*
X156709Y477525D01*
X155443Y476259D01*
X154758Y474605D01*
Y472815D01*
X155443Y471161D01*
X156709Y469895D01*
X158363Y469210D01*
X160153D01*
X161807Y469895D01*
X163073Y471161D01*
X163758Y472815D01*
Y474605D01*
X163073Y476259D01*
X161807Y477525D01*
X160153Y478210D01*
D02*
G37*
G36*
X368334Y476694D02*
X366742D01*
X365272Y476085D01*
X364147Y474960D01*
X363538Y473490D01*
Y471898D01*
X364147Y470428D01*
X365272Y469303D01*
X366742Y468694D01*
X368334D01*
X369804Y469303D01*
X370929Y470428D01*
X371538Y471898D01*
Y473490D01*
X370929Y474960D01*
X369804Y476085D01*
X368334Y476694D01*
D02*
G37*
G36*
X606895Y473154D02*
X605701D01*
X604599Y472697D01*
X603755Y471853D01*
X603298Y470751D01*
Y469557D01*
X603755Y468455D01*
X604599Y467611D01*
X605701Y467154D01*
X606895D01*
X607997Y467611D01*
X608841Y468455D01*
X609298Y469557D01*
Y470751D01*
X608841Y471853D01*
X607997Y472697D01*
X606895Y473154D01*
D02*
G37*
G36*
X674249Y473638D02*
X672459D01*
X670805Y472953D01*
X669539Y471687D01*
X668854Y470033D01*
Y468243D01*
X669539Y466589D01*
X670805Y465323D01*
X672459Y464638D01*
X674249D01*
X675903Y465323D01*
X677169Y466589D01*
X677854Y468243D01*
Y470033D01*
X677169Y471687D01*
X675903Y472953D01*
X674249Y473638D01*
D02*
G37*
G36*
X571335Y470106D02*
X570141D01*
X569039Y469649D01*
X568195Y468805D01*
X567738Y467703D01*
Y466509D01*
X568195Y465407D01*
X569039Y464563D01*
X570141Y464106D01*
X571335D01*
X572437Y464563D01*
X573281Y465407D01*
X573738Y466509D01*
Y467703D01*
X573281Y468805D01*
X572437Y469649D01*
X571335Y470106D01*
D02*
G37*
G36*
X561761Y469266D02*
X560567D01*
X559465Y468809D01*
X558621Y467965D01*
X558164Y466863D01*
Y465669D01*
X558621Y464567D01*
X559465Y463723D01*
X560567Y463266D01*
X561761D01*
X562863Y463723D01*
X563707Y464567D01*
X564164Y465669D01*
Y466863D01*
X563707Y467965D01*
X562863Y468809D01*
X561761Y469266D01*
D02*
G37*
G36*
X552539Y468582D02*
X551345D01*
X550243Y468125D01*
X549399Y467281D01*
X548942Y466179D01*
Y464985D01*
X549399Y463883D01*
X550243Y463039D01*
X551345Y462582D01*
X552539D01*
X553641Y463039D01*
X554485Y463883D01*
X554942Y464985D01*
Y466179D01*
X554485Y467281D01*
X553641Y468125D01*
X552539Y468582D01*
D02*
G37*
G36*
X398913Y469320D02*
X397123D01*
X395469Y468635D01*
X394203Y467369D01*
X393518Y465715D01*
Y463925D01*
X394203Y462271D01*
X395469Y461005D01*
X397123Y460320D01*
X398913D01*
X400567Y461005D01*
X401833Y462271D01*
X402518Y463925D01*
Y465715D01*
X401833Y467369D01*
X400567Y468635D01*
X398913Y469320D01*
D02*
G37*
G36*
X84050Y478470D02*
X81050D01*
X78700Y478160D01*
X76511Y477253D01*
X74631Y475811D01*
X73189Y473931D01*
X72282Y471741D01*
X71972Y469392D01*
X72282Y467043D01*
X73189Y464853D01*
X74631Y462973D01*
X76511Y461530D01*
X78700Y460624D01*
X81050Y460314D01*
X84050D01*
X86399Y460624D01*
X88589Y461530D01*
X90469Y462973D01*
X91911Y464853D01*
X92818Y467043D01*
X93128Y469392D01*
X92818Y471741D01*
X91911Y473931D01*
X90469Y475811D01*
X88589Y477253D01*
X86399Y478160D01*
X84050Y478470D01*
D02*
G37*
G36*
X58650D02*
X55650D01*
X53300Y478160D01*
X51111Y477253D01*
X49231Y475811D01*
X47789Y473931D01*
X46882Y471741D01*
X46572Y469392D01*
X46882Y467043D01*
X47789Y464853D01*
X49231Y462973D01*
X51111Y461530D01*
X53300Y460624D01*
X55650Y460314D01*
X58650D01*
X60999Y460624D01*
X63189Y461530D01*
X65069Y462973D01*
X66511Y464853D01*
X67418Y467043D01*
X67728Y469392D01*
X67418Y471741D01*
X66511Y473931D01*
X65069Y475811D01*
X63189Y477253D01*
X60999Y478160D01*
X58650Y478470D01*
D02*
G37*
G36*
X647833Y464748D02*
X646043D01*
X644389Y464063D01*
X643123Y462797D01*
X642438Y461143D01*
Y459353D01*
X643123Y457699D01*
X644389Y456433D01*
X646043Y455748D01*
X647833D01*
X649487Y456433D01*
X650753Y457699D01*
X651438Y459353D01*
Y461143D01*
X650753Y462797D01*
X649487Y464063D01*
X647833Y464748D01*
D02*
G37*
G36*
X636657Y452302D02*
X634867D01*
X633213Y451617D01*
X632130Y450534D01*
X631585Y450369D01*
X630355Y450428D01*
X629421Y451363D01*
X627767Y452048D01*
X625977D01*
X624323Y451363D01*
X623057Y450097D01*
X622372Y448443D01*
Y446653D01*
X623057Y444999D01*
X624323Y443733D01*
X625977Y443048D01*
X627767D01*
X629421Y443733D01*
X630504Y444816D01*
X631049Y444981D01*
X632279Y444922D01*
X633213Y443987D01*
X634867Y443302D01*
X636657D01*
X638311Y443987D01*
X639577Y445253D01*
X640262Y446907D01*
Y448697D01*
X639577Y450351D01*
X638311Y451617D01*
X636657Y452302D01*
D02*
G37*
G36*
X197745Y454842D02*
X195955D01*
X194301Y454157D01*
X193035Y452891D01*
X192350Y451237D01*
Y449447D01*
X193035Y447793D01*
X194301Y446527D01*
X195955Y445842D01*
X197745D01*
X199399Y446527D01*
X200665Y447793D01*
X201350Y449447D01*
Y451237D01*
X200665Y452891D01*
X199399Y454157D01*
X197745Y454842D01*
D02*
G37*
G36*
X568839Y453826D02*
X567049D01*
X565395Y453141D01*
X564129Y451875D01*
X563444Y450221D01*
Y448431D01*
X564129Y446777D01*
X565395Y445511D01*
X567049Y444826D01*
X568839D01*
X570493Y445511D01*
X571759Y446777D01*
X572444Y448431D01*
Y450221D01*
X571759Y451875D01*
X570493Y453141D01*
X568839Y453826D01*
D02*
G37*
G36*
X722763Y449762D02*
X720973D01*
X719319Y449077D01*
X718053Y447811D01*
X717368Y446157D01*
Y444367D01*
X718053Y442713D01*
X719319Y441447D01*
X720973Y440762D01*
X722763D01*
X724417Y441447D01*
X725683Y442713D01*
X726368Y444367D01*
Y446157D01*
X725683Y447811D01*
X724417Y449077D01*
X722763Y449762D01*
D02*
G37*
G36*
X84050Y453070D02*
X81050D01*
X78700Y452760D01*
X76511Y451853D01*
X74631Y450411D01*
X73189Y448531D01*
X72282Y446342D01*
X71972Y443992D01*
X72282Y441642D01*
X73189Y439453D01*
X74631Y437573D01*
X76511Y436130D01*
X78700Y435224D01*
X81050Y434914D01*
X84050D01*
X86399Y435224D01*
X88589Y436130D01*
X90469Y437573D01*
X91911Y439453D01*
X92818Y441642D01*
X93128Y443992D01*
X92818Y446342D01*
X91911Y448531D01*
X90469Y450411D01*
X88589Y451853D01*
X86399Y452760D01*
X84050Y453070D01*
D02*
G37*
G36*
X58650D02*
X55650D01*
X53300Y452760D01*
X51111Y451853D01*
X49231Y450411D01*
X47789Y448531D01*
X46882Y446342D01*
X46572Y443992D01*
X46882Y441642D01*
X47789Y439453D01*
X49231Y437573D01*
X51111Y436130D01*
X53300Y435224D01*
X55650Y434914D01*
X58650D01*
X60999Y435224D01*
X63189Y436130D01*
X65069Y437573D01*
X66511Y439453D01*
X67418Y441642D01*
X67728Y443992D01*
X67418Y446342D01*
X66511Y448531D01*
X65069Y450411D01*
X63189Y451853D01*
X60999Y452760D01*
X58650Y453070D01*
D02*
G37*
G36*
X432187Y440618D02*
X430397D01*
X428743Y439933D01*
X427477Y438667D01*
X426792Y437013D01*
Y435223D01*
X427477Y433569D01*
X428743Y432303D01*
X430397Y431618D01*
X432187D01*
X433841Y432303D01*
X435107Y433569D01*
X435792Y435223D01*
Y437013D01*
X435107Y438667D01*
X433841Y439933D01*
X432187Y440618D01*
D02*
G37*
G36*
X660025Y440110D02*
X658235D01*
X656581Y439425D01*
X655315Y438159D01*
X654630Y436505D01*
Y434715D01*
X655315Y433061D01*
X656581Y431795D01*
X658235Y431110D01*
X660025D01*
X661679Y431795D01*
X662945Y433061D01*
X663630Y434715D01*
Y436505D01*
X662945Y438159D01*
X661679Y439425D01*
X660025Y440110D01*
D02*
G37*
G36*
X648595Y438840D02*
X646805D01*
X645151Y438155D01*
X643885Y436889D01*
X643200Y435235D01*
Y433445D01*
X643885Y431791D01*
X645151Y430525D01*
X646805Y429840D01*
X648595D01*
X650249Y430525D01*
X651515Y431791D01*
X652200Y433445D01*
Y435235D01*
X651515Y436889D01*
X650249Y438155D01*
X648595Y438840D01*
D02*
G37*
G36*
X399167Y436808D02*
X397377D01*
X395723Y436123D01*
X394457Y434857D01*
X393772Y433203D01*
Y431413D01*
X394457Y429759D01*
X395723Y428493D01*
X397377Y427808D01*
X399167D01*
X400821Y428493D01*
X402087Y429759D01*
X402772Y431413D01*
Y433203D01*
X402087Y434857D01*
X400821Y436123D01*
X399167Y436808D01*
D02*
G37*
G36*
X165995Y434522D02*
X164205D01*
X162551Y433837D01*
X161285Y432571D01*
X160600Y430917D01*
Y429127D01*
X161285Y427473D01*
X162551Y426207D01*
X164205Y425522D01*
X165995D01*
X167649Y426207D01*
X168915Y427473D01*
X169600Y429127D01*
Y430917D01*
X168915Y432571D01*
X167649Y433837D01*
X165995Y434522D01*
D02*
G37*
G36*
X685425Y434014D02*
X683635D01*
X681981Y433329D01*
X680715Y432063D01*
X680030Y430409D01*
Y428619D01*
X680715Y426965D01*
X681981Y425699D01*
X683635Y425014D01*
X685425D01*
X687079Y425699D01*
X688345Y426965D01*
X689030Y428619D01*
Y430409D01*
X688345Y432063D01*
X687079Y433329D01*
X685425Y434014D01*
D02*
G37*
G36*
X149993Y433760D02*
X148203D01*
X146549Y433075D01*
X145283Y431809D01*
X144598Y430155D01*
Y428365D01*
X145283Y426711D01*
X146549Y425445D01*
X148203Y424760D01*
X149993D01*
X151647Y425445D01*
X152913Y426711D01*
X153598Y428365D01*
Y430155D01*
X152913Y431809D01*
X151647Y433075D01*
X149993Y433760D01*
D02*
G37*
G36*
X581495Y427688D02*
X580301D01*
X579199Y427231D01*
X578355Y426387D01*
X577898Y425285D01*
Y424091D01*
X578355Y422989D01*
X579199Y422145D01*
X580301Y421688D01*
X581495D01*
X582597Y422145D01*
X583441Y422989D01*
X583898Y424091D01*
Y425285D01*
X583441Y426387D01*
X582597Y427231D01*
X581495Y427688D01*
D02*
G37*
G36*
X412629Y426902D02*
X410839D01*
X409185Y426217D01*
X407919Y424951D01*
X407234Y423297D01*
Y421507D01*
X407919Y419853D01*
X409185Y418587D01*
X410839Y417902D01*
X412629D01*
X414283Y418587D01*
X415549Y419853D01*
X416234Y421507D01*
Y423297D01*
X415549Y424951D01*
X414283Y426217D01*
X412629Y426902D01*
D02*
G37*
G36*
X397897Y424362D02*
X396107D01*
X394453Y423677D01*
X393187Y422411D01*
X392502Y420757D01*
Y418967D01*
X393187Y417313D01*
X394453Y416047D01*
X396107Y415362D01*
X397897D01*
X399551Y416047D01*
X400817Y417313D01*
X401502Y418967D01*
Y420757D01*
X400817Y422411D01*
X399551Y423677D01*
X397897Y424362D01*
D02*
G37*
G36*
X693807Y422838D02*
X692017D01*
X690363Y422153D01*
X689097Y420887D01*
X688412Y419233D01*
Y417443D01*
X689097Y415789D01*
X690363Y414523D01*
X692017Y413838D01*
X693807D01*
X695461Y414523D01*
X696727Y415789D01*
X697412Y417443D01*
Y419233D01*
X696727Y420887D01*
X695461Y422153D01*
X693807Y422838D01*
D02*
G37*
G36*
X24771Y422584D02*
X22981D01*
X21327Y421899D01*
X20061Y420633D01*
X19376Y418979D01*
Y417189D01*
X20061Y415535D01*
X21327Y414269D01*
X22981Y413584D01*
X24771D01*
X26425Y414269D01*
X27691Y415535D01*
X28376Y417189D01*
Y418979D01*
X27691Y420633D01*
X26425Y421899D01*
X24771Y422584D01*
D02*
G37*
G36*
X624973Y419790D02*
X623183D01*
X621529Y419105D01*
X620263Y417839D01*
X619578Y416185D01*
Y414395D01*
X620263Y412741D01*
X621529Y411475D01*
X623183Y410790D01*
X624973D01*
X626627Y411475D01*
X627893Y412741D01*
X628578Y414395D01*
Y416185D01*
X627893Y417839D01*
X626627Y419105D01*
X624973Y419790D01*
D02*
G37*
G36*
X84050Y427670D02*
X81050D01*
X78700Y427360D01*
X76511Y426454D01*
X74631Y425011D01*
X73189Y423131D01*
X72282Y420942D01*
X71972Y418592D01*
X72282Y416242D01*
X73189Y414053D01*
X74631Y412173D01*
X76511Y410731D01*
X78700Y409824D01*
X81050Y409514D01*
X84050D01*
X86399Y409824D01*
X88589Y410731D01*
X90469Y412173D01*
X91911Y414053D01*
X92818Y416242D01*
X93128Y418592D01*
X92818Y420942D01*
X91911Y423131D01*
X90469Y425011D01*
X88589Y426454D01*
X86399Y427360D01*
X84050Y427670D01*
D02*
G37*
G36*
X58650D02*
X55650D01*
X53300Y427360D01*
X51111Y426454D01*
X49231Y425011D01*
X47789Y423131D01*
X46882Y420942D01*
X46572Y418592D01*
X46882Y416242D01*
X47789Y414053D01*
X49231Y412173D01*
X51111Y410731D01*
X53300Y409824D01*
X55650Y409514D01*
X58650D01*
X60999Y409824D01*
X63189Y410731D01*
X65069Y412173D01*
X66511Y414053D01*
X67418Y416242D01*
X67728Y418592D01*
X67418Y420942D01*
X66511Y423131D01*
X65069Y425011D01*
X63189Y426454D01*
X60999Y427360D01*
X58650Y427670D01*
D02*
G37*
G36*
X469525Y415726D02*
X467735D01*
X466081Y415041D01*
X464815Y413775D01*
X464130Y412121D01*
Y410331D01*
X464815Y408677D01*
X466081Y407411D01*
X467735Y406726D01*
X469525D01*
X471179Y407411D01*
X472445Y408677D01*
X473130Y410331D01*
Y412121D01*
X472445Y413775D01*
X471179Y415041D01*
X469525Y415726D01*
D02*
G37*
G36*
X159855Y411178D02*
X158661D01*
X157559Y410721D01*
X156715Y409877D01*
X156258Y408775D01*
Y407581D01*
X156715Y406479D01*
X157559Y405635D01*
X158661Y405178D01*
X159855D01*
X160957Y405635D01*
X161801Y406479D01*
X162258Y407581D01*
Y408775D01*
X161801Y409877D01*
X160957Y410721D01*
X159855Y411178D01*
D02*
G37*
G36*
X814965Y412932D02*
X813175D01*
X811521Y412247D01*
X810255Y410981D01*
X809570Y409327D01*
Y407537D01*
X810255Y405883D01*
X811521Y404617D01*
X813175Y403932D01*
X814965D01*
X816619Y404617D01*
X817885Y405883D01*
X818570Y407537D01*
Y409327D01*
X817885Y410981D01*
X816619Y412247D01*
X814965Y412932D01*
D02*
G37*
G36*
X415169Y412678D02*
X413379D01*
X411725Y411993D01*
X410459Y410727D01*
X409774Y409073D01*
Y407283D01*
X410459Y405629D01*
X411725Y404363D01*
X413379Y403678D01*
X415169D01*
X416823Y404363D01*
X418089Y405629D01*
X418774Y407283D01*
Y409073D01*
X418089Y410727D01*
X416823Y411993D01*
X415169Y412678D01*
D02*
G37*
G36*
X940441Y412424D02*
X938651D01*
X936997Y411739D01*
X935731Y410473D01*
X935046Y408819D01*
Y407029D01*
X935731Y405375D01*
X936997Y404109D01*
X938651Y403424D01*
X940441D01*
X942095Y404109D01*
X943361Y405375D01*
X944046Y407029D01*
Y408819D01*
X943361Y410473D01*
X942095Y411739D01*
X940441Y412424D01*
D02*
G37*
G36*
X693299Y404550D02*
X691509D01*
X689855Y403865D01*
X688589Y402599D01*
X687904Y400945D01*
Y399155D01*
X688589Y397501D01*
X689855Y396235D01*
X691509Y395550D01*
X693299D01*
X694953Y396235D01*
X696219Y397501D01*
X696904Y399155D01*
Y400945D01*
X696219Y402599D01*
X694953Y403865D01*
X693299Y404550D01*
D02*
G37*
G36*
X848239Y402772D02*
X846449D01*
X844795Y402087D01*
X843529Y400821D01*
X842844Y399167D01*
Y397377D01*
X843529Y395723D01*
X844795Y394457D01*
X846449Y393772D01*
X848239D01*
X849893Y394457D01*
X851159Y395723D01*
X851844Y397377D01*
Y399167D01*
X851159Y400821D01*
X849893Y402087D01*
X848239Y402772D01*
D02*
G37*
G36*
X621671Y401756D02*
X619881D01*
X618227Y401071D01*
X616961Y399805D01*
X616276Y398151D01*
Y396361D01*
X616961Y394707D01*
X617086Y394582D01*
X616236Y393311D01*
X616083Y393374D01*
X614293D01*
X612639Y392689D01*
X611373Y391423D01*
X610688Y389769D01*
Y387979D01*
X611373Y386325D01*
X612639Y385059D01*
X614293Y384374D01*
X616083D01*
X617737Y385059D01*
X619003Y386325D01*
X619688Y387979D01*
Y389769D01*
X619003Y391423D01*
X618878Y391548D01*
X619728Y392819D01*
X619881Y392756D01*
X621671D01*
X623325Y393441D01*
X624591Y394707D01*
X625276Y396361D01*
Y398151D01*
X624591Y399805D01*
X623325Y401071D01*
X621671Y401756D01*
D02*
G37*
G36*
X722255Y399724D02*
X720465D01*
X718811Y399039D01*
X717545Y397773D01*
X716860Y396119D01*
Y394329D01*
X717545Y392675D01*
X718811Y391409D01*
X720465Y390724D01*
X722255D01*
X723909Y391409D01*
X725175Y392675D01*
X725860Y394329D01*
Y396119D01*
X725175Y397773D01*
X723909Y399039D01*
X722255Y399724D01*
D02*
G37*
G36*
X887002Y397192D02*
X885410D01*
X883940Y396583D01*
X882815Y395458D01*
X882206Y393988D01*
Y392396D01*
X882815Y390926D01*
X883940Y389801D01*
X885410Y389192D01*
X887002D01*
X888472Y389801D01*
X889597Y390926D01*
X890206Y392396D01*
Y393988D01*
X889597Y395458D01*
X888472Y396583D01*
X887002Y397192D01*
D02*
G37*
G36*
X84050Y402270D02*
X81050D01*
X78700Y401960D01*
X76511Y401054D01*
X74631Y399611D01*
X73189Y397731D01*
X72282Y395541D01*
X71972Y393192D01*
X72282Y390843D01*
X73189Y388653D01*
X74631Y386773D01*
X76511Y385331D01*
X78700Y384424D01*
X81050Y384114D01*
X84050D01*
X86399Y384424D01*
X88589Y385331D01*
X90469Y386773D01*
X91911Y388653D01*
X92818Y390843D01*
X93128Y393192D01*
X92818Y395541D01*
X91911Y397731D01*
X90469Y399611D01*
X88589Y401054D01*
X86399Y401960D01*
X84050Y402270D01*
D02*
G37*
G36*
X58650D02*
X55650D01*
X53300Y401960D01*
X51111Y401054D01*
X49231Y399611D01*
X47789Y397731D01*
X46882Y395541D01*
X46572Y393192D01*
X46882Y390843D01*
X47789Y388653D01*
X49231Y386773D01*
X51111Y385331D01*
X53300Y384424D01*
X55650Y384114D01*
X58650D01*
X60999Y384424D01*
X63189Y385331D01*
X65069Y386773D01*
X66511Y388653D01*
X67418Y390843D01*
X67728Y393192D01*
X67418Y395541D01*
X66511Y397731D01*
X65069Y399611D01*
X63189Y401054D01*
X60999Y401960D01*
X58650Y402270D01*
D02*
G37*
G36*
X665105Y392358D02*
X663315D01*
X661661Y391673D01*
X660395Y390407D01*
X659710Y388753D01*
Y386963D01*
X660395Y385309D01*
X661661Y384043D01*
X663315Y383358D01*
X665105D01*
X666759Y384043D01*
X668025Y385309D01*
X668710Y386963D01*
Y388753D01*
X668025Y390407D01*
X666759Y391673D01*
X665105Y392358D01*
D02*
G37*
G36*
X641737Y389056D02*
X639947D01*
X638293Y388371D01*
X637027Y387105D01*
X636342Y385451D01*
Y383661D01*
X637027Y382007D01*
X638293Y380741D01*
X639947Y380056D01*
X641737D01*
X643391Y380741D01*
X644657Y382007D01*
X645342Y383661D01*
Y385451D01*
X644657Y387105D01*
X643391Y388371D01*
X641737Y389056D01*
D02*
G37*
G36*
X160363Y386032D02*
X159169D01*
X158067Y385575D01*
X157223Y384731D01*
X156766Y383629D01*
Y382435D01*
X157223Y381333D01*
X158067Y380489D01*
X159169Y380032D01*
X160363D01*
X161465Y380489D01*
X162309Y381333D01*
X162766Y382435D01*
Y383629D01*
X162309Y384731D01*
X161465Y385575D01*
X160363Y386032D01*
D02*
G37*
G36*
X654437Y388802D02*
X652647D01*
X650993Y388117D01*
X649727Y386851D01*
X649042Y385197D01*
Y383407D01*
X649727Y381753D01*
X650993Y380487D01*
X652647Y379802D01*
X654437D01*
X656091Y380487D01*
X657357Y381753D01*
X658042Y383407D01*
Y385197D01*
X657357Y386851D01*
X656091Y388117D01*
X654437Y388802D01*
D02*
G37*
G36*
X792867Y383214D02*
X791077D01*
X789423Y382529D01*
X788157Y381263D01*
X787472Y379609D01*
Y377819D01*
X788157Y376165D01*
X789423Y374899D01*
X791077Y374214D01*
X792867D01*
X794521Y374899D01*
X795787Y376165D01*
X796472Y377819D01*
Y379609D01*
X795787Y381263D01*
X794521Y382529D01*
X792867Y383214D01*
D02*
G37*
G36*
X774833Y382198D02*
X773043D01*
X771389Y381513D01*
X770123Y380247D01*
X769438Y378593D01*
Y376803D01*
X770123Y375149D01*
X771389Y373883D01*
X773043Y373198D01*
X774833D01*
X776487Y373883D01*
X777753Y375149D01*
X778438Y376803D01*
Y378593D01*
X777753Y380247D01*
X776487Y381513D01*
X774833Y382198D01*
D02*
G37*
G36*
X640975Y378134D02*
X639185D01*
X637531Y377449D01*
X636265Y376183D01*
X635580Y374529D01*
Y372739D01*
X636265Y371085D01*
X637531Y369819D01*
X639185Y369134D01*
X640975D01*
X642629Y369819D01*
X643895Y371085D01*
X644580Y372739D01*
Y374529D01*
X643895Y376183D01*
X642629Y377449D01*
X640975Y378134D01*
D02*
G37*
G36*
X996052Y380972D02*
X979052D01*
Y363972D01*
X996052D01*
Y380972D01*
D02*
G37*
G36*
X167265Y371530D02*
X165475D01*
X163821Y370845D01*
X162555Y369579D01*
X161870Y367925D01*
Y366135D01*
X162555Y364481D01*
X163821Y363215D01*
X165475Y362530D01*
X167265D01*
X168919Y363215D01*
X170185Y364481D01*
X170870Y366135D01*
Y367925D01*
X170185Y369579D01*
X168919Y370845D01*
X167265Y371530D01*
D02*
G37*
G36*
X154565Y370768D02*
X152775D01*
X151121Y370083D01*
X149855Y368817D01*
X149170Y367163D01*
Y365373D01*
X149855Y363719D01*
X151121Y362453D01*
X152775Y361768D01*
X154565D01*
X156219Y362453D01*
X157485Y363719D01*
X158170Y365373D01*
Y367163D01*
X157485Y368817D01*
X156219Y370083D01*
X154565Y370768D01*
D02*
G37*
G36*
X368993Y378079D02*
X367402D01*
X365932Y377470D01*
X364807Y376345D01*
X364198Y374875D01*
Y373283D01*
X364807Y371813D01*
X365756Y370864D01*
X365771Y369885D01*
X365631Y369189D01*
X365540Y369151D01*
X364415Y368026D01*
X363806Y366556D01*
Y364964D01*
X364415Y363494D01*
X365540Y362369D01*
X367010Y361760D01*
X368602D01*
X370072Y362369D01*
X371197Y363494D01*
X371806Y364964D01*
Y366556D01*
X371197Y368026D01*
X370248Y368975D01*
X370233Y369954D01*
X370372Y370650D01*
X370463Y370688D01*
X371589Y371813D01*
X372197Y373283D01*
Y374875D01*
X371589Y376345D01*
X370463Y377470D01*
X368993Y378079D01*
D02*
G37*
G36*
X330742Y377634D02*
X329150D01*
X327680Y377025D01*
X326555Y375900D01*
X325946Y374430D01*
Y372838D01*
X326555Y371368D01*
X327680Y370243D01*
X327674Y368649D01*
X326549Y367524D01*
X325940Y366054D01*
Y364463D01*
X326549Y362993D01*
X327674Y361867D01*
X329144Y361258D01*
X330735D01*
X332205Y361867D01*
X333331Y362993D01*
X333940Y364463D01*
Y366054D01*
X333331Y367524D01*
X332205Y368649D01*
X332212Y370243D01*
X333337Y371368D01*
X333946Y372838D01*
Y374430D01*
X333337Y375900D01*
X332212Y377025D01*
X330742Y377634D01*
D02*
G37*
G36*
X398580Y366879D02*
X396790D01*
X395136Y366194D01*
X393870Y364928D01*
X393185Y363274D01*
Y361484D01*
X393870Y359830D01*
X395136Y358564D01*
X396790Y357879D01*
X398580D01*
X400234Y358564D01*
X401500Y359830D01*
X402185Y361484D01*
Y363274D01*
X401500Y364928D01*
X400234Y366194D01*
X398580Y366879D01*
D02*
G37*
G36*
X576459Y382706D02*
X574669D01*
X573015Y382021D01*
X571749Y380755D01*
X571064Y379101D01*
Y377311D01*
X571749Y375657D01*
X572427Y374979D01*
X572487Y374919D01*
X571637Y373647D01*
X571550Y373683D01*
X570617Y374070D01*
X568827D01*
X567173Y373385D01*
X565907Y372119D01*
X565222Y370465D01*
Y368675D01*
X565907Y367021D01*
X567173Y365755D01*
X568827Y365070D01*
X570617D01*
X572271Y365755D01*
X573537Y367021D01*
X574222Y368675D01*
Y370465D01*
X573537Y372119D01*
X572859Y372797D01*
X572799Y372857D01*
X573649Y374129D01*
X573736Y374093D01*
X574669Y373706D01*
X576041D01*
X576764Y372483D01*
X576769Y372472D01*
X576807Y372320D01*
X576144Y370719D01*
Y368929D01*
X576826Y367283D01*
X576829Y367273D01*
X576383Y365600D01*
X575555Y365257D01*
X574289Y363991D01*
X573604Y362337D01*
Y360547D01*
X574289Y358893D01*
X575555Y357627D01*
X577209Y356942D01*
X578999D01*
X580653Y357627D01*
X581919Y358893D01*
X582604Y360547D01*
Y362337D01*
X581922Y363983D01*
X581919Y363993D01*
X582365Y365666D01*
X583193Y366009D01*
X584459Y367275D01*
X585144Y368929D01*
Y370719D01*
X584459Y372373D01*
X583193Y373639D01*
X581539Y374324D01*
X580167D01*
X579444Y375547D01*
X579439Y375558D01*
X579401Y375710D01*
X580064Y377311D01*
Y379101D01*
X579379Y380755D01*
X578113Y382021D01*
X576459Y382706D01*
D02*
G37*
G36*
X655961Y364164D02*
X654171D01*
X652517Y363479D01*
X651251Y362213D01*
X650566Y360559D01*
Y358769D01*
X651251Y357115D01*
X652517Y355849D01*
X654171Y355164D01*
X655961D01*
X657615Y355849D01*
X658881Y357115D01*
X659566Y358769D01*
Y360559D01*
X658881Y362213D01*
X657615Y363479D01*
X655961Y364164D01*
D02*
G37*
G36*
X917531Y363402D02*
X915741D01*
X914087Y362717D01*
X912821Y361451D01*
X912136Y359797D01*
Y358007D01*
X912821Y356353D01*
X914087Y355087D01*
X915741Y354402D01*
X917531D01*
X919185Y355087D01*
X920451Y356353D01*
X921136Y358007D01*
Y359797D01*
X920451Y361451D01*
X919185Y362717D01*
X917531Y363402D01*
D02*
G37*
G36*
X843159Y361878D02*
X841369D01*
X839715Y361193D01*
X838449Y359927D01*
X837764Y358273D01*
Y356483D01*
X838449Y354829D01*
X839715Y353563D01*
X841369Y352878D01*
X843159D01*
X844813Y353563D01*
X846079Y354829D01*
X846764Y356483D01*
Y358273D01*
X846079Y359927D01*
X844813Y361193D01*
X843159Y361878D01*
D02*
G37*
G36*
X288169D02*
X286379D01*
X284725Y361193D01*
X283459Y359927D01*
X282774Y358273D01*
Y356483D01*
X283459Y354829D01*
X284725Y353563D01*
X286379Y352878D01*
X288169D01*
X289823Y353563D01*
X291089Y354829D01*
X291774Y356483D01*
Y358273D01*
X291089Y359927D01*
X289823Y361193D01*
X288169Y361878D01*
D02*
G37*
G36*
X668153Y361116D02*
X666363D01*
X664709Y360431D01*
X663443Y359165D01*
X662758Y357511D01*
Y355721D01*
X663443Y354067D01*
X664709Y352801D01*
X666363Y352116D01*
X668153D01*
X669807Y352801D01*
X671073Y354067D01*
X671758Y355721D01*
Y357511D01*
X671073Y359165D01*
X669807Y360431D01*
X668153Y361116D01*
D02*
G37*
G36*
X314839Y360100D02*
X313049D01*
X311395Y359415D01*
X310129Y358149D01*
X309444Y356495D01*
Y354705D01*
X310129Y353051D01*
X311395Y351785D01*
X313049Y351100D01*
X314839D01*
X316493Y351785D01*
X317759Y353051D01*
X318444Y354705D01*
Y356495D01*
X317759Y358149D01*
X316493Y359415D01*
X314839Y360100D01*
D02*
G37*
G36*
X644023Y359846D02*
X642233D01*
X640579Y359161D01*
X639313Y357895D01*
X638628Y356241D01*
Y354451D01*
X639313Y352797D01*
X640579Y351531D01*
X642233Y350846D01*
X644023D01*
X645677Y351531D01*
X646943Y352797D01*
X647628Y354451D01*
Y356241D01*
X646943Y357895D01*
X645677Y359161D01*
X644023Y359846D01*
D02*
G37*
G36*
X342017Y355782D02*
X340227D01*
X338573Y355097D01*
X337307Y353831D01*
X336622Y352177D01*
Y350387D01*
X337307Y348733D01*
X338573Y347467D01*
X340227Y346782D01*
X342017D01*
X343671Y347467D01*
X344937Y348733D01*
X345622Y350387D01*
Y352177D01*
X344937Y353831D01*
X343671Y355097D01*
X342017Y355782D01*
D02*
G37*
G36*
X410089Y354258D02*
X408299D01*
X406645Y353573D01*
X405379Y352307D01*
X404694Y350653D01*
Y348863D01*
X405379Y347209D01*
X406645Y345943D01*
X408299Y345258D01*
X410089D01*
X411743Y345943D01*
X413009Y347209D01*
X413694Y348863D01*
Y350653D01*
X413009Y352307D01*
X411743Y353573D01*
X410089Y354258D01*
D02*
G37*
G36*
X325507Y352734D02*
X323717D01*
X322063Y352049D01*
X320797Y350783D01*
X320112Y349129D01*
Y347339D01*
X320797Y345685D01*
X322063Y344419D01*
X323717Y343734D01*
X325507D01*
X327161Y344419D01*
X328427Y345685D01*
X329112Y347339D01*
Y349129D01*
X328427Y350783D01*
X327161Y352049D01*
X325507Y352734D01*
D02*
G37*
G36*
X699649Y348924D02*
X697859D01*
X696205Y348239D01*
X694939Y346973D01*
X694254Y345319D01*
Y343529D01*
X694939Y341875D01*
X696205Y340609D01*
X697859Y339924D01*
X699649D01*
X701303Y340609D01*
X702569Y341875D01*
X703254Y343529D01*
Y345319D01*
X702569Y346973D01*
X701303Y348239D01*
X699649Y348924D01*
D02*
G37*
G36*
X988671Y355972D02*
X986433D01*
X984271Y355393D01*
X982333Y354274D01*
X980750Y352691D01*
X979631Y350753D01*
X979052Y348591D01*
Y346353D01*
X979631Y344191D01*
X980750Y342253D01*
X982333Y340670D01*
X984271Y339551D01*
X986433Y338972D01*
X988671D01*
X990833Y339551D01*
X992771Y340670D01*
X994354Y342253D01*
X995473Y344191D01*
X996052Y346353D01*
Y348591D01*
X995473Y350753D01*
X994354Y352691D01*
X992771Y354274D01*
X990833Y355393D01*
X988671Y355972D01*
D02*
G37*
G36*
X314033Y340312D02*
X312839D01*
X311737Y339855D01*
X310893Y339011D01*
X310436Y337909D01*
Y336715D01*
X310893Y335613D01*
X311737Y334769D01*
X312839Y334312D01*
X314033D01*
X315135Y334769D01*
X315979Y335613D01*
X316436Y336715D01*
Y337909D01*
X315979Y339011D01*
X315135Y339855D01*
X314033Y340312D01*
D02*
G37*
G36*
X856748Y336974D02*
X855157D01*
X853687Y336365D01*
X852561Y335240D01*
X851953Y333770D01*
Y332179D01*
X852561Y330708D01*
X853687Y329583D01*
X855157Y328974D01*
X856748D01*
X858218Y329583D01*
X859344Y330708D01*
X859952Y332179D01*
Y333770D01*
X859344Y335240D01*
X858218Y336365D01*
X856748Y336974D01*
D02*
G37*
G36*
X674503Y336986D02*
X672713D01*
X671059Y336301D01*
X669793Y335035D01*
X669108Y333381D01*
Y331591D01*
X669793Y329937D01*
X671059Y328671D01*
X672713Y327986D01*
X674503D01*
X676157Y328671D01*
X677423Y329937D01*
X678108Y331591D01*
Y333381D01*
X677423Y335035D01*
X676157Y336301D01*
X674503Y336986D01*
D02*
G37*
G36*
X578447Y326850D02*
X577253D01*
X576151Y326393D01*
X575307Y325549D01*
X574850Y324447D01*
Y323253D01*
X575307Y322151D01*
X576151Y321307D01*
X577253Y320850D01*
X578447D01*
X579549Y321307D01*
X580393Y322151D01*
X580850Y323253D01*
Y324447D01*
X580393Y325549D01*
X579549Y326393D01*
X578447Y326850D01*
D02*
G37*
G36*
X700157Y326318D02*
X698367D01*
X696713Y325633D01*
X695447Y324367D01*
X694762Y322713D01*
Y320923D01*
X695447Y319269D01*
X696713Y318003D01*
X698367Y317318D01*
X700157D01*
X701811Y318003D01*
X703077Y319269D01*
X703762Y320923D01*
Y322713D01*
X703077Y324367D01*
X701811Y325633D01*
X700157Y326318D01*
D02*
G37*
G36*
X853573Y324794D02*
X851783D01*
X850129Y324109D01*
X848863Y322843D01*
X848178Y321189D01*
Y319399D01*
X848863Y317745D01*
X850129Y316479D01*
X851783Y315794D01*
X853573D01*
X855227Y316479D01*
X856493Y317745D01*
X857178Y319399D01*
Y321189D01*
X856493Y322843D01*
X855227Y324109D01*
X853573Y324794D01*
D02*
G37*
G36*
X164217D02*
X162427D01*
X160773Y324109D01*
X159507Y322843D01*
X158822Y321189D01*
Y319399D01*
X159507Y317745D01*
X160773Y316479D01*
X162427Y315794D01*
X164217D01*
X165871Y316479D01*
X167137Y317745D01*
X167822Y319399D01*
Y321189D01*
X167137Y322843D01*
X165871Y324109D01*
X164217Y324794D01*
D02*
G37*
G36*
X942219Y322254D02*
X940429D01*
X938775Y321569D01*
X937509Y320303D01*
X936824Y318649D01*
Y316859D01*
X937509Y315205D01*
X938775Y313939D01*
X940429Y313254D01*
X942219D01*
X943873Y313939D01*
X945139Y315205D01*
X945824Y316859D01*
Y318649D01*
X945139Y320303D01*
X943873Y321569D01*
X942219Y322254D01*
D02*
G37*
G36*
X815473Y318952D02*
X813683D01*
X812029Y318267D01*
X810763Y317001D01*
X810078Y315347D01*
Y313557D01*
X810763Y311903D01*
X812029Y310637D01*
X813683Y309952D01*
X815473D01*
X817127Y310637D01*
X818393Y311903D01*
X819078Y313557D01*
Y315347D01*
X818393Y317001D01*
X817127Y318267D01*
X815473Y318952D01*
D02*
G37*
G36*
X25279Y318698D02*
X23489D01*
X21835Y318013D01*
X20569Y316747D01*
X19884Y315093D01*
Y313303D01*
X20569Y311649D01*
X21835Y310383D01*
X23489Y309698D01*
X25279D01*
X26933Y310383D01*
X28199Y311649D01*
X28884Y313303D01*
Y315093D01*
X28199Y316747D01*
X26933Y318013D01*
X25279Y318698D01*
D02*
G37*
G36*
X93050Y325992D02*
X72050D01*
Y307992D01*
X93050D01*
Y325992D01*
D02*
G37*
G36*
X58650Y326070D02*
X55650D01*
X53300Y325760D01*
X51111Y324854D01*
X49231Y323411D01*
X47789Y321531D01*
X46882Y319342D01*
X46572Y316992D01*
X46882Y314643D01*
X47789Y312453D01*
X49231Y310573D01*
X51111Y309130D01*
X53300Y308224D01*
X55650Y307914D01*
X58650D01*
X60999Y308224D01*
X63189Y309130D01*
X65069Y310573D01*
X66511Y312453D01*
X67418Y314643D01*
X67728Y316992D01*
X67418Y319342D01*
X66511Y321531D01*
X65069Y323411D01*
X63189Y324854D01*
X60999Y325760D01*
X58650Y326070D01*
D02*
G37*
G36*
X641229Y314634D02*
X639439D01*
X637785Y313949D01*
X636519Y312683D01*
X635834Y311029D01*
Y309239D01*
X636519Y307585D01*
X637785Y306319D01*
X639439Y305634D01*
X641229D01*
X642883Y306319D01*
X644149Y307585D01*
X644834Y309239D01*
Y311029D01*
X644149Y312683D01*
X642883Y313949D01*
X641229Y314634D01*
D02*
G37*
G36*
X670439Y313364D02*
X668649D01*
X666995Y312679D01*
X665729Y311413D01*
X665044Y309759D01*
Y307969D01*
X665729Y306315D01*
X666995Y305049D01*
X668649Y304364D01*
X670439D01*
X672093Y305049D01*
X673359Y306315D01*
X674044Y307969D01*
Y309759D01*
X673359Y311413D01*
X672093Y312679D01*
X670439Y313364D01*
D02*
G37*
G36*
X656723D02*
X654933D01*
X653279Y312679D01*
X652013Y311413D01*
X651328Y309759D01*
Y307969D01*
X652013Y306315D01*
X653279Y305049D01*
X654933Y304364D01*
X656723D01*
X658377Y305049D01*
X659643Y306315D01*
X660328Y307969D01*
Y309759D01*
X659643Y311413D01*
X658377Y312679D01*
X656723Y313364D01*
D02*
G37*
G36*
X478161Y311586D02*
X476371D01*
X474717Y310901D01*
X473451Y309635D01*
X472766Y307981D01*
Y306191D01*
X473451Y304537D01*
X474717Y303271D01*
X476371Y302586D01*
X478161D01*
X479815Y303271D01*
X481081Y304537D01*
X481766Y306191D01*
Y307981D01*
X481081Y309635D01*
X479815Y310901D01*
X478161Y311586D01*
D02*
G37*
G36*
X568585Y305998D02*
X566795D01*
X565141Y305313D01*
X563875Y304047D01*
X563190Y302393D01*
Y300603D01*
X563875Y298949D01*
X565141Y297683D01*
X566795Y296998D01*
X568585D01*
X570239Y297683D01*
X571505Y298949D01*
X572190Y300603D01*
Y302393D01*
X571505Y304047D01*
X570239Y305313D01*
X568585Y305998D01*
D02*
G37*
G36*
X517277Y305490D02*
X515487D01*
X513833Y304805D01*
X512567Y303539D01*
X511882Y301885D01*
Y300095D01*
X512567Y298441D01*
X513833Y297175D01*
X514414Y296934D01*
X514942Y295298D01*
X514792Y295061D01*
X514341Y294933D01*
X513088Y294900D01*
X512073Y295915D01*
X510419Y296600D01*
X508629D01*
X506975Y295915D01*
X505709Y294649D01*
X505024Y292995D01*
Y291205D01*
X505709Y289551D01*
X506975Y288285D01*
X508629Y287600D01*
X510419D01*
X512073Y288285D01*
X513339Y289551D01*
X513411Y289725D01*
X515035D01*
X515107Y289551D01*
X516373Y288285D01*
X518027Y287600D01*
X519817D01*
X521471Y288285D01*
X522737Y289551D01*
X523422Y291205D01*
Y292995D01*
X522737Y294649D01*
X521471Y295915D01*
X520284Y296407D01*
X519837Y297707D01*
X519845Y298089D01*
X520197Y298441D01*
X520882Y300095D01*
Y301885D01*
X520197Y303539D01*
X518931Y304805D01*
X517277Y305490D01*
D02*
G37*
G36*
X485290Y299665D02*
X483500D01*
X481846Y298980D01*
X480580Y297714D01*
X479895Y296060D01*
Y294270D01*
X480580Y292616D01*
X481846Y291350D01*
X483500Y290665D01*
X485290D01*
X486944Y291350D01*
X488210Y292616D01*
X488895Y294270D01*
Y296060D01*
X488210Y297714D01*
X486944Y298980D01*
X485290Y299665D01*
D02*
G37*
G36*
X437676Y298640D02*
X436084D01*
X434614Y298031D01*
X433489Y296906D01*
X432880Y295436D01*
Y293844D01*
X433489Y292374D01*
X434614Y291249D01*
X436084Y290640D01*
X437676D01*
X439146Y291249D01*
X440271Y292374D01*
X440880Y293844D01*
Y295436D01*
X440271Y296906D01*
X439146Y298031D01*
X437676Y298640D01*
D02*
G37*
G36*
X498989Y297870D02*
X497199D01*
X495545Y297185D01*
X494279Y295919D01*
X493594Y294265D01*
Y292475D01*
X494279Y290821D01*
X495545Y289555D01*
X497199Y288870D01*
X498989D01*
X500643Y289555D01*
X501909Y290821D01*
X502594Y292475D01*
Y294265D01*
X501909Y295919D01*
X500643Y297185D01*
X498989Y297870D01*
D02*
G37*
G36*
X424434Y330046D02*
X278130D01*
X276982Y329570D01*
X276506Y328422D01*
Y287583D01*
X275006Y287110D01*
X274075Y288041D01*
X272421Y288726D01*
X270631D01*
X268977Y288041D01*
X267711Y286775D01*
X267026Y285121D01*
Y283331D01*
X267711Y281677D01*
X268977Y280411D01*
X270631Y279726D01*
X272421D01*
X274075Y280411D01*
X275006Y281343D01*
X276506Y280869D01*
Y273558D01*
X276982Y272410D01*
X278130Y271934D01*
X292354D01*
X293502Y272410D01*
X293978Y273558D01*
Y284126D01*
X329510D01*
Y283331D01*
X330195Y281677D01*
X331461Y280411D01*
X333115Y279726D01*
X334905D01*
X336559Y280411D01*
X337825Y281677D01*
X338510Y283331D01*
Y284126D01*
X381920D01*
X382259Y283400D01*
X382380Y282626D01*
X381419Y281666D01*
X380810Y280196D01*
Y278604D01*
X381419Y277134D01*
X382544Y276009D01*
X384014Y275400D01*
X385606D01*
X387076Y276009D01*
X388201Y277134D01*
X388810Y278604D01*
Y280196D01*
X388201Y281666D01*
X387240Y282626D01*
X387360Y283400D01*
X387700Y284126D01*
X424434D01*
X425582Y284602D01*
X426058Y285750D01*
Y328422D01*
X425582Y329570D01*
X424434Y330046D01*
D02*
G37*
G36*
X113284Y356716D02*
X40132D01*
X38984Y356240D01*
X34412Y351668D01*
X33936Y350520D01*
Y333756D01*
X34412Y332608D01*
X37968Y329052D01*
X39116Y328576D01*
X40264Y329052D01*
X40297Y329084D01*
X95209D01*
X96164Y327584D01*
X95830Y326777D01*
Y324987D01*
X96515Y323333D01*
X97781Y322067D01*
X99435Y321382D01*
X101225D01*
X102879Y322067D01*
X103761Y322949D01*
X107850Y318860D01*
Y285342D01*
X93707D01*
X92874Y286589D01*
X92892Y286633D01*
Y288423D01*
X92207Y290077D01*
X90941Y291343D01*
X89287Y292028D01*
X87497D01*
X85843Y291343D01*
X84577Y290077D01*
X83892Y288423D01*
Y286633D01*
X83910Y286589D01*
X83077Y285342D01*
X80264D01*
X79116Y284866D01*
X78640Y283718D01*
Y268478D01*
X79116Y267330D01*
X80264Y266854D01*
X107850D01*
Y220064D01*
X89209D01*
X88736Y221564D01*
X89667Y222495D01*
X90352Y224149D01*
Y225939D01*
X89667Y227593D01*
X88401Y228859D01*
X86747Y229544D01*
X84957D01*
X83303Y228859D01*
X82037Y227593D01*
X81352Y225939D01*
Y224149D01*
X82037Y222495D01*
X82969Y221564D01*
X82495Y220064D01*
X80207D01*
X79684Y220847D01*
Y222637D01*
X78999Y224291D01*
X77733Y225557D01*
X76079Y226242D01*
X74289D01*
X72635Y225557D01*
X71369Y224291D01*
X70684Y222637D01*
Y220847D01*
X71369Y219193D01*
X72635Y217927D01*
X73466Y217583D01*
X73860Y215856D01*
X62091Y204088D01*
X62070Y204037D01*
X60585Y204652D01*
X58795D01*
X57141Y203967D01*
X55875Y202701D01*
X55190Y201047D01*
Y199257D01*
X55875Y197603D01*
X57141Y196337D01*
X57532Y195368D01*
X50074Y178284D01*
X50068Y177947D01*
X49938Y177635D01*
Y156718D01*
X50414Y155570D01*
X51562Y155094D01*
X67818D01*
X68966Y155570D01*
X69442Y156718D01*
Y173890D01*
X152490D01*
X154995Y171385D01*
Y138938D01*
X155470Y137790D01*
X156618Y137314D01*
X158756D01*
X159138Y136214D01*
X159169Y135814D01*
X157983Y134629D01*
X157298Y132975D01*
Y131185D01*
X157983Y129531D01*
X159249Y128265D01*
X160903Y127580D01*
X162693D01*
X164347Y128265D01*
X165613Y129531D01*
X166298Y131185D01*
Y132975D01*
X165613Y134629D01*
X164428Y135814D01*
X164458Y136214D01*
X164840Y137314D01*
X175260D01*
X176408Y137790D01*
X176884Y138938D01*
Y182005D01*
X176878Y182019D01*
X177721Y182369D01*
X178565Y183213D01*
X179022Y184315D01*
Y185509D01*
X178565Y186611D01*
X177721Y187455D01*
X176878Y187805D01*
X176884Y187819D01*
Y213106D01*
X176408Y214254D01*
X165740Y224922D01*
X164592Y225398D01*
X126592D01*
Y265570D01*
X128092Y266192D01*
X128349Y265935D01*
X129451Y265478D01*
X130645D01*
X131747Y265935D01*
X132591Y266779D01*
X133048Y267881D01*
Y269075D01*
X132591Y270177D01*
X131747Y271021D01*
X130645Y271478D01*
X129451D01*
X128349Y271021D01*
X128092Y270764D01*
X126592Y271386D01*
Y343408D01*
X126116Y344556D01*
X114432Y356240D01*
X113284Y356716D01*
D02*
G37*
G36*
X682377Y292282D02*
X680587D01*
X678933Y291597D01*
X677667Y290331D01*
X676982Y288677D01*
Y286887D01*
X677667Y285233D01*
X678933Y283967D01*
X680587Y283282D01*
X682377D01*
X684031Y283967D01*
X685297Y285233D01*
X685982Y286887D01*
Y288677D01*
X685297Y290331D01*
X684031Y291597D01*
X682377Y292282D01*
D02*
G37*
G36*
X811155Y291520D02*
X809365D01*
X807711Y290835D01*
X806445Y289569D01*
X805760Y287915D01*
Y286125D01*
X806445Y284471D01*
X807711Y283205D01*
X809365Y282520D01*
X811155D01*
X812809Y283205D01*
X814075Y284471D01*
X814760Y286125D01*
Y287915D01*
X814075Y289569D01*
X812809Y290835D01*
X811155Y291520D01*
D02*
G37*
G36*
X245497D02*
X243707D01*
X242053Y290835D01*
X240787Y289569D01*
X240102Y287915D01*
Y286125D01*
X240787Y284471D01*
X242053Y283205D01*
X243707Y282520D01*
X245497D01*
X247151Y283205D01*
X248417Y284471D01*
X249102Y286125D01*
Y287915D01*
X248417Y289569D01*
X247151Y290835D01*
X245497Y291520D01*
D02*
G37*
G36*
X944251Y288218D02*
X942461D01*
X940807Y287533D01*
X939541Y286267D01*
X938856Y284613D01*
Y282823D01*
X939541Y281169D01*
X940807Y279903D01*
X942461Y279218D01*
X944251D01*
X945905Y279903D01*
X947171Y281169D01*
X947856Y282823D01*
Y284613D01*
X947171Y286267D01*
X945905Y287533D01*
X944251Y288218D01*
D02*
G37*
G36*
X851033Y284662D02*
X849243D01*
X847589Y283977D01*
X846323Y282711D01*
X845638Y281057D01*
Y279267D01*
X846323Y277613D01*
X847589Y276347D01*
X849243Y275662D01*
X851033D01*
X852687Y276347D01*
X853953Y277613D01*
X854638Y279267D01*
Y281057D01*
X853953Y282711D01*
X852687Y283977D01*
X851033Y284662D01*
D02*
G37*
G36*
X897824Y278582D02*
X896432D01*
X895145Y278049D01*
X894161Y277065D01*
X893628Y275778D01*
Y274386D01*
X894161Y273099D01*
X895145Y272115D01*
X896432Y271582D01*
X897824D01*
X899111Y272115D01*
X900095Y273099D01*
X900628Y274386D01*
Y275778D01*
X900095Y277065D01*
X899111Y278049D01*
X897824Y278582D01*
D02*
G37*
G36*
X646817Y304474D02*
X645027D01*
X643373Y303789D01*
X642107Y302523D01*
X641422Y300869D01*
Y299079D01*
X642107Y297425D01*
X643373Y296159D01*
X645027Y295474D01*
X646817D01*
X646970Y295537D01*
X647820Y294266D01*
X646933Y293379D01*
X646248Y291725D01*
Y289935D01*
X646864Y288448D01*
X646339Y287036D01*
X646297Y286948D01*
X644643Y286263D01*
X643377Y284997D01*
X642692Y283343D01*
Y281553D01*
X643377Y279899D01*
X644643Y278633D01*
X646297Y277948D01*
X646653D01*
X647274Y276448D01*
X646679Y275853D01*
X645994Y274199D01*
Y272409D01*
X646679Y270755D01*
X647945Y269489D01*
X649599Y268804D01*
X651389D01*
X653043Y269489D01*
X654309Y270755D01*
X654994Y272409D01*
Y274199D01*
X654309Y275853D01*
X653043Y277119D01*
X651389Y277804D01*
X651033D01*
X650412Y279304D01*
X651007Y279899D01*
X651692Y281553D01*
Y283343D01*
X651076Y284830D01*
X651601Y286242D01*
X651643Y286330D01*
X653297Y287015D01*
X654563Y288281D01*
X655248Y289935D01*
Y291725D01*
X654563Y293379D01*
X653297Y294645D01*
X651643Y295330D01*
X649853D01*
X649700Y295267D01*
X648850Y296538D01*
X649737Y297425D01*
X650422Y299079D01*
Y300869D01*
X649737Y302523D01*
X648471Y303789D01*
X646817Y304474D01*
D02*
G37*
G36*
X786517Y277550D02*
X784727D01*
X783073Y276865D01*
X781807Y275599D01*
X781122Y273945D01*
Y272155D01*
X781807Y270501D01*
X783073Y269235D01*
X784727Y268550D01*
X786517D01*
X788171Y269235D01*
X789437Y270501D01*
X790122Y272155D01*
Y273945D01*
X789437Y275599D01*
X788171Y276865D01*
X786517Y277550D01*
D02*
G37*
G36*
X809631Y276280D02*
X807841D01*
X806187Y275595D01*
X804921Y274329D01*
X804236Y272675D01*
Y270885D01*
X804921Y269231D01*
X806187Y267965D01*
X807841Y267280D01*
X809631D01*
X811285Y267965D01*
X812551Y269231D01*
X813236Y270885D01*
Y272675D01*
X812551Y274329D01*
X811285Y275595D01*
X809631Y276280D01*
D02*
G37*
G36*
X520171Y263357D02*
X518978D01*
X517875Y262901D01*
X517031Y262057D01*
X516575Y260954D01*
Y259761D01*
X517031Y258658D01*
X517875Y257814D01*
X518978Y257357D01*
X520171D01*
X521274Y257814D01*
X522118Y258658D01*
X522575Y259761D01*
Y260954D01*
X522118Y262057D01*
X521274Y262901D01*
X520171Y263357D01*
D02*
G37*
G36*
X795153Y265612D02*
X793363D01*
X791709Y264927D01*
X790443Y263661D01*
X789758Y262007D01*
Y260217D01*
X790443Y258563D01*
X791709Y257297D01*
X793363Y256612D01*
X795153D01*
X796807Y257297D01*
X798073Y258563D01*
X798758Y260217D01*
Y262007D01*
X798073Y263661D01*
X796807Y264927D01*
X795153Y265612D01*
D02*
G37*
G36*
X779405D02*
X777615D01*
X775961Y264927D01*
X774695Y263661D01*
X774010Y262007D01*
Y260217D01*
X774695Y258563D01*
X775961Y257297D01*
X777615Y256612D01*
X779405D01*
X781059Y257297D01*
X782325Y258563D01*
X783010Y260217D01*
Y262007D01*
X782325Y263661D01*
X781059Y264927D01*
X779405Y265612D01*
D02*
G37*
G36*
X573289Y264865D02*
X571499D01*
X569845Y264179D01*
X568579Y262914D01*
X567894Y261260D01*
Y259470D01*
X568579Y257815D01*
X569845Y256550D01*
X571499Y255865D01*
X573289D01*
X574943Y256550D01*
X576209Y257815D01*
X576894Y259470D01*
Y261260D01*
X576209Y262914D01*
X574943Y264179D01*
X573289Y264865D01*
D02*
G37*
G36*
X855859Y262056D02*
X854069D01*
X852415Y261371D01*
X851149Y260105D01*
X850464Y258451D01*
Y256661D01*
X851149Y255007D01*
X852415Y253741D01*
X854069Y253056D01*
X855859D01*
X857513Y253741D01*
X858779Y255007D01*
X859464Y256661D01*
Y258451D01*
X858779Y260105D01*
X857513Y261371D01*
X855859Y262056D01*
D02*
G37*
G36*
X448443Y261802D02*
X446653D01*
X444999Y261117D01*
X443733Y259851D01*
X443048Y258197D01*
Y256407D01*
X443733Y254753D01*
X444999Y253487D01*
X446653Y252802D01*
X448443D01*
X450097Y253487D01*
X451363Y254753D01*
X452048Y256407D01*
Y258197D01*
X451363Y259851D01*
X450097Y261117D01*
X448443Y261802D01*
D02*
G37*
G36*
X842651Y261294D02*
X840861D01*
X839207Y260609D01*
X837941Y259343D01*
X837256Y257689D01*
Y255899D01*
X837941Y254245D01*
X839207Y252979D01*
X840861Y252294D01*
X842651D01*
X844305Y252979D01*
X845571Y254245D01*
X846256Y255899D01*
Y257689D01*
X845571Y259343D01*
X844305Y260609D01*
X842651Y261294D01*
D02*
G37*
G36*
X558127Y257000D02*
X556933D01*
X555831Y256543D01*
X554987Y255699D01*
X554530Y254597D01*
Y253403D01*
X554987Y252301D01*
X555831Y251457D01*
X556933Y251000D01*
X558127D01*
X559229Y251457D01*
X560073Y252301D01*
X560530Y253403D01*
Y254597D01*
X560073Y255699D01*
X559229Y256543D01*
X558127Y257000D01*
D02*
G37*
G36*
X391956Y258000D02*
X390364D01*
X388894Y257391D01*
X387769Y256266D01*
X387160Y254796D01*
Y253204D01*
X387769Y251734D01*
X388894Y250609D01*
X390364Y250000D01*
X391956D01*
X393426Y250609D01*
X394551Y251734D01*
X395160Y253204D01*
Y254796D01*
X394551Y256266D01*
X393426Y257391D01*
X391956Y258000D01*
D02*
G37*
G36*
X637165Y255960D02*
X635375D01*
X633721Y255275D01*
X632455Y254009D01*
X631770Y252355D01*
Y250565D01*
X632455Y248911D01*
X633721Y247645D01*
X635375Y246960D01*
X637165D01*
X638819Y247645D01*
X640085Y248911D01*
X640770Y250565D01*
Y252355D01*
X640085Y254009D01*
X638819Y255275D01*
X637165Y255960D01*
D02*
G37*
G36*
X994988Y261538D02*
X977988D01*
Y244538D01*
X994988D01*
Y261538D01*
D02*
G37*
G36*
X254895Y252658D02*
X253105D01*
X251451Y251973D01*
X250185Y250707D01*
X249500Y249053D01*
Y247263D01*
X250185Y245609D01*
X251451Y244343D01*
X253105Y243658D01*
X254895D01*
X256549Y244343D01*
X257815Y245609D01*
X258500Y247263D01*
Y249053D01*
X257815Y250707D01*
X256549Y251973D01*
X254895Y252658D01*
D02*
G37*
G36*
X479939Y250880D02*
X478149D01*
X476495Y250195D01*
X475229Y248929D01*
X474544Y247275D01*
Y245485D01*
X475229Y243831D01*
X476495Y242565D01*
X478149Y241880D01*
X479939D01*
X481593Y242565D01*
X482859Y243831D01*
X483544Y245485D01*
Y247275D01*
X482859Y248929D01*
X481593Y250195D01*
X479939Y250880D01*
D02*
G37*
G36*
X538927Y246840D02*
X537733D01*
X536631Y246383D01*
X535787Y245539D01*
X535330Y244437D01*
Y243243D01*
X535787Y242141D01*
X536631Y241297D01*
X537733Y240840D01*
X538927D01*
X540029Y241297D01*
X540873Y242141D01*
X541330Y243243D01*
Y244437D01*
X540873Y245539D01*
X540029Y246383D01*
X538927Y246840D01*
D02*
G37*
G36*
X855351Y248340D02*
X853561D01*
X851907Y247655D01*
X850641Y246389D01*
X849956Y244735D01*
Y242945D01*
X850641Y241291D01*
X851907Y240025D01*
X853561Y239340D01*
X855351D01*
X857005Y240025D01*
X858271Y241291D01*
X858956Y242945D01*
Y244735D01*
X858271Y246389D01*
X857005Y247655D01*
X855351Y248340D01*
D02*
G37*
G36*
X45450Y258268D02*
X43450D01*
X41688Y258036D01*
X40046Y257356D01*
X38636Y256274D01*
X37554Y254864D01*
X36874Y253222D01*
X36642Y251460D01*
X36874Y249698D01*
X37554Y248056D01*
X38636Y246646D01*
X40046Y245564D01*
X41688Y244884D01*
X43450Y244652D01*
X45450D01*
X47212Y244884D01*
X47800Y245127D01*
X48948Y243979D01*
X48840Y243719D01*
Y241929D01*
X49525Y240275D01*
X50791Y239009D01*
X52445Y238324D01*
X54235D01*
X55889Y239009D01*
X57155Y240275D01*
X57840Y241929D01*
Y243719D01*
X57155Y245373D01*
X55889Y246639D01*
X54235Y247324D01*
X52585D01*
X52560Y247339D01*
X52105Y247809D01*
X51564Y248583D01*
X52026Y249698D01*
X52258Y251460D01*
X52026Y253222D01*
X51346Y254864D01*
X50264Y256274D01*
X48854Y257356D01*
X47212Y258036D01*
X45450Y258268D01*
D02*
G37*
G36*
X491369Y246816D02*
X489579D01*
X487925Y246131D01*
X486659Y244865D01*
X485974Y243211D01*
Y241421D01*
X486659Y239767D01*
X487925Y238501D01*
X489579Y237816D01*
X491369D01*
X493023Y238501D01*
X494289Y239767D01*
X494974Y241421D01*
Y243211D01*
X494289Y244865D01*
X493023Y246131D01*
X491369Y246816D01*
D02*
G37*
G36*
X170976Y245046D02*
X169384D01*
X167914Y244437D01*
X166789Y243312D01*
X166180Y241842D01*
Y240250D01*
X166789Y238780D01*
X167914Y237655D01*
X169384Y237046D01*
X170976D01*
X172446Y237655D01*
X173571Y238780D01*
X174180Y240250D01*
Y241842D01*
X173571Y243312D01*
X172446Y244437D01*
X170976Y245046D01*
D02*
G37*
G36*
X918681Y246010D02*
X916891D01*
X915237Y245324D01*
X913971Y244059D01*
X913286Y242405D01*
Y240614D01*
X913971Y238961D01*
X915237Y237695D01*
X916891Y237010D01*
X918681D01*
X920335Y237695D01*
X921601Y238961D01*
X922286Y240614D01*
Y242405D01*
X921601Y244059D01*
X920335Y245324D01*
X918681Y246010D01*
D02*
G37*
G36*
X841635Y245800D02*
X839845D01*
X838191Y245115D01*
X836925Y243849D01*
X836240Y242195D01*
Y240405D01*
X836925Y238751D01*
X838191Y237485D01*
X839845Y236800D01*
X841635D01*
X843289Y237485D01*
X844555Y238751D01*
X845240Y240405D01*
Y242195D01*
X844555Y243849D01*
X843289Y245115D01*
X841635Y245800D01*
D02*
G37*
G36*
X450221Y241990D02*
X448431D01*
X446777Y241305D01*
X445511Y240039D01*
X444826Y238385D01*
Y236595D01*
X445511Y234941D01*
X446777Y233675D01*
X448431Y232990D01*
X450221D01*
X451875Y233675D01*
X453141Y234941D01*
X453826Y236595D01*
Y238385D01*
X453141Y240039D01*
X451875Y241305D01*
X450221Y241990D01*
D02*
G37*
G36*
X19139Y238712D02*
X17945D01*
X16843Y238255D01*
X15999Y237411D01*
X15542Y236309D01*
Y235115D01*
X15999Y234013D01*
X16843Y233169D01*
X17945Y232712D01*
X19139D01*
X20241Y233169D01*
X21085Y234013D01*
X21542Y235115D01*
Y236309D01*
X21085Y237411D01*
X20241Y238255D01*
X19139Y238712D01*
D02*
G37*
G36*
X210699Y240720D02*
X208909D01*
X207255Y240035D01*
X205989Y238769D01*
X205304Y237115D01*
Y235325D01*
X205989Y233671D01*
X207255Y232405D01*
X208909Y231720D01*
X210699D01*
X212353Y232405D01*
X213619Y233671D01*
X214304Y235325D01*
Y237115D01*
X213619Y238769D01*
X212353Y240035D01*
X210699Y240720D01*
D02*
G37*
G36*
X559397Y241760D02*
X558203D01*
X557101Y241303D01*
X556257Y240459D01*
X555800Y239357D01*
Y238163D01*
X556257Y237061D01*
X557101Y236217D01*
X558203Y235760D01*
X559397D01*
X560013Y236015D01*
X561135Y234893D01*
X560880Y234277D01*
Y233083D01*
X561337Y231981D01*
X562181Y231137D01*
X563283Y230680D01*
X564477D01*
X565579Y231137D01*
X566423Y231981D01*
X566880Y233083D01*
Y234277D01*
X566423Y235379D01*
X565579Y236223D01*
X564477Y236680D01*
X563283D01*
X562667Y236425D01*
X561545Y237547D01*
X561800Y238163D01*
Y239357D01*
X561343Y240459D01*
X560499Y241303D01*
X559397Y241760D01*
D02*
G37*
G36*
X598557Y250372D02*
X596767D01*
X595113Y249687D01*
X593847Y248421D01*
X593162Y246767D01*
Y244977D01*
X591934Y244022D01*
X591433D01*
X589779Y243337D01*
X588513Y242071D01*
X587828Y240417D01*
Y238627D01*
X588513Y236973D01*
X589779Y235707D01*
X590068Y235587D01*
X590420Y233818D01*
X590291Y233689D01*
X589606Y232035D01*
Y230245D01*
X590291Y228591D01*
X591557Y227325D01*
X593211Y226640D01*
X595001D01*
X596655Y227325D01*
X597921Y228591D01*
X598606Y230245D01*
Y232035D01*
X597921Y233689D01*
X596655Y234955D01*
X596366Y235075D01*
X596014Y236844D01*
X596143Y236973D01*
X596828Y238627D01*
Y240417D01*
X598056Y241372D01*
X598557D01*
X600211Y242057D01*
X601477Y243323D01*
X602162Y244977D01*
Y246767D01*
X601477Y248421D01*
X600211Y249687D01*
X598557Y250372D01*
D02*
G37*
G36*
X841635Y234116D02*
X839845D01*
X838191Y233431D01*
X836925Y232165D01*
X836240Y230511D01*
Y228721D01*
X836925Y227067D01*
X838191Y225801D01*
X839845Y225116D01*
X841635D01*
X843289Y225801D01*
X844555Y227067D01*
X845240Y228721D01*
Y230511D01*
X844555Y232165D01*
X843289Y233431D01*
X841635Y234116D01*
D02*
G37*
G36*
X469525Y243768D02*
X467735D01*
X466081Y243083D01*
X464815Y241817D01*
X464130Y240163D01*
Y238373D01*
X464815Y236719D01*
X466081Y235453D01*
X467735Y234768D01*
X469014D01*
X469357Y234033D01*
X469474Y233268D01*
X468371Y232165D01*
X467686Y230511D01*
Y228721D01*
X468371Y227067D01*
X469637Y225801D01*
X471291Y225116D01*
X473081D01*
X474735Y225801D01*
X476001Y227067D01*
X476686Y228721D01*
Y230511D01*
X476001Y232165D01*
X474735Y233431D01*
X473081Y234116D01*
X471802D01*
X471459Y234851D01*
X471342Y235616D01*
X472445Y236719D01*
X473130Y238373D01*
Y240163D01*
X472445Y241817D01*
X471179Y243083D01*
X469525Y243768D01*
D02*
G37*
G36*
X502037Y244022D02*
X500247D01*
X498593Y243337D01*
X497327Y242071D01*
X496642Y240417D01*
Y238627D01*
X497327Y236973D01*
X498593Y235707D01*
X499231Y235443D01*
X499426Y235362D01*
X499128Y233862D01*
X498856Y233862D01*
X497707D01*
X496053Y233177D01*
X494787Y231911D01*
X494102Y230257D01*
Y228467D01*
X494787Y226813D01*
X496053Y225547D01*
X497707Y224862D01*
X499497D01*
X501151Y225547D01*
X502417Y226813D01*
X503102Y228467D01*
Y230257D01*
X502417Y231911D01*
X501151Y233177D01*
X500513Y233441D01*
X500318Y233522D01*
X500616Y235022D01*
X500888Y235022D01*
X502037D01*
X503691Y235707D01*
X504957Y236973D01*
X505642Y238627D01*
Y240417D01*
X504957Y242071D01*
X503691Y243337D01*
X502037Y244022D01*
D02*
G37*
G36*
X855605Y233608D02*
X853815D01*
X852161Y232923D01*
X850895Y231657D01*
X850210Y230003D01*
Y228213D01*
X850895Y226559D01*
X852161Y225293D01*
X853815Y224608D01*
X855605D01*
X857259Y225293D01*
X858525Y226559D01*
X859210Y228213D01*
Y230003D01*
X858525Y231657D01*
X857259Y232923D01*
X855605Y233608D01*
D02*
G37*
G36*
X987607Y236538D02*
X985369D01*
X983207Y235959D01*
X981269Y234840D01*
X979686Y233257D01*
X978567Y231319D01*
X977988Y229157D01*
Y226919D01*
X978567Y224757D01*
X979686Y222819D01*
X981269Y221236D01*
X983207Y220117D01*
X985369Y219538D01*
X987607D01*
X989769Y220117D01*
X991707Y221236D01*
X993290Y222819D01*
X994409Y224757D01*
X994988Y226919D01*
Y229157D01*
X994409Y231319D01*
X993290Y233257D01*
X991707Y234840D01*
X989769Y235959D01*
X987607Y236538D01*
D02*
G37*
G36*
X416086Y226250D02*
X414494D01*
X413024Y225641D01*
X411899Y224516D01*
X411290Y223046D01*
Y221454D01*
X411899Y219984D01*
X413024Y218859D01*
X414494Y218250D01*
X416086D01*
X417556Y218859D01*
X418681Y219984D01*
X419290Y221454D01*
Y223046D01*
X418681Y224516D01*
X417556Y225641D01*
X416086Y226250D01*
D02*
G37*
G36*
X808869Y221924D02*
X807079D01*
X805425Y221239D01*
X804159Y219973D01*
X803474Y218319D01*
Y216529D01*
X804159Y214875D01*
X805425Y213609D01*
X807079Y212924D01*
X808869D01*
X810523Y213609D01*
X811789Y214875D01*
X812474Y216529D01*
Y218319D01*
X811789Y219973D01*
X810523Y221239D01*
X808869Y221924D01*
D02*
G37*
G36*
X786517Y220654D02*
X784727D01*
X783073Y219969D01*
X781807Y218703D01*
X781122Y217049D01*
Y215259D01*
X781807Y213605D01*
X783073Y212339D01*
X784727Y211654D01*
X786517D01*
X788171Y212339D01*
X789437Y213605D01*
X790122Y215259D01*
Y217049D01*
X789437Y218703D01*
X788171Y219969D01*
X786517Y220654D01*
D02*
G37*
G36*
X886394Y214320D02*
X885002D01*
X883715Y213787D01*
X882731Y212803D01*
X882198Y211516D01*
Y210124D01*
X882731Y208837D01*
X883715Y207853D01*
X885002Y207320D01*
X886394D01*
X887681Y207853D01*
X888665Y208837D01*
X889198Y210124D01*
Y211516D01*
X888665Y212803D01*
X887681Y213787D01*
X886394Y214320D01*
D02*
G37*
G36*
X45450Y213768D02*
X43450D01*
X41688Y213536D01*
X40046Y212856D01*
X38636Y211774D01*
X37554Y210364D01*
X36874Y208722D01*
X36642Y206960D01*
X36874Y205198D01*
X37554Y203556D01*
X38636Y202146D01*
X40046Y201064D01*
X41688Y200384D01*
X43450Y200152D01*
X45450D01*
X47212Y200384D01*
X48854Y201064D01*
X50264Y202146D01*
X51346Y203556D01*
X52026Y205198D01*
X52258Y206960D01*
X52026Y208722D01*
X51346Y210364D01*
X50264Y211774D01*
X48854Y212856D01*
X47212Y213536D01*
X45450Y213768D01*
D02*
G37*
G36*
X855637Y206787D02*
X853847D01*
X852193Y206102D01*
X850927Y204836D01*
X850242Y203182D01*
Y201392D01*
X850927Y199738D01*
X852193Y198472D01*
X853847Y197787D01*
X855637D01*
X857291Y198472D01*
X858557Y199738D01*
X859242Y201392D01*
Y203182D01*
X858557Y204836D01*
X857291Y206102D01*
X855637Y206787D01*
D02*
G37*
G36*
X438747Y203660D02*
X437553D01*
X436451Y203203D01*
X435607Y202359D01*
X435150Y201257D01*
Y200063D01*
X435607Y198961D01*
X436451Y198117D01*
X437553Y197660D01*
X438747D01*
X439849Y198117D01*
X440693Y198961D01*
X441150Y200063D01*
Y201257D01*
X440693Y202359D01*
X439849Y203203D01*
X438747Y203660D01*
D02*
G37*
G36*
X210191Y205668D02*
X208401D01*
X206747Y204983D01*
X205481Y203717D01*
X204796Y202063D01*
Y200273D01*
X205481Y198619D01*
X206747Y197353D01*
X208401Y196668D01*
X210191D01*
X211845Y197353D01*
X213111Y198619D01*
X213796Y200273D01*
Y202063D01*
X213111Y203717D01*
X211845Y204983D01*
X210191Y205668D01*
D02*
G37*
G36*
X244735Y204906D02*
X242945D01*
X241291Y204221D01*
X240025Y202955D01*
X239340Y201301D01*
Y199511D01*
X240025Y197857D01*
X241291Y196591D01*
X242945Y195906D01*
X244735D01*
X246389Y196591D01*
X247655Y197857D01*
X248340Y199511D01*
Y201301D01*
X247655Y202955D01*
X246389Y204221D01*
X244735Y204906D01*
D02*
G37*
G36*
X937139Y195254D02*
X935349D01*
X933695Y194569D01*
X932429Y193303D01*
X931744Y191649D01*
Y189859D01*
X932429Y188205D01*
X933695Y186939D01*
X935349Y186254D01*
X937139D01*
X938793Y186939D01*
X940059Y188205D01*
X940744Y189859D01*
Y191649D01*
X940059Y193303D01*
X938793Y194569D01*
X937139Y195254D01*
D02*
G37*
G36*
X214001Y195000D02*
X212211D01*
X210557Y194315D01*
X209291Y193049D01*
X208606Y191395D01*
Y189605D01*
X209291Y187951D01*
X210557Y186685D01*
X212211Y186000D01*
X214001D01*
X215655Y186685D01*
X216921Y187951D01*
X217606Y189605D01*
Y191395D01*
X216921Y193049D01*
X215655Y194315D01*
X214001Y195000D01*
D02*
G37*
G36*
X805059Y193476D02*
X803269D01*
X801615Y192791D01*
X800349Y191525D01*
X799664Y189871D01*
Y188081D01*
X800349Y186427D01*
X801615Y185161D01*
X803269Y184476D01*
X805059D01*
X806713Y185161D01*
X807979Y186427D01*
X808664Y188081D01*
Y189871D01*
X807979Y191525D01*
X806713Y192791D01*
X805059Y193476D01*
D02*
G37*
G36*
X577177Y189690D02*
X575983D01*
X574881Y189233D01*
X574037Y188389D01*
X573580Y187287D01*
Y186093D01*
X574037Y184991D01*
X574881Y184147D01*
X575983Y183690D01*
X577177D01*
X578279Y184147D01*
X579123Y184991D01*
X579580Y186093D01*
Y187287D01*
X579123Y188389D01*
X578279Y189233D01*
X577177Y189690D01*
D02*
G37*
G36*
X189065Y187912D02*
X187871D01*
X186769Y187455D01*
X185925Y186611D01*
X185468Y185509D01*
Y184315D01*
X185925Y183213D01*
X186769Y182369D01*
X187871Y181912D01*
X189065D01*
X190167Y182369D01*
X191011Y183213D01*
X191468Y184315D01*
Y185509D01*
X191011Y186611D01*
X190167Y187455D01*
X189065Y187912D01*
D02*
G37*
G36*
X501965Y187432D02*
X500772D01*
X499669Y186975D01*
X498825Y186131D01*
X498368Y185028D01*
Y183835D01*
X498825Y182732D01*
X499669Y181888D01*
X500772Y181432D01*
X501965D01*
X503068Y181888D01*
X503912Y182732D01*
X504369Y183835D01*
Y185028D01*
X503912Y186131D01*
X503068Y186975D01*
X501965Y187432D01*
D02*
G37*
G36*
X457079Y182300D02*
X455289D01*
X453635Y181615D01*
X452369Y180349D01*
X451684Y178695D01*
Y176905D01*
X452369Y175251D01*
X453635Y173985D01*
X455289Y173300D01*
X457079D01*
X458733Y173985D01*
X459999Y175251D01*
X460684Y176905D01*
Y178695D01*
X459999Y180349D01*
X458733Y181615D01*
X457079Y182300D01*
D02*
G37*
G36*
X207651Y179506D02*
X205861D01*
X204207Y178821D01*
X202941Y177555D01*
X202256Y175901D01*
Y174111D01*
X202941Y172457D01*
X204207Y171191D01*
X205861Y170506D01*
X207651D01*
X209305Y171191D01*
X210571Y172457D01*
X211256Y174111D01*
Y175901D01*
X210571Y177555D01*
X209305Y178821D01*
X207651Y179506D01*
D02*
G37*
G36*
X693553Y174934D02*
X691763D01*
X690109Y174249D01*
X688843Y172983D01*
X688158Y171329D01*
Y169539D01*
X688843Y167885D01*
X690109Y166619D01*
X691763Y165934D01*
X693553D01*
X695207Y166619D01*
X696473Y167885D01*
X697158Y169539D01*
Y171329D01*
X696473Y172983D01*
X695207Y174249D01*
X693553Y174934D01*
D02*
G37*
G36*
X196148Y164266D02*
X194358D01*
X192704Y163581D01*
X191439Y162315D01*
X190753Y160661D01*
Y158871D01*
X191439Y157217D01*
X192704Y155951D01*
X194358Y155266D01*
X196148D01*
X197802Y155951D01*
X199068Y157217D01*
X199753Y158871D01*
Y160661D01*
X199068Y162315D01*
X197802Y163581D01*
X196148Y164266D01*
D02*
G37*
G36*
X208159Y162996D02*
X206369D01*
X204715Y162311D01*
X203449Y161045D01*
X202764Y159391D01*
Y157601D01*
X203449Y155947D01*
X204715Y154681D01*
X206369Y153996D01*
X208159D01*
X209813Y154681D01*
X211079Y155947D01*
X211764Y157601D01*
Y159391D01*
X211079Y161045D01*
X209813Y162311D01*
X208159Y162996D01*
D02*
G37*
G36*
X429175Y171560D02*
X426805D01*
X424516Y170947D01*
X422464Y169762D01*
X420788Y168086D01*
X419603Y166034D01*
X418990Y163745D01*
Y161375D01*
X419603Y159086D01*
X420788Y157034D01*
X422464Y155358D01*
X424516Y154173D01*
X426805Y153560D01*
X429175D01*
X431464Y154173D01*
X433516Y155358D01*
X435192Y157034D01*
X436377Y159086D01*
X436990Y161375D01*
Y163745D01*
X436377Y166034D01*
X435192Y168086D01*
X433516Y169762D01*
X431464Y170947D01*
X429175Y171560D01*
D02*
G37*
G36*
X403775D02*
X401405D01*
X399116Y170947D01*
X397064Y169762D01*
X395388Y168086D01*
X394203Y166034D01*
X393590Y163745D01*
Y161375D01*
X394203Y159086D01*
X395388Y157034D01*
X397064Y155358D01*
X399116Y154173D01*
X401405Y153560D01*
X403775D01*
X406064Y154173D01*
X408116Y155358D01*
X409792Y157034D01*
X410977Y159086D01*
X411590Y161375D01*
Y163745D01*
X410977Y166034D01*
X409792Y168086D01*
X408116Y169762D01*
X406064Y170947D01*
X403775Y171560D01*
D02*
G37*
G36*
X378375D02*
X376005D01*
X373716Y170947D01*
X371664Y169762D01*
X369988Y168086D01*
X368803Y166034D01*
X368190Y163745D01*
Y161375D01*
X368803Y159086D01*
X369988Y157034D01*
X371664Y155358D01*
X373716Y154173D01*
X376005Y153560D01*
X378375D01*
X380664Y154173D01*
X382716Y155358D01*
X384392Y157034D01*
X385577Y159086D01*
X386190Y161375D01*
Y163745D01*
X385577Y166034D01*
X384392Y168086D01*
X382716Y169762D01*
X380664Y170947D01*
X378375Y171560D01*
D02*
G37*
G36*
X352975D02*
X350605D01*
X348316Y170947D01*
X346264Y169762D01*
X344588Y168086D01*
X343403Y166034D01*
X342790Y163745D01*
Y161375D01*
X343403Y159086D01*
X344588Y157034D01*
X346264Y155358D01*
X348316Y154173D01*
X350605Y153560D01*
X352975D01*
X355264Y154173D01*
X357316Y155358D01*
X358992Y157034D01*
X360177Y159086D01*
X360790Y161375D01*
Y163745D01*
X360177Y166034D01*
X358992Y168086D01*
X357316Y169762D01*
X355264Y170947D01*
X352975Y171560D01*
D02*
G37*
G36*
X327575D02*
X325205D01*
X322916Y170947D01*
X320864Y169762D01*
X319188Y168086D01*
X318003Y166034D01*
X317390Y163745D01*
Y161375D01*
X318003Y159086D01*
X319188Y157034D01*
X320864Y155358D01*
X322916Y154173D01*
X325205Y153560D01*
X327575D01*
X329864Y154173D01*
X331916Y155358D01*
X333592Y157034D01*
X334777Y159086D01*
X335390Y161375D01*
Y163745D01*
X334777Y166034D01*
X333592Y168086D01*
X331916Y169762D01*
X329864Y170947D01*
X327575Y171560D01*
D02*
G37*
G36*
X309990D02*
X291990D01*
Y153560D01*
X309990D01*
Y171560D01*
D02*
G37*
G36*
X268611Y160202D02*
X266821D01*
X265167Y159517D01*
X263901Y158251D01*
X263216Y156597D01*
Y154807D01*
X263901Y153153D01*
X265167Y151887D01*
X266821Y151202D01*
X268611D01*
X270265Y151887D01*
X271531Y153153D01*
X272216Y154807D01*
Y156597D01*
X271531Y158251D01*
X270265Y159517D01*
X268611Y160202D01*
D02*
G37*
G36*
X23247Y155630D02*
X21457D01*
X19803Y154945D01*
X18537Y153679D01*
X17852Y152025D01*
Y150235D01*
X18537Y148581D01*
X19803Y147315D01*
X21457Y146630D01*
X23247D01*
X24901Y147315D01*
X26167Y148581D01*
X26852Y150235D01*
Y152025D01*
X26167Y153679D01*
X24901Y154945D01*
X23247Y155630D01*
D02*
G37*
G36*
X242957Y154868D02*
X241167D01*
X239513Y154183D01*
X238247Y152917D01*
X237562Y151263D01*
Y149473D01*
X238247Y147819D01*
X239513Y146553D01*
X241167Y145868D01*
X242957D01*
X244611Y146553D01*
X245877Y147819D01*
X246562Y149473D01*
Y151263D01*
X245877Y152917D01*
X244611Y154183D01*
X242957Y154868D01*
D02*
G37*
G36*
X499751Y148264D02*
X497961D01*
X496307Y147579D01*
X495041Y146313D01*
X494356Y144659D01*
Y142869D01*
X495041Y141215D01*
X496307Y139949D01*
X497961Y139264D01*
X499751D01*
X501405Y139949D01*
X502671Y141215D01*
X503356Y142869D01*
Y144659D01*
X502671Y146313D01*
X501405Y147579D01*
X499751Y148264D01*
D02*
G37*
G36*
X60033Y144478D02*
X58839D01*
X57737Y144021D01*
X56893Y143177D01*
X56436Y142075D01*
Y140881D01*
X56893Y139779D01*
X57737Y138935D01*
X58839Y138478D01*
X60033D01*
X61135Y138935D01*
X61979Y139779D01*
X62436Y140881D01*
Y142075D01*
X61979Y143177D01*
X61135Y144021D01*
X60033Y144478D01*
D02*
G37*
G36*
X754767Y146232D02*
X752977D01*
X751323Y145547D01*
X750057Y144281D01*
X749372Y142627D01*
Y140837D01*
X750057Y139183D01*
X751323Y137917D01*
X752977Y137232D01*
X754767D01*
X756421Y137917D01*
X757687Y139183D01*
X758372Y140837D01*
Y142627D01*
X757687Y144281D01*
X756421Y145547D01*
X754767Y146232D01*
D02*
G37*
G36*
X91529Y140922D02*
X90335D01*
X89233Y140465D01*
X88389Y139621D01*
X87932Y138519D01*
Y137325D01*
X88389Y136223D01*
X89233Y135379D01*
X90335Y134922D01*
X91529D01*
X92631Y135379D01*
X93475Y136223D01*
X93932Y137325D01*
Y138519D01*
X93475Y139621D01*
X92631Y140465D01*
X91529Y140922D01*
D02*
G37*
G36*
X882021Y143184D02*
X880231D01*
X878577Y142499D01*
X877311Y141233D01*
X876626Y139579D01*
Y137789D01*
X877311Y136135D01*
X878577Y134869D01*
X880231Y134184D01*
X882021D01*
X883675Y134869D01*
X884941Y136135D01*
X885626Y137789D01*
Y139579D01*
X884941Y141233D01*
X883675Y142499D01*
X882021Y143184D01*
D02*
G37*
G36*
X77857Y139628D02*
X76067D01*
X74413Y138943D01*
X73147Y137677D01*
X72462Y136023D01*
Y134233D01*
X73147Y132579D01*
X74413Y131313D01*
X76067Y130628D01*
X77857D01*
X79511Y131313D01*
X80777Y132579D01*
X81462Y134233D01*
Y136023D01*
X80777Y137677D01*
X79511Y138943D01*
X77857Y139628D01*
D02*
G37*
G36*
X48901Y139374D02*
X47111D01*
X45457Y138689D01*
X44191Y137423D01*
X43506Y135769D01*
Y133979D01*
X44191Y132325D01*
X45457Y131059D01*
X47111Y130374D01*
X48901D01*
X50555Y131059D01*
X51821Y132325D01*
X52506Y133979D01*
Y135769D01*
X51821Y137423D01*
X50555Y138689D01*
X48901Y139374D01*
D02*
G37*
G36*
X196180Y148777D02*
X194389D01*
X192735Y148092D01*
X191469Y146826D01*
X190784Y145172D01*
Y143382D01*
X191469Y141728D01*
X192735Y140462D01*
X193498Y140147D01*
Y138523D01*
X193285Y138435D01*
X192019Y137169D01*
X191334Y135515D01*
Y133725D01*
X192019Y132071D01*
X193285Y130805D01*
X194939Y130120D01*
X196729D01*
X198383Y130805D01*
X199649Y132071D01*
X200334Y133725D01*
Y135515D01*
X199649Y137169D01*
X198383Y138435D01*
X197621Y138751D01*
Y140374D01*
X197833Y140462D01*
X199099Y141728D01*
X199784Y143382D01*
Y145172D01*
X199099Y146826D01*
X197833Y148092D01*
X196180Y148777D01*
D02*
G37*
G36*
X116719Y136580D02*
X114929D01*
X113275Y135895D01*
X112009Y134629D01*
X111324Y132975D01*
Y131185D01*
X112009Y129531D01*
X113275Y128265D01*
X114929Y127580D01*
X116719D01*
X118373Y128265D01*
X119639Y129531D01*
X120324Y131185D01*
Y132975D01*
X119639Y134629D01*
X118373Y135895D01*
X116719Y136580D01*
D02*
G37*
G36*
X178397Y131778D02*
X177203D01*
X176101Y131321D01*
X175257Y130477D01*
X174800Y129375D01*
Y128181D01*
X175257Y127079D01*
X176101Y126235D01*
X177203Y125778D01*
X178397D01*
X179499Y126235D01*
X180343Y127079D01*
X180800Y128181D01*
Y129375D01*
X180343Y130477D01*
X179499Y131321D01*
X178397Y131778D01*
D02*
G37*
G36*
X404457Y128730D02*
X403263D01*
X402161Y128273D01*
X401317Y127429D01*
X400860Y126327D01*
Y125133D01*
X401317Y124031D01*
X402161Y123187D01*
X403263Y122730D01*
X404457D01*
X405559Y123187D01*
X405905Y123533D01*
X406079Y123707D01*
X407351Y122857D01*
X407210Y122517D01*
Y121323D01*
X407667Y120221D01*
X408511Y119377D01*
X409613Y118920D01*
X410807D01*
X411909Y119377D01*
X412753Y120221D01*
X413210Y121323D01*
Y122517D01*
X412753Y123619D01*
X411909Y124463D01*
X410807Y124920D01*
X409613D01*
X408511Y124463D01*
X408165Y124117D01*
X407991Y123943D01*
X406719Y124793D01*
X406860Y125133D01*
Y126327D01*
X406403Y127429D01*
X405559Y128273D01*
X404457Y128730D01*
D02*
G37*
G36*
X599220Y123380D02*
X597628D01*
X596158Y122771D01*
X595033Y121646D01*
X594424Y120176D01*
Y118584D01*
X595033Y117114D01*
X596158Y115989D01*
X597628Y115380D01*
X599220D01*
X600690Y115989D01*
X601815Y117114D01*
X602424Y118584D01*
Y120176D01*
X601815Y121646D01*
X600690Y122771D01*
X599220Y123380D01*
D02*
G37*
G36*
X637828Y113728D02*
X636236D01*
X634766Y113119D01*
X633641Y111994D01*
X633032Y110524D01*
Y108932D01*
X633641Y107462D01*
X634766Y106337D01*
X636236Y105728D01*
X637828D01*
X639298Y106337D01*
X640423Y107462D01*
X641032Y108932D01*
Y110524D01*
X640423Y111994D01*
X639298Y113119D01*
X637828Y113728D01*
D02*
G37*
G36*
X222383Y113212D02*
X220593D01*
X218939Y112527D01*
X217673Y111261D01*
X216988Y109607D01*
Y107817D01*
X217673Y106163D01*
X218939Y104897D01*
X220593Y104212D01*
X222383D01*
X224037Y104897D01*
X225303Y106163D01*
X225988Y107817D01*
Y109607D01*
X225303Y111261D01*
X224037Y112527D01*
X222383Y113212D01*
D02*
G37*
G36*
X531656Y105854D02*
X530064D01*
X528594Y105245D01*
X527469Y104120D01*
X526860Y102650D01*
Y101058D01*
X527469Y99588D01*
X528594Y98463D01*
X530064Y97854D01*
X531656D01*
X533126Y98463D01*
X534251Y99588D01*
X534860Y101058D01*
Y102650D01*
X534251Y104120D01*
X533126Y105245D01*
X531656Y105854D01*
D02*
G37*
G36*
X336683Y106608D02*
X334893D01*
X333239Y105923D01*
X331973Y104657D01*
X331288Y103003D01*
Y101213D01*
X331973Y99559D01*
X333239Y98293D01*
X334893Y97608D01*
X336683D01*
X338337Y98293D01*
X339603Y99559D01*
X340288Y101213D01*
Y103003D01*
X339603Y104657D01*
X338337Y105923D01*
X336683Y106608D01*
D02*
G37*
G36*
X430056Y104584D02*
X428464D01*
X426994Y103975D01*
X425869Y102850D01*
X425260Y101380D01*
Y99788D01*
X425869Y98318D01*
X426994Y97193D01*
X428464Y96584D01*
X430056D01*
X431526Y97193D01*
X432651Y98318D01*
X433260Y99788D01*
Y101380D01*
X432651Y102850D01*
X431526Y103975D01*
X430056Y104584D01*
D02*
G37*
G36*
X193836D02*
X192244D01*
X190774Y103975D01*
X189649Y102850D01*
X189040Y101380D01*
Y99788D01*
X189649Y98318D01*
X190774Y97193D01*
X192244Y96584D01*
X193836D01*
X195306Y97193D01*
X196431Y98318D01*
X197040Y99788D01*
Y101380D01*
X196431Y102850D01*
X195306Y103975D01*
X193836Y104584D01*
D02*
G37*
G36*
X597751Y102060D02*
X596557D01*
X595455Y101603D01*
X594611Y100759D01*
X594154Y99657D01*
Y98463D01*
X594611Y97361D01*
X595455Y96517D01*
X596557Y96060D01*
X597751D01*
X598853Y96517D01*
X599697Y97361D01*
X600154Y98463D01*
Y99657D01*
X599697Y100759D01*
X598853Y101603D01*
X597751Y102060D01*
D02*
G37*
G36*
X564676Y103314D02*
X563084D01*
X561614Y102705D01*
X560489Y101580D01*
X559880Y100110D01*
Y98518D01*
X560489Y97048D01*
X561614Y95923D01*
X563084Y95314D01*
X564676D01*
X566146Y95923D01*
X567271Y97048D01*
X567880Y98518D01*
Y100110D01*
X567271Y101580D01*
X566146Y102705D01*
X564676Y103314D01*
D02*
G37*
G36*
X114941Y103052D02*
X113151D01*
X111497Y102367D01*
X110231Y101101D01*
X109546Y99447D01*
Y97657D01*
X110231Y96003D01*
X111497Y94737D01*
X113151Y94052D01*
X114941D01*
X116595Y94737D01*
X117861Y96003D01*
X118546Y97657D01*
Y99447D01*
X117861Y101101D01*
X116595Y102367D01*
X114941Y103052D01*
D02*
G37*
G36*
X23755Y91114D02*
X21965D01*
X20311Y90429D01*
X19045Y89163D01*
X18360Y87509D01*
Y85719D01*
X19045Y84065D01*
X20311Y82799D01*
X21965Y82114D01*
X23755D01*
X25409Y82799D01*
X26675Y84065D01*
X27360Y85719D01*
Y87509D01*
X26675Y89163D01*
X25409Y90429D01*
X23755Y91114D01*
D02*
G37*
G36*
X673388Y83248D02*
X671796D01*
X670326Y82639D01*
X669201Y81514D01*
X668592Y80044D01*
Y78452D01*
X669201Y76982D01*
X670326Y75857D01*
X671796Y75248D01*
X673388D01*
X674858Y75857D01*
X675983Y76982D01*
X676592Y78452D01*
Y80044D01*
X675983Y81514D01*
X674858Y82639D01*
X673388Y83248D01*
D02*
G37*
G36*
X802268Y131536D02*
X796916D01*
X791630Y130699D01*
X786541Y129045D01*
X781772Y126615D01*
X777442Y123470D01*
X773658Y119685D01*
X770513Y115356D01*
X768083Y110588D01*
X766429Y105498D01*
X765592Y100212D01*
Y94860D01*
X766429Y89574D01*
X768083Y84485D01*
X770513Y79716D01*
X773658Y75387D01*
X777442Y71602D01*
X781772Y68457D01*
X786541Y66027D01*
X791630Y64373D01*
X796916Y63536D01*
X802268D01*
X807554Y64373D01*
X812644Y66027D01*
X817412Y68457D01*
X821741Y71602D01*
X825526Y75387D01*
X828671Y79716D01*
X831101Y84485D01*
X832755Y89574D01*
X833592Y94860D01*
Y100212D01*
X832755Y105498D01*
X831101Y110588D01*
X828671Y115356D01*
X825526Y119685D01*
X821741Y123470D01*
X817412Y126615D01*
X812644Y129045D01*
X807554Y130699D01*
X802268Y131536D01*
D02*
G37*
G36*
X673388Y62928D02*
X671796D01*
X670326Y62319D01*
X669201Y61194D01*
X668592Y59724D01*
Y58132D01*
X669201Y56662D01*
X670326Y55537D01*
X671796Y54928D01*
X673388D01*
X674858Y55537D01*
X675983Y56662D01*
X676592Y58132D01*
Y59724D01*
X675983Y61194D01*
X674858Y62319D01*
X673388Y62928D01*
D02*
G37*
G36*
X877195Y62158D02*
X875405D01*
X873751Y61473D01*
X872485Y60207D01*
X871800Y58553D01*
Y56763D01*
X872485Y55109D01*
X873751Y53843D01*
X875405Y53158D01*
X877195D01*
X878849Y53843D01*
X880115Y55109D01*
X880800Y56763D01*
Y58553D01*
X880115Y60207D01*
X878849Y61473D01*
X877195Y62158D01*
D02*
G37*
G36*
X401453Y60888D02*
X399663D01*
X398009Y60203D01*
X396743Y58937D01*
X396058Y57283D01*
Y55493D01*
X396743Y53839D01*
X398009Y52573D01*
X399663Y51888D01*
X401453D01*
X403107Y52573D01*
X404373Y53839D01*
X405058Y55493D01*
Y57283D01*
X404373Y58937D01*
X403107Y60203D01*
X401453Y60888D01*
D02*
G37*
G36*
X312553Y60634D02*
X310763D01*
X309109Y59949D01*
X307843Y58683D01*
X307158Y57029D01*
Y55239D01*
X307843Y53585D01*
X309109Y52319D01*
X310763Y51634D01*
X312553D01*
X314207Y52319D01*
X315473Y53585D01*
X316158Y55239D01*
Y57029D01*
X315473Y58683D01*
X314207Y59949D01*
X312553Y60634D01*
D02*
G37*
G36*
X176409Y59364D02*
X174619D01*
X172965Y58679D01*
X171699Y57413D01*
X171014Y55759D01*
Y53969D01*
X171699Y52315D01*
X172965Y51049D01*
X174619Y50364D01*
X176409D01*
X178063Y51049D01*
X179329Y52315D01*
X180014Y53969D01*
Y55759D01*
X179329Y57413D01*
X178063Y58679D01*
X176409Y59364D01*
D02*
G37*
G36*
X548011Y57586D02*
X546221D01*
X544567Y56901D01*
X543301Y55635D01*
X542616Y53981D01*
Y52191D01*
X543301Y50537D01*
X544567Y49271D01*
X546221Y48586D01*
X548011D01*
X549665Y49271D01*
X550931Y50537D01*
X551616Y52191D01*
Y53981D01*
X550931Y55635D01*
X549665Y56901D01*
X548011Y57586D01*
D02*
G37*
G36*
X462413Y56570D02*
X460623D01*
X458969Y55885D01*
X457703Y54619D01*
X457018Y52965D01*
Y51175D01*
X457703Y49521D01*
X458969Y48255D01*
X460623Y47570D01*
X462413D01*
X464067Y48255D01*
X465333Y49521D01*
X466018Y51175D01*
Y52965D01*
X465333Y54619D01*
X464067Y55885D01*
X462413Y56570D01*
D02*
G37*
G36*
X749433Y48950D02*
X747643D01*
X745989Y48265D01*
X744723Y46999D01*
X744038Y45345D01*
Y43555D01*
X744723Y41901D01*
X745989Y40635D01*
X747643Y39950D01*
X749433D01*
X751087Y40635D01*
X752353Y41901D01*
X753038Y43555D01*
Y45345D01*
X752353Y46999D01*
X751087Y48265D01*
X749433Y48950D01*
D02*
G37*
G36*
X673388Y41338D02*
X671796D01*
X670326Y40729D01*
X669201Y39604D01*
X668592Y38134D01*
Y36542D01*
X669201Y35072D01*
X670326Y33947D01*
X671796Y33338D01*
X673388D01*
X674858Y33947D01*
X675983Y35072D01*
X676592Y36542D01*
Y38134D01*
X675983Y39604D01*
X674858Y40729D01*
X673388Y41338D01*
D02*
G37*
G36*
X75066Y96992D02*
X69714D01*
X64428Y96155D01*
X59338Y94501D01*
X54570Y92071D01*
X50241Y88926D01*
X46456Y85141D01*
X43311Y80812D01*
X40881Y76044D01*
X39227Y70954D01*
X38390Y65668D01*
Y60316D01*
X39227Y55030D01*
X40881Y49941D01*
X43311Y45172D01*
X46456Y40842D01*
X50241Y37058D01*
X54570Y33913D01*
X59338Y31483D01*
X64428Y29829D01*
X69714Y28992D01*
X75066D01*
X80352Y29829D01*
X85442Y31483D01*
X90210Y33913D01*
X94539Y37058D01*
X98324Y40842D01*
X101469Y45172D01*
X103899Y49941D01*
X105553Y55030D01*
X106390Y60316D01*
Y65668D01*
X105553Y70954D01*
X103899Y76044D01*
X101469Y80812D01*
X98324Y85141D01*
X94539Y88926D01*
X90210Y92071D01*
X85442Y94501D01*
X80352Y96155D01*
X75066Y96992D01*
D02*
G37*
G36*
X120275Y28884D02*
X118485D01*
X116831Y28199D01*
X115565Y26933D01*
X114880Y25279D01*
Y23489D01*
X115565Y21835D01*
X116831Y20569D01*
X118485Y19884D01*
X120275D01*
X121929Y20569D01*
X123195Y21835D01*
X123880Y23489D01*
Y25279D01*
X123195Y26933D01*
X121929Y28199D01*
X120275Y28884D01*
D02*
G37*
G36*
X549436Y24574D02*
X547844D01*
X546374Y23965D01*
X545249Y22840D01*
X544640Y21370D01*
Y19778D01*
X545249Y18308D01*
X546374Y17183D01*
X547844Y16574D01*
X549436D01*
X550906Y17183D01*
X552031Y18308D01*
X552640Y19778D01*
Y21370D01*
X552031Y22840D01*
X550906Y23965D01*
X549436Y24574D01*
D02*
G37*
G36*
X461806D02*
X460214D01*
X458744Y23965D01*
X457619Y22840D01*
X457010Y21370D01*
Y19778D01*
X457619Y18308D01*
X458744Y17183D01*
X460214Y16574D01*
X461806D01*
X463276Y17183D01*
X464401Y18308D01*
X465010Y19778D01*
Y21370D01*
X464401Y22840D01*
X463276Y23965D01*
X461806Y24574D01*
D02*
G37*
%LPD*%
G36*
X424434Y285750D02*
X292354D01*
Y273558D01*
X278130D01*
Y328422D01*
X424434D01*
Y285750D01*
D02*
G37*
%LPC*%
G36*
X299047Y325480D02*
X297853D01*
X296751Y325023D01*
X295907Y324179D01*
X295450Y323077D01*
Y321883D01*
X295907Y320781D01*
X295997Y320690D01*
X296609Y319710D01*
X295997Y318730D01*
X295907Y318639D01*
X295450Y317537D01*
Y316343D01*
X295907Y315241D01*
X296751Y314397D01*
X297853Y313940D01*
X299047D01*
X300149Y314397D01*
X300993Y315241D01*
X301450Y316343D01*
Y317537D01*
X300993Y318639D01*
X300903Y318730D01*
X300291Y319710D01*
X300903Y320690D01*
X300993Y320781D01*
X301450Y321883D01*
Y323077D01*
X300993Y324179D01*
X300149Y325023D01*
X299047Y325480D01*
D02*
G37*
G36*
X418125Y307800D02*
X416931D01*
X415829Y307343D01*
X415738Y307253D01*
X414758Y306641D01*
X413778Y307253D01*
X413687Y307343D01*
X412585Y307800D01*
X411391D01*
X410289Y307343D01*
X409445Y306499D01*
X408988Y305397D01*
Y304203D01*
X409445Y303101D01*
X410289Y302257D01*
X411391Y301800D01*
X412585D01*
X413687Y302257D01*
X413778Y302347D01*
X414758Y302959D01*
X415738Y302347D01*
X415829Y302257D01*
X416931Y301800D01*
X418125D01*
X419227Y302257D01*
X420071Y303101D01*
X420528Y304203D01*
Y305397D01*
X420071Y306499D01*
X419227Y307343D01*
X418125Y307800D01*
D02*
G37*
%LPD*%
G36*
X124968Y343408D02*
Y223774D01*
X164592D01*
X175260Y213106D01*
Y187819D01*
X174851Y187738D01*
X173859Y187075D01*
X173196Y186082D01*
X172963Y184912D01*
X173196Y183741D01*
X173859Y182749D01*
X174851Y182086D01*
X175260Y182005D01*
Y138938D01*
X156618D01*
Y172058D01*
X153162Y175514D01*
X67818D01*
Y156718D01*
X51562D01*
Y177635D01*
X59413Y195619D01*
X59690Y195564D01*
X61446Y195913D01*
X62934Y196908D01*
X63929Y198396D01*
X64278Y200152D01*
X63929Y201908D01*
X63239Y202939D01*
X78740Y218440D01*
X109474D01*
Y268478D01*
X80264D01*
Y283718D01*
X85994D01*
X86636Y283289D01*
X88392Y282940D01*
X90148Y283289D01*
X90790Y283718D01*
X109474D01*
Y319532D01*
X104621Y324385D01*
X104918Y325882D01*
X104569Y327638D01*
X103574Y329126D01*
X102086Y330121D01*
X100330Y330470D01*
X98834Y330173D01*
X98298Y330708D01*
X39624D01*
X39116Y330200D01*
X35560Y333756D01*
Y350520D01*
X40132Y355092D01*
X113284D01*
X124968Y343408D01*
D02*
G37*
%LPC*%
G36*
X840873Y666678D02*
X839083D01*
X837429Y665993D01*
X836163Y664727D01*
X835478Y663073D01*
Y661283D01*
X836163Y659629D01*
X837429Y658363D01*
X839083Y657678D01*
X840873D01*
X842527Y658363D01*
X843793Y659629D01*
X844478Y661283D01*
Y663073D01*
X843793Y664727D01*
X842527Y665993D01*
X840873Y666678D01*
D02*
G37*
G36*
X750195Y645342D02*
X748405D01*
X746751Y644657D01*
X745485Y643391D01*
X744800Y641737D01*
Y639947D01*
X745485Y638293D01*
X746751Y637027D01*
X748405Y636342D01*
X750195D01*
X751849Y637027D01*
X753115Y638293D01*
X753800Y639947D01*
Y641737D01*
X753115Y643391D01*
X751849Y644657D01*
X750195Y645342D01*
D02*
G37*
G36*
X772801Y644834D02*
X771011D01*
X769357Y644149D01*
X768091Y642883D01*
X767406Y641229D01*
Y639439D01*
X768091Y637785D01*
X769357Y636519D01*
X771011Y635834D01*
X772801D01*
X774455Y636519D01*
X775721Y637785D01*
X776406Y639439D01*
Y641229D01*
X775721Y642883D01*
X774455Y644149D01*
X772801Y644834D01*
D02*
G37*
G36*
X739483Y621236D02*
X738289D01*
X737187Y620779D01*
X736343Y619935D01*
X735886Y618833D01*
Y617639D01*
X736343Y616537D01*
X737187Y615693D01*
X738289Y615236D01*
X739483D01*
X740585Y615693D01*
X741429Y616537D01*
X741886Y617639D01*
Y618833D01*
X741429Y619935D01*
X740585Y620779D01*
X739483Y621236D01*
D02*
G37*
G36*
X742785Y611330D02*
X741591D01*
X740489Y610873D01*
X739645Y610029D01*
X739188Y608927D01*
Y607733D01*
X739645Y606631D01*
X740489Y605787D01*
X741591Y605330D01*
X742785D01*
X743887Y605787D01*
X744731Y606631D01*
X745188Y607733D01*
Y608927D01*
X744731Y610029D01*
X743887Y610873D01*
X742785Y611330D01*
D02*
G37*
G36*
X801459Y610314D02*
X800265D01*
X799163Y609857D01*
X798319Y609013D01*
X797862Y607911D01*
Y606717D01*
X798319Y605615D01*
X799163Y604771D01*
X800265Y604314D01*
X801459D01*
X802561Y604771D01*
X803405Y605615D01*
X803862Y606717D01*
Y607911D01*
X803405Y609013D01*
X802561Y609857D01*
X801459Y610314D01*
D02*
G37*
G36*
X811619Y608536D02*
X810425D01*
X809323Y608079D01*
X808479Y607235D01*
X808022Y606133D01*
Y604939D01*
X808479Y603837D01*
X809323Y602993D01*
X810425Y602536D01*
X811619D01*
X812721Y602993D01*
X813565Y603837D01*
X814022Y604939D01*
Y606133D01*
X813565Y607235D01*
X812721Y608079D01*
X811619Y608536D01*
D02*
G37*
G36*
X772759Y599390D02*
X771566D01*
X770463Y598933D01*
X769619Y598089D01*
X769162Y596986D01*
Y595793D01*
X769619Y594690D01*
X770463Y593846D01*
X771566Y593390D01*
X772759D01*
X773862Y593846D01*
X774706Y594690D01*
X775162Y595793D01*
Y596986D01*
X774706Y598089D01*
X773862Y598933D01*
X772759Y599390D01*
D02*
G37*
G36*
X778091Y594058D02*
X776897D01*
X775795Y593601D01*
X774951Y592757D01*
X774494Y591655D01*
Y590461D01*
X774951Y589359D01*
X775795Y588515D01*
X776897Y588058D01*
X778091D01*
X779193Y588515D01*
X780037Y589359D01*
X780494Y590461D01*
Y591655D01*
X780037Y592757D01*
X779193Y593601D01*
X778091Y594058D01*
D02*
G37*
G36*
X741573Y592580D02*
X739663D01*
X737899Y591849D01*
X736549Y590499D01*
X735818Y588735D01*
Y586825D01*
X736549Y585061D01*
X737899Y583711D01*
X739663Y582980D01*
X741573D01*
X743337Y583711D01*
X744687Y585061D01*
X745418Y586825D01*
Y588735D01*
X744687Y590499D01*
X743337Y591849D01*
X741573Y592580D01*
D02*
G37*
G36*
Y580580D02*
X739663D01*
X737899Y579849D01*
X736549Y578499D01*
X735818Y576735D01*
Y574825D01*
X736549Y573061D01*
X737899Y571711D01*
X739663Y570980D01*
X741573D01*
X743337Y571711D01*
X744687Y573061D01*
X745418Y574825D01*
Y576735D01*
X744687Y578499D01*
X743337Y579849D01*
X741573Y580580D01*
D02*
G37*
G36*
X812127Y564340D02*
X810933D01*
X809831Y563883D01*
X808987Y563039D01*
X808530Y561937D01*
Y560743D01*
X808987Y559641D01*
X809831Y558797D01*
X810933Y558340D01*
X812127D01*
X813229Y558797D01*
X814073Y559641D01*
X814530Y560743D01*
Y561937D01*
X814073Y563039D01*
X813229Y563883D01*
X812127Y564340D01*
D02*
G37*
G36*
X832955Y557950D02*
X831761D01*
X830659Y557493D01*
X829815Y556649D01*
X829358Y555547D01*
Y554353D01*
X829815Y553251D01*
X830659Y552407D01*
X831761Y551950D01*
X832955D01*
X834057Y552407D01*
X834901Y553251D01*
X835358Y554353D01*
Y555547D01*
X834901Y556649D01*
X834057Y557493D01*
X832955Y557950D01*
D02*
G37*
G36*
X754767Y559744D02*
X752977D01*
X751323Y559059D01*
X750057Y557793D01*
X749372Y556139D01*
Y554349D01*
X750057Y552695D01*
X751323Y551429D01*
X752977Y550744D01*
X754767D01*
X756421Y551429D01*
X757687Y552695D01*
X758372Y554349D01*
Y556139D01*
X757687Y557793D01*
X756421Y559059D01*
X754767Y559744D01*
D02*
G37*
G36*
X832955Y550410D02*
X831761D01*
X830659Y549953D01*
X829815Y549109D01*
X829358Y548007D01*
Y546813D01*
X829815Y545711D01*
X830659Y544867D01*
X831761Y544410D01*
X832955D01*
X834057Y544867D01*
X834901Y545711D01*
X835358Y546813D01*
Y548007D01*
X834901Y549109D01*
X834057Y549953D01*
X832955Y550410D01*
D02*
G37*
G36*
X757561Y547044D02*
X755771D01*
X754117Y546359D01*
X752851Y545093D01*
X752166Y543439D01*
Y541649D01*
X752851Y539995D01*
X754117Y538729D01*
X755771Y538044D01*
X757561D01*
X759215Y538729D01*
X760481Y539995D01*
X761166Y541649D01*
Y543439D01*
X760481Y545093D01*
X759215Y546359D01*
X757561Y547044D01*
D02*
G37*
G36*
X750195Y539170D02*
X748405D01*
X746751Y538485D01*
X745485Y537219D01*
X744800Y535565D01*
Y533775D01*
X745485Y532121D01*
X746751Y530855D01*
X748405Y530170D01*
X750195D01*
X751849Y530855D01*
X753115Y532121D01*
X753800Y533775D01*
Y535565D01*
X753115Y537219D01*
X751849Y538485D01*
X750195Y539170D01*
D02*
G37*
G36*
X768483Y535360D02*
X766693D01*
X765039Y534675D01*
X763773Y533409D01*
X763088Y531755D01*
Y529965D01*
X763773Y528311D01*
X765039Y527045D01*
X766693Y526360D01*
X768483D01*
X770137Y527045D01*
X771403Y528311D01*
X772088Y529965D01*
Y531755D01*
X771403Y533409D01*
X770137Y534675D01*
X768483Y535360D01*
D02*
G37*
G36*
X834777Y525962D02*
X832987D01*
X831333Y525277D01*
X830067Y524011D01*
X829382Y522357D01*
Y520567D01*
X830067Y518913D01*
X831333Y517647D01*
X832987Y516962D01*
X834777D01*
X836431Y517647D01*
X837697Y518913D01*
X838382Y520567D01*
Y522357D01*
X837697Y524011D01*
X836431Y525277D01*
X834777Y525962D01*
D02*
G37*
G36*
X791851Y503102D02*
X790061D01*
X788407Y502417D01*
X787141Y501151D01*
X786456Y499497D01*
Y497707D01*
X787141Y496053D01*
X788407Y494787D01*
X790061Y494102D01*
X791851D01*
X793505Y494787D01*
X794771Y496053D01*
X795456Y497707D01*
Y499497D01*
X794771Y501151D01*
X793505Y502417D01*
X791851Y503102D01*
D02*
G37*
G36*
X773817Y487100D02*
X772027D01*
X770373Y486415D01*
X769107Y485149D01*
X768422Y483495D01*
Y481705D01*
X769107Y480051D01*
X770373Y478785D01*
X772027Y478100D01*
X773817D01*
X775471Y478785D01*
X776737Y480051D01*
X777422Y481705D01*
Y483495D01*
X776737Y485149D01*
X775471Y486415D01*
X773817Y487100D01*
D02*
G37*
G36*
X988955Y674552D02*
X987165D01*
X985511Y673867D01*
X984245Y672601D01*
X983560Y670947D01*
Y669157D01*
X984245Y667503D01*
X985511Y666237D01*
X987165Y665552D01*
X988955D01*
X990609Y666237D01*
X991875Y667503D01*
X992560Y669157D01*
Y670947D01*
X991875Y672601D01*
X990609Y673867D01*
X988955Y674552D01*
D02*
G37*
G36*
X1077594Y665178D02*
X1061594D01*
X1059897Y664955D01*
X1058316Y664300D01*
X1056958Y663258D01*
X1055916Y661900D01*
X1055261Y660319D01*
X1055038Y658622D01*
X1055261Y656925D01*
X1055916Y655344D01*
X1056958Y653986D01*
X1058316Y652944D01*
X1059897Y652289D01*
X1061594Y652066D01*
X1077594D01*
X1079291Y652289D01*
X1080872Y652944D01*
X1082230Y653986D01*
X1083272Y655344D01*
X1083927Y656925D01*
X1084150Y658622D01*
X1083927Y660319D01*
X1083272Y661900D01*
X1082230Y663258D01*
X1080872Y664300D01*
X1079291Y664955D01*
X1077594Y665178D01*
D02*
G37*
G36*
X1017250Y655322D02*
X1015538D01*
X1013885Y654879D01*
X1012403Y654023D01*
X1011193Y652813D01*
X1010337Y651331D01*
X1009894Y649678D01*
Y647966D01*
X1010337Y646313D01*
X1011193Y644831D01*
X1012403Y643621D01*
X1013885Y642765D01*
X1015538Y642322D01*
X1017250D01*
X1018903Y642765D01*
X1020385Y643621D01*
X1021595Y644831D01*
X1022451Y646313D01*
X1022894Y647966D01*
Y649678D01*
X1022451Y651331D01*
X1021595Y652813D01*
X1020385Y654023D01*
X1018903Y654879D01*
X1017250Y655322D01*
D02*
G37*
G36*
Y632422D02*
X1015538D01*
X1013885Y631979D01*
X1012403Y631123D01*
X1011193Y629913D01*
X1010337Y628431D01*
X1009894Y626778D01*
Y625066D01*
X1010337Y623413D01*
X1011193Y621931D01*
X1011202Y621922D01*
X1010580Y620422D01*
X999094D01*
Y610362D01*
X997594Y609496D01*
X997103Y609779D01*
X995450Y610222D01*
X993738D01*
X992085Y609779D01*
X990603Y608923D01*
X989393Y607713D01*
X988537Y606231D01*
X988094Y604578D01*
Y602866D01*
X988537Y601213D01*
X989393Y599731D01*
X990603Y598521D01*
X992085Y597665D01*
X993738Y597222D01*
X995450D01*
X997103Y597665D01*
X998585Y598521D01*
X999795Y599731D01*
X1000651Y601213D01*
X1001094Y602866D01*
Y604578D01*
X1000734Y605922D01*
X1001484Y607422D01*
X1012094D01*
Y619167D01*
X1013594Y620033D01*
X1013885Y619865D01*
X1015538Y619422D01*
X1017250D01*
X1018903Y619865D01*
X1020385Y620721D01*
X1021595Y621931D01*
X1022451Y623413D01*
X1022894Y625066D01*
Y626778D01*
X1022451Y628431D01*
X1021595Y629913D01*
X1020385Y631123D01*
X1018903Y631979D01*
X1017250Y632422D01*
D02*
G37*
G36*
X1006450Y600022D02*
X1004738D01*
X1003085Y599579D01*
X1001603Y598723D01*
X1000393Y597513D01*
X999537Y596031D01*
X999094Y594378D01*
Y592666D01*
X999537Y591013D01*
X1000393Y589531D01*
X1001603Y588321D01*
X1003085Y587465D01*
X1004738Y587022D01*
X1006450D01*
X1008103Y587465D01*
X1009585Y588321D01*
X1010795Y589531D01*
X1011651Y591013D01*
X1012094Y592666D01*
Y594378D01*
X1011651Y596031D01*
X1010795Y597513D01*
X1009585Y598723D01*
X1008103Y599579D01*
X1006450Y600022D01*
D02*
G37*
G36*
X995450Y589822D02*
X993738D01*
X992085Y589379D01*
X990603Y588523D01*
X989393Y587313D01*
X988537Y585831D01*
X988094Y584178D01*
Y582466D01*
X988537Y580813D01*
X989393Y579331D01*
X990603Y578121D01*
X992085Y577265D01*
X993738Y576822D01*
X995450D01*
X997103Y577265D01*
X998585Y578121D01*
X999795Y579331D01*
X1000651Y580813D01*
X1001094Y582466D01*
Y584178D01*
X1000651Y585831D01*
X999795Y587313D01*
X998585Y588523D01*
X997103Y589379D01*
X995450Y589822D01*
D02*
G37*
G36*
X1006450Y579622D02*
X1004738D01*
X1003085Y579179D01*
X1001603Y578323D01*
X1000393Y577113D01*
X999537Y575631D01*
X999094Y573978D01*
Y572266D01*
X999537Y570613D01*
X1000393Y569131D01*
X1001603Y567921D01*
X1003085Y567065D01*
X1004738Y566622D01*
X1006450D01*
X1008103Y567065D01*
X1009585Y567921D01*
X1010795Y569131D01*
X1011651Y570613D01*
X1012094Y572266D01*
Y573978D01*
X1011651Y575631D01*
X1010795Y577113D01*
X1009585Y578323D01*
X1008103Y579179D01*
X1006450Y579622D01*
D02*
G37*
G36*
X995450Y569422D02*
X993738D01*
X992085Y568979D01*
X990603Y568123D01*
X989393Y566913D01*
X988537Y565431D01*
X988094Y563778D01*
Y562066D01*
X988537Y560413D01*
X989393Y558931D01*
X990603Y557721D01*
X992085Y556865D01*
X993738Y556422D01*
X995450D01*
X997103Y556865D01*
X998585Y557721D01*
X999795Y558931D01*
X1000651Y560413D01*
X1001094Y562066D01*
Y563778D01*
X1000651Y565431D01*
X999795Y566913D01*
X998585Y568123D01*
X997103Y568979D01*
X995450Y569422D01*
D02*
G37*
G36*
X1006450Y559222D02*
X1004738D01*
X1003085Y558779D01*
X1001603Y557923D01*
X1000393Y556713D01*
X999537Y555231D01*
X999094Y553578D01*
Y551866D01*
X999537Y550213D01*
X1000393Y548731D01*
X1001603Y547521D01*
X1003085Y546665D01*
X1004738Y546222D01*
X1006450D01*
X1008103Y546665D01*
X1009585Y547521D01*
X1010795Y548731D01*
X1011651Y550213D01*
X1012094Y551866D01*
Y553578D01*
X1011651Y555231D01*
X1010795Y556713D01*
X1009585Y557923D01*
X1008103Y558779D01*
X1006450Y559222D01*
D02*
G37*
G36*
X995450Y549022D02*
X993738D01*
X992085Y548579D01*
X990603Y547723D01*
X989393Y546513D01*
X988537Y545031D01*
X988094Y543378D01*
Y541666D01*
X988537Y540013D01*
X989393Y538531D01*
X990603Y537321D01*
X992085Y536465D01*
X993738Y536022D01*
X995450D01*
X997103Y536465D01*
X998585Y537321D01*
X999795Y538531D01*
X1000651Y540013D01*
X1001094Y541666D01*
Y543378D01*
X1000651Y545031D01*
X999795Y546513D01*
X998585Y547723D01*
X997103Y548579D01*
X995450Y549022D01*
D02*
G37*
G36*
X1017250Y537022D02*
X1015538D01*
X1013885Y536579D01*
X1012403Y535723D01*
X1011193Y534513D01*
X1010337Y533031D01*
X1009894Y531378D01*
Y529666D01*
X1010337Y528013D01*
X1011193Y526531D01*
X1012403Y525321D01*
X1013885Y524465D01*
X1015538Y524022D01*
X1017250D01*
X1018903Y524465D01*
X1020385Y525321D01*
X1021595Y526531D01*
X1022451Y528013D01*
X1022894Y529666D01*
Y531378D01*
X1022451Y533031D01*
X1021595Y534513D01*
X1020385Y535723D01*
X1018903Y536579D01*
X1017250Y537022D01*
D02*
G37*
G36*
Y514122D02*
X1015538D01*
X1013885Y513679D01*
X1012403Y512823D01*
X1011193Y511613D01*
X1010337Y510131D01*
X1009894Y508478D01*
Y506766D01*
X1010337Y505113D01*
X1011193Y503631D01*
X1012403Y502421D01*
X1013885Y501565D01*
X1015538Y501122D01*
X1017250D01*
X1018903Y501565D01*
X1020385Y502421D01*
X1021595Y503631D01*
X1022451Y505113D01*
X1022894Y506766D01*
Y508478D01*
X1022451Y510131D01*
X1021595Y511613D01*
X1020385Y512823D01*
X1018903Y513679D01*
X1017250Y514122D01*
D02*
G37*
G36*
X1077594Y504378D02*
X1061594D01*
X1059897Y504155D01*
X1058316Y503500D01*
X1056958Y502458D01*
X1055916Y501100D01*
X1055261Y499519D01*
X1055038Y497822D01*
X1055261Y496125D01*
X1055916Y494544D01*
X1056958Y493186D01*
X1058316Y492144D01*
X1059897Y491489D01*
X1061594Y491266D01*
X1077594D01*
X1079291Y491489D01*
X1080872Y492144D01*
X1082230Y493186D01*
X1083272Y494544D01*
X1083927Y496125D01*
X1084150Y497822D01*
X1083927Y499519D01*
X1083272Y501100D01*
X1082230Y502458D01*
X1080872Y503500D01*
X1079291Y504155D01*
X1077594Y504378D01*
D02*
G37*
G36*
X991749Y490910D02*
X989959D01*
X988305Y490225D01*
X987039Y488959D01*
X986354Y487305D01*
Y485515D01*
X987039Y483861D01*
X988305Y482595D01*
X989959Y481910D01*
X991749D01*
X993403Y482595D01*
X994669Y483861D01*
X995354Y485515D01*
Y487305D01*
X994669Y488959D01*
X993403Y490225D01*
X991749Y490910D01*
D02*
G37*
G36*
Y474146D02*
X989959D01*
X988305Y473461D01*
X987039Y472195D01*
X986354Y470541D01*
Y468751D01*
X987039Y467097D01*
X988305Y465831D01*
X989959Y465146D01*
X991749D01*
X993403Y465831D01*
X994669Y467097D01*
X995354Y468751D01*
Y470541D01*
X994669Y472195D01*
X993403Y473461D01*
X991749Y474146D01*
D02*
G37*
%LPD*%
D27*
X1016394Y507622D02*
D03*
Y530522D02*
D03*
Y648822D02*
D03*
X994594Y603722D02*
D03*
X1005594Y593522D02*
D03*
X994594Y562922D02*
D03*
X1016394Y625922D02*
D03*
X994594Y542522D02*
D03*
X1005594Y552722D02*
D03*
Y573122D02*
D03*
X994594Y583322D02*
D03*
D62*
X1069594Y658622D02*
D03*
Y497822D02*
D03*
D63*
X82550Y672592D02*
D03*
Y570992D02*
D03*
Y748792D02*
D03*
X57150D02*
D03*
Y570992D02*
D03*
Y672592D02*
D03*
X82550Y469392D02*
D03*
X57150D02*
D03*
X82550Y393192D02*
D03*
X57150D02*
D03*
Y316992D02*
D03*
X82550Y342392D02*
D03*
X57150D02*
D03*
Y697992D02*
D03*
X82550Y723392D02*
D03*
Y697992D02*
D03*
X57150Y723392D02*
D03*
Y545592D02*
D03*
X82550D02*
D03*
Y520192D02*
D03*
X57150Y418592D02*
D03*
X82550Y443992D02*
D03*
X57150Y647192D02*
D03*
Y520192D02*
D03*
X82550Y418592D02*
D03*
X57150Y621792D02*
D03*
X82550Y494792D02*
D03*
Y647192D02*
D03*
Y596392D02*
D03*
X57150D02*
D03*
X82550Y621792D02*
D03*
X57150Y443992D02*
D03*
Y494792D02*
D03*
Y367792D02*
D03*
X82550D02*
D03*
D64*
Y316992D02*
D03*
D65*
X351790Y162560D02*
D03*
X326390D02*
D03*
X402590D02*
D03*
X377190D02*
D03*
X427990D02*
D03*
D66*
X44450Y251460D02*
D03*
Y206960D02*
D03*
D67*
X14450Y269210D02*
D03*
Y189210D02*
D03*
D68*
X1005594Y613922D02*
D03*
D69*
X521944Y774232D02*
D03*
X451944D02*
D03*
X486944D02*
D03*
X556944D02*
D03*
D70*
X986488Y253038D02*
D03*
X987552Y372472D02*
D03*
D71*
X986488Y228038D02*
D03*
X987552Y347472D02*
D03*
D72*
X300990Y162560D02*
D03*
D73*
X197358Y639826D02*
D03*
X163322Y320294D02*
D03*
X287274Y357378D02*
D03*
X1088644Y717042D02*
D03*
X1038860Y782574D02*
D03*
X431292Y436118D02*
D03*
X567690Y301498D02*
D03*
X468630Y411226D02*
D03*
X118618Y490220D02*
D03*
X196850Y450342D02*
D03*
X120650Y581152D02*
D03*
X350266Y747268D02*
D03*
X353568Y798322D02*
D03*
X165100Y814578D02*
D03*
X191516Y723138D02*
D03*
X122428Y726694D02*
D03*
X91186Y792226D02*
D03*
X23622Y715010D02*
D03*
Y648970D02*
D03*
Y550164D02*
D03*
Y484124D02*
D03*
X23876Y418084D02*
D03*
X24384Y314198D02*
D03*
X22860Y86614D02*
D03*
X22352Y151130D02*
D03*
X244602Y287020D02*
D03*
X254000Y248158D02*
D03*
X243840Y200406D02*
D03*
X242062Y150368D02*
D03*
X119380Y24384D02*
D03*
X114046Y98552D02*
D03*
X221488Y108712D02*
D03*
X175514Y54864D02*
D03*
X335788Y102108D02*
D03*
X311658Y56134D02*
D03*
X400558Y56388D02*
D03*
X547116Y53086D02*
D03*
X461518Y52070D02*
D03*
X456184Y177800D02*
D03*
X498856Y143764D02*
D03*
X692658Y170434D02*
D03*
X753872Y141732D02*
D03*
X748538Y44450D02*
D03*
X876300Y57658D02*
D03*
X881126Y138684D02*
D03*
X810260Y287020D02*
D03*
X943356Y283718D02*
D03*
X939546Y407924D02*
D03*
X814578Y314452D02*
D03*
X941324Y317754D02*
D03*
X936244Y190754D02*
D03*
X804164Y188976D02*
D03*
X636270Y251460D02*
D03*
X681482Y287782D02*
D03*
X842264Y357378D02*
D03*
X814070Y408432D02*
D03*
X721360Y395224D02*
D03*
X721868Y445262D02*
D03*
X673354Y469138D02*
D03*
X600202Y579120D02*
D03*
X636778Y675386D02*
D03*
X635762Y721106D02*
D03*
X640842Y780796D02*
D03*
X715010Y780288D02*
D03*
X802386Y780796D02*
D03*
X914908Y780288D02*
D03*
X914146Y710946D02*
D03*
X802386Y711454D02*
D03*
X578612Y655320D02*
D03*
X607822Y653542D02*
D03*
X606044Y677164D02*
D03*
X607060Y665480D02*
D03*
X488442Y526034D02*
D03*
X180086Y564896D02*
D03*
X613829Y427276D02*
D03*
X578104Y361442D02*
D03*
X569722Y369570D02*
D03*
X575564Y378206D02*
D03*
X597154Y644398D02*
D03*
X624840Y625094D02*
D03*
X598678Y605790D02*
D03*
X576580Y527050D02*
D03*
X588772Y524002D02*
D03*
X562864Y530860D02*
D03*
X684530Y429514D02*
D03*
X659130Y435610D02*
D03*
X615188Y388874D02*
D03*
X650748Y290830D02*
D03*
X650494Y273304D02*
D03*
X597662Y245872D02*
D03*
X594106Y231140D02*
D03*
X516382Y300990D02*
D03*
X518922Y292100D02*
D03*
X479044Y246380D02*
D03*
X498602Y229362D02*
D03*
X472186Y229616D02*
D03*
X449326Y237490D02*
D03*
X313944Y355600D02*
D03*
X324612Y348234D02*
D03*
X409194Y349758D02*
D03*
X414274Y408178D02*
D03*
X411734Y422402D02*
D03*
X398272Y432308D02*
D03*
X386080Y500888D02*
D03*
X337820Y511810D02*
D03*
X182372Y634238D02*
D03*
X168656Y684784D02*
D03*
X149098Y685038D02*
D03*
X132080Y560832D02*
D03*
X179324Y614426D02*
D03*
X141732Y615696D02*
D03*
X159258Y473710D02*
D03*
X133096Y524256D02*
D03*
X165100Y430022D02*
D03*
X149098Y429260D02*
D03*
X166370Y367030D02*
D03*
X153670Y366268D02*
D03*
X100330Y325882D02*
D03*
X88392Y287528D02*
D03*
X48006Y134874D02*
D03*
X76962Y135128D02*
D03*
X115824Y132080D02*
D03*
X161798D02*
D03*
X207264Y158496D02*
D03*
X195834Y134620D02*
D03*
X206756Y175006D02*
D03*
X213106Y190500D02*
D03*
X75184Y221742D02*
D03*
X59690Y200152D02*
D03*
X785622Y216154D02*
D03*
Y273050D02*
D03*
X841756Y256794D02*
D03*
X840740Y241300D02*
D03*
X807974Y217424D02*
D03*
X840740Y229616D02*
D03*
X854964Y257556D02*
D03*
X854456Y243840D02*
D03*
X854710Y229108D02*
D03*
X808736Y271780D02*
D03*
X624078Y415290D02*
D03*
X647700Y434340D02*
D03*
X664210Y387858D02*
D03*
X653542Y384302D02*
D03*
X640842Y384556D02*
D03*
X620776Y397256D02*
D03*
X640334Y310134D02*
D03*
X655828Y308864D02*
D03*
X669544D02*
D03*
X673608Y332486D02*
D03*
X667258Y356616D02*
D03*
X655066Y359664D02*
D03*
X643128Y355346D02*
D03*
X626872Y447548D02*
D03*
X635762Y447802D02*
D03*
X336804Y482854D02*
D03*
X336296Y490220D02*
D03*
X580644Y519176D02*
D03*
X564896Y518922D02*
D03*
X488442Y509778D02*
D03*
X455168Y502666D02*
D03*
X433324Y523240D02*
D03*
X850138Y280162D02*
D03*
X791972Y344678D02*
D03*
Y378714D02*
D03*
X397002Y419862D02*
D03*
X183642Y210566D02*
D03*
Y227330D02*
D03*
X163068Y172974D02*
D03*
X636524Y494792D02*
D03*
X567944Y449326D02*
D03*
X646938Y460248D02*
D03*
X398018Y351028D02*
D03*
X398272Y407416D02*
D03*
X610363Y303021D02*
D03*
X612140Y281940D02*
D03*
X503428Y473710D02*
D03*
X572394Y260365D02*
D03*
X500888Y253492D02*
D03*
X398018Y464820D02*
D03*
X397685Y362379D02*
D03*
X592074Y256032D02*
D03*
X469646D02*
D03*
X447548Y257302D02*
D03*
X773938Y377698D02*
D03*
X334010Y284226D02*
D03*
X334772Y271272D02*
D03*
X271526Y284226D02*
D03*
X357124Y351536D02*
D03*
X341122Y351282D02*
D03*
X370840Y483870D02*
D03*
X336263Y499925D02*
D03*
X372077Y500179D02*
D03*
X345948Y519430D02*
D03*
X566420Y624840D02*
D03*
X607060Y624332D02*
D03*
X774446Y344932D02*
D03*
X778510Y261112D02*
D03*
X794258D02*
D03*
X778510Y227838D02*
D03*
X793496D02*
D03*
X847344Y398272D02*
D03*
X917786Y241510D02*
D03*
X854742Y202287D02*
D03*
X53340Y242824D02*
D03*
X59436Y174752D02*
D03*
X85852Y225044D02*
D03*
X89408Y274574D02*
D03*
X988060Y670052D02*
D03*
X839978Y662178D02*
D03*
X771906Y640334D02*
D03*
X767588Y530860D02*
D03*
X990854Y486410D02*
D03*
Y469646D02*
D03*
X833882Y521462D02*
D03*
X790956Y498602D02*
D03*
X772922Y482600D02*
D03*
X749300Y640842D02*
D03*
X708152Y642366D02*
D03*
X697738Y641350D02*
D03*
X641604Y566166D02*
D03*
Y549656D02*
D03*
X692912Y418338D02*
D03*
X692404Y400050D02*
D03*
X916636Y358902D02*
D03*
X852678Y320294D02*
D03*
X698754Y344424D02*
D03*
X699262Y321818D02*
D03*
X640080Y373634D02*
D03*
X647192Y282448D02*
D03*
X645922Y299974D02*
D03*
X580644Y369824D02*
D03*
X509524Y292100D02*
D03*
X592328Y239522D02*
D03*
X501142D02*
D03*
X468630Y239268D02*
D03*
X209804Y236220D02*
D03*
X209296Y201168D02*
D03*
X195253Y159766D02*
D03*
X267716Y155702D02*
D03*
X195284Y144277D02*
D03*
X115316Y220726D02*
D03*
X155194Y214122D02*
D03*
X170434Y205740D02*
D03*
X162560Y159766D02*
D03*
X162010Y144277D02*
D03*
X546354Y572008D02*
D03*
X486918Y572770D02*
D03*
X200406Y198628D02*
D03*
X462534Y648462D02*
D03*
X307594Y227330D02*
D03*
X492760Y729488D02*
D03*
X713994Y507492D02*
D03*
X698246Y507746D02*
D03*
X148590Y132080D02*
D03*
X638810Y633222D02*
D03*
X434086Y507746D02*
D03*
X477266Y307086D02*
D03*
X490474Y242316D02*
D03*
X484395Y295165D02*
D03*
X749300Y534670D02*
D03*
X498094Y293370D02*
D03*
X756666Y542544D02*
D03*
X753872Y555244D02*
D03*
X641350Y598932D02*
D03*
X641096Y516890D02*
D03*
X688848Y576072D02*
D03*
X526034Y727964D02*
D03*
X562356Y590550D02*
D03*
X522732Y650240D02*
D03*
X502920Y590042D02*
D03*
D74*
X116078Y322326D02*
D03*
X519575Y260357D02*
D03*
X570738Y467106D02*
D03*
X393700Y299720D02*
D03*
X422656Y304800D02*
D03*
X561164Y466266D02*
D03*
X576580Y186690D02*
D03*
X339090Y524510D02*
D03*
X351536Y656336D02*
D03*
X597154Y99060D02*
D03*
X501368Y184431D02*
D03*
X800862Y607314D02*
D03*
X753110Y732790D02*
D03*
X715264Y729996D02*
D03*
X406908Y304546D02*
D03*
X160020Y674624D02*
D03*
X160274Y634746D02*
D03*
X155702Y597916D02*
D03*
X155448Y530606D02*
D03*
Y557784D02*
D03*
X300990Y326898D02*
D03*
X300736Y312166D02*
D03*
X153162Y488950D02*
D03*
X159258Y408178D02*
D03*
X159766Y383032D02*
D03*
X18542Y235712D02*
D03*
X10922Y234442D02*
D03*
X17526Y223266D02*
D03*
X10414Y224028D02*
D03*
X188468Y184912D02*
D03*
X176022D02*
D03*
X59436Y141478D02*
D03*
X177800Y128778D02*
D03*
X90932Y137922D02*
D03*
X130048Y268478D02*
D03*
X313436Y337312D02*
D03*
X298450Y322480D02*
D03*
X411988Y304800D02*
D03*
X298450Y316940D02*
D03*
X417528Y304800D02*
D03*
X720598Y555498D02*
D03*
X615696Y364744D02*
D03*
X790956Y641350D02*
D03*
X810006Y640334D02*
D03*
X872490Y662178D02*
D03*
X580898Y424688D02*
D03*
X862584Y529082D02*
D03*
X796036Y451104D02*
D03*
X777494Y591058D02*
D03*
X772162Y596390D02*
D03*
X455422Y511810D02*
D03*
X464312Y512572D02*
D03*
X811022Y605536D02*
D03*
X811530Y561340D02*
D03*
X832358Y547410D02*
D03*
Y554950D02*
D03*
X551942Y465582D02*
D03*
X636016Y616458D02*
D03*
X638810Y582930D02*
D03*
X634492Y528066D02*
D03*
X606298Y470154D02*
D03*
X697992Y544882D02*
D03*
X742188Y608330D02*
D03*
X928370Y482346D02*
D03*
X738886Y618236D02*
D03*
X748284Y608330D02*
D03*
X774572Y524636D02*
D03*
X961644Y662940D02*
D03*
X962152Y500634D02*
D03*
X563880Y233680D02*
D03*
X558800Y238760D02*
D03*
X577850Y323850D02*
D03*
X557530Y254000D02*
D03*
X538330Y243840D02*
D03*
X438150Y200660D02*
D03*
X410210Y121920D02*
D03*
X403860Y125730D02*
D03*
D75*
X973328Y785876D02*
D03*
X176276Y767080D02*
D03*
X799592Y97536D02*
D03*
X72390Y62992D02*
D03*
D76*
X367806Y365760D02*
D03*
X384810Y279400D02*
D03*
X886206Y393192D02*
D03*
X855953Y332974D02*
D03*
X329939Y365258D02*
D03*
X367538Y472694D02*
D03*
X332232Y548640D02*
D03*
X530860Y101854D02*
D03*
X422910Y20574D02*
D03*
X311150D02*
D03*
X176022Y19050D02*
D03*
X142240Y25654D02*
D03*
X461010Y20574D02*
D03*
X563880Y99314D02*
D03*
X548640Y20574D02*
D03*
X415290Y222250D02*
D03*
X436880Y294640D02*
D03*
X170180Y241046D02*
D03*
X672592Y79248D02*
D03*
Y58928D02*
D03*
Y37338D02*
D03*
X637032Y109728D02*
D03*
X598424Y119380D02*
D03*
X415798Y582168D02*
D03*
X351536Y633476D02*
D03*
X429260Y100584D02*
D03*
X193040D02*
D03*
X140462Y481330D02*
D03*
X165354Y486918D02*
D03*
X146304Y600964D02*
D03*
X165100Y600456D02*
D03*
X411480Y647700D02*
D03*
X424434Y558038D02*
D03*
X329946Y373634D02*
D03*
X391160Y254000D02*
D03*
X368198Y374079D02*
D03*
X681482Y118618D02*
D03*
X165100Y531622D02*
D03*
X367030Y643128D02*
D03*
X398780Y21844D02*
D03*
X262890Y20574D02*
D03*
X146304Y552704D02*
D03*
X165862Y552958D02*
D03*
D77*
X897128Y275082D02*
D03*
X885698Y210820D02*
D03*
D78*
X740618Y575780D02*
D03*
Y587780D02*
D03*
M02*
